<svg width="50" height="50" viewBox="0 0 50 50" fill="none" xmlns="http://www.w3.org/2000/svg">
<g clip-path="url(#clip0_17870_1546)">
<path d="M41.2298 32.1282H12.0439V50H15.5691C16.0395 50 16.437 49.6415 16.4732 49.1726C16.8951 43.6642 21.4987 39.3257 27.1158 39.3257C33.0111 39.3257 37.7897 44.1048 37.7897 50H41.2298C41.7585 50 42.1873 49.5713 42.1873 49.0425V33.0857C42.1873 32.5569 41.7585 32.1282 41.2298 32.1282Z" fill="url(#paint0_linear_17870_1546)"/>
<path d="M38.0029 32.1282H8.81735C8.28864 32.1282 7.85986 32.5569 7.85986 33.0857V49.0425C7.85986 49.5713 8.28864 50 8.81735 50H12.2571C12.2571 44.1048 17.0361 39.3257 22.9314 39.3257C28.5481 39.3257 33.1517 43.6642 33.574 49.1726C33.6098 49.6415 34.0077 50 34.4781 50H38.0032V32.1282H38.0029Z" fill="url(#paint1_linear_17870_1546)"/>
<path d="M19.5698 32.1281H9.0634C8.3985 32.1281 7.85986 31.5891 7.85986 30.9242V21.4626C7.85986 20.7981 8.39888 20.2591 9.0634 20.2591H19.5698C20.2347 20.2591 20.7738 20.7981 20.7738 21.4626V30.9242C20.7738 31.5891 20.2347 32.1281 19.5698 32.1281Z" fill="url(#paint2_linear_17870_1546)"/>
<path d="M7.85986 26.4858V30.9242C7.85986 31.5891 8.3985 32.1282 9.0634 32.1282H19.5698C20.2347 32.1282 20.7734 31.5891 20.7734 30.9242V26.4858H7.85986Z" fill="url(#paint3_linear_17870_1546)"/>
<path d="M41.1147 32.1281H21.9775C21.3126 32.1281 20.7739 31.5891 20.7739 30.9242V21.4626C20.7739 20.7981 21.3126 20.2591 21.9775 20.2591H41.1147C41.7796 20.2591 42.3186 20.7981 42.3186 21.4626V30.9242C42.3186 31.5891 41.7796 32.1281 41.1147 32.1281Z" fill="url(#paint4_linear_17870_1546)"/>
<path d="M20.7739 26.4858V30.9242C20.7739 31.5891 21.3126 32.1282 21.9775 32.1282H41.1147C41.7796 32.1282 42.3186 31.5891 42.3186 30.9242V26.4858H20.7739Z" fill="url(#paint5_linear_17870_1546)"/>
<path d="M41.1145 20.2591H36.7993C37.4638 20.2591 38.0029 20.7981 38.0029 21.4626V30.9242C38.0029 31.5891 37.4638 32.1281 36.7993 32.1281H41.1145C41.7794 32.1281 42.3184 31.5891 42.3184 30.9242V21.4626C42.3184 20.7981 41.7794 20.2591 41.1145 20.2591Z" fill="url(#paint6_linear_17870_1546)"/>
<path d="M44.3955 18.8942L26.1868 0.498564C25.6046 -0.135058 24.6163 -0.16939 23.991 0.42227L5.82238 18.8537C5.28795 19.36 5.64615 20.2591 6.382 20.2591H43.7962C44.505 20.2591 44.875 19.416 44.3955 18.8942Z" fill="url(#paint7_linear_17870_1546)"/>
<path d="M44.5788 19.2139C44.5453 19.1013 44.485 18.9922 44.3953 18.8942L26.1866 0.498566C25.9536 0.244888 25.6553 0.0892487 25.3413 0.0293579L32.9753 20.2591H43.7957C44.0173 20.2591 44.2058 20.1767 44.3454 20.0478C44.5693 19.841 44.6681 19.5148 44.5788 19.2139Z" fill="url(#paint8_linear_17870_1546)"/>
<path d="M20.7738 30.9242V21.4626C20.7738 20.7981 20.2348 20.2591 19.5699 20.2591H9.06348L20.4969 31.6925C20.6697 31.4838 20.7738 31.2164 20.7738 30.9242Z" fill="url(#paint9_linear_17870_1546)"/>
<path d="M33.574 49.1726C33.6099 49.6415 34.0077 50 34.4777 50H38.0029V32.1282H8.81738L17.4996 40.81C19.0907 39.8674 20.9477 39.3257 22.9314 39.3257C28.5482 39.3257 33.1517 43.6642 33.574 49.1726Z" fill="url(#paint10_linear_17870_1546)"/>
</g>
<defs>
<linearGradient id="paint0_linear_17870_1546" x1="27.1156" y1="34.114" x2="27.1156" y2="43.098" gradientUnits="userSpaceOnUse">
<stop stop-color="#FFD459"/>
<stop offset="0.1917" stop-color="#FFD254"/>
<stop offset="0.4166" stop-color="#FFCD46"/>
<stop offset="0.6583" stop-color="#FFC52E"/>
<stop offset="0.9103" stop-color="#FFB90E"/>
<stop offset="1" stop-color="#FFB400"/>
</linearGradient>
<linearGradient id="paint1_linear_17870_1546" x1="18.5666" y1="28.5549" x2="27.6386" y2="53.7343" gradientUnits="userSpaceOnUse">
<stop stop-color="#FFD459"/>
<stop offset="0.1917" stop-color="#FFD254"/>
<stop offset="0.4166" stop-color="#FFCD46"/>
<stop offset="0.6583" stop-color="#FFC52E"/>
<stop offset="0.9103" stop-color="#FFB90E"/>
<stop offset="1" stop-color="#FFB400"/>
</linearGradient>
<linearGradient id="paint2_linear_17870_1546" x1="11.7202" y1="23.1685" x2="18.0384" y2="30.5295" gradientUnits="userSpaceOnUse">
<stop stop-color="#D3E843"/>
<stop offset="0.6244" stop-color="#A9C93C"/>
<stop offset="1" stop-color="#8DB437"/>
</linearGradient>
<linearGradient id="paint3_linear_17870_1546" x1="14.3167" y1="28.7267" x2="14.3167" y2="33.4965" gradientUnits="userSpaceOnUse">
<stop offset="0.0029" stop-color="#8DB437" stop-opacity="0"/>
<stop offset="0.4813" stop-color="#698927" stop-opacity="0.478431"/>
<stop offset="1" stop-color="#455F18"/>
</linearGradient>
<linearGradient id="paint4_linear_17870_1546" x1="28.0612" y1="22.1335" x2="36.5412" y2="32.013" gradientUnits="userSpaceOnUse">
<stop stop-color="#00C6F6"/>
<stop offset="0.8567" stop-color="#0B9CFD"/>
<stop offset="1" stop-color="#0D94FE"/>
</linearGradient>
<linearGradient id="paint5_linear_17870_1546" x1="31.5461" y1="28.7267" x2="31.5461" y2="33.4965" gradientUnits="userSpaceOnUse">
<stop stop-color="#0D94FE" stop-opacity="0"/>
<stop offset="0.5142" stop-color="#0681CD" stop-opacity="0.513725"/>
<stop offset="1" stop-color="#0070A2"/>
</linearGradient>
<linearGradient id="paint6_linear_17870_1546" x1="41.2494" y1="21.3499" x2="36.3556" y2="33.9568" gradientUnits="userSpaceOnUse">
<stop stop-color="#0D94FE" stop-opacity="0"/>
<stop offset="0.5142" stop-color="#0681CD" stop-opacity="0.513725"/>
<stop offset="1" stop-color="#0070A2"/>
</linearGradient>
<linearGradient id="paint7_linear_17870_1546" x1="19.3017" y1="-0.428712" x2="30.0989" y2="36.6419" gradientUnits="userSpaceOnUse">
<stop stop-color="#FF706A"/>
<stop offset="0.8111" stop-color="#F64640"/>
<stop offset="1" stop-color="#F43B36"/>
</linearGradient>
<linearGradient id="paint8_linear_17870_1546" x1="34.9682" y1="9.81625" x2="31.7515" y2="25.5501" gradientUnits="userSpaceOnUse">
<stop stop-color="#F43B36" stop-opacity="0"/>
<stop offset="0.436" stop-color="#D02021" stop-opacity="0.435294"/>
<stop offset="1" stop-color="#A60108"/>
</linearGradient>
<linearGradient id="paint9_linear_17870_1546" x1="19.0031" y1="25.6657" x2="4.42807" y2="7.75717" gradientUnits="userSpaceOnUse">
<stop offset="0.0029" stop-color="#8DB437" stop-opacity="0"/>
<stop offset="0.4813" stop-color="#698927" stop-opacity="0.478431"/>
<stop offset="1" stop-color="#455F18"/>
</linearGradient>
<linearGradient id="paint10_linear_17870_1546" x1="24.1489" y1="38.3827" x2="21.0637" y2="12.2646" gradientUnits="userSpaceOnUse">
<stop stop-color="#E58200" stop-opacity="0"/>
<stop offset="0.0396" stop-color="#E27F04" stop-opacity="0.039216"/>
<stop offset="0.4671" stop-color="#C15D2F" stop-opacity="0.466667"/>
<stop offset="0.8016" stop-color="#AD4949" stop-opacity="0.8"/>
<stop offset="1" stop-color="#A64153"/>
</linearGradient>
<clipPath id="clip0_17870_1546">
<rect width="50" height="50" fill="white"/>
</clipPath>
</defs>
</svg>
