<svg width="60" height="60" viewBox="0 0 60 60" fill="none" xmlns="http://www.w3.org/2000/svg">
<path d="M52.2267 31.4692V33.9039C44.9495 40.9445 36.8745 46.9685 29.8525 54.2802C29.8525 52.4839 29.8525 51.6771 29.8525 50.157C37.348 43.8922 45.236 38.3279 52.2267 31.4692Z" fill="#4EC3C7"/>
<path d="M8.67529 32.1575V34.5317C15.6137 41.2944 23.2341 47.181 29.8527 54.2803C29.8527 52.4841 29.8527 51.6772 29.8527 50.1571C22.9185 43.9424 15.3297 38.7029 8.67529 32.1575Z" fill="#81D0D3"/>
<path d="M52.2272 31.4686C49.9897 33.8083 48.871 34.8854 46.6336 36.815C41.0831 41.3255 35.351 45.5819 29.8527 50.1569C24.6496 45.7386 19.2212 41.6245 13.9391 37.3026C12.2229 35.8208 11.3649 35.041 9.64854 33.3083C9.25924 32.9155 9.06459 32.7153 8.67529 32.3061C15.7784 30.6697 22.8859 29.0564 30 27.4684C35.1915 28.3896 40.3817 29.318 45.5706 30.2542C48.2331 30.7369 49.5645 30.9797 52.2272 31.4686Z" fill="#A6FCFF"/>
<path opacity="0.1" d="M52.2272 31.4686C49.9897 33.8083 48.8709 34.8854 46.6336 36.815C45.3591 37.0118 44.7218 37.1093 43.4473 37.3026C39.9364 39.8416 38.1811 40.9209 34.6704 43.1811C32.8022 43.275 31.8681 43.322 30 43.4158C35.598 39.4 40.6672 35.0888 45.5706 30.254C48.2331 30.7368 49.5645 30.9797 52.2272 31.4686Z" fill="#1A0000"/>
<path d="M30 39.6092V43.4161C36.5128 39.2661 42.5176 34.8477 48.3122 29.7477C48.3198 28.6806 48.3237 28.1545 48.3313 27.1122C42.3012 31.4751 36.4793 35.9046 30 39.6092Z" fill="#B39F89"/>
<path d="M30.0001 22.475V25.0215C30.0001 25.0215 25.9709 25.1789 20.9464 23.652C17.9937 22.7547 14.6946 21.2799 11.6689 18.8647C11.6689 18.1036 11.6689 17.7232 11.6689 16.9608C11.6689 16.9608 12.1607 17.3516 13.0972 17.9253C14.4033 18.7262 16.5778 19.88 19.4918 20.8259C22.3283 21.7469 25.8715 22.475 30.0001 22.475Z" fill="#C7B299"/>
<path d="M19.2398 15.9276C19.1352 16.4163 19.069 16.9175 19.0424 17.4276C17.3798 17.7482 16.5486 17.9083 14.8859 18.2286C13.8493 17.6346 13.3457 17.2045 13.3457 17.2045C15.7034 16.6944 16.8822 16.4391 19.2398 15.9276Z" fill="#B8A48D"/>
<path d="M19.2955 20.1305C17.3298 19.5007 15.8693 18.7913 14.8857 18.2286C16.5484 17.9083 17.3796 17.7482 19.0423 17.4276C19.0349 17.5882 19.0304 17.75 19.0304 17.9131C19.0304 18.6746 19.1217 19.4163 19.2955 20.1305Z" fill="#9E8D79"/>
<path d="M30.0002 21.681V22.475C25.8716 22.475 22.3284 21.7471 19.4918 20.8261C17.1281 20.0587 15.2487 19.1501 13.9291 18.4121C13.6223 18.2406 13.3443 18.0765 13.0972 17.9255C12.1611 17.3531 11.6689 16.9609 11.6689 16.9609C14.7604 16.3002 16.3061 15.9696 19.3976 15.306C19.3372 15.511 19.2857 15.7187 19.2415 15.9276C19.2409 15.9276 19.2405 15.9276 19.24 15.9276C16.8824 16.4392 15.7036 16.6945 13.346 17.2045C13.346 17.2045 13.8497 17.6351 14.8862 18.2286C15.8692 18.7916 17.3309 19.5005 19.296 20.1306C21.937 20.9774 25.4858 21.681 30.0002 21.681Z" fill="#EBD1B5"/>
<path d="M30.0001 25.0215V37.0834C25.1413 37.0834 21.6575 36.6593 18.6642 33.904C15.8661 31.3283 14.467 29.7848 11.6689 27.1122C11.6689 23.7382 11.6689 22.1258 11.6689 18.8649C14.6947 21.2802 17.9937 22.755 20.9464 23.6523C25.9709 25.1789 30.0001 25.0215 30.0001 25.0215Z" fill="#C7B299"/>
<path d="M30.0002 39.6092V43.4161C23.4846 39.315 17.4693 34.836 11.688 29.7477C11.6804 28.6806 11.6766 28.1545 11.6689 27.1122C17.6735 31.4849 23.4957 35.9819 30.0002 39.6092Z" fill="#C7B299"/>
<path opacity="0.1" d="M19.3221 36.1692C19.3221 36.1692 15.4557 37.0545 13.939 37.3027C12.2228 35.8209 11.3648 35.0411 9.64844 33.3084C12.8977 33.9972 14.5224 34.329 17.7716 34.9727C17.4995 34.0231 17.3635 33.5278 17.0914 32.4764C17.9837 34.0705 18.4299 34.7955 19.3221 36.1692Z" fill="#1A0000"/>
<path d="M30 29.3151V37.0832C29.2402 37.0832 28.5158 37.0701 27.8193 37.0377C27.8193 37.0377 27.8193 33.6771 27.8193 32.174C27.8193 30.6696 28.3803 29.3151 30 29.3151Z" fill="#534741"/>
<path d="M30 37.0834V37.0857V39.6091C25.8001 38.555 21.688 36.8869 18.6641 33.9039C19.5799 34.7469 20.5428 35.3529 21.5779 35.8063C22.6748 36.2872 23.8543 36.5926 25.1411 36.7873C25.9827 36.9147 26.8741 36.9934 27.8195 37.0378C28.5158 37.0702 29.2402 37.0834 30 37.0834Z" fill="#EBD1B5"/>
<path d="M22.735 28.8773C22.2624 29.4242 22.2153 30.5382 22.2153 31.4407V35.5119C21.9603 35.6302 21.8328 35.6891 21.5776 35.8061C21.5776 35.8061 21.5776 33.2535 21.5776 31.7828C21.5776 30.5723 21.6617 28.9858 22.735 28.8773Z" fill="#8F7F6E"/>
<path d="M25.1413 36.3948V36.7873C23.853 36.5937 22.675 36.2872 21.5781 35.8063C21.8331 35.6892 21.9606 35.6304 22.2157 35.512C23.1285 35.9173 24.0973 36.1996 25.1413 36.3948Z" fill="#998675"/>
<path d="M25.1414 32.4922V36.3948C24.0975 36.1996 23.1286 35.9173 22.2158 35.512C22.2158 35.512 22.2158 32.906 22.2158 31.4408C22.2158 30.5382 22.2629 29.4243 22.7355 28.8775C22.9652 28.8546 23.241 28.8987 23.5704 29.0289C24.8933 29.552 25.1414 31.0359 25.1414 32.4922Z" fill="#534741"/>
<path d="M15.0422 23.8199C14.9332 24.0718 14.8861 24.4824 14.8861 25.027V29.3152C14.5133 29.3152 14.3269 29.3152 13.9541 29.3152C13.9541 29.3152 13.9541 26.4407 13.9541 25.027C13.9541 23.6855 14.2383 23.1468 15.0422 23.8199Z" fill="#8F7F6E"/>
<path d="M16.0861 30.4903V31.4129C15.2333 30.5645 14.8069 30.1454 13.9541 29.3151H14.8861C15.3661 29.7825 15.6061 30.0174 16.0861 30.4903Z" fill="#998675"/>
<path d="M16.0857 26.8102V30.4903C15.6057 30.0175 15.3657 29.7825 14.8857 29.3152C14.8857 29.3152 14.8857 26.4407 14.8857 25.027C14.8857 24.4823 14.9329 24.072 15.0418 23.8199C15.086 23.8557 15.1302 23.8957 15.1773 23.9398C16.0849 24.7883 16.0857 25.4071 16.0857 26.8102Z" fill="#534741"/>
<path d="M40.9695 17.9137C40.9695 18.6743 40.8779 19.4165 40.7048 20.1311C38.0921 20.9688 34.5936 21.6664 30.1504 21.6809C30.0902 21.6809 30.0601 21.6809 29.9998 21.6809C25.4857 21.6809 21.937 20.9785 19.295 20.1311C19.1219 19.4165 19.0303 18.6743 19.0303 17.9137C19.0303 17.7507 19.0348 17.5871 19.0423 17.4279C19.0632 16.985 19.1184 16.545 19.2015 16.1154C19.2136 16.0528 19.2257 15.9903 19.2395 15.9277H19.2412C19.2845 15.7193 19.3378 15.5097 19.397 15.3064C19.5196 14.885 19.6668 14.4697 19.8433 14.0675C19.2516 15.985 23.5201 16.9609 29.9997 16.9609C31.7386 16.9609 33.3185 16.8903 34.6886 16.7497C38.4201 16.3667 40.5887 15.4713 40.1561 14.0675C40.3326 14.4697 40.4799 14.885 40.6025 15.3064C40.6618 15.5098 40.715 15.7193 40.7582 15.9277H40.76C40.7738 15.9903 40.7859 16.0529 40.7981 16.1154C40.8812 16.545 40.9365 16.985 40.9572 17.4279C40.965 17.5871 40.9695 17.7507 40.9695 17.9137Z" fill="#C7B299"/>
<path d="M23.8231 18.4049C23.758 18.5969 23.7582 18.8369 23.8396 19.0783C23.6197 19.1416 23.5098 19.1731 23.2898 19.2364C23.1402 18.793 23.1389 18.3516 23.2589 17.9977C23.4846 18.1605 23.5974 18.242 23.8231 18.4049Z" fill="#00A99D"/>
<path d="M23.3904 19.0649C23.3132 18.7788 23.2987 18.4931 23.3478 18.2346C23.4711 18.3235 23.5328 18.368 23.656 18.457C23.6177 18.6226 23.6197 18.8048 23.6616 18.9871C23.553 19.0182 23.4989 19.0338 23.3904 19.0649Z" fill="#00CCBD"/>
<path d="M24.2405 19.6413C24.1549 19.8937 24.1121 20.0199 24.0264 20.2726C23.7099 20.044 23.4396 19.6797 23.29 19.2364C23.51 19.1731 23.6199 19.1415 23.8399 19.0783C23.9213 19.3196 24.0689 19.5173 24.2405 19.6413Z" fill="#00A99D"/>
<path d="M23.9538 20.0307C23.7545 19.8436 23.5905 19.6007 23.478 19.3246C23.5865 19.2934 23.6408 19.2778 23.7492 19.2466C23.8269 19.4188 23.9374 19.5698 24.0708 19.686C24.024 19.8238 24.0006 19.8928 23.9538 20.0307Z" fill="#00CCBD"/>
<path d="M25.7007 18.543C25.8504 18.9864 25.8517 19.4278 25.7317 19.7817C25.506 19.6188 25.3931 19.5374 25.1674 19.3746C25.2326 19.1825 25.2323 18.9425 25.1509 18.7011C25.3708 18.638 25.4808 18.6063 25.7007 18.543Z" fill="#00A99D"/>
<path d="M25.3346 19.3226C25.3729 19.157 25.3709 18.9748 25.3291 18.7924C25.4376 18.7612 25.4918 18.7456 25.6003 18.7145C25.6775 19.0006 25.6919 19.2864 25.6428 19.5449C25.5195 19.4559 25.4579 19.4114 25.3346 19.3226Z" fill="#00CCBD"/>
<path d="M25.701 18.543C25.481 18.6063 25.3711 18.6378 25.1512 18.7011C25.0697 18.4597 24.9223 18.262 24.7505 18.1381C24.8362 17.8857 24.8789 17.7595 24.9646 17.507C25.2811 17.7355 25.5515 18.0997 25.701 18.543Z" fill="#00A99D"/>
<path d="M25.2415 18.5328C25.1638 18.3608 25.0533 18.2096 24.9199 18.0936C24.9667 17.9557 24.99 17.8868 25.0369 17.7488C25.2363 17.936 25.4002 18.1789 25.5127 18.4549C25.4041 18.4861 25.3499 18.5017 25.2415 18.5328Z" fill="#00CCBD"/>
<path d="M24.9646 17.5071C24.8789 17.7596 24.8361 17.8858 24.7505 18.1383C24.5788 18.0144 24.3816 17.9634 24.2005 18.0154C24.1016 17.722 24.052 17.5753 23.9531 17.2817C24.2864 17.1856 24.6485 17.2796 24.9646 17.5071Z" fill="#00A99D"/>
<path d="M24.6666 17.93C24.5616 17.8833 24.453 17.8591 24.3456 17.8591C24.3311 17.8591 24.3167 17.8595 24.3021 17.8604C24.2379 17.6699 24.2058 17.5746 24.1416 17.3841C24.1676 17.3815 24.1939 17.3803 24.2202 17.3803C24.4077 17.3803 24.6038 17.4421 24.7922 17.5595C24.7421 17.7077 24.7169 17.7819 24.6666 17.93Z" fill="#00CCBD"/>
<path d="M23.9529 17.2816C24.0518 17.5753 24.1014 17.722 24.2003 18.0153C24.0192 18.0674 23.8882 18.2128 23.823 18.4047C23.5973 18.242 23.4845 18.1605 23.2588 17.9976C23.3793 17.6449 23.6195 17.3776 23.9529 17.2816Z" fill="#00A99D"/>
<path d="M23.4326 17.9506C23.5278 17.7259 23.6755 17.5585 23.8604 17.4649C23.9246 17.6555 23.9567 17.7506 24.0208 17.941C23.9167 17.9979 23.8294 18.0822 23.7636 18.1895C23.6312 18.094 23.565 18.0462 23.4326 17.9506Z" fill="#00CCBD"/>
<path d="M24.7904 19.7641C24.8893 20.0575 24.9389 20.2043 25.0378 20.4981C24.7045 20.594 24.3424 20.4999 24.0264 20.2726C24.112 20.0199 24.1548 19.8937 24.2405 19.6413C24.4121 19.7652 24.6094 19.8163 24.7904 19.7641Z" fill="#00A99D"/>
<path d="M24.7702 20.3993C24.5827 20.3993 24.3867 20.3375 24.1982 20.22C24.2485 20.0717 24.2736 19.9975 24.3239 19.8493C24.4289 19.8961 24.5375 19.9202 24.6448 19.9202C24.6593 19.9202 24.6738 19.9197 24.6882 19.9188C24.7524 20.1093 24.7845 20.2046 24.8488 20.3953C24.8229 20.398 24.7966 20.3993 24.7702 20.3993Z" fill="#00CCBD"/>
<path d="M25.732 19.7818C25.6115 20.1346 25.3713 20.4021 25.0379 20.498C24.939 20.2043 24.8894 20.0575 24.7905 19.7641C24.9716 19.712 25.1026 19.5666 25.1678 19.3746C25.3935 19.5375 25.5063 19.6188 25.732 19.7818Z" fill="#00A99D"/>
<path d="M24.9697 19.8384C25.0738 19.7816 25.1611 19.6971 25.227 19.59C25.3594 19.6856 25.4256 19.7333 25.5579 19.8289C25.4627 20.0537 25.315 20.2211 25.1302 20.3147C25.0661 20.1241 25.0339 20.0288 24.9697 19.8384Z" fill="#00CCBD"/>
<path d="M20.188 17.3313C20.131 17.5056 20.1223 17.7334 20.1759 17.9725C20.005 18.0052 19.9195 18.0215 19.7486 18.0541C19.6502 17.6149 19.6654 17.1955 19.7704 16.8743C19.9374 17.0572 20.021 17.1485 20.188 17.3313Z" fill="#00A99D"/>
<path d="M19.8659 17.8929C19.8226 17.6402 19.8175 17.3944 19.8506 17.1733C19.9207 17.2501 19.9557 17.2884 20.0259 17.3652C19.9889 17.5163 19.9825 17.6886 20.0072 17.8659C19.9507 17.8767 19.9224 17.8821 19.8659 17.8929Z" fill="#00CCBD"/>
<path d="M20.4623 18.5565C20.3874 18.7851 20.3501 18.8995 20.2751 19.1282C20.0409 18.8723 19.847 18.4934 19.7485 18.0541C19.9194 18.0214 20.0049 18.0051 20.1758 17.9725C20.2295 18.2117 20.3353 18.4176 20.4623 18.5565Z" fill="#00A99D"/>
<path d="M20.2205 18.8247C20.0952 18.6343 19.9943 18.4068 19.9258 18.1591C19.9823 18.1483 20.0105 18.1429 20.0669 18.1321C20.1205 18.3038 20.2004 18.4597 20.2991 18.5847C20.2677 18.6807 20.2519 18.7287 20.2205 18.8247Z" fill="#00CCBD"/>
<path d="M21.622 17.6964C21.7204 18.1358 21.7052 18.5546 21.6002 18.8753C21.4332 18.6927 21.3496 18.6015 21.1826 18.4189C21.2396 18.2449 21.2482 18.0172 21.1947 17.7779C21.3655 17.7453 21.451 17.729 21.622 17.6964Z" fill="#00A99D"/>
<path d="M21.3442 18.3851C21.3812 18.2341 21.3875 18.0619 21.363 17.8847C21.4195 17.8739 21.4477 17.8685 21.5041 17.8577C21.5474 18.1104 21.5525 18.356 21.5194 18.5767C21.4495 18.5 21.4143 18.4617 21.3442 18.3851Z" fill="#00CCBD"/>
<path d="M21.6219 17.6963C21.451 17.729 21.3655 17.7453 21.1946 17.778C21.1411 17.5387 21.0352 17.3327 20.9082 17.1936C20.9831 16.9646 21.0205 16.85 21.0955 16.6208C21.3296 16.8772 21.5234 17.2569 21.6219 17.6963Z" fill="#00A99D"/>
<path d="M21.3034 17.6183C21.2498 17.4466 21.17 17.2906 21.0713 17.1654C21.1027 17.0693 21.1184 17.0211 21.1498 16.9249C21.2751 17.1157 21.376 17.3434 21.4445 17.5914C21.3882 17.6022 21.3599 17.6075 21.3034 17.6183Z" fill="#00CCBD"/>
<path d="M21.0957 16.6207C21.0208 16.8499 20.9833 16.9645 20.9085 17.1935C20.7814 17.0544 20.632 16.9814 20.4914 17.0083C20.4262 16.7174 20.3938 16.5717 20.3286 16.2803C20.5877 16.2307 20.8618 16.3652 21.0957 16.6207Z" fill="#00A99D"/>
<path d="M20.8338 16.9507C20.7614 16.9074 20.6861 16.8802 20.6107 16.8706C20.5697 16.6875 20.5493 16.5958 20.5083 16.4124C20.6455 16.4344 20.7915 16.5181 20.9306 16.6545C20.892 16.7729 20.8726 16.8322 20.8338 16.9507Z" fill="#00CCBD"/>
<path d="M20.3282 16.2803C20.3933 16.5717 20.4258 16.7174 20.491 17.0084C20.3502 17.0353 20.2445 17.1571 20.1876 17.3312C20.0206 17.1485 19.937 17.0571 19.77 16.8742C19.8753 16.5541 20.0692 16.3298 20.3282 16.2803Z" fill="#00A99D"/>
<path d="M19.936 16.8446C20.0056 16.6665 20.1031 16.5375 20.22 16.4673C20.2609 16.6506 20.2814 16.7422 20.3223 16.9253C20.2569 16.9615 20.1995 17.0137 20.1514 17.0804C20.0653 16.9862 20.0222 16.9391 19.936 16.8446Z" fill="#00CCBD"/>
<path d="M20.8792 18.7414C20.9444 19.032 20.977 19.1773 21.042 19.4679C20.783 19.5173 20.5089 19.3832 20.2749 19.1284C20.3498 18.8998 20.3873 18.7854 20.4622 18.5566C20.5892 18.6954 20.7386 18.7683 20.8792 18.7414Z" fill="#00A99D"/>
<path d="M20.8623 19.336C20.7251 19.314 20.5789 19.2306 20.4399 19.0946C20.4787 18.9764 20.4981 18.9172 20.5367 18.7991C20.6092 18.8422 20.6845 18.8694 20.7599 18.879C20.8008 19.0618 20.8213 19.1532 20.8623 19.336Z" fill="#00CCBD"/>
<path d="M21.6003 18.8753C21.4951 19.1948 21.3012 19.4183 21.0422 19.4678C20.9771 19.1771 20.9446 19.0319 20.8794 18.7413C21.0201 18.7145 21.1258 18.593 21.1828 18.4188C21.3498 18.6015 21.4333 18.6927 21.6003 18.8753Z" fill="#00A99D"/>
<path d="M21.0483 18.8244C21.1137 18.7882 21.1712 18.7361 21.2192 18.6694C21.3053 18.7635 21.3485 18.8107 21.4346 18.9048C21.365 19.0826 21.2675 19.2112 21.1506 19.2813C21.1097 19.0985 21.0892 19.0071 21.0483 18.8244Z" fill="#00CCBD"/>
<path d="M29.1931 18.6976C28.987 18.8879 28.8589 19.1516 28.8589 19.4424C28.4761 19.4424 28.2847 19.4424 27.9019 19.4424C27.9019 18.9082 28.136 18.423 28.5158 18.0723C28.7867 18.3225 28.9222 18.4475 29.1931 18.6976Z" fill="#00A99D"/>
<path d="M28.0547 19.3065C28.0855 18.9212 28.2472 18.5603 28.5199 18.2681C28.7084 18.442 28.8026 18.529 28.991 18.703C28.8405 18.8773 28.7473 19.0852 28.7202 19.3065C28.4539 19.3065 28.3209 19.3065 28.0547 19.3065Z" fill="#00CCBD"/>
<path d="M29.1931 20.1876C28.9222 20.4379 28.7867 20.5632 28.5158 20.8138C28.1359 20.4623 27.9019 19.9766 27.9019 19.4423H28.8589C28.8588 19.7334 28.987 19.9972 29.1931 20.1876Z" fill="#00A99D"/>
<path d="M28.5199 20.6177C28.2472 20.3251 28.0855 19.9638 28.0547 19.5784H28.7202C28.7473 19.7999 28.8405 20.0079 28.991 20.1822C28.8026 20.3564 28.7084 20.4434 28.5199 20.6177Z" fill="#00CCBD"/>
<path d="M29.9998 17.5052V18.389C29.6847 18.389 29.3991 18.5073 29.193 18.6976C28.922 18.4475 28.7866 18.3225 28.5156 18.0723C28.8955 17.7228 29.4197 17.5052 29.9998 17.5052Z" fill="#00A99D"/>
<path d="M28.728 18.076C29.0455 17.8243 29.4363 17.6749 29.8527 17.6463V18.2607C29.6129 18.2858 29.3877 18.3718 29.1989 18.5108C29.0104 18.3369 28.9163 18.2499 28.728 18.076Z" fill="#00CCBD"/>
<path d="M29.9998 20.4967V21.3822C29.4197 21.3822 28.8955 21.1639 28.5156 20.8139C28.7866 20.5633 28.922 20.4381 29.193 20.1877C29.3991 20.3782 29.6847 20.4967 29.9998 20.4967Z" fill="#00A99D"/>
<path d="M29.8527 21.2406C29.4363 21.2121 29.0455 21.0623 28.728 20.8101C28.9163 20.6358 29.0106 20.5488 29.1989 20.3746C29.3877 20.5137 29.6129 20.6 29.8527 20.6249V21.2406Z" fill="#00CCBD"/>
<path d="M17.0913 32.4764C17.3636 33.528 17.4997 34.0235 17.772 34.9731C16.6799 35.312 16.1339 35.4784 15.0419 35.8063C15.0419 35.8063 15.4139 34.5716 13.537 34.4891C12.7133 34.4529 11.4522 34.6537 9.53369 35.2668C9.53369 34.8483 9.53369 34.6346 9.53369 34.1976C9.53838 34.1966 9.54072 34.196 9.54541 34.1949C10.7263 33.9351 11.3167 33.8035 12.4976 33.5366C14.335 33.1216 15.2537 32.9099 17.0913 32.4764Z" fill="#A89481"/>
<path d="M15.0419 35.8063C14.4399 35.2929 14.1391 35.0301 13.5371 34.4891C15.4159 34.5698 15.0419 35.8063 15.0419 35.8063Z" fill="#534741"/>
<path d="M9.53379 35.2673C8.12027 33.7917 7.41352 32.9628 6 31.2803C6 30.9097 6 30.7255 6 30.3585C7.41855 31.9139 8.12777 32.7476 9.54621 34.1863C9.54129 34.6283 9.53871 34.8442 9.53379 35.2673Z" fill="#C7B299"/>
<path d="M6 30.3583C8.92488 29.6864 10.3874 29.3534 13.3123 28.6921C14.8236 30.1812 15.5794 30.9748 17.0907 32.4762C14.0729 33.1848 12.564 33.5255 9.54621 34.1861C8.12777 32.7474 7.41855 31.9139 6 30.3583Z" fill="#EBD1B5"/>
<path d="M48.3313 16.9609V18.8648C45.3055 21.2801 42.0074 22.7553 39.0538 23.6522C38.799 23.7292 38.5471 23.8023 38.2999 23.871C33.634 25.167 30 25.0215 30 25.0215C30 23.996 30 23.4878 30 22.475C33.1229 22.475 35.9116 22.0588 38.3116 21.4571C38.3116 21.4571 38.313 21.4571 38.3146 21.4557C39.0875 21.262 39.8194 21.0494 40.5084 20.8261C43.4237 19.8808 45.597 18.7263 46.903 17.9254C47.8395 17.3516 48.3313 16.9609 48.3313 16.9609Z" fill="#C7B299"/>
<path d="M40.7603 15.9276C40.8648 16.4163 40.931 16.9175 40.9576 17.4276C42.6203 17.7482 43.4515 17.9083 45.1141 18.2286C46.1506 17.6346 46.6542 17.2045 46.6542 17.2045C44.2966 16.6944 43.1178 16.4391 40.7603 15.9276Z" fill="#B8A48D"/>
<path d="M40.7041 20.1305C42.6698 19.5007 44.1303 18.7913 45.114 18.2286C43.4513 17.9083 42.62 17.7482 40.9575 17.4276C40.9648 17.5882 40.9693 17.75 40.9693 17.9131C40.9692 18.6746 40.8779 19.4163 40.7041 20.1305Z" fill="#9E8D79"/>
<path d="M30 21.681V22.475C34.1285 22.475 37.6718 21.7471 40.5084 20.8261C42.8721 20.0587 44.7516 19.1501 46.0711 18.4121C46.3779 18.2406 46.656 18.0765 46.903 17.9255C47.8391 17.3531 48.3313 16.9609 48.3313 16.9609C45.2399 16.3002 43.6942 15.9696 40.6027 15.306C40.663 15.511 40.7146 15.7187 40.7588 15.9276H40.7603C43.1179 16.4392 44.2966 16.6945 46.6542 17.2045C46.6542 17.2045 46.1505 17.6351 45.1141 18.2286C44.1311 18.7916 42.6695 19.5005 40.7043 20.1306C38.0632 20.9774 34.5143 21.681 30 21.681Z" fill="#EBD1B5"/>
<path d="M48.3313 18.8648V27.1121C45.5332 29.7847 44.1341 31.3282 41.336 33.9038C41.2741 33.9608 41.2118 34.0161 41.1505 34.07C41.0975 34.1166 41.0445 34.1641 40.99 34.2083C40.9458 34.2471 40.8991 34.2843 40.8545 34.3218C40.8266 34.3452 40.797 34.3686 40.7691 34.391C40.668 34.4721 40.5659 34.55 40.4629 34.6264C40.4039 34.6699 40.3436 34.7131 40.2847 34.7551C40.1655 34.8402 40.0436 34.922 39.924 35C39.8652 35.0383 39.8047 35.0764 39.7444 35.1138C39.6796 35.1538 39.6148 35.1924 39.55 35.231C39.4911 35.2657 39.4317 35.3001 39.3718 35.3335C39.1867 35.4369 38.9978 35.5363 38.8078 35.6286C38.7431 35.6602 38.6786 35.6901 38.6149 35.7195C38.5521 35.7486 38.4864 35.7785 38.422 35.8064C37.9127 36.0269 37.3811 36.2168 36.8318 36.3716C36.6786 36.4146 36.5241 36.455 36.368 36.493C36.2576 36.5199 36.1472 36.5456 36.0353 36.5711C36.0294 36.5723 36.0234 36.5735 36.0176 36.5748C35.9003 36.5997 35.7811 36.6241 35.6612 36.6479C35.5425 36.6713 35.421 36.6945 35.3005 36.7159C35.1553 36.7416 35.0075 36.7655 34.8588 36.7873C34.7529 36.803 34.6467 36.819 34.5408 36.8333C34.2982 36.8662 34.0519 36.8948 33.8002 36.9201C33.7928 36.9213 33.7855 36.9225 33.7781 36.9225C33.653 36.9345 33.5264 36.9466 33.3997 36.9574C33.0036 36.991 32.5972 37.0174 32.1806 37.0378C31.9023 37.051 31.6181 37.0605 31.331 37.0677C31.1866 37.0713 31.041 37.0736 30.8952 37.0761C30.7745 37.0784 30.6523 37.0797 30.53 37.0809C30.4475 37.0821 30.3646 37.0816 30.2827 37.0821C30.1904 37.0827 30.0942 37.0832 30 37.0832C30 32.8934 30 29.8719 30 25.0214C30 25.0214 33.6309 25.1652 38.2998 23.8708C38.5472 23.8019 38.7991 23.7291 39.0537 23.652C42.0062 22.7573 45.3055 21.28 48.3313 18.8648Z" fill="#C7B299"/>
<path opacity="0.1" d="M48.3313 16.9609V27.1121C45.5332 29.7847 44.1341 31.3282 41.3361 33.9038C41.2742 33.9608 41.2115 34.0161 41.1505 34.07C39.9545 35.1273 38.6857 36.0745 37.3135 36.8719C34.7897 36.9443 32.1807 37.0378 32.1807 37.0378C36.9044 35.325 38.099 28.128 38.2998 23.871C38.3097 23.664 38.3117 23.4568 38.3117 23.2522C38.3117 21.9246 38.3117 21.4571 38.3117 21.4571C38.3117 21.4571 38.3131 21.4571 38.3146 21.4557C39.0876 21.262 39.8194 21.0494 40.5085 20.8261C43.4237 19.8808 45.597 18.7263 46.903 17.9254C47.8395 17.3516 48.3313 16.9609 48.3313 16.9609Z" fill="#1A0000"/>
<path d="M30 29.3151V37.0832C30.7597 37.0832 31.4842 37.0701 32.1806 37.0377C32.1806 37.0377 32.1806 33.6771 32.1806 32.174C32.1806 30.6696 31.6196 29.3151 30 29.3151Z" fill="#534741"/>
<path d="M41.0709 34.1399C41.0709 34.1399 38.6562 36.0926 37.3134 36.8718C35.177 38.1118 32.7844 39.0347 30 39.6091C30 38.636 30 38.138 30 37.0858C30 37.0858 30 37.0846 30 37.0834C30.0942 37.0834 30.1905 37.0828 30.2827 37.0822C30.3646 37.0817 30.4478 37.082 30.53 37.0811C30.6519 37.0797 30.7746 37.0785 30.8952 37.0763C31.0407 37.0736 31.1866 37.0715 31.331 37.0678C31.6181 37.0607 31.9024 37.0509 32.1806 37.0379C32.597 37.0185 33.006 36.9895 33.3997 36.9575C33.527 36.9471 33.653 36.9359 33.7781 36.9226C33.7855 36.9226 33.7929 36.9215 33.8002 36.9203C34.0505 36.895 34.2979 36.866 34.5408 36.8334C34.6468 36.8189 34.7528 36.8032 34.8588 36.7875C35.0075 36.7657 35.1553 36.7418 35.3005 36.716C35.421 36.6946 35.543 36.6709 35.6612 36.6481C35.7791 36.6252 35.8997 36.6006 36.0176 36.5749C36.0234 36.5738 36.0294 36.5726 36.0353 36.5713C36.1467 36.5476 36.2576 36.52 36.368 36.4931C36.5241 36.4552 36.6788 36.4149 36.8318 36.3717C37.3808 36.2173 37.9127 36.0272 38.422 35.8065C38.4863 35.7786 38.552 35.7488 38.6149 35.7197C38.6786 35.6903 38.743 35.6604 38.8078 35.6288C38.9978 35.5364 39.1867 35.437 39.3718 35.3337C39.4317 35.3003 39.4911 35.2658 39.55 35.2311C39.6148 35.1926 39.6796 35.1539 39.7444 35.114C39.8047 35.0766 39.8652 35.0385 39.924 35.0002C40.0437 34.9221 40.1655 34.8403 40.2847 34.7552C40.3437 34.7134 40.404 34.6701 40.4629 34.6266C40.5659 34.5503 40.6675 34.4722 40.7691 34.3911C40.7971 34.3685 40.8266 34.3453 40.8545 34.322C40.8991 34.2846 40.9458 34.2474 40.99 34.2084C41.0164 34.1856 41.0709 34.1399 41.0709 34.1399Z" fill="#EBD1B5"/>
<path d="M37.2646 28.8773C37.7373 29.4242 37.7844 30.5382 37.7844 31.4407V35.5119C38.0394 35.6302 38.1669 35.6891 38.422 35.8061C38.422 35.8061 38.422 33.2535 38.422 31.7828C38.4219 30.5723 38.338 28.9858 37.2646 28.8773Z" fill="#8F7F6E"/>
<path d="M34.8589 36.3948V36.7873C36.1472 36.5937 37.3251 36.2872 38.4221 35.8063C38.1671 35.6892 38.0396 35.6304 37.7845 35.512C36.8717 35.9173 35.9029 36.1996 34.8589 36.3948Z" fill="#998675"/>
<path d="M34.8589 32.4922V36.3948C35.9028 36.1996 36.8717 35.9173 37.7845 35.512C37.7845 35.512 37.7845 32.906 37.7845 31.4408C37.7845 30.5382 37.7374 29.4243 37.2647 28.8775C37.0351 28.8546 36.7593 28.8987 36.4299 29.0289C35.107 29.552 34.8589 31.0359 34.8589 32.4922Z" fill="#534741"/>
<path d="M44.958 23.8199C45.067 24.0718 45.1141 24.4824 45.1141 25.027V29.3152H46.0461C46.0461 29.3152 46.0461 26.4407 46.0461 25.027C46.0461 23.6855 45.7619 23.1468 44.958 23.8199Z" fill="#8F7F6E"/>
<path d="M43.9141 30.4903V31.4129C44.7668 30.5645 45.1933 30.1454 46.0461 29.3151C45.6733 29.3151 45.4868 29.3151 45.1141 29.3151C44.6341 29.7825 44.3941 30.0174 43.9141 30.4903Z" fill="#998675"/>
<path d="M43.9141 26.8102V30.4903C44.3941 30.0175 44.6341 29.7825 45.1141 29.3152C45.1141 29.3152 45.1141 26.4407 45.1141 25.027C45.1141 24.4823 45.0668 24.072 44.958 23.8199C44.9138 23.8557 44.8696 23.8957 44.8225 23.9398C43.9146 24.7883 43.9141 25.4071 43.9141 26.8102Z" fill="#534741"/>
<path d="M36.1767 18.4049C36.2418 18.5969 36.2416 18.8369 36.1602 19.0783C36.3801 19.1416 36.49 19.1731 36.71 19.2364C36.8597 18.793 36.8609 18.3516 36.7409 17.9977C36.5152 18.1605 36.4024 18.242 36.1767 18.4049Z" fill="#00A99D"/>
<path d="M36.6096 19.0649C36.6868 18.7788 36.7012 18.4931 36.6521 18.2346C36.5288 18.3235 36.4672 18.368 36.3439 18.457C36.3822 18.6226 36.3802 18.8048 36.3384 18.9871C36.4469 19.0182 36.501 19.0338 36.6096 19.0649Z" fill="#00CCBD"/>
<path d="M35.7598 19.6413C35.8454 19.8937 35.8882 20.0199 35.9739 20.2726C36.2904 20.044 36.5607 19.6797 36.7103 19.2364C36.4903 19.1731 36.3804 19.1415 36.1604 19.0783C36.079 19.3196 35.9314 19.5173 35.7598 19.6413Z" fill="#00A99D"/>
<path d="M36.0462 20.0307C36.2455 19.8436 36.4094 19.6007 36.5218 19.3246C36.4134 19.2934 36.3592 19.2778 36.2506 19.2466C36.1731 19.4188 36.0626 19.5698 35.9292 19.686C35.976 19.8238 35.9994 19.8928 36.0462 20.0307Z" fill="#00CCBD"/>
<path d="M34.2991 18.543C34.1494 18.9864 34.1481 19.4278 34.2681 19.7817C34.4938 19.6188 34.6067 19.5374 34.8324 19.3746C34.7672 19.1825 34.7675 18.9425 34.8489 18.7011C34.629 18.638 34.519 18.6063 34.2991 18.543Z" fill="#00A99D"/>
<path d="M34.6658 19.3226C34.6275 19.157 34.6295 18.9748 34.6713 18.7924C34.5628 18.7612 34.5087 18.7456 34.4001 18.7145C34.3229 19.0006 34.3085 19.2864 34.3576 19.5449C34.4809 19.4559 34.5425 19.4114 34.6658 19.3226Z" fill="#00CCBD"/>
<path d="M34.2993 18.543C34.5193 18.6063 34.6292 18.6378 34.8492 18.7011C34.9306 18.4597 35.0781 18.262 35.2498 18.1381C35.1642 17.8857 35.1214 17.7595 35.0357 17.507C34.7192 17.7355 34.4488 18.0997 34.2993 18.543Z" fill="#00A99D"/>
<path d="M34.7585 18.5328C34.8362 18.3608 34.9467 18.2096 35.08 18.0936C35.0333 17.9557 35.01 17.8868 34.9631 17.7488C34.7636 17.936 34.5998 18.1789 34.4873 18.4549C34.5958 18.4861 34.6501 18.5017 34.7585 18.5328Z" fill="#00CCBD"/>
<path d="M35.0356 17.5071C35.1213 17.7596 35.1641 17.8858 35.2497 18.1383C35.4214 18.0144 35.6187 17.9634 35.7997 18.0154C35.8986 17.722 35.9482 17.5753 36.0471 17.2817C35.7138 17.1856 35.3517 17.2796 35.0356 17.5071Z" fill="#00A99D"/>
<path d="M35.3331 17.93C35.4381 17.8833 35.5468 17.8591 35.6541 17.8591C35.6687 17.8591 35.6831 17.8595 35.6975 17.8604C35.7617 17.6699 35.7938 17.5746 35.8581 17.3841C35.8321 17.3815 35.8059 17.3803 35.7795 17.3803C35.592 17.3803 35.396 17.4421 35.2075 17.5595C35.2578 17.7077 35.2829 17.7819 35.3331 17.93Z" fill="#00CCBD"/>
<path d="M36.0472 17.2816C35.9483 17.5753 35.8987 17.722 35.7998 18.0153C35.9809 18.0674 36.1119 18.2128 36.177 18.4047C36.4027 18.242 36.5156 18.1605 36.7413 17.9976C36.6208 17.6449 36.3806 17.3776 36.0472 17.2816Z" fill="#00A99D"/>
<path d="M36.5672 17.9506C36.472 17.7259 36.3242 17.5585 36.1394 17.4649C36.0752 17.6555 36.0431 17.7506 35.979 17.941C36.0831 17.9979 36.1704 18.0822 36.2362 18.1895C36.3685 18.094 36.4347 18.0462 36.5672 17.9506Z" fill="#00CCBD"/>
<path d="M35.2099 19.7641C35.1109 20.0575 35.0614 20.2043 34.9624 20.4981C35.2957 20.594 35.6578 20.4999 35.974 20.2726C35.8883 20.0199 35.8455 19.8937 35.7599 19.6413C35.5882 19.7652 35.391 19.8163 35.2099 19.7641Z" fill="#00A99D"/>
<path d="M35.2295 20.3993C35.417 20.3993 35.6131 20.3375 35.8015 20.22C35.7512 20.0717 35.7262 19.9975 35.6759 19.8493C35.5709 19.8961 35.4622 19.9202 35.3549 19.9202H35.3548C35.3404 19.9202 35.3258 19.9197 35.3114 19.9188C35.2472 20.1093 35.2151 20.2046 35.1509 20.3953C35.1769 20.398 35.2031 20.3993 35.2295 20.3993Z" fill="#00CCBD"/>
<path d="M34.2681 19.7818C34.3885 20.1346 34.6288 20.4021 34.9621 20.498C35.0611 20.2043 35.1105 20.0575 35.2096 19.7641C35.0285 19.712 34.8975 19.5666 34.8323 19.3746C34.6066 19.5375 34.4938 19.6188 34.2681 19.7818Z" fill="#00A99D"/>
<path d="M35.0305 19.8384C34.9265 19.7816 34.8392 19.6971 34.7733 19.59C34.6409 19.6856 34.5747 19.7333 34.4424 19.8289C34.5375 20.0537 34.6853 20.2211 34.8701 20.3147C34.9342 20.1241 34.9663 20.0288 35.0305 19.8384Z" fill="#00CCBD"/>
<path d="M39.812 17.3313C39.869 17.5056 39.8776 17.7334 39.8241 17.9725C39.9949 18.0052 40.0805 18.0215 40.2514 18.0541C40.3498 17.6149 40.3346 17.1955 40.2296 16.8743C40.0626 17.0572 39.979 17.1485 39.812 17.3313Z" fill="#00A99D"/>
<path d="M40.1341 17.8929C40.1774 17.6402 40.1825 17.3944 40.1494 17.1733C40.0794 17.2501 40.0442 17.2884 39.9741 17.3652C40.0112 17.5163 40.0174 17.6886 39.9929 17.8659L40.1341 17.8929Z" fill="#00CCBD"/>
<path d="M39.5376 18.5565C39.6125 18.7851 39.65 18.8995 39.7249 19.1282C39.959 18.8723 40.1529 18.4934 40.2514 18.0541C40.0805 18.0214 39.995 18.0051 39.8241 17.9725C39.7705 18.2117 39.6646 18.4176 39.5376 18.5565Z" fill="#00A99D"/>
<path d="M39.7793 18.8247C39.9046 18.6343 40.0055 18.4068 40.074 18.1591C40.0176 18.1483 39.9893 18.1429 39.9329 18.1321C39.8793 18.3038 39.7994 18.4597 39.7007 18.5847C39.7322 18.6807 39.7479 18.7287 39.7793 18.8247Z" fill="#00CCBD"/>
<path d="M38.378 17.6964C38.2796 18.1358 38.2948 18.5546 38.3998 18.8753C38.5668 18.6927 38.6504 18.6015 38.8174 18.4189C38.7604 18.2449 38.7517 18.0172 38.8053 17.7779C38.6344 17.7453 38.549 17.729 38.378 17.6964Z" fill="#00A99D"/>
<path d="M38.6557 18.3851C38.6186 18.2341 38.6123 18.0619 38.6369 17.8847C38.5804 17.8739 38.5522 17.8685 38.4958 17.8577C38.4525 18.1104 38.4474 18.356 38.4805 18.5767C38.5504 18.5 38.5855 18.4617 38.6557 18.3851Z" fill="#00CCBD"/>
<path d="M38.3779 17.6963C38.5488 17.729 38.6343 17.7453 38.8052 17.778C38.8587 17.5387 38.9645 17.3327 39.0916 17.1936C39.0167 16.9646 38.9792 16.85 38.9043 16.6208C38.6702 16.8772 38.4764 17.2569 38.3779 17.6963Z" fill="#00A99D"/>
<path d="M38.6963 17.6183C38.7499 17.4466 38.8297 17.2906 38.9285 17.1654C38.8971 17.0693 38.8814 17.0211 38.85 16.9249C38.7247 17.1157 38.6238 17.3434 38.5552 17.5914C38.6115 17.6022 38.6398 17.6075 38.6963 17.6183Z" fill="#00CCBD"/>
<path d="M38.9043 16.6207C38.9792 16.8499 39.0167 16.9645 39.0916 17.1935C39.2186 17.0544 39.3679 16.9814 39.5086 17.0083C39.5738 16.7174 39.6063 16.5717 39.6714 16.2803C39.4123 16.2307 39.1382 16.3652 38.9043 16.6207Z" fill="#00A99D"/>
<path d="M39.1661 16.9507C39.2386 16.9074 39.3139 16.8802 39.3893 16.8706C39.4303 16.6875 39.4507 16.5958 39.4917 16.4124C39.3545 16.4344 39.2083 16.5181 39.0693 16.6545C39.108 16.7729 39.1273 16.8322 39.1661 16.9507Z" fill="#00CCBD"/>
<path d="M39.6716 16.2803C39.6064 16.5717 39.5739 16.7174 39.5088 17.0084C39.6495 17.0353 39.7552 17.1571 39.8122 17.3312C39.9792 17.1485 40.0627 17.0571 40.2297 16.8742C40.1246 16.5541 39.9307 16.3298 39.6716 16.2803Z" fill="#00A99D"/>
<path d="M40.064 16.8446C39.9944 16.6665 39.8969 16.5375 39.78 16.4673C39.7391 16.6506 39.7186 16.7422 39.6777 16.9253C39.743 16.9615 39.8005 17.0137 39.8486 17.0804C39.9347 16.9862 39.9779 16.9391 40.064 16.8446Z" fill="#00CCBD"/>
<path d="M39.1208 18.7414C39.0556 19.032 39.0232 19.1773 38.958 19.4679C39.217 19.5173 39.4911 19.3832 39.7251 19.1284C39.6502 18.8998 39.6127 18.7854 39.5379 18.5566C39.4108 18.6954 39.2614 18.7683 39.1208 18.7414Z" fill="#00A99D"/>
<path d="M39.1377 19.336C39.2749 19.314 39.4209 19.2306 39.56 19.0946C39.5212 18.9764 39.502 18.9172 39.4632 18.7991C39.3908 18.8422 39.3155 18.8694 39.2401 18.879C39.1992 19.0618 39.1787 19.1532 39.1377 19.336Z" fill="#00CCBD"/>
<path d="M38.3999 18.8753C38.5051 19.1948 38.6991 19.4183 38.9581 19.4678C39.0232 19.1771 39.0557 19.0319 39.1208 18.7413C38.9801 18.7145 38.8744 18.593 38.8174 18.4188C38.6504 18.6015 38.5669 18.6927 38.3999 18.8753Z" fill="#00A99D"/>
<path d="M38.9517 18.8244C38.8864 18.7882 38.8289 18.7361 38.7808 18.6694C38.6947 18.7635 38.6516 18.8107 38.5654 18.9048C38.635 19.0826 38.7325 19.2112 38.8494 19.2813C38.8903 19.0985 38.9108 19.0071 38.9517 18.8244Z" fill="#00CCBD"/>
<path d="M30.8066 18.6976C31.0128 18.8879 31.1409 19.1516 31.1409 19.4424H32.0979C32.0979 18.9082 31.8638 18.423 31.4839 18.0723C31.213 18.3225 31.0776 18.4475 30.8066 18.6976Z" fill="#00A99D"/>
<path d="M31.9456 19.3065C31.9148 18.9212 31.7531 18.5603 31.4804 18.2681C31.2919 18.442 31.1977 18.529 31.0093 18.703C31.1597 18.8773 31.253 19.0852 31.2801 19.3065H31.9456Z" fill="#00CCBD"/>
<path d="M30.8066 20.1876C31.0776 20.4379 31.213 20.5632 31.484 20.8138C31.8638 20.4623 32.098 19.9766 32.098 19.4423C31.7152 19.4423 31.5238 19.4423 31.141 19.4423C31.141 19.7334 31.0128 19.9972 30.8066 20.1876Z" fill="#00A99D"/>
<path d="M31.4804 20.6177C31.7531 20.3251 31.9148 19.9638 31.9456 19.5784C31.6794 19.5784 31.5463 19.5784 31.2801 19.5784C31.253 19.7999 31.1597 20.0079 31.0093 20.1822C31.1977 20.3564 31.2919 20.4434 31.4804 20.6177Z" fill="#00CCBD"/>
<path d="M30 17.5052V18.389C30.3151 18.389 30.6007 18.5073 30.8068 18.6976C31.0778 18.4475 31.2132 18.3225 31.4842 18.0723C31.1043 17.7228 30.5801 17.5052 30 17.5052Z" fill="#00A99D"/>
<path d="M31.2716 18.076C30.9542 17.8243 30.5633 17.6749 30.147 17.6463V18.2607C30.3867 18.2858 30.612 18.3718 30.8008 18.5108C30.9892 18.3369 31.0833 18.2499 31.2716 18.076Z" fill="#00CCBD"/>
<path d="M30 20.4967V21.3822C30.5801 21.3822 31.1043 21.1639 31.4842 20.8139C31.2132 20.5633 31.0778 20.4381 30.8068 20.1877C30.6007 20.3782 30.3151 20.4967 30 20.4967Z" fill="#00A99D"/>
<path d="M30.1475 21.2406C30.5638 21.2121 30.9547 21.0623 31.2721 20.8101C31.0838 20.6358 30.9896 20.5488 30.8013 20.3746C30.6125 20.5137 30.3872 20.6 30.1475 20.6249V21.2406Z" fill="#00CCBD"/>
<path d="M42.9086 32.4764C42.678 33.4916 42.5627 33.971 42.332 34.8908C43.3825 35.2638 43.9077 35.4466 44.9581 35.8064C44.9581 35.8064 44.586 34.5717 46.4629 34.4892C47.2866 34.453 48.5478 34.6538 50.4663 35.267C50.4663 34.8484 50.4663 34.6347 50.4663 34.1977C50.4616 34.1967 50.4592 34.1961 50.4545 34.1951C49.2736 33.9352 48.6832 33.8036 47.5025 33.5367C45.665 33.1216 44.7462 32.9099 42.9086 32.4764Z" fill="#A3907D"/>
<path d="M44.9581 35.8063C45.56 35.2929 45.861 35.0301 46.4629 34.4891C44.5841 34.5698 44.9581 35.8063 44.9581 35.8063Z" fill="#534741"/>
<path d="M50.466 35.2673C51.8795 33.7917 52.5863 32.9628 53.9998 31.2803C53.9998 30.9097 53.9998 30.7255 53.9998 30.3585C52.5813 31.9139 51.8721 32.7476 50.4536 34.1863C50.4585 34.6283 50.4611 34.8442 50.466 35.2673Z" fill="#C7B299"/>
<path d="M54 30.3583C51.0752 29.6864 49.6127 29.3534 46.6878 28.6921C45.1764 30.1812 44.4207 30.9748 42.9092 32.4762C45.927 33.1848 47.4359 33.5255 50.4537 34.1861C51.8723 32.7474 52.5815 31.9139 54 30.3583Z" fill="#D1BCA1"/>
<path opacity="0.1" d="M40.9695 17.9137C40.9695 18.6743 40.8779 19.4165 40.7048 20.1311C38.0921 20.9688 34.5936 21.6664 30.1504 21.6809C32.2301 20.7234 34.0244 18.7665 34.6887 16.7497C38.4208 16.3672 40.5887 15.4713 40.1562 14.0675C40.3327 14.4697 40.48 14.885 40.6026 15.3064C40.6619 15.5098 40.7151 15.7193 40.7583 15.9277H40.7601C40.8639 16.417 40.9334 16.9198 40.9573 17.428C40.9649 17.5871 40.9695 17.7507 40.9695 17.9137Z" fill="#6B391A"/>
<path opacity="0.1" d="M41.071 34.1399C41.071 34.1399 38.6562 36.0926 37.3135 36.8718C35.2603 36.9383 34.2338 36.9715 32.1807 37.0377C32.5973 37.0185 33.006 36.9893 33.3998 36.9573C33.527 36.9469 33.653 36.9356 33.7782 36.9224C33.7855 36.9224 33.7929 36.9212 33.8002 36.92C34.0505 36.8947 34.2979 36.8658 34.5408 36.8332C34.6469 36.8187 34.7528 36.803 34.8589 36.7873C35.0076 36.7655 35.1553 36.7416 35.3005 36.7158C35.421 36.6943 35.543 36.6707 35.6612 36.6478C35.7791 36.625 35.8997 36.6004 36.0176 36.5747C36.0235 36.5735 36.0295 36.5724 36.0353 36.5711C36.1468 36.5474 36.2576 36.5197 36.368 36.4929C36.5241 36.4549 36.6788 36.4146 36.8318 36.3715C37.3809 36.217 37.9128 36.027 38.4221 35.8063C38.4863 35.7784 38.552 35.7485 38.615 35.7195C38.6786 35.69 38.743 35.6602 38.8079 35.6285C38.9978 35.5362 39.1867 35.4368 39.3719 35.3334C39.4318 35.3 39.4912 35.2656 39.55 35.2309C39.6148 35.1924 39.6796 35.1537 39.7444 35.1137C39.8048 35.0763 39.8652 35.0383 39.9241 34.9999C40.0437 34.9219 40.1656 34.8401 40.2848 34.755C40.3437 34.7132 40.4041 34.6698 40.4629 34.6263C40.5659 34.55 40.6675 34.472 40.7691 34.3909C40.7971 34.3683 40.8266 34.3451 40.8545 34.3218C40.8992 34.2844 40.9458 34.2471 40.99 34.2082C41.0165 34.1856 41.071 34.1399 41.071 34.1399Z" fill="#1A0000"/>
<path opacity="0.2" d="M40.7981 16.1154C39.9123 16.8928 37.9326 17.4241 35.1958 17.7028C34.4369 17.78 33.6188 17.8379 32.751 17.877C31.8832 17.9162 30.9637 17.9361 29.9999 17.9361C24.593 17.9361 20.5754 17.3225 19.2017 16.1154C19.2137 16.0528 19.2259 15.9903 19.2396 15.9277H19.2414C19.2846 15.7193 19.3379 15.5097 19.3971 15.3064C19.5198 14.885 19.667 14.4697 19.8435 14.0675C19.2518 15.985 23.5203 16.9609 29.9999 16.9609C31.7387 16.9609 33.3187 16.8903 34.6888 16.7497C38.4203 16.3667 40.5888 15.4713 40.1563 14.0675C40.3328 14.4697 40.4801 14.885 40.6027 15.3064C40.662 15.5098 40.7152 15.7193 40.7584 15.9277H40.7602C40.774 15.9902 40.7861 16.0528 40.7981 16.1154Z" fill="#1A0000"/>
<path d="M41.2558 14.3178C41.1944 14.1694 41.1253 14.0226 41.0544 13.8774C41.0525 13.8757 41.0505 13.8738 41.0487 13.8703C39.8637 11.5679 37.8759 9.521 35.3845 8.32276C34.7124 7.99955 34.002 7.73342 33.2637 7.53209C32.7882 7.40237 32.2982 7.30088 31.8026 7.22881C31.2166 7.14362 30.6119 7.09662 30.0002 7.09662V7.09627C25.7738 6.92541 20.7025 9.99807 18.9515 13.8704C18.9498 13.8735 18.9482 13.875 18.9466 13.878C18.8737 14.0192 18.8063 14.1691 18.7442 14.3183C18.0883 16.4412 22.8187 17.5206 30 17.5206C31.9271 17.5206 33.678 17.4424 35.1964 17.2867C39.3319 16.8627 41.7352 15.8717 41.2558 14.3178Z" fill="#7D2F17"/>
<path d="M30 6.73383C27.8461 6.73383 26.7691 6.73383 24.6152 6.73383V9.00738C24.6152 10.0964 27.0253 10.9638 30 10.9638C30.6723 10.9638 31.317 10.9189 31.9091 10.838C33.9402 10.5603 35.3848 9.85019 35.3848 9.00738C35.3848 8.10773 35.3848 7.65375 35.3848 6.73383C33.2309 6.73383 32.1539 6.73383 30 6.73383Z" fill="#C7B299"/>
<path opacity="0.1" d="M35.1963 17.2867C36.0189 14.788 35.275 12.176 31.6528 10.9643C31.6528 10.9643 31.7565 10.9333 31.9097 10.8383C32.3563 10.5613 33.2304 9.7604 33.2635 7.53208C33.2671 7.28974 33.2731 7.04025 33.2884 6.79005C33.2884 6.77107 33.2884 6.75208 33.2903 6.73322H35.3842V8.32275C37.877 9.52474 39.8845 11.503 41.0485 13.8702C41.0503 13.8738 41.0523 13.8756 41.0542 13.8773C41.1251 14.0225 41.1941 14.1692 41.2555 14.3177C41.7349 15.8717 39.3324 16.8631 35.1963 17.2867Z" fill="#1A0000"/>
<path d="M30 5.71967C27.0253 5.71967 24.6152 6.17705 24.6152 6.73381C24.6152 7.29056 27.0253 7.73728 30 7.73728C32.9747 7.73728 35.3848 7.29056 35.3848 6.73381C35.3848 6.17705 32.9747 5.71967 30 5.71967Z" fill="#EBD1B5"/>
<path d="M33.3045 6.73379C33.3045 7.05981 31.8262 7.3243 30.0001 7.3243C29.731 7.3243 29.4695 7.3175 29.2201 7.3066C27.7733 7.24367 26.6958 7.01141 26.6958 6.73379C26.6958 6.40777 28.1741 6.13965 30 6.13965C30.1697 6.13965 30.3363 6.14141 30.4994 6.14621C32.0853 6.1918 33.3045 6.43848 33.3045 6.73379Z" fill="#C7B299"/>
<path opacity="0.2" d="M30.4995 6.14622C30.036 6.44669 29.5955 6.82708 29.2201 7.30673C27.7711 7.24579 26.6958 7.01153 26.6958 6.73392C26.6958 6.4079 28.1741 6.13978 30 6.13978C30.1698 6.13966 30.3363 6.1413 30.4995 6.14622Z" fill="#1A0000"/>
</svg>
