<svg width="79" height="71" viewBox="0 0 79 71" fill="none" xmlns="http://www.w3.org/2000/svg">
<g clip-path="url(#clip0_17870_1768)" filter="url(#filter0_d_17870_1768)">
<path d="M62.7168 57.1348L68.022 58.7956C69.4406 59.2398 70.8858 58.1896 70.9019 56.7032L70.9617 51.1446C70.9665 50.6926 71.1094 50.2529 71.3712 49.8844L74.5902 45.3522C75.4509 44.1402 74.8989 42.4412 73.4902 41.9667L68.2221 40.1921C67.7937 40.0478 67.4197 39.7761 67.1501 39.4133L63.8345 34.9514C62.9478 33.7583 61.1615 33.7583 60.2748 34.9514L56.9591 39.4133C56.6896 39.7761 56.3156 40.0479 55.8872 40.1921L50.6191 41.9667C49.2103 42.4412 48.6582 44.1402 49.5191 45.3522L52.7381 49.8844C52.9998 50.2529 53.1428 50.6926 53.1476 51.1446L53.2074 56.7032C53.2233 58.1896 54.6687 59.2397 56.0873 58.7956L61.3925 57.1348C61.8231 56.9997 62.2854 56.9997 62.7168 57.1348Z" fill="url(#paint0_linear_17870_1768)"/>
<path d="M62.7168 57.1348L68.022 58.7956C69.4406 59.2398 70.8858 58.1896 70.9019 56.7032L70.9617 51.1446C70.9665 50.6926 71.1094 50.2529 71.3712 49.8844L74.5902 45.3522C75.4509 44.1402 74.8989 42.4412 73.4902 41.9667L68.2221 40.1921C67.7937 40.0478 67.4197 39.7761 67.1501 39.4133L63.8345 34.9514C62.9478 33.7583 61.1615 33.7583 60.2748 34.9514L56.9591 39.4133C56.6896 39.7761 56.3156 40.0479 55.8872 40.1921L50.6191 41.9667C49.2103 42.4412 48.6582 44.1402 49.5191 45.3522L52.7381 49.8844C52.9998 50.2529 53.1428 50.6926 53.1476 51.1446L53.2074 56.7032C53.2233 58.1896 54.6687 59.2397 56.0873 58.7956L61.3925 57.1348C61.8231 56.9997 62.2854 56.9997 62.7168 57.1348Z" fill="url(#paint1_linear_17870_1768)"/>
<path d="M49.3292 43.1052C48.9961 43.7986 49.0234 44.6557 49.5182 45.3521L52.7372 49.8843C52.9989 50.2528 53.1418 50.6925 53.1467 51.1445L53.2065 56.7031C53.2224 58.1895 54.6678 59.2396 56.0864 58.7955L61.3916 57.1347C61.823 56.9996 62.2853 56.9996 62.7166 57.1347L68.0217 58.7955C69.4404 59.2397 70.8856 58.1897 70.9017 56.7031L70.9614 51.1445C70.9638 50.9267 70.9989 50.7121 71.0631 50.5067L49.3292 43.1052Z" fill="url(#paint2_linear_17870_1768)"/>
<path d="M74.7793 43.1052C75.1124 43.7986 75.0851 44.6557 74.5903 45.3521L71.3713 49.8843C71.1096 50.2528 70.9667 50.6925 70.9618 51.1445L70.9021 56.7031C70.8861 58.1895 69.4407 59.2396 68.0221 58.7955L62.7169 57.1347C62.2855 56.9996 61.8232 56.9996 61.3919 57.1347L56.0868 58.7955C54.6681 59.2397 53.2229 58.1897 53.2068 56.7031L53.1471 51.1445C53.1447 50.9267 53.1096 50.7121 53.0454 50.5067L74.7793 43.1052Z" fill="url(#paint3_linear_17870_1768)"/>
<path d="M73.4898 41.9667L68.2216 40.1921C67.7933 40.0478 67.4193 39.7761 67.1497 39.4133L63.8341 34.9514C63.3907 34.3549 62.7225 34.0566 62.0542 34.0566V57.0337C62.2776 57.0337 62.501 57.0674 62.7168 57.1349L68.0219 58.7958C69.4406 59.2399 70.8858 58.1899 70.9019 56.7034L70.9616 51.1447C70.9665 50.6928 71.1093 50.253 71.3711 49.8846L74.5901 45.3524C75.4506 44.1402 74.8985 42.4412 73.4898 41.9667Z" fill="url(#paint4_linear_17870_1768)"/>
<path d="M73.4898 41.9667L68.2216 40.1921C67.7933 40.0478 67.4193 39.7761 67.1497 39.4133L63.8341 34.9514C63.3907 34.3549 62.7225 34.0566 62.0542 34.0566V57.0337C62.2776 57.0337 62.501 57.0674 62.7168 57.1349L68.0219 58.7958C69.4406 59.2399 70.8858 58.1899 70.9019 56.7034L70.9616 51.1447C70.9665 50.6928 71.1093 50.253 71.3711 49.8846L74.5901 45.3524C75.4506 44.1402 74.8985 42.4412 73.4898 41.9667Z" fill="url(#paint5_linear_17870_1768)"/>
<path d="M53.0547 50.5413C53.1122 50.7363 53.1444 50.9389 53.1466 51.1445L53.2064 56.7032C53.2223 58.1896 54.6677 59.2397 56.0863 58.7956L61.3915 57.1348C61.8229 56.9997 62.2852 56.9997 62.7165 57.1348L68.0217 58.7956C69.4403 59.2398 70.8855 58.1898 70.9016 56.7032L70.9614 51.1445C70.9636 50.939 70.9958 50.7363 71.0533 50.5413H53.0547Z" fill="url(#paint6_linear_17870_1768)"/>
<path d="M62.4353 52.6085L65.4873 53.564C66.3034 53.8194 67.1349 53.2153 67.144 52.3603L67.1784 49.1624C67.1812 48.9024 67.2634 48.6494 67.414 48.4374L69.2658 45.8301C69.761 45.1329 69.4435 44.1555 68.6329 43.8825L65.6023 42.8615C65.3558 42.7785 65.1406 42.6222 64.9856 42.4135L63.0781 39.8465C62.5681 39.1601 61.5403 39.1601 61.0302 39.8465L59.1228 42.4135C58.9678 42.6222 58.7526 42.7785 58.5061 42.8615L55.4755 43.8825C54.6651 44.1555 54.3475 45.1329 54.8427 45.8301L56.6945 48.4374C56.8451 48.6494 56.9272 48.9024 56.9301 49.1624L56.9645 52.3603C56.9737 53.2155 57.8052 53.8195 58.6212 53.564L61.6733 52.6085C61.9211 52.5309 62.187 52.5309 62.4353 52.6085Z" fill="url(#paint7_linear_17870_1768)"/>
<path d="M17.6091 57.1348L22.9142 58.7956C24.3329 59.2398 25.7781 58.1896 25.7942 56.7032L25.854 51.1446C25.8588 50.6926 26.0016 50.2529 26.2635 49.8844L29.4824 45.3522C30.3432 44.1402 29.7911 42.4412 28.3824 41.9667L23.1142 40.1921C22.6859 40.0478 22.3119 39.7761 22.0423 39.4133L18.7266 34.9514C17.84 33.7583 16.0536 33.7583 15.1669 34.9514L11.8513 39.4133C11.5817 39.7761 11.2077 40.0479 10.7793 40.1921L5.5112 41.9667C4.10243 42.4412 3.55038 44.1402 4.41112 45.3522L7.63011 49.8844C7.89178 50.2529 8.03475 50.6926 8.03961 51.1446L8.09937 56.7032C8.11532 58.1896 9.5607 59.2397 10.9793 58.7956L16.2845 57.1348C16.7155 56.9997 17.1778 56.9997 17.6091 57.1348Z" fill="url(#paint8_linear_17870_1768)"/>
<path d="M4.22176 43.1052C3.88867 43.7985 3.91599 44.6557 4.41077 45.3521L7.62976 49.8843C7.89144 50.2527 8.03441 50.6925 8.03926 51.1444L8.09903 56.7031C8.11498 58.1895 9.56035 59.2395 10.979 58.7955L16.2841 57.1346C16.7155 56.9995 17.1779 56.9995 17.6091 57.1346L22.9143 58.7955C24.3329 59.2396 25.7782 58.1896 25.7943 56.7031L25.854 51.1444C25.8564 50.9267 25.8915 50.712 25.9557 50.5066L4.22176 43.1052Z" fill="url(#paint9_linear_17870_1768)"/>
<path d="M29.6719 43.1052C30.005 43.7985 29.9777 44.6557 29.4829 45.3521L26.2639 49.8843C26.0022 50.2527 25.8592 50.6925 25.8544 51.1444L25.7946 56.7031C25.7787 58.1895 24.3333 59.2395 22.9147 58.7955L17.6095 57.1346C17.1781 56.9995 16.7158 56.9995 16.2845 57.1346L10.9793 58.7955C9.56073 59.2396 8.11549 58.1896 8.0994 56.7031L8.03963 51.1444C8.03728 50.9267 8.00219 50.712 7.93799 50.5066L29.6719 43.1052Z" fill="url(#paint10_linear_17870_1768)"/>
<path d="M28.3824 41.9667L23.1142 40.1921C22.6859 40.0478 22.3119 39.7761 22.0423 39.4133L18.7266 34.9514C18.2833 34.3549 17.615 34.0566 16.9468 34.0566V57.0337C17.1702 57.0337 17.3936 57.0674 17.6094 57.1349L22.9145 58.7958C24.3331 59.2399 25.7784 58.1899 25.7945 56.7034L25.8542 51.1447C25.8591 50.6928 26.0019 50.253 26.2637 49.8846L29.4827 45.3524C30.343 44.1402 29.7911 42.4412 28.3824 41.9667Z" fill="url(#paint11_linear_17870_1768)"/>
<path d="M28.3824 41.9667L23.1142 40.1921C22.6859 40.0478 22.3119 39.7761 22.0423 39.4133L18.7266 34.9514C18.2833 34.3549 17.615 34.0566 16.9468 34.0566V57.0337C17.1702 57.0337 17.3936 57.0674 17.6094 57.1349L22.9145 58.7958C24.3331 59.2399 25.7784 58.1899 25.7945 56.7034L25.8542 51.1447C25.8591 50.6928 26.0019 50.253 26.2637 49.8846L29.4827 45.3524C30.343 44.1402 29.7911 42.4412 28.3824 41.9667Z" fill="url(#paint12_linear_17870_1768)"/>
<path d="M7.94727 50.5413C8.00481 50.7363 8.03699 50.9389 8.03921 51.1445L8.09897 56.7032C8.11492 58.1896 9.5603 59.2397 10.9789 58.7956L16.2841 57.1348C16.7155 56.9997 17.1778 56.9997 17.6091 57.1348L22.9143 58.7956C24.3329 59.2398 25.7781 58.1898 25.7942 56.7032L25.854 51.1445C25.8562 50.939 25.8884 50.7363 25.9459 50.5413H7.94727Z" fill="url(#paint13_linear_17870_1768)"/>
<path d="M17.3275 52.6085L20.3795 53.564C21.1956 53.8194 22.0271 53.2153 22.0362 52.3603L22.0706 49.1624C22.0734 48.9024 22.1556 48.6494 22.3062 48.4374L24.1581 45.8301C24.6533 45.1329 24.3357 44.1555 23.5252 43.8825L20.4945 42.8615C20.2481 42.7785 20.0328 42.6222 19.8778 42.4135L17.9704 39.8465C17.4603 39.1601 16.4325 39.1601 15.9225 39.8465L14.0149 42.4134C13.8599 42.6221 13.6446 42.7783 13.3982 42.8614L10.3676 43.8823C9.55715 44.1554 9.2396 45.1327 9.73479 45.83L11.5866 48.4373C11.7372 48.6493 11.8193 48.9022 11.8222 49.1622L11.8566 52.3602C11.8658 53.2153 12.6972 53.8194 13.5133 53.5638L16.5654 52.6084C16.8134 52.5309 17.0794 52.5309 17.3275 52.6085Z" fill="url(#paint14_linear_17870_1768)"/>
<path d="M40.5679 49.2919L49.117 51.9684C51.4031 52.6841 53.7321 50.992 53.7579 48.5966L53.8543 39.6388C53.8621 38.9105 54.0924 38.2019 54.5141 37.6081L59.7014 30.3045C61.0885 28.3515 60.1989 25.6135 57.9288 24.8489L49.4393 21.9892C48.749 21.7567 48.1463 21.3187 47.7118 20.7341L42.3687 13.5438C40.9399 11.6211 38.0611 11.6211 36.6322 13.5438L31.2891 20.7341C30.8546 21.3187 30.2519 21.7567 29.5616 21.9892L21.0721 24.8489C18.8019 25.6137 17.9123 28.3515 19.2995 30.3045L24.4868 37.6081C24.9086 38.2019 25.1388 38.9105 25.1466 39.6388L25.243 48.5966C25.2687 50.992 27.5977 52.6841 29.8839 51.9684L38.433 49.2919C39.1278 49.0743 39.8727 49.0743 40.5679 49.2919Z" fill="url(#paint15_linear_17870_1768)"/>
<path d="M18.9947 26.6835C18.4581 27.801 18.502 29.182 19.2992 30.3044L24.4865 37.608C24.9084 38.2018 25.1386 38.9104 25.1463 39.6387L25.2427 48.5965C25.2685 50.9917 27.5975 52.684 29.8836 51.9683L38.4328 49.2918C39.1279 49.0742 39.8729 49.0742 40.568 49.2918L49.1172 51.9683C51.4033 52.684 53.7323 50.9919 53.7581 48.5965L53.8545 39.6387C53.8582 39.2878 53.9148 38.942 54.0184 38.6108L18.9947 26.6835Z" fill="url(#paint16_linear_17870_1768)"/>
<path d="M60.0066 26.6835C60.5432 27.801 60.4993 29.182 59.702 30.3044L54.5148 37.608C54.0929 38.2018 53.8627 38.9104 53.855 39.6387L53.7586 48.5965C53.7328 50.9917 51.4038 52.684 49.1176 51.9683L40.5685 49.2918C39.8734 49.0742 39.1284 49.0742 38.4332 49.2918L29.8841 51.9683C27.598 52.684 25.269 50.9919 25.2432 48.5965L25.1468 39.6387C25.1431 39.2878 25.0865 38.942 24.9829 38.6108L60.0066 26.6835Z" fill="url(#paint17_linear_17870_1768)"/>
<path d="M57.9287 24.8488L49.4392 21.9891C48.7489 21.7565 48.1463 21.3186 47.7118 20.7339L42.3686 13.5437C41.6542 12.5823 40.5773 12.1016 39.5005 12.1016V49.1287C39.8605 49.1287 40.2206 49.183 40.5681 49.2919L49.1172 51.9684C51.4034 52.6841 53.7324 50.992 53.7582 48.5966L53.8546 39.6388C53.8623 38.9105 54.0926 38.2019 54.5144 37.6081L59.7017 30.3045C61.0885 28.3515 60.1989 25.6135 57.9287 24.8488Z" fill="url(#paint18_linear_17870_1768)"/>
<path d="M57.9287 24.8488L49.4392 21.9891C48.7489 21.7565 48.1463 21.3186 47.7118 20.7339L42.3686 13.5437C41.6542 12.5823 40.5773 12.1016 39.5005 12.1016V49.1287C39.8605 49.1287 40.2206 49.183 40.5681 49.2919L49.1172 51.9684C51.4034 52.6841 53.7324 50.992 53.7582 48.5966L53.8546 39.6388C53.8623 38.9105 54.0926 38.2019 54.5144 37.6081L59.7017 30.3045C61.0885 28.3515 60.1989 25.6135 57.9287 24.8488Z" fill="url(#paint19_linear_17870_1768)"/>
<path d="M24.998 38.6669C25.0907 38.9811 25.1425 39.3075 25.1461 39.6388L25.2425 48.5966C25.2683 50.9919 27.5973 52.6841 29.8835 51.9684L38.4326 49.2919C39.1277 49.0743 39.8727 49.0743 40.5679 49.2919L49.117 51.9684C51.4031 52.6841 53.7321 50.992 53.7579 48.5966L53.8543 39.6388C53.8579 39.3075 53.9097 38.981 54.0024 38.6669H24.998Z" fill="url(#paint20_linear_17870_1768)"/>
<path d="M40.1143 41.9979L45.0326 43.5375C46.3477 43.9493 47.6876 42.9758 47.7024 41.5978L47.7579 36.4445C47.7625 36.0254 47.8949 35.6179 48.1374 35.2762L51.1216 31.0744C51.9197 29.9509 51.4079 28.3757 50.1018 27.9358L45.2178 26.2906C44.8207 26.1568 44.474 25.905 44.224 25.5686L41.15 21.432C40.3281 20.3258 38.6718 20.3258 37.8499 21.432L34.776 25.5686C34.5261 25.9049 34.1793 26.1568 33.7821 26.2906L28.8981 27.9358C27.5921 28.3757 27.0802 29.9509 27.8783 31.0744L30.8625 35.2762C31.1052 35.6179 31.2376 36.0254 31.2421 36.4445L31.2975 41.5978C31.3124 42.9758 32.6522 43.9493 33.9674 43.5375L38.8857 41.9979C39.2859 41.8728 39.7144 41.8728 40.1143 41.9979Z" fill="url(#paint21_linear_17870_1768)"/>
</g>
<defs>
<filter id="filter0_d_17870_1768" x="0" y="0" width="79" height="79" filterUnits="userSpaceOnUse" color-interpolation-filters="sRGB">
<feFlood flood-opacity="0" result="BackgroundImageFix"/>
<feColorMatrix in="SourceAlpha" type="matrix" values="0 0 0 0 0 0 0 0 0 0 0 0 0 0 0 0 0 0 127 0" result="hardAlpha"/>
<feOffset dy="4"/>
<feGaussianBlur stdDeviation="2"/>
<feComposite in2="hardAlpha" operator="out"/>
<feColorMatrix type="matrix" values="0 0 0 0 0 0 0 0 0 0 0 0 0 0 0 0 0 0 0.25 0"/>
<feBlend mode="normal" in2="BackgroundImageFix" result="effect1_dropShadow_17870_1768"/>
<feBlend mode="normal" in="SourceGraphic" in2="effect1_dropShadow_17870_1768" result="shape"/>
</filter>
<linearGradient id="paint0_linear_17870_1768" x1="57.9405" y1="44.2103" x2="71.9028" y2="58.1726" gradientUnits="userSpaceOnUse">
<stop stop-color="#FEF0AE"/>
<stop offset="1" stop-color="#FAC600"/>
</linearGradient>
<linearGradient id="paint1_linear_17870_1768" x1="57.4531" y1="46.2873" x2="53.1035" y2="45.6448" gradientUnits="userSpaceOnUse">
<stop stop-color="#FE9738" stop-opacity="0"/>
<stop offset="1" stop-color="#FE9738"/>
</linearGradient>
<linearGradient id="paint2_linear_17870_1768" x1="60.3024" y1="49.6779" x2="62.3416" y2="44.886" gradientUnits="userSpaceOnUse">
<stop stop-color="#FE9738" stop-opacity="0"/>
<stop offset="1" stop-color="#FE9738"/>
</linearGradient>
<linearGradient id="paint3_linear_17870_1768" x1="63.6373" y1="48.921" x2="62.4919" y2="45.3416" gradientUnits="userSpaceOnUse">
<stop stop-color="#FE9738" stop-opacity="0"/>
<stop offset="1" stop-color="#FE9738"/>
</linearGradient>
<linearGradient id="paint4_linear_17870_1768" x1="64.0014" y1="46.5232" x2="59.6584" y2="46.6663" gradientUnits="userSpaceOnUse">
<stop stop-color="#FE9738" stop-opacity="0"/>
<stop offset="1" stop-color="#FE9738"/>
</linearGradient>
<linearGradient id="paint5_linear_17870_1768" x1="70.3518" y1="48.1648" x2="73.5122" y2="49.1843" gradientUnits="userSpaceOnUse">
<stop stop-color="#FE9738" stop-opacity="0"/>
<stop offset="1" stop-color="#FE9738"/>
</linearGradient>
<linearGradient id="paint6_linear_17870_1768" x1="62.0538" y1="54.5686" x2="62.0538" y2="58.5841" gradientUnits="userSpaceOnUse">
<stop stop-color="#FE9738" stop-opacity="0"/>
<stop offset="1" stop-color="#FE9738"/>
</linearGradient>
<linearGradient id="paint7_linear_17870_1768" x1="66.8201" y1="52.3058" x2="54.6673" y2="40.1529" gradientUnits="userSpaceOnUse">
<stop stop-color="#FEF0AE"/>
<stop offset="1" stop-color="#FAC600"/>
</linearGradient>
<linearGradient id="paint8_linear_17870_1768" x1="12.8328" y1="44.2103" x2="26.7951" y2="58.1726" gradientUnits="userSpaceOnUse">
<stop stop-color="#FEF0AE"/>
<stop offset="1" stop-color="#FAC600"/>
</linearGradient>
<linearGradient id="paint9_linear_17870_1768" x1="15.195" y1="49.6778" x2="17.234" y2="44.886" gradientUnits="userSpaceOnUse">
<stop stop-color="#FE9738" stop-opacity="0"/>
<stop offset="1" stop-color="#FE9738"/>
</linearGradient>
<linearGradient id="paint10_linear_17870_1768" x1="18.53" y1="48.9209" x2="17.3846" y2="45.3415" gradientUnits="userSpaceOnUse">
<stop stop-color="#FE9738" stop-opacity="0"/>
<stop offset="1" stop-color="#FE9738"/>
</linearGradient>
<linearGradient id="paint11_linear_17870_1768" x1="18.8939" y1="46.5232" x2="14.5508" y2="46.6663" gradientUnits="userSpaceOnUse">
<stop stop-color="#FE9738" stop-opacity="0"/>
<stop offset="1" stop-color="#FE9738"/>
</linearGradient>
<linearGradient id="paint12_linear_17870_1768" x1="25.2442" y1="48.1648" x2="28.4048" y2="49.1843" gradientUnits="userSpaceOnUse">
<stop stop-color="#FE9738" stop-opacity="0"/>
<stop offset="1" stop-color="#FE9738"/>
</linearGradient>
<linearGradient id="paint13_linear_17870_1768" x1="16.9465" y1="54.5686" x2="16.9465" y2="58.5841" gradientUnits="userSpaceOnUse">
<stop stop-color="#FE9738" stop-opacity="0"/>
<stop offset="1" stop-color="#FE9738"/>
</linearGradient>
<linearGradient id="paint14_linear_17870_1768" x1="21.7124" y1="52.3058" x2="9.55951" y2="40.1529" gradientUnits="userSpaceOnUse">
<stop stop-color="#FEF0AE"/>
<stop offset="1" stop-color="#FAC600"/>
</linearGradient>
<linearGradient id="paint15_linear_17870_1768" x1="32.871" y1="28.4644" x2="55.3709" y2="50.9643" gradientUnits="userSpaceOnUse">
<stop stop-color="#FEF0AE"/>
<stop offset="1" stop-color="#FAC600"/>
</linearGradient>
<linearGradient id="paint16_linear_17870_1768" x1="36.6779" y1="37.2753" x2="39.9638" y2="29.5533" gradientUnits="userSpaceOnUse">
<stop stop-color="#FE9738" stop-opacity="0"/>
<stop offset="1" stop-color="#FE9738"/>
</linearGradient>
<linearGradient id="paint17_linear_17870_1768" x1="42.0516" y1="36.0557" x2="40.2058" y2="30.2875" gradientUnits="userSpaceOnUse">
<stop stop-color="#FE9738" stop-opacity="0"/>
<stop offset="1" stop-color="#FE9738"/>
</linearGradient>
<linearGradient id="paint18_linear_17870_1768" x1="42.6384" y1="32.1916" x2="35.6396" y2="32.4223" gradientUnits="userSpaceOnUse">
<stop stop-color="#FE9738" stop-opacity="0"/>
<stop offset="1" stop-color="#FE9738"/>
</linearGradient>
<linearGradient id="paint19_linear_17870_1768" x1="52.8718" y1="34.837" x2="57.9651" y2="36.48" gradientUnits="userSpaceOnUse">
<stop stop-color="#FE9738" stop-opacity="0"/>
<stop offset="1" stop-color="#FE9738"/>
</linearGradient>
<linearGradient id="paint20_linear_17870_1768" x1="39.5001" y1="45.1566" x2="39.5001" y2="51.6276" gradientUnits="userSpaceOnUse">
<stop stop-color="#FE9738" stop-opacity="0"/>
<stop offset="1" stop-color="#FE9738"/>
</linearGradient>
<linearGradient id="paint21_linear_17870_1768" x1="47.1805" y1="41.51" x2="27.5964" y2="21.9259" gradientUnits="userSpaceOnUse">
<stop stop-color="#FEF0AE"/>
<stop offset="1" stop-color="#FAC600"/>
</linearGradient>
<clipPath id="clip0_17870_1768">
<rect width="71" height="71" fill="white" transform="translate(4)"/>
</clipPath>
</defs>
</svg>
