<svg width="48" height="48" viewBox="0 0 48 48" fill="none" xmlns="http://www.w3.org/2000/svg">
<g clip-path="url(#clip0_17870_1703)">
<path d="M33.0323 13.2473H4.75893C2.99319 15.5401 1.88449 17.9165 1.4506 20.3519C0.906604 23.4055 1.68326 26.5228 3.58152 28.9045C5.33955 31.1101 7.83056 32.3991 10.596 32.5338C10.7586 32.5418 27.0329 32.5418 27.1955 32.5338C29.9609 32.3991 32.4521 31.1101 34.2101 28.9043C36.1083 26.5226 36.885 23.4054 36.3408 20.3518C35.9068 17.9165 34.7981 15.5401 33.0323 13.2473Z" fill="url(#paint0_linear_17870_1703)"/>
<path d="M36.1184 48H1.67271C0.853041 48 0.188477 47.3355 0.188477 46.5158C0.188477 38.5973 6.60768 32.1782 14.5261 32.1782H23.2649C31.1834 32.1782 37.6025 38.5974 37.6025 46.5158C37.6026 47.3355 36.938 48 36.1184 48Z" fill="url(#paint1_linear_17870_1703)"/>
<path d="M37.6024 46.5157C37.6024 38.5972 31.1832 32.178 23.2648 32.178H14.526C13.1118 32.178 11.746 32.3838 10.4556 32.7651V39.1187L19.3366 48H36.1182C36.9378 48 37.6024 47.3355 37.6024 46.5157Z" fill="url(#paint2_linear_17870_1703)"/>
<path d="M14.4135 40.8618C17.3771 40.8618 19.7796 38.4593 19.7796 35.4957C19.7796 32.5321 17.3771 30.1296 14.4135 30.1296C11.4499 30.1296 9.04736 32.5321 9.04736 35.4957C9.04736 38.4593 11.4499 40.8618 14.4135 40.8618Z" fill="url(#paint3_linear_17870_1703)"/>
<path d="M23.3769 40.8618C26.3405 40.8618 28.743 38.4593 28.743 35.4957C28.743 32.5321 26.3405 30.1296 23.3769 30.1296C20.4132 30.1296 18.0107 32.5321 18.0107 35.4957C18.0107 38.4593 20.4132 40.8618 23.3769 40.8618Z" fill="url(#paint4_linear_17870_1703)"/>
<path d="M18.8954 38.3848C21.3706 38.3848 23.3772 36.3783 23.3772 33.9031C23.3772 31.4278 21.3706 29.4213 18.8954 29.4213C16.4201 29.4213 14.4136 31.4278 14.4136 33.9031C14.4136 36.3783 16.4201 38.3848 18.8954 38.3848Z" fill="url(#paint5_linear_17870_1703)"/>
<path d="M18.8954 38.3848C21.3706 38.3848 23.3772 36.3783 23.3772 33.9031C23.3772 31.4278 21.3706 29.4213 18.8954 29.4213C16.4201 29.4213 14.4136 31.4278 14.4136 33.9031C14.4136 36.3783 16.4201 38.3848 18.8954 38.3848Z" fill="url(#paint6_linear_17870_1703)"/>
<path d="M0.188477 46.5158C0.188477 47.3355 0.852947 48 1.67271 48H36.1184C36.938 48 37.6026 47.3355 37.6026 46.5158C37.6026 44.7358 37.2773 43.0321 36.6845 41.4595H1.10659C0.513747 43.0321 0.188477 44.7358 0.188477 46.5158Z" fill="url(#paint7_linear_17870_1703)"/>
<path d="M4.9043 20.1062C4.9043 18.2759 6.17479 16.7424 7.8819 16.3394C8.33818 16.2316 8.77441 16.5846 8.77441 17.0535V23.1589C8.77441 23.6278 8.33818 23.9806 7.8819 23.8729C6.17479 23.4699 4.9043 21.9365 4.9043 20.1062Z" fill="url(#paint8_linear_17870_1703)"/>
<path d="M32.8862 20.1062C32.8862 18.2759 31.6157 16.7424 29.9086 16.3394C29.4523 16.2316 29.0161 16.5846 29.0161 17.0535V23.1589C29.0161 23.6278 29.4523 23.9806 29.9086 23.8729C31.6157 23.4699 32.8862 21.9365 32.8862 20.1062Z" fill="url(#paint9_linear_17870_1703)"/>
<path d="M32.8862 20.1062C32.8862 18.2759 31.6157 16.7424 29.9086 16.3394C29.4523 16.2316 29.0161 16.5846 29.0161 17.0535V23.1589C29.0161 23.6278 29.4523 23.9806 29.9086 23.8729C31.6157 23.4699 32.8862 21.9365 32.8862 20.1062Z" fill="url(#paint10_linear_17870_1703)"/>
<path d="M7.38927 25.4744C8.23826 25.4744 8.9265 24.7862 8.9265 23.9372C8.9265 23.0882 8.23826 22.4 7.38927 22.4C6.54029 22.4 5.85205 23.0882 5.85205 23.9372C5.85205 24.7862 6.54029 25.4744 7.38927 25.4744Z" fill="url(#paint11_linear_17870_1703)"/>
<path d="M30.401 25.4744C31.25 25.4744 31.9382 24.7862 31.9382 23.9372C31.9382 23.0882 31.25 22.4 30.401 22.4C29.552 22.4 28.8638 23.0882 28.8638 23.9372C28.8638 24.7862 29.552 25.4744 30.401 25.4744Z" fill="url(#paint12_linear_17870_1703)"/>
<path d="M18.895 32.4971C12.7123 32.4971 7.7002 27.4851 7.7002 21.3023V15.5614C7.7002 9.37872 12.7123 4.36658 18.895 4.36658C25.0777 4.36658 30.0898 9.37862 30.0898 15.5614V21.3024C30.0898 27.4851 25.0778 32.4971 18.895 32.4971Z" fill="url(#paint13_linear_17870_1703)"/>
<path d="M19.5137 25.9836H18.2769C17.2461 25.9836 16.4657 25.0521 16.6462 24.0373L17.3552 20.0514H20.4354L21.1444 24.0373C21.325 25.0521 20.5446 25.9836 19.5137 25.9836Z" fill="url(#paint14_linear_17870_1703)"/>
<path d="M13.9326 22.515C13.034 22.515 12.3057 21.7866 12.3057 20.8881V20.0537C12.3057 19.1552 13.034 18.4268 13.9326 18.4268C14.8311 18.4268 15.5595 19.1552 15.5595 20.0537V20.8881C15.5595 21.7866 14.8311 22.515 13.9326 22.515Z" fill="url(#paint15_linear_17870_1703)"/>
<path d="M23.8579 22.515C22.9593 22.515 22.231 21.7866 22.231 20.8881V20.0537C22.231 19.1552 22.9593 18.4268 23.8579 18.4268C24.7564 18.4268 25.4848 19.1552 25.4848 20.0537V20.8881C25.4847 21.7866 24.7563 22.515 23.8579 22.515Z" fill="url(#paint16_linear_17870_1703)"/>
<path d="M33.3194 13.3933C33.5494 15.092 32.3403 16.6446 30.7432 16.6586C30.7324 16.6587 30.7216 16.6588 30.7108 16.6588C29.9742 16.6588 29.2859 16.4386 28.6996 16.0547C28.1428 15.6901 27.4408 15.6901 26.884 16.0547C26.2976 16.4387 25.6094 16.6588 24.8728 16.6588C24.1362 16.6588 23.4479 16.4386 22.8616 16.0547C22.3048 15.6901 21.6027 15.6901 21.0459 16.0547C20.4596 16.4387 19.7714 16.6588 19.0347 16.6588C18.2981 16.6588 17.6099 16.4386 17.0235 16.0547C16.4667 15.6901 15.7647 15.6901 15.2079 16.0547C14.6216 16.4387 13.9334 16.6588 13.1967 16.6588C12.4602 16.6588 11.7719 16.4386 11.1856 16.0547C10.6287 15.69 9.92679 15.69 9.36886 16.0547C8.7826 16.4386 8.09442 16.6588 7.35785 16.6588C7.04171 16.6588 6.73432 16.6182 6.44011 16.5415C5.10816 16.1943 4.27079 14.7871 4.47352 13.3304C4.70449 11.6711 5.17743 10.097 5.85319 8.6512C8.24783 3.52104 13.1874 0 18.8919 0C22.9183 0 26.5624 1.75379 29.2018 4.58927C30.2673 5.73431 31.1688 7.05553 31.8644 8.51002C32.5839 10.0131 33.0843 11.6568 33.3194 13.3933Z" fill="url(#paint17_linear_17870_1703)"/>
<path d="M35.7294 14.2162C35.6008 14.0876 35.5025 13.9284 35.4449 13.7557C35.2712 13.2339 34.9653 12.1815 34.8687 10.9968C34.743 9.45563 35.0087 8.20198 35.6584 7.27059C36.1631 6.54711 36.9462 6.07643 37.8069 5.9792C38.604 5.88913 39.3642 6.13092 39.9474 6.65996C39.9817 6.69101 40.0157 6.72339 40.0483 6.75605C40.5694 7.27708 40.8605 7.96979 40.8679 8.70645C40.8692 8.83953 40.8613 8.97139 40.8445 9.10118C40.9743 9.08433 41.1061 9.07633 41.2392 9.07774C41.9759 9.08527 42.6686 9.37638 43.1896 9.89741C43.2223 9.93007 43.2545 9.96396 43.2857 9.99831C43.8147 10.5816 44.0565 11.3417 43.9665 12.1389C43.8692 12.9996 43.3985 13.7827 42.675 14.2873C41.7437 14.937 40.4899 15.2027 38.9489 15.0771C37.7642 14.9805 36.7119 14.6746 36.19 14.5008C36.0172 14.4431 35.8579 14.3448 35.7294 14.2162Z" fill="url(#paint18_linear_17870_1703)"/>
<path d="M35.2034 8.12762C34.8907 8.92631 34.7781 9.88697 34.8687 10.9968C34.9652 12.1815 35.2712 13.2339 35.445 13.7557C35.5025 13.9284 35.6008 14.0876 35.7294 14.2162C35.858 14.3448 36.0172 14.4431 36.1899 14.5006C36.7118 14.6744 37.7641 14.9803 38.9488 15.0769C40.0586 15.1673 41.0194 15.0549 41.818 14.7422L35.2034 8.12762Z" fill="url(#paint19_linear_17870_1703)"/>
<path d="M40.8678 8.70642C40.8602 7.96967 40.5692 7.27706 40.0482 6.75602C40.0155 6.72336 39.9816 6.69108 39.9473 6.65993C39.364 6.13089 38.6039 5.8892 37.8068 5.97917C36.9461 6.0764 36.163 6.54708 35.6583 7.27056C35.2998 7.78444 35.0584 8.39668 34.9351 9.10106H40.8442C40.8612 8.97136 40.8692 8.8395 40.8678 8.70642Z" fill="url(#paint20_linear_17870_1703)"/>
<path d="M46.9186 48H26.1956C25.7025 48 25.3027 47.6002 25.3027 47.1071C25.3027 42.3433 29.1646 38.4814 33.9285 38.4814H39.1859C43.9498 38.4814 47.8117 42.3433 47.8117 47.1071C47.8116 47.6002 47.4118 48 46.9186 48Z" fill="url(#paint21_linear_17870_1703)"/>
<path d="M36.5573 44.724C38.7557 44.724 40.5379 42.9418 40.5379 40.7434C40.5379 38.5449 38.7557 36.7628 36.5573 36.7628C34.3588 36.7628 32.5767 38.5449 32.5767 40.7434C32.5767 42.9418 34.3588 44.724 36.5573 44.724Z" fill="url(#paint22_linear_17870_1703)"/>
<path d="M47.8117 47.1071C47.8117 46.896 47.8037 46.6869 47.7888 46.4795L45.8131 44.5038C45.2282 43.9189 44.2798 43.9189 43.6948 44.5038L43.0808 45.1179C42.4958 45.7028 41.5474 45.7028 40.9625 45.1179L40.3485 44.5038C39.7635 43.9189 38.8151 43.9189 38.2302 44.5038L37.6161 45.1179C37.0312 45.7028 36.0828 45.7028 35.4978 45.1179L34.8838 44.5038C34.2989 43.9189 33.3504 43.9189 32.7655 44.5038L32.1515 45.1179C31.5665 45.7028 30.6181 45.7028 30.0332 45.1179L29.4191 44.5038C28.8342 43.9189 27.8858 43.9189 27.3008 44.5038L25.3251 46.4795C25.3102 46.6868 25.3022 46.896 25.3022 47.107C25.3022 47.6002 25.7021 47.9999 26.1951 47.9999H46.9182C47.4119 48 47.8117 47.6002 47.8117 47.1071Z" fill="url(#paint23_linear_17870_1703)"/>
<path d="M25.3027 47.1071C25.3027 47.6003 25.7025 48 26.1956 48H46.9186C47.4118 48 47.8115 47.6002 47.8115 47.1071C47.8115 46.0362 47.6159 45.0113 47.2592 44.0651H25.8551C25.4984 45.0112 25.3027 46.0362 25.3027 47.1071Z" fill="url(#paint24_linear_17870_1703)"/>
<path d="M36.5574 43.2407C37.9366 43.2407 39.0547 42.1226 39.0547 40.7434C39.0547 39.3641 37.9366 38.246 36.5574 38.246C35.1781 38.246 34.0601 39.3641 34.0601 40.7434C34.0601 42.1226 35.1781 43.2407 36.5574 43.2407Z" fill="url(#paint25_linear_17870_1703)"/>
<path d="M36.5574 43.2407C37.9366 43.2407 39.0547 42.1226 39.0547 40.7434C39.0547 39.3641 37.9366 38.246 36.5574 38.246C35.1781 38.246 34.0601 39.3641 34.0601 40.7434C34.0601 42.1226 35.1781 43.2407 36.5574 43.2407Z" fill="url(#paint26_linear_17870_1703)"/>
<path d="M25.3027 30.7301C25.3027 29.2578 26.3248 28.0243 27.6979 27.7001C28.065 27.6134 28.4159 27.8972 28.4159 28.2745V33.1857C28.4159 33.5628 28.065 33.8467 27.6979 33.7601C26.3248 33.4359 25.3027 32.2023 25.3027 30.7301Z" fill="url(#paint27_linear_17870_1703)"/>
<path d="M47.8119 30.7301C47.8119 29.2578 46.7899 28.0243 45.4167 27.7001C45.0496 27.6134 44.6987 27.8972 44.6987 28.2745V33.1857C44.6987 33.5628 45.0496 33.8467 45.4167 33.7601C46.7898 33.4359 47.8119 32.2023 47.8119 30.7301Z" fill="url(#paint28_linear_17870_1703)"/>
<path d="M47.8119 30.7301C47.8119 29.2578 46.7899 28.0243 45.4167 27.7001C45.0496 27.6134 44.6987 27.8972 44.6987 28.2745V33.1857C44.6987 33.5628 45.0496 33.8467 45.4167 33.7601C46.7898 33.4359 47.8119 32.2023 47.8119 30.7301Z" fill="url(#paint29_linear_17870_1703)"/>
<path d="M36.5574 40.6973C31.5841 40.6973 27.5522 36.6656 27.5522 31.6922V27.0741C27.5522 22.1007 31.584 18.0689 36.5574 18.0689C41.5308 18.0689 45.5626 22.1006 45.5626 27.0741V31.6922C45.5625 36.6656 41.5308 40.6973 36.5574 40.6973Z" fill="url(#paint30_linear_17870_1703)"/>
<path d="M37.1851 36.4762H35.9294C34.883 36.4762 34.0908 35.5306 34.274 34.5003L34.9938 30.4539H38.1208L38.8406 34.5003C39.0237 35.5306 38.2315 36.4762 37.1851 36.4762Z" fill="url(#paint31_linear_17870_1703)"/>
<path d="M32.2595 32.955C31.3474 32.955 30.6079 32.2157 30.6079 31.3035V30.4565C30.6079 29.5444 31.3473 28.8049 32.2595 28.8049C33.1716 28.8049 33.9111 29.5443 33.9111 30.4565V31.3035C33.9111 32.2156 33.1716 32.955 32.2595 32.955Z" fill="url(#paint32_linear_17870_1703)"/>
<path d="M40.8552 32.955C39.943 32.955 39.2036 32.2157 39.2036 31.3035V30.4565C39.2036 29.5444 39.943 28.8049 40.8552 28.8049C41.7673 28.8049 42.5068 29.5443 42.5068 30.4565V31.3035C42.5068 32.2156 41.7674 32.955 40.8552 32.955Z" fill="url(#paint33_linear_17870_1703)"/>
<path d="M46.8907 24.7984C46.8907 26.3873 46.4473 27.4266 45.8376 28.1046C44.6876 29.3837 42.594 28.9289 41.9851 27.3202C41.269 25.4285 39.5774 24.0996 37.6054 24.0996C37.5511 24.0996 37.4967 24.1004 37.4424 24.103C37.7503 21.5382 39.7389 19.5591 42.1458 19.5591C44.7667 19.5591 46.8907 21.9048 46.8907 24.7984Z" fill="url(#paint34_linear_17870_1703)"/>
<path d="M43.9047 20.4489C43.828 19.3838 43.2528 18.41 42.3658 17.8154C41.2925 17.0958 39.4558 16.5001 36.3165 16.5001C34.3122 16.5001 32.8391 16.7429 31.7566 17.1058C31.0241 17.3514 30.2849 17.5777 29.5328 17.7544C27.1041 18.325 25.3027 20.4161 25.3027 22.9088C25.3027 25.8409 27.7947 28.2178 30.8687 28.2178C33.1297 28.2178 37.0345 24.1613 40.5135 24.1613C40.9455 24.1613 41.2903 23.7844 41.6852 23.609C42.5469 23.2266 44.0375 22.2931 43.9047 20.4489Z" fill="url(#paint35_linear_17870_1703)"/>
</g>
<defs>
<linearGradient id="paint0_linear_17870_1703" x1="14.9299" y1="11.1889" x2="21.0841" y2="28.2688" gradientUnits="userSpaceOnUse">
<stop stop-color="#5A5A5A"/>
<stop offset="1" stop-color="#444444"/>
</linearGradient>
<linearGradient id="paint1_linear_17870_1703" x1="14.3542" y1="35.7918" x2="20.1503" y2="47.5649" gradientUnits="userSpaceOnUse">
<stop stop-color="#FD4755"/>
<stop offset="1" stop-color="#CA2E43"/>
</linearGradient>
<linearGradient id="paint2_linear_17870_1703" x1="24.8888" y1="47.8753" x2="22.2033" y2="30.3527" gradientUnits="userSpaceOnUse">
<stop stop-color="#A72B2B" stop-opacity="0"/>
<stop offset="1" stop-color="#42210B"/>
</linearGradient>
<linearGradient id="paint3_linear_17870_1703" x1="14.4135" y1="31.5606" x2="14.4135" y2="44.3219" gradientUnits="userSpaceOnUse">
<stop stop-color="#F9F5F3"/>
<stop offset="1" stop-color="#EFE2DD"/>
</linearGradient>
<linearGradient id="paint4_linear_17870_1703" x1="23.3769" y1="31.5606" x2="23.3769" y2="44.3219" gradientUnits="userSpaceOnUse">
<stop stop-color="#F9F5F3"/>
<stop offset="1" stop-color="#EFE2DD"/>
</linearGradient>
<linearGradient id="paint5_linear_17870_1703" x1="18.8954" y1="30.6164" x2="18.8954" y2="41.2746" gradientUnits="userSpaceOnUse">
<stop stop-color="#FFDFCF"/>
<stop offset="1" stop-color="#FFA78F"/>
</linearGradient>
<linearGradient id="paint6_linear_17870_1703" x1="18.8954" y1="38.9367" x2="18.8954" y2="34.0352" gradientUnits="userSpaceOnUse">
<stop stop-color="#F89580" stop-opacity="0"/>
<stop offset="0.9972" stop-color="#C5715A"/>
</linearGradient>
<linearGradient id="paint7_linear_17870_1703" x1="18.8955" y1="44.1102" x2="18.8955" y2="49.0681" gradientUnits="userSpaceOnUse">
<stop stop-color="#A72B2B" stop-opacity="0"/>
<stop offset="1" stop-color="#42210B"/>
</linearGradient>
<linearGradient id="paint8_linear_17870_1703" x1="6.04312" y1="18.4329" x2="9.15587" y2="21.5458" gradientUnits="userSpaceOnUse">
<stop stop-color="#FFDFCF"/>
<stop offset="1" stop-color="#FFA78F"/>
</linearGradient>
<linearGradient id="paint9_linear_17870_1703" x1="27.8096" y1="17.8417" x2="32.1656" y2="22.1975" gradientUnits="userSpaceOnUse">
<stop stop-color="#FFDFCF"/>
<stop offset="1" stop-color="#FFA78F"/>
</linearGradient>
<linearGradient id="paint10_linear_17870_1703" x1="33.0443" y1="20.1062" x2="30.0162" y2="20.1062" gradientUnits="userSpaceOnUse">
<stop stop-color="#F89580" stop-opacity="0"/>
<stop offset="0.9972" stop-color="#C5715A"/>
</linearGradient>
<linearGradient id="paint11_linear_17870_1703" x1="6.67558" y1="23.2235" x2="8.44047" y2="24.9884" gradientUnits="userSpaceOnUse">
<stop stop-color="#FEE45A"/>
<stop offset="1" stop-color="#FEA613"/>
</linearGradient>
<linearGradient id="paint12_linear_17870_1703" x1="29.6873" y1="23.2235" x2="31.4522" y2="24.9884" gradientUnits="userSpaceOnUse">
<stop stop-color="#FEE45A"/>
<stop offset="1" stop-color="#FEA613"/>
</linearGradient>
<linearGradient id="paint13_linear_17870_1703" x1="11.3794" y1="13.3793" x2="26.3127" y2="23.4185" gradientUnits="userSpaceOnUse">
<stop stop-color="#FFDFCF"/>
<stop offset="1" stop-color="#FFA78F"/>
</linearGradient>
<linearGradient id="paint14_linear_17870_1703" x1="18.8953" y1="22.3466" x2="18.8953" y2="26.7388" gradientUnits="userSpaceOnUse">
<stop stop-color="#F89580" stop-opacity="0"/>
<stop offset="0.9972" stop-color="#C5715A"/>
</linearGradient>
<linearGradient id="paint15_linear_17870_1703" x1="12.8715" y1="19.6899" x2="15.1303" y2="21.3527" gradientUnits="userSpaceOnUse">
<stop stop-color="#5A5A5A"/>
<stop offset="1" stop-color="#444444"/>
</linearGradient>
<linearGradient id="paint16_linear_17870_1703" x1="22.6866" y1="19.5926" x2="24.6944" y2="21.0984" gradientUnits="userSpaceOnUse">
<stop stop-color="#5A5A5A"/>
<stop offset="1" stop-color="#444444"/>
</linearGradient>
<linearGradient id="paint17_linear_17870_1703" x1="14.6019" y1="5.32762" x2="18.9313" y2="12.857" gradientUnits="userSpaceOnUse">
<stop stop-color="#5A5A5A"/>
<stop offset="1" stop-color="#444444"/>
</linearGradient>
<linearGradient id="paint18_linear_17870_1703" x1="39.4258" y1="8.32532" x2="39.4258" y2="14.6236" gradientUnits="userSpaceOnUse">
<stop stop-color="#FEAEE1"/>
<stop offset="1" stop-color="#FE5694"/>
</linearGradient>
<linearGradient id="paint19_linear_17870_1703" x1="37.5909" y1="12.4039" x2="35.0907" y2="14.904" gradientUnits="userSpaceOnUse">
<stop stop-color="#FD3581" stop-opacity="0"/>
<stop offset="1" stop-color="#D2024E"/>
</linearGradient>
<linearGradient id="paint20_linear_17870_1703" x1="39.5237" y1="8.16812" x2="42.7461" y2="8.8533" gradientUnits="userSpaceOnUse">
<stop stop-color="#FD3581" stop-opacity="0"/>
<stop offset="1" stop-color="#D2024E"/>
</linearGradient>
<linearGradient id="paint21_linear_17870_1703" x1="33.8251" y1="40.6554" x2="37.3121" y2="47.7383" gradientUnits="userSpaceOnUse">
<stop stop-color="#AEFFD1"/>
<stop offset="1" stop-color="#60B7FF"/>
</linearGradient>
<linearGradient id="paint22_linear_17870_1703" x1="36.1408" y1="40.2414" x2="38.9335" y2="43.607" gradientUnits="userSpaceOnUse">
<stop stop-color="#FEE45A"/>
<stop offset="1" stop-color="#FEA613"/>
</linearGradient>
<linearGradient id="paint23_linear_17870_1703" x1="35.8334" y1="42.5559" x2="37.402" y2="51.9676" gradientUnits="userSpaceOnUse">
<stop stop-color="#1F3596" stop-opacity="0"/>
<stop offset="0.4068" stop-color="#1D3290" stop-opacity="0.407"/>
<stop offset="0.9508" stop-color="#192B7F" stop-opacity="0.951"/>
<stop offset="1" stop-color="#192A7D"/>
</linearGradient>
<linearGradient id="paint24_linear_17870_1703" x1="36.5571" y1="45.6599" x2="36.5571" y2="48.6426" gradientUnits="userSpaceOnUse">
<stop stop-color="#1F3596" stop-opacity="0"/>
<stop offset="0.4068" stop-color="#1D3290" stop-opacity="0.407"/>
<stop offset="0.9508" stop-color="#192B7F" stop-opacity="0.951"/>
<stop offset="1" stop-color="#192A7D"/>
</linearGradient>
<linearGradient id="paint25_linear_17870_1703" x1="34.9585" y1="39.1445" x2="37.6498" y2="41.8358" gradientUnits="userSpaceOnUse">
<stop stop-color="#FFDFCF"/>
<stop offset="1" stop-color="#FFA78F"/>
</linearGradient>
<linearGradient id="paint26_linear_17870_1703" x1="36.5574" y1="41.86" x2="36.5574" y2="39.8878" gradientUnits="userSpaceOnUse">
<stop stop-color="#F89580" stop-opacity="0"/>
<stop offset="0.9972" stop-color="#C5715A"/>
</linearGradient>
<linearGradient id="paint27_linear_17870_1703" x1="26.2188" y1="29.3841" x2="28.7228" y2="31.8881" gradientUnits="userSpaceOnUse">
<stop stop-color="#FFDFCF"/>
<stop offset="1" stop-color="#FFA78F"/>
</linearGradient>
<linearGradient id="paint28_linear_17870_1703" x1="43.7282" y1="28.9084" x2="47.2321" y2="32.4124" gradientUnits="userSpaceOnUse">
<stop stop-color="#FFDFCF"/>
<stop offset="1" stop-color="#FFA78F"/>
</linearGradient>
<linearGradient id="paint29_linear_17870_1703" x1="47.9389" y1="30.7301" x2="45.5032" y2="30.7301" gradientUnits="userSpaceOnUse">
<stop stop-color="#F89580" stop-opacity="0"/>
<stop offset="0.9972" stop-color="#C5715A"/>
</linearGradient>
<linearGradient id="paint30_linear_17870_1703" x1="30.5118" y1="25.319" x2="42.5242" y2="33.3946" gradientUnits="userSpaceOnUse">
<stop stop-color="#FFDFCF"/>
<stop offset="1" stop-color="#FFA78F"/>
</linearGradient>
<linearGradient id="paint31_linear_17870_1703" x1="36.5572" y1="32.7841" x2="36.5572" y2="37.2429" gradientUnits="userSpaceOnUse">
<stop stop-color="#F89580" stop-opacity="0"/>
<stop offset="0.9972" stop-color="#C5715A"/>
</linearGradient>
<linearGradient id="paint32_linear_17870_1703" x1="31.1823" y1="30.0871" x2="33.4754" y2="31.775" gradientUnits="userSpaceOnUse">
<stop stop-color="#5A5A5A"/>
<stop offset="1" stop-color="#444444"/>
</linearGradient>
<linearGradient id="paint33_linear_17870_1703" x1="39.6662" y1="29.9883" x2="41.7045" y2="31.5169" gradientUnits="userSpaceOnUse">
<stop stop-color="#5A5A5A"/>
<stop offset="1" stop-color="#444444"/>
</linearGradient>
<linearGradient id="paint34_linear_17870_1703" x1="41.0053" y1="22.1276" x2="44.5308" y2="25.6531" gradientUnits="userSpaceOnUse">
<stop stop-color="#5A5A5A"/>
<stop offset="1" stop-color="#444444"/>
</linearGradient>
<linearGradient id="paint35_linear_17870_1703" x1="31.0964" y1="18.6403" x2="36.3972" y2="23.9411" gradientUnits="userSpaceOnUse">
<stop stop-color="#5A5A5A"/>
<stop offset="1" stop-color="#444444"/>
</linearGradient>
<clipPath id="clip0_17870_1703">
<rect width="48" height="48" fill="white"/>
</clipPath>
</defs>
</svg>
