<svg width="30" height="35" viewBox="0 0 30 35" fill="none" xmlns="http://www.w3.org/2000/svg">
<g clip-path="url(#clip0_18184_3371)">
<g opacity="0.3">
<path d="M29.0885 6.89049C28.8519 6.73672 28.5767 6.66541 28.2606 6.69438C24.3407 7.04648 21.0186 9.96352 19.5027 11.5234C19.0404 11.9981 18.2857 11.9624 17.8643 11.4477C17.8643 11.4477 22.1196 6.12613 27.5016 5.64478C28.2456 5.57793 28.7724 6.06373 29.0885 6.89272V6.89049Z" fill="white"/>
<path d="M18.7177 11.9C18.7005 11.9 18.6833 11.9 18.6683 11.9C18.3458 11.8844 18.0426 11.7306 17.834 11.4744L17.8125 11.4476L17.834 11.4209C17.877 11.3674 22.1624 6.08151 27.4993 5.6024C28.2218 5.53777 28.7873 5.979 29.1292 6.87707L29.1765 6.99963L29.069 6.93055C28.8346 6.77679 28.5636 6.71439 28.2669 6.74113C24.4051 7.08654 21.1389 9.90776 19.5348 11.5568C19.3177 11.7797 19.0231 11.9044 18.7199 11.9044L18.7177 11.9ZM17.92 11.4454C18.1114 11.666 18.3845 11.7997 18.6704 11.8131C18.9715 11.8265 19.2575 11.7128 19.4725 11.4922C21.0851 9.83422 24.3686 6.99963 28.2562 6.652C28.5271 6.62748 28.7787 6.67428 29.0023 6.79239C28.6712 6.0102 28.1551 5.63137 27.5036 5.68708C22.4032 6.14391 18.2619 11.0287 17.9179 11.4454H17.92Z" fill="#390075"/>
</g>
<path d="M23.9727 16.4013C23.7814 15.4475 22.8245 14.1773 21.9967 13.2213C21.2484 12.3566 21.3709 11.0173 22.2547 10.3042C23.8072 9.04517 25.5316 8.31201 26.6777 7.92426C27.3572 7.69473 28.0431 8.24962 27.998 8.98723C27.927 10.1327 27.6367 11.8396 26.682 13.6536C25.6499 15.6146 24.0953 16.399 24.0953 16.399" fill="#FF6C6C"/>
<path d="M24.1126 16.437L24.0761 16.359C24.0911 16.3523 25.6307 15.5567 26.6435 13.6313C27.6003 11.8129 27.8841 10.0992 27.9551 8.9828C27.9766 8.64853 27.8368 8.32763 27.581 8.12262C27.3229 7.91537 26.9983 7.85743 26.6886 7.96217C25.5275 8.3566 23.8181 9.08753 22.2785 10.3355C21.8635 10.672 21.599 11.1756 21.5539 11.7171C21.5066 12.2608 21.6764 12.7845 22.0269 13.1901C22.8247 14.1105 23.8159 15.4141 24.0137 16.3902L23.932 16.408C23.7407 15.4498 22.7559 14.1617 21.9646 13.248C21.5969 12.8246 21.4227 12.2787 21.47 11.7082C21.5173 11.1422 21.7947 10.6162 22.2269 10.2664C23.7772 9.01177 25.4952 8.27638 26.6628 7.87972C26.994 7.76829 27.3552 7.83292 27.6304 8.05353C27.9078 8.27638 28.0583 8.62402 28.0368 8.98725C27.9659 10.1126 27.682 11.8397 26.7166 13.6715C25.6888 15.6213 24.1277 16.428 24.1126 16.4347V16.437Z" fill="#390075"/>
<path d="M23.6656 13.7072C23.4872 14.046 23.2936 14.349 23.0937 14.6209C22.7539 14.1306 22.3626 13.6448 21.9949 13.2214C21.2466 12.3568 21.3692 11.0175 22.2508 10.3022C23.1345 9.58683 24.072 9.04086 24.9278 8.63306C24.9708 8.76008 24.9902 8.89824 24.9794 9.04309C24.9085 10.1885 24.6182 11.8955 23.6635 13.7072H23.6656Z" fill="#FF6C6C"/>
<path d="M23.0937 14.6923L23.0615 14.6455C22.7647 14.2154 22.3949 13.7452 21.967 13.2505C21.5993 12.8271 21.4252 12.2811 21.4725 11.7129C21.5198 11.1469 21.795 10.6209 22.2293 10.2688C23.012 9.63597 23.9151 9.07217 24.915 8.59305L24.9558 8.573L24.9709 8.61757C25.016 8.7535 25.0354 8.89835 25.0268 9.04543C24.9558 10.1708 24.6698 11.8978 23.7044 13.7274C23.5388 14.0438 23.3453 14.3536 23.1303 14.6455L23.0959 14.6923H23.0937ZM24.9042 8.69333C23.928 9.16354 23.0443 9.71619 22.2788 10.3379C21.8638 10.6744 21.5993 11.1781 21.5542 11.7218C21.509 12.2655 21.6767 12.7892 22.0272 13.1948C22.4422 13.6761 22.8013 14.1307 23.0959 14.5497C23.2959 14.2734 23.4743 13.9837 23.6313 13.6895C24.5881 11.8711 24.872 10.1597 24.9429 9.0432C24.9515 8.92509 24.9386 8.80698 24.9064 8.69556L24.9042 8.69333Z" fill="#390075"/>
<g opacity="0.3">
<path d="M6.99658 0.915902C7.27611 0.900303 7.54919 0.978299 7.81152 1.16326C11.0648 3.4541 12.5893 7.6837 13.1763 9.81186C13.3548 10.4603 14.0321 10.8124 14.6406 10.574C14.6406 10.574 13.4365 3.77723 8.96834 0.630661C8.35123 0.196113 7.661 0.352105 6.99658 0.915902Z" fill="white"/>
<path d="M14.2495 10.6921C14.0689 10.6921 13.8904 10.6498 13.727 10.5651C13.4389 10.4158 13.2238 10.1462 13.1357 9.82526C12.5143 7.5723 10.9941 3.45858 7.78807 1.20116C7.54079 1.02735 7.27631 0.947121 6.99893 0.960492L6.87207 0.967177L6.97098 0.884725C7.69346 0.27413 8.39228 0.176078 8.99435 0.597255C13.426 3.71708 14.6731 10.5005 14.6839 10.5696L14.6903 10.6052L14.6581 10.6186C14.5269 10.6698 14.3893 10.6944 14.2517 10.6944L14.2495 10.6921ZM7.1172 0.873582C7.36877 0.884725 7.6096 0.969406 7.83322 1.12763C11.0607 3.40064 12.5917 7.53664 13.2152 9.80075C13.2991 10.1016 13.4926 10.3467 13.7636 10.4871C14.0194 10.6208 14.3205 10.6431 14.5914 10.5473C14.4882 10.008 13.1765 3.65023 8.94274 0.668565C8.40088 0.287501 7.77087 0.358811 7.11505 0.873582H7.1172Z" fill="#390075"/>
</g>
<path d="M6.97729 11.8042C7.5944 11.0688 9.02645 10.4449 10.2005 10.0304C11.2605 9.65599 11.7852 8.42589 11.3509 7.354C10.5897 5.46874 9.4307 3.95785 8.61361 3.0375C8.12981 2.49376 7.26757 2.62969 6.96008 3.29823C6.48273 4.33223 5.93012 5.97014 5.90862 8.03591C5.88497 10.271 6.87192 11.7418 6.87192 11.7418" fill="#FF6C6C"/>
<path d="M7.00752 11.8331L6.94516 11.7774C7.57733 11.0242 9.05669 10.3913 10.1877 9.99016C10.6866 9.81411 11.0801 9.44196 11.2951 8.94502C11.5101 8.44807 11.5166 7.87536 11.3144 7.37174C10.5597 5.50207 9.41363 4.00009 8.58579 3.0686C8.36647 2.82124 8.05468 2.70759 7.73215 2.75662C7.41391 2.80565 7.14084 3.01512 7.00107 3.31819C6.53447 4.32768 5.97541 5.96558 5.95391 8.03804C5.93026 10.2308 6.90001 11.7038 6.90861 11.7172L6.8398 11.7662C6.82905 11.7506 5.8464 10.2576 5.87005 8.03581C5.89155 5.94776 6.45706 4.29871 6.92581 3.2803C7.07633 2.95272 7.37306 2.72542 7.71925 2.67194C8.06543 2.61846 8.41162 2.74548 8.646 3.01066C9.47813 3.94661 10.6307 5.4575 11.3897 7.33831C11.6026 7.86422 11.594 8.46145 11.3703 8.98067C11.1446 9.50213 10.7339 9.88988 10.2135 10.0726C9.09324 10.4693 7.62679 11.0955 7.00752 11.8353V11.8331Z" fill="#390075"/>
<path d="M8.51511 9.60921C8.51081 9.99473 8.53661 10.358 8.58392 10.6967C9.11288 10.4404 9.68269 10.2153 10.2009 10.0326C11.261 9.65823 11.7856 8.42813 11.3534 7.35625C10.9212 6.28436 10.36 5.33282 9.80525 4.54395C9.70849 4.63308 9.62678 4.74228 9.56658 4.87376C9.08922 5.90776 8.53661 7.54566 8.51511 9.61144V9.60921Z" fill="#FF6C6C"/>
<path d="M8.54958 10.7591L8.54098 10.7011C8.49153 10.3357 8.46788 9.96798 8.47218 9.60697C8.49368 7.52114 9.05704 5.86986 9.52794 4.85146C9.58815 4.71775 9.672 4.60187 9.77737 4.50605L9.81177 4.47485L9.83972 4.51274C10.4869 5.43531 11.0094 6.38463 11.3922 7.33395C11.6051 7.85987 11.5965 8.45932 11.3707 8.97632C11.1449 9.49555 10.7342 9.8833 10.2139 10.0683C9.60535 10.2844 9.06134 10.5073 8.60119 10.7301L8.54958 10.7546V10.7591ZM9.79887 4.60633C9.71931 4.68656 9.65265 4.78238 9.6032 4.89157C9.1366 5.90106 8.57754 7.53897 8.55604 9.6092C8.55174 9.94569 8.57324 10.2911 8.61624 10.6321C9.06994 10.4137 9.59675 10.1997 10.1859 9.99026C10.6848 9.81421 11.0761 9.44206 11.2933 8.94512C11.5083 8.44818 11.5169 7.87547 11.3126 7.37184C10.9363 6.44257 10.4267 5.51331 9.79672 4.60633H9.79887Z" fill="#390075"/>
<path d="M25.9513 25.079C25.1364 24.3325 24.7644 22.4762 24.758 21.596C24.7558 21.0879 24.6935 20.0695 24.6418 19.2985C30.026 16.6444 31.1205 5.43305 27.7253 5.73612C23.8936 6.0793 20.6317 8.876 19.0706 10.4582C17.716 9.72727 16.658 9.52671 16.658 9.52671C16.658 9.52671 15.613 9.15679 14.0541 9.11667C13.4413 6.95062 11.9146 2.84359 8.72585 0.599545C5.90045 -1.39046 1.54624 9.02753 5.06401 14.0505C4.65977 14.6922 4.14156 15.5235 3.90504 15.958C3.48574 16.7224 2.28376 18.153 1.22155 18.3915C0.593684 18.5319 0.447469 19.0043 0.737749 19.4656C0.924819 19.762 1.29251 20.0561 1.82792 20.2545C1.87092 20.2701 1.91392 20.2857 1.95908 20.3013C1.95908 20.3013 1.95908 20.3013 1.95693 20.3013C1.91823 20.3146 1.59354 20.4238 0.761402 20.718C-0.0556852 21.0077 0.346408 21.7921 1.35702 22.7459C2.36762 23.6974 3.50294 25.5849 3.75667 25.888C3.90504 26.0662 4.67052 27.1314 6.3391 28.2746C7.52602 29.088 9.1688 29.9393 11.3728 30.5343C16.6709 31.9672 19.8425 30.4741 20.2081 30.3382C20.5736 30.2022 22.4529 29.1304 23.7839 28.8117C25.1149 28.493 25.8352 28.0095 25.259 27.3431C24.6311 26.6167 24.4096 26.3715 24.4096 26.3715C24.4548 26.3805 24.4978 26.3894 24.5408 26.3983C25.1041 26.4963 25.5664 26.4273 25.8696 26.2624C26.3405 26.0061 26.4351 25.5203 25.9535 25.0813L25.9513 25.079Z" fill="#FF642E"/>
<g opacity="0.4">
<path d="M27.4736 6.73887C24.2396 7.02857 21.5669 9.44198 19.8747 11.1378C19.3866 11.6281 18.6619 11.7729 18.0341 11.5011C17.0837 11.091 16.3203 10.8793 16.3203 10.8793C16.3203 10.8793 15.5355 10.6699 14.4862 10.5473C13.8067 10.4671 13.2369 9.98126 13.0412 9.30381C12.3661 6.96617 11.1727 3.49648 8.47846 1.60007C6.9776 0.543784 5.0467 2.98171 4.08984 6.2553C4.89403 2.46025 7.08941 -0.668491 8.75369 0.505901C11.9425 2.74995 13.4691 6.85698 14.082 9.02303C15.6409 9.06314 16.6859 9.43529 16.6859 9.43529C16.6859 9.43529 17.7438 9.63585 19.0963 10.3668C20.6574 8.78458 23.9193 5.98788 27.751 5.6447C29.755 5.4642 30.1958 9.30604 29.1078 13.0253C29.8173 9.68488 29.2819 6.57842 27.4736 6.7411V6.73887Z" fill="white"/>
</g>
<path d="M23.7815 28.8095C22.4505 29.1282 20.5712 30.2001 20.2057 30.336C19.8401 30.4719 16.6685 31.965 11.3704 30.5321C9.16639 29.9371 7.52361 29.0858 6.33668 28.2725C4.66811 27.1315 3.90262 26.0641 3.75426 25.8858C3.50053 25.5827 2.36521 23.6952 1.3546 22.7437C0.343995 21.7899 -0.0559475 21.0055 0.758989 20.7158C1.59113 20.4216 1.91581 20.3124 1.95452 20.2991H1.95667C1.91151 20.2835 1.86636 20.2701 1.8255 20.2523C2.01472 20.2389 2.2233 20.2344 2.45122 20.2389C4.29397 20.2835 5.89159 23.3699 9.27605 22.9576C11.8735 22.6412 12.3337 16.6444 13.3335 15.3229C13.3443 15.3096 13.3529 15.2962 13.3636 15.2828C14.4151 13.9213 16.5331 14.494 16.8105 16.2143C16.8126 16.2322 16.8169 16.2478 16.8191 16.2656C17.0685 17.9258 14.643 23.3899 16.7588 24.981C19.5176 27.0557 22.3666 25.1705 23.9965 26.0641C24.1986 26.1755 24.3771 26.2847 24.5384 26.3939C24.4954 26.3872 24.4502 26.3783 24.4072 26.3671C24.4072 26.3671 24.6287 26.6123 25.2566 27.3387C25.8328 28.005 25.1125 28.4886 23.7815 28.8073V28.8095Z" fill="white"/>
<path d="M19.0724 10.8058C19.0208 10.8058 18.9671 10.7924 18.9176 10.7657C17.6232 10.066 16.6104 9.86986 16.5997 9.86764C16.5825 9.86541 16.5674 9.86095 16.5524 9.85427C16.5416 9.84981 15.531 9.49994 14.0495 9.46206C13.8646 9.4576 13.7184 9.29938 13.7248 9.10774C13.7291 8.92055 13.8775 8.77124 14.0581 8.77124C14.0602 8.77124 14.0646 8.77124 14.0667 8.77124C15.5482 8.80912 16.5739 9.13448 16.7459 9.19242C16.9179 9.22807 17.9414 9.4576 19.2273 10.1529C19.3907 10.242 19.4552 10.4493 19.3692 10.6209C19.309 10.739 19.1928 10.808 19.0724 10.808V10.8058Z" fill="#472114"/>
<path d="M5.33477 14.2332C5.03803 14.7056 4.7413 15.178 4.45747 15.6549C4.38652 15.773 4.31556 15.8933 4.2489 16.0115C4.18654 16.1229 4.10699 16.2677 4.02743 16.3903C3.86616 16.6399 3.69199 16.8716 3.50492 17.0945C3.13078 17.5379 2.71794 17.9502 2.22553 18.2867C1.97826 18.4516 1.70948 18.6009 1.3977 18.6923L1.28373 18.7213C1.25793 18.7279 1.23213 18.7346 1.20848 18.7413C1.16117 18.7569 1.11387 18.7747 1.07731 18.797C0.999904 18.8394 0.954749 18.8884 0.935397 18.9352C0.913895 18.9798 0.911744 19.0377 0.931096 19.1179C0.954749 19.1959 0.999904 19.285 1.06871 19.3675C1.20203 19.5346 1.3977 19.6795 1.61057 19.7931C1.66432 19.8221 1.71808 19.8488 1.77614 19.8734C1.80409 19.8867 1.83204 19.8979 1.86215 19.909L1.90515 19.9268L1.93095 19.938C1.94385 19.9447 1.95676 19.9514 1.96751 19.958C1.99331 19.9736 2.01696 19.9915 2.03846 20.0138C2.08147 20.0561 2.11372 20.1096 2.13092 20.1631C2.16748 20.27 2.16103 20.377 2.11372 20.4773C2.09007 20.5263 2.05352 20.5731 2.01051 20.611C1.98901 20.6288 1.96536 20.6444 1.93955 20.6578C1.92665 20.6645 1.91375 20.6689 1.90085 20.6734L1.88795 20.6778L1.79119 20.7113L1.59767 20.7781L0.834336 21.0455C0.739726 21.0812 0.677369 21.1324 0.660168 21.1592C0.651567 21.1725 0.647266 21.1837 0.645116 21.206C0.642966 21.2283 0.645116 21.2617 0.655867 21.3018C0.673069 21.3842 0.724674 21.4868 0.782731 21.5893C0.845087 21.6918 0.918195 21.7921 0.999904 21.8923C1.16117 22.0929 1.34609 22.2845 1.53961 22.4673C1.74603 22.6656 1.95031 22.8818 2.13522 23.0979C2.50721 23.5369 2.84265 23.9938 3.16518 24.455L3.64254 25.1503L3.87691 25.4913C3.91346 25.5425 3.95647 25.6027 3.98657 25.6406C4.02098 25.6852 4.07043 25.7409 4.11344 25.7899C4.47037 26.1955 4.85742 26.581 5.25736 26.9442C5.65945 27.3075 6.07445 27.6529 6.51094 27.9649C6.94529 28.2813 7.39469 28.5688 7.86344 28.8139C7.97955 28.8763 8.09996 28.932 8.21607 28.9899L8.58591 29.1571L9.33419 29.4824C10.3362 29.9058 11.3468 30.3159 12.3789 30.659C12.4348 30.6791 12.4671 30.7415 12.4499 30.7994C12.4327 30.8529 12.3832 30.8841 12.3316 30.8752C11.2393 30.7058 10.1771 30.3961 9.13422 30.0351C8.87404 29.9459 8.61387 29.8501 8.35584 29.7498L7.9688 29.5983C7.83548 29.5426 7.70432 29.4869 7.57746 29.4223C7.06355 29.1771 6.57545 28.8807 6.1153 28.5487C5.195 27.8824 4.36931 27.1024 3.62103 26.2423C3.57373 26.1866 3.53072 26.1375 3.47912 26.0729C3.42321 26.0016 3.38666 25.9459 3.3415 25.8835L3.10498 25.5314C2.95016 25.2996 2.79535 25.0679 2.63623 24.8428C2.32014 24.3904 1.99331 23.947 1.64497 23.5347C1.4708 23.3275 1.29234 23.1403 1.09881 22.9531C0.890242 22.7547 0.68812 22.5475 0.4989 22.3135C0.40429 22.1954 0.313981 22.0728 0.230122 21.9347C0.148413 21.7943 0.0688545 21.645 0.0215494 21.4511C4.71221e-05 21.3553 -0.0150045 21.2461 -0.00425334 21.128C0.00649781 21.0099 0.0473522 20.8828 0.11616 20.7781C0.253774 20.5686 0.440844 20.4706 0.597811 20.4082L1.38479 20.1319L1.57832 20.065L1.67508 20.0316C1.66647 20.0338 1.65787 20.0383 1.64927 20.0427C1.63207 20.0516 1.61487 20.0628 1.59982 20.0761C1.56756 20.1029 1.54391 20.1341 1.52671 20.1697C1.49446 20.2388 1.49016 20.3079 1.51596 20.3814C1.52886 20.4171 1.55036 20.455 1.58262 20.4862C1.59767 20.5018 1.61487 20.5152 1.63207 20.5263C1.64067 20.5308 1.64927 20.5352 1.65787 20.5397C1.66647 20.5441 1.67938 20.5486 1.67293 20.5463L1.62132 20.5241C1.58692 20.5085 1.55036 20.4973 1.51596 20.4795C1.44715 20.4483 1.37834 20.4149 1.30954 20.3792C1.03861 20.2344 0.77843 20.0494 0.561257 19.782C0.453745 19.6483 0.361286 19.4878 0.303229 19.2962C0.277427 19.1981 0.260225 19.0934 0.264525 18.982C0.268826 18.8706 0.292478 18.7547 0.339783 18.6499C0.432243 18.436 0.602111 18.2867 0.763379 18.1976C0.845087 18.1508 0.928946 18.1196 1.01065 18.0928C1.05151 18.0795 1.09236 18.0705 1.13322 18.0594L1.21708 18.0371C1.43425 17.9747 1.65357 17.8588 1.86215 17.7184C2.28144 17.4332 2.66418 17.0566 3.00607 16.6488C3.17594 16.446 3.3372 16.2298 3.47912 16.0115C3.55223 15.9 3.60598 15.7998 3.68124 15.666C3.7522 15.5413 3.82531 15.4187 3.89626 15.2961C4.18654 14.8103 4.48328 14.3357 4.78216 13.861C4.87892 13.705 5.08104 13.6627 5.2294 13.763C5.37992 13.8632 5.42078 14.0727 5.32402 14.2265L5.33477 14.2332Z" fill="#472114"/>
<path d="M24.9663 19.2784C25.0007 19.7241 25.0329 20.172 25.0587 20.6199C25.0716 20.845 25.0824 21.0679 25.091 21.2974L25.0996 21.6361C25.0996 21.7364 25.1103 21.8389 25.1189 21.9436C25.162 22.3604 25.2437 22.7838 25.3598 23.1893C25.4737 23.5949 25.6243 23.9894 25.8221 24.3325C25.9231 24.4974 26.0328 24.6624 26.1597 24.7782L26.1833 24.8027L26.2199 24.8384C26.2435 24.8629 26.2693 24.8852 26.293 24.9119C26.3403 24.9632 26.3854 25.0211 26.4284 25.0835C26.5123 25.2083 26.5854 25.3643 26.6134 25.5448C26.6435 25.7253 26.6091 25.9281 26.5295 26.0908C26.4499 26.2557 26.3338 26.376 26.2134 26.4696C25.9704 26.6546 25.7103 26.7326 25.4608 26.7772C25.2093 26.8173 24.9641 26.8195 24.7233 26.7927C24.6631 26.7883 24.605 26.7771 24.5448 26.7705H24.5341L24.5276 26.7682C24.5599 26.7727 24.5986 26.7727 24.6351 26.7638C24.7104 26.746 24.7706 26.6992 24.8072 26.6479C24.8437 26.5966 24.8652 26.5365 24.8674 26.4674C24.8674 26.3983 24.8416 26.3181 24.7986 26.2668L25.005 26.5031L25.4372 27.0045C25.5619 27.1538 25.8371 27.4368 25.8006 27.8691C25.7941 27.9203 25.7834 27.9716 25.7726 28.0206C25.7554 28.0652 25.7382 28.1098 25.7167 28.1543C25.6974 28.2011 25.6716 28.2346 25.6479 28.2702C25.6221 28.3036 25.5984 28.3437 25.5705 28.3705C25.5167 28.424 25.463 28.4841 25.4071 28.5243C25.3512 28.5688 25.2974 28.6112 25.2415 28.6424C25.02 28.7805 24.8007 28.8719 24.5835 28.9499C24.3642 29.0234 24.147 29.088 23.9299 29.1393L23.6288 29.2173C23.5299 29.2463 23.431 29.2775 23.3343 29.3087C22.5451 29.5761 21.7689 29.9482 20.9948 30.3315C20.797 30.4273 20.6142 30.5232 20.3927 30.6212L20.3024 30.6569L20.225 30.6836L20.0659 30.7393C19.9605 30.775 19.853 30.8084 19.7477 30.8396C19.3219 30.9666 18.8919 31.0625 18.4575 31.1427C18.0232 31.2184 17.5888 31.2719 17.1523 31.3031C16.933 31.3187 16.7159 31.3276 16.4965 31.3299C16.2794 31.3388 16.06 31.3299 15.8407 31.3254C15.7482 31.3254 15.6751 31.243 15.6773 31.1471C15.6773 31.058 15.7439 30.9867 15.8278 30.9778H15.83C16.6793 30.8797 17.52 30.746 18.3457 30.5521C18.7586 30.4585 19.165 30.3427 19.5649 30.2134C19.6638 30.18 19.7627 30.1466 19.8616 30.1109L20.0079 30.0552L20.0831 30.0262L20.1433 29.9995C20.3175 29.9215 20.5175 29.8145 20.7088 29.7187C21.4872 29.3243 22.2742 28.9343 23.1214 28.6379C23.2289 28.6022 23.3364 28.5688 23.4439 28.5332L23.7686 28.4463C23.9707 28.3972 24.1664 28.3348 24.3578 28.2702C24.5448 28.2011 24.7276 28.1209 24.8738 28.0251C24.9491 27.9783 25.0071 27.927 25.0501 27.8802C25.0824 27.8334 25.106 27.8022 25.0996 27.7889C25.162 27.7465 24.7341 27.3053 24.476 26.9978L24.2503 26.737C24.19 26.6657 24.1513 26.5565 24.1556 26.4607C24.1556 26.3627 24.1879 26.2757 24.2395 26.2022C24.2933 26.1287 24.3771 26.0663 24.4782 26.0418C24.5276 26.0306 24.5792 26.0284 24.6265 26.0351L24.6523 26.0395C24.6997 26.0462 24.747 26.0551 24.7943 26.0574C24.9835 26.0774 25.1706 26.0752 25.3469 26.0484C25.5189 26.0195 25.6823 25.9593 25.7877 25.8769C25.8393 25.8367 25.878 25.7944 25.893 25.7565C25.9081 25.7186 25.9167 25.6919 25.9102 25.6518C25.9038 25.6117 25.8844 25.5582 25.8457 25.5025C25.8264 25.4735 25.8027 25.4445 25.7769 25.4156C25.7662 25.4 25.749 25.3866 25.7339 25.3732L25.6759 25.3153C25.4802 25.1326 25.3447 24.9209 25.2157 24.7114C24.9727 24.2857 24.805 23.8423 24.6846 23.3899C24.562 22.9375 24.476 22.4807 24.433 22.0083C24.4244 21.8902 24.4158 21.7698 24.4137 21.6473L24.4094 21.3175C24.4051 21.0991 24.3943 20.8762 24.3857 20.6556L24.3191 19.323C24.3105 19.1358 24.4459 18.9776 24.6244 18.9687C24.8007 18.9598 24.9491 19.0979 24.9641 19.2784H24.9663Z" fill="#472114"/>
<path d="M5.91084 8.03588C5.88719 10.2688 6.87199 11.7396 6.87199 11.7396L6.9752 11.8042C7.31924 11.3941 7.91701 11.0198 8.58143 10.6944C9.11038 10.4381 9.68019 10.2131 10.1984 10.0303C11.2585 9.65596 11.7831 8.42586 11.3509 7.35397C10.9187 6.28209 10.3575 5.33054 9.80276 4.54167C9.38131 3.94222 8.96417 3.43413 8.61368 3.0397C8.12988 2.49596 7.26979 2.63189 6.96015 3.30043C6.4828 4.33665 5.93019 5.97233 5.90869 8.03811L5.91084 8.03588Z" fill="#FF8261"/>
<path d="M6.89573 11.559C6.90649 11.5256 6.91509 11.4989 6.93014 11.4766L6.93659 11.4677L6.95379 11.4499L6.98819 11.4164L7.057 11.3496C7.10216 11.3028 7.15161 11.2649 7.19892 11.2226C7.24622 11.1802 7.29568 11.1401 7.34513 11.1044C7.54295 10.9507 7.74938 10.8192 7.95795 10.6944C8.37509 10.4448 8.80944 10.242 9.24809 10.0548C9.46741 9.96125 9.68888 9.87434 9.91036 9.78966L10.2436 9.6671C10.2866 9.64704 10.3318 9.63144 10.3727 9.61139C10.4135 9.58687 10.4565 9.56905 10.4952 9.5423C10.8113 9.33952 11.0371 8.98742 11.0822 8.60636C11.1059 8.41694 11.0908 8.22306 11.0349 8.04033C11.0263 7.99799 11.0005 7.93559 10.9812 7.88211L10.921 7.71721C10.8823 7.60801 10.8436 7.49659 10.7984 7.38962C10.635 6.95285 10.435 6.53167 10.2243 6.11495C9.79639 5.2882 9.29109 4.50155 8.70838 3.78177C8.56216 3.60349 8.4138 3.42521 8.25898 3.25808L8.14287 3.13329L8.11491 3.10432L8.09771 3.08649C8.08481 3.07758 8.07406 3.06643 8.06116 3.05752C8.00955 3.02187 7.94935 2.99958 7.88699 2.99512C7.82248 2.9929 7.76873 2.99735 7.69992 3.03078C7.62466 3.06643 7.55371 3.11546 7.4849 3.17563C7.34943 3.29819 7.23332 3.46756 7.14086 3.65697C7.09356 3.75503 7.0527 3.84639 7.01185 3.96004C6.96884 4.06924 6.92799 4.17843 6.89143 4.28985C6.81188 4.51047 6.74092 4.73554 6.67426 4.96062C6.54095 5.41076 6.42913 5.86759 6.34313 6.32888C6.17541 7.24923 6.10015 8.19632 6.23991 9.10553C6.30872 9.55122 6.43774 10.0125 6.5775 10.4604C6.64846 10.6833 6.72587 10.9039 6.81618 11.1089C6.86133 11.2114 6.90864 11.3117 6.96239 11.3986C6.98819 11.4432 7.01615 11.4833 7.04195 11.5167L7.0613 11.5412L7.07635 11.5568C7.07635 11.5568 7.0828 11.5613 7.08495 11.5657C7.08495 11.5657 7.0828 11.5635 7.08065 11.5635C7.08065 11.5635 7.0742 11.559 7.0699 11.559H7.0613C7.0613 11.559 6.94519 11.5256 6.89789 11.5568L6.89573 11.559ZM7.057 12.0515C7.00755 12.0805 6.88283 12.0538 6.88498 12.0471L6.86778 12.0404C6.85703 12.0359 6.84198 12.0293 6.83768 12.0248C6.82263 12.0159 6.80973 12.007 6.79467 11.9981C6.77532 11.9825 6.75167 11.9646 6.73662 11.949L6.68931 11.9022L6.65061 11.8577C6.6033 11.7975 6.56245 11.7396 6.52805 11.6816C6.45709 11.5657 6.40118 11.4499 6.34743 11.334C6.24207 11.1022 6.15821 10.8705 6.0808 10.6365C6.00339 10.4025 5.93243 10.1685 5.87008 9.93228L5.82062 9.75624L5.77762 9.57127C5.74966 9.44871 5.71956 9.32392 5.70451 9.19912C5.54109 8.20078 5.61205 7.19575 5.77547 6.22415C5.85932 5.73834 5.96899 5.25923 6.10445 4.7868C6.17111 4.55058 6.24422 4.31659 6.32377 4.08261C6.36248 3.96673 6.40333 3.85085 6.44634 3.73497C6.48504 3.62355 6.5388 3.49207 6.5947 3.37396C6.71081 3.13329 6.86133 2.89707 7.07205 2.69874C7.17956 2.60069 7.29998 2.51155 7.43759 2.44693C7.57951 2.37339 7.76013 2.3355 7.92784 2.34665C8.09771 2.35779 8.26328 2.41573 8.40735 2.50932C8.4439 2.53384 8.47615 2.56058 8.51056 2.58732L8.55786 2.63189L8.59227 2.66754L8.71913 2.80125C8.88685 2.97953 9.04596 3.16226 9.20293 3.34945C9.51256 3.72383 9.80284 4.11603 10.0738 4.52384C10.3447 4.93165 10.5963 5.35059 10.8178 5.7896C11.0392 6.22637 11.2478 6.67206 11.4198 7.13335C11.4671 7.247 11.508 7.36288 11.5467 7.48099L11.6069 7.65704C11.6262 7.71721 11.6477 7.76623 11.6649 7.842C11.7445 8.12055 11.766 8.41917 11.723 8.70441C11.6434 9.28158 11.2973 9.80303 10.8156 10.0972C10.7575 10.1351 10.693 10.164 10.6307 10.1975C10.5683 10.2264 10.5017 10.251 10.4372 10.2755L10.1103 10.3869C9.89315 10.4604 9.67813 10.5406 9.46526 10.6253C9.03951 10.7925 8.62022 10.9797 8.22458 11.1958C8.02676 11.305 7.83323 11.4187 7.65477 11.5479C7.60746 11.5791 7.56446 11.6125 7.5236 11.646C7.4806 11.6794 7.43544 11.7128 7.39674 11.7485L7.33653 11.802L7.30643 11.8287L7.29138 11.8421L7.26772 11.8666C7.20322 11.9312 7.13226 11.9936 7.0613 12.0471L7.057 12.0515Z" fill="#472114"/>
<path d="M26.2459 14.3914C25.074 16.2656 23.4678 16.9274 23.4678 16.9274L23.3474 16.9207C23.2786 16.3837 22.9818 15.7285 22.6013 15.0756C22.2981 14.5586 21.9411 14.046 21.6078 13.5959C20.9241 12.6755 21.1434 11.3496 22.0744 10.7056C23.0076 10.0616 23.9817 9.58913 24.8654 9.24818C25.5363 8.98968 26.1534 8.80695 26.6587 8.6777C27.3533 8.50165 27.9962 9.10779 27.8973 9.84095C27.7424 10.9775 27.3318 12.6577 26.2459 14.3914Z" fill="#FF8261"/>
<path d="M23.1493 17.0788C23.1192 16.9941 23.0912 16.9027 23.0719 16.8114L23.0654 16.7779L23.0611 16.7579L23.0504 16.7178L23.0289 16.6375C23.016 16.5841 22.9966 16.5328 22.9794 16.4793C22.9622 16.4258 22.945 16.3746 22.9214 16.3211C22.8418 16.1094 22.7408 15.9044 22.6332 15.6994C22.4161 15.2916 22.1688 14.8971 21.9022 14.5138C21.7689 14.3222 21.6312 14.1328 21.4915 13.9456L21.2786 13.667C21.2377 13.6091 21.1969 13.5511 21.1582 13.491C21.1238 13.4286 21.0851 13.3684 21.0571 13.3016C20.8141 12.7801 20.8034 12.1472 21.0442 11.6213C21.1625 11.3583 21.3367 11.1221 21.5538 10.9349C21.6097 10.8837 21.6527 10.8547 21.7022 10.8146L21.8463 10.7032C21.9409 10.6274 22.0376 10.5539 22.1365 10.487C22.5257 10.2018 22.9386 9.94997 23.3557 9.71152C23.7729 9.47308 24.2072 9.26806 24.6502 9.0831C25.0931 8.89814 25.5425 8.73769 26.0027 8.60398C26.2327 8.53713 26.4628 8.47473 26.6993 8.42348L26.8756 8.3856L26.923 8.37668L26.9853 8.36777C27.0283 8.36331 27.0692 8.36108 27.1122 8.36108C27.282 8.36331 27.4519 8.41011 27.5981 8.49925C27.7443 8.58393 27.8755 8.72209 27.9529 8.86248C28.0325 8.99619 28.0862 9.13881 28.1228 9.28143C28.1937 9.5689 28.1937 9.85192 28.1615 10.1193C28.1443 10.2508 28.1206 10.389 28.0927 10.5049C28.0669 10.6252 28.0389 10.7455 28.0088 10.8659C27.9508 11.1043 27.8863 11.3427 27.8153 11.5767C27.6755 12.0469 27.5121 12.5105 27.3207 12.9628C26.9402 13.8653 26.4628 14.7434 25.7919 15.481C25.7124 15.5768 25.6221 15.6615 25.5318 15.7484L25.3984 15.8776L25.263 15.998C25.0845 16.1584 24.8996 16.3122 24.7104 16.4637C24.5211 16.613 24.3255 16.7601 24.1148 16.8916C24.0094 16.9584 23.8997 17.0208 23.7793 17.0765C23.7191 17.1055 23.6546 17.13 23.5836 17.1523L23.5277 17.1679L23.4654 17.1791C23.4439 17.1835 23.4159 17.1835 23.3901 17.1857C23.3751 17.1857 23.3579 17.1857 23.3407 17.1857C23.3342 17.1857 23.3192 17.1835 23.3063 17.1813L23.2869 17.1768C23.2869 17.1768 23.1665 17.1323 23.1407 17.081L23.1493 17.0788ZM23.5449 16.7623C23.5234 16.7111 23.4073 16.6621 23.4095 16.6687H23.4009L23.388 16.6643C23.388 16.6643 23.3837 16.6643 23.3815 16.6643C23.3858 16.6643 23.3858 16.6643 23.3944 16.6643L23.4159 16.6598L23.4439 16.6509C23.4826 16.6375 23.5277 16.6197 23.5729 16.5974C23.6632 16.5551 23.7578 16.4994 23.8503 16.4392C24.0352 16.3189 24.2158 16.1807 24.3943 16.0359C24.7469 15.7439 25.1039 15.4319 25.3984 15.0999C25.9984 14.4225 26.4413 13.5913 26.7918 12.7266C26.966 12.2943 27.1186 11.8486 27.2455 11.3962C27.31 11.1712 27.3702 10.9416 27.4218 10.7143C27.4498 10.6007 27.4734 10.4848 27.4971 10.3711C27.5229 10.253 27.5379 10.1528 27.5508 10.0458C27.5745 9.83409 27.5659 9.62684 27.5207 9.44857C27.4971 9.35943 27.4627 9.27698 27.4197 9.20344C27.3809 9.13658 27.3401 9.10093 27.2842 9.06527C27.2304 9.03408 27.1659 9.01848 27.1057 9.01848C27.0907 9.01848 27.0756 9.01848 27.0584 9.0207L27.0348 9.02516L26.9961 9.03408L26.8326 9.07196C26.6133 9.12321 26.394 9.18561 26.1768 9.25023C25.3081 9.51765 24.4674 9.88311 23.6697 10.3266C23.2719 10.5516 22.8805 10.7901 22.5107 11.0597C22.4161 11.1244 22.3258 11.1934 22.2333 11.2625L22.0957 11.365C22.0527 11.3985 21.9968 11.4363 21.9667 11.4653C21.8226 11.5856 21.7065 11.7372 21.6248 11.9088C21.4571 12.252 21.4592 12.6754 21.614 13.0252C21.6312 13.0698 21.6592 13.1099 21.6785 13.1522C21.7022 13.1924 21.7323 13.2325 21.7581 13.2726L21.971 13.5645C22.1129 13.7606 22.2484 13.9612 22.3817 14.164C22.6461 14.5695 22.8999 14.9885 23.117 15.4364C23.2246 15.6592 23.3256 15.8888 23.4073 16.1295C23.4288 16.1896 23.4482 16.2498 23.4654 16.3122C23.4826 16.3746 23.5041 16.4348 23.517 16.4994L23.5385 16.5952L23.5492 16.642L23.5557 16.6665V16.6777C23.5557 16.7044 23.5514 16.7311 23.5406 16.7646L23.5449 16.7623Z" fill="#472114"/>
<path d="M14.3399 25.3242C13.9099 27.029 12.867 28.2257 12.0112 27.9939C11.1554 27.7621 10.8092 26.1911 11.2371 24.4863" fill="#FF6C6C"/>
<path d="M12.2262 28.0651C12.1509 28.0651 12.0756 28.0562 12.0004 28.0362C11.1231 27.7999 10.7618 26.2021 11.1962 24.4751L11.2779 24.4974C10.8543 26.1776 11.1876 27.7264 12.0219 27.9515C12.8562 28.1765 13.8775 26.9932 14.299 25.313L14.3807 25.3353C13.9829 26.9152 13.054 28.0651 12.2262 28.0651Z" fill="#390075"/>
<path d="M14.2301 25.7074C14.0537 26.2579 13.8151 26.7414 13.5441 27.1203C13.0754 27.7777 12.512 28.1298 12.011 27.9938C11.51 27.8579 11.1832 27.2651 11.0864 26.454C11.0284 25.986 11.0477 25.4422 11.1531 24.8762L14.2301 25.7074Z" fill="#ED2E7A"/>
<path d="M12.2973 26.8527C12.2672 26.6878 12.2651 26.5296 12.2715 26.3736C12.2758 26.2176 12.2973 26.0661 12.3188 25.9145C12.364 25.6115 12.4199 25.3106 12.5145 25.0209C12.5575 24.8917 12.6908 24.8248 12.8155 24.8672C12.9273 24.9073 12.994 25.0254 12.9725 25.1435C12.9187 25.4443 12.8263 25.734 12.7231 26.0215C12.6693 26.1641 12.6177 26.309 12.5468 26.4471C12.4779 26.5853 12.4027 26.7235 12.2973 26.8527Z" fill="#390075"/>
<path d="M12.2971 28.3235C12.1766 28.3235 12.0584 28.3079 11.9401 28.2767C11.4348 28.1408 11.0349 27.733 10.8177 27.1313C10.6134 26.5653 10.5919 25.8856 10.7618 25.217C10.8005 25.0611 10.9553 24.9675 11.108 25.0076C11.2585 25.0477 11.3488 25.2081 11.3101 25.3664C11.1703 25.9168 11.1854 26.4717 11.3488 26.9263C11.4993 27.3452 11.7617 27.6238 12.0842 27.7107C12.7766 27.8979 13.5915 27.1402 13.8646 26.0572C13.9033 25.9012 14.0581 25.8054 14.2108 25.8477C14.3613 25.8878 14.4516 26.0483 14.4129 26.2065C14.099 27.4544 13.198 28.3257 12.2992 28.3257L12.2971 28.3235Z" fill="#472114"/>
<g opacity="0.3">
<path d="M11.1535 24.874C11.0589 25.3754 11.0331 25.8568 11.0696 26.2846C11.0911 26.2891 11.1083 26.2958 11.1298 26.298C12.0716 26.4362 12.5361 25.8278 12.5361 25.8278L12.5533 25.8323C12.5533 25.8323 12.6672 26.61 13.5596 26.9532C13.5854 26.9643 13.6112 26.971 13.637 26.9799C13.8692 26.6234 14.0756 26.1888 14.2305 25.7052L11.1535 24.874Z" fill="#390075"/>
</g>
<path d="M15.5224 25.2972C15.2042 26.1864 14.5333 26.485 13.7571 26.173C12.8691 25.8164 12.8239 25.0053 12.8368 24.7111L12.8196 24.7067C12.6927 24.9696 12.2691 25.656 11.3273 25.5178C10.5017 25.3953 10.0566 24.7958 10.1985 23.8599" fill="white"/>
<path d="M14.3292 26.3358C14.1422 26.3358 13.9443 26.2956 13.7422 26.2132C12.9466 25.8945 12.8047 25.2238 12.794 24.8427C12.6047 25.1703 12.1683 25.6828 11.3211 25.5603C10.9061 25.5001 10.5771 25.3151 10.375 25.0299C10.1621 24.7313 10.0868 24.3235 10.1578 23.8533L10.2395 23.8666C10.1707 24.3146 10.2395 24.7001 10.4416 24.9786C10.6308 25.2461 10.9405 25.4176 11.334 25.4756C12.2371 25.6093 12.6478 24.9697 12.7832 24.6889L12.7983 24.6577L12.8821 24.68V24.7157C12.8649 25.0299 12.923 25.7942 13.7745 26.1352C14.1443 26.2845 14.4948 26.2912 14.7872 26.153C15.0926 26.0104 15.3355 25.7096 15.4882 25.2839L15.5656 25.3129C15.4065 25.7608 15.1485 26.0773 14.8216 26.231C14.6711 26.3023 14.5077 26.3358 14.3335 26.3358H14.3292Z" fill="#390075"/>
<g opacity="0.3">
<path d="M15.5224 25.2975C15.2042 26.1844 14.5333 26.4852 13.7571 26.1732C12.8691 25.8167 12.8239 25.0055 12.8368 24.7114L12.8196 24.7069C12.6927 24.9699 12.2691 25.6562 11.3273 25.5181C10.5017 25.3977 10.0566 24.7961 10.1985 23.8601L10.2264 23.8668C10.3533 23.9002 10.4522 23.9938 10.5146 24.1119C10.6995 24.4662 11.0457 24.6935 11.5166 24.7626C11.9939 24.8339 12.3358 24.6935 12.5766 24.5019L13.1464 24.6557C13.2668 24.9431 13.4991 25.2395 13.9485 25.4178C14.3936 25.5961 14.8021 25.576 15.1311 25.3576C15.2408 25.2863 15.3719 25.2551 15.4966 25.2885L15.5246 25.2952L15.5224 25.2975Z" fill="#390075"/>
</g>
<path d="M15.5678 25.3151C15.5549 25.5001 15.5097 25.685 15.4258 25.8611C15.3441 26.0371 15.2216 26.2043 15.056 26.3313C14.8947 26.4628 14.6905 26.5474 14.484 26.5786C14.2776 26.6098 14.069 26.5942 13.8777 26.543C13.8282 26.5318 13.7809 26.5185 13.7358 26.5006C13.6906 26.485 13.6433 26.4694 13.5981 26.4472L13.4627 26.3848L13.3315 26.3068C13.1595 26.1953 13.0047 26.0483 12.8821 25.8767C12.7596 25.7029 12.6714 25.5068 12.6198 25.3062C12.5682 25.1056 12.5467 24.9006 12.5531 24.6934L12.766 24.9942L12.7488 24.9898L13.0756 24.836C12.9853 25.021 12.8757 25.1903 12.7338 25.3418C12.594 25.4912 12.4241 25.6204 12.2328 25.7095C12.0435 25.7987 11.835 25.8455 11.6328 25.8544C11.5834 25.8544 11.5318 25.8544 11.4823 25.8544L11.334 25.8388C11.2845 25.8343 11.2372 25.8254 11.1877 25.8165C11.1404 25.8076 11.091 25.7965 11.0437 25.7809C10.8523 25.7274 10.6609 25.6405 10.4954 25.5068C10.3276 25.3775 10.1857 25.2015 10.0997 25.0054C10.0137 24.8092 9.98361 24.5975 9.99651 24.3992C10.0116 24.2009 10.0632 24.0159 10.1492 23.8488C10.1621 23.8243 10.1922 23.8131 10.218 23.8287C10.2309 23.8354 10.2395 23.8488 10.2438 23.8644C10.3147 24.2209 10.3965 24.5307 10.5556 24.7446C10.633 24.8516 10.7233 24.943 10.8308 25.012C10.9405 25.0789 11.063 25.1301 11.1985 25.1613C11.4737 25.2282 11.7532 25.2282 11.9898 25.1301C12.2263 25.0366 12.4349 24.8271 12.5617 24.5708V24.5663C12.6262 24.4416 12.7639 24.3814 12.8886 24.417L12.9058 24.4215H12.9101C13.0412 24.4594 13.1251 24.5864 13.1186 24.7223C13.1014 25.0076 13.1832 25.3017 13.3466 25.5045C13.5078 25.7118 13.7573 25.8455 14.0282 25.9302C14.2948 26.0126 14.5528 26.0148 14.798 25.9056C15.0474 25.7987 15.2646 25.5602 15.4753 25.2795C15.4925 25.2572 15.5226 25.2527 15.5441 25.2683C15.557 25.2795 15.5635 25.2951 15.5635 25.3129L15.5678 25.3151Z" fill="#472114"/>
<path d="M24.6436 19.646C24.5189 19.646 24.3985 19.5725 24.3426 19.4477C24.263 19.2761 24.334 19.0689 24.5017 18.9864C28.2345 17.1479 29.9741 10.7256 29.1312 7.5099C28.9505 6.81908 28.5635 6.00793 27.7572 6.08147C24.048 6.41351 20.87 9.12107 19.3068 10.7055C19.1756 10.8392 18.9627 10.837 18.8337 10.701C18.7047 10.5651 18.7068 10.3445 18.838 10.2108C20.4657 8.56173 23.7792 5.74274 27.697 5.39065C28.6839 5.30374 29.4236 5.9901 29.7719 7.32717C30.2192 9.03862 29.9913 11.5679 29.1763 13.9256C28.2281 16.6644 26.6691 18.6833 24.7834 19.6104C24.7382 19.6327 24.6888 19.6438 24.6393 19.6438L24.6436 19.646Z" fill="#472114"/>
<path d="M5.06394 14.3958C4.96073 14.3958 4.85967 14.3468 4.79301 14.2532C3.56308 12.4994 3.13733 9.94783 3.59318 7.06868C3.97807 4.63075 4.99083 2.2374 6.17346 0.973871C7.11526 -0.0333875 8.08931 -0.269603 8.91715 0.31425C12.1747 2.60955 13.738 6.75446 14.3787 9.0208C14.4303 9.20353 14.3293 9.3974 14.153 9.45089C13.9745 9.50437 13.7896 9.39963 13.738 9.2169C13.123 7.03971 11.6286 3.06193 8.54301 0.88919C7.86784 0.412302 7.14321 0.935987 6.65296 1.45967C4.64464 3.6079 2.75029 10.1618 5.33487 13.8498C5.44238 14.0036 5.41012 14.222 5.26176 14.3334C5.20155 14.378 5.13274 14.4003 5.06609 14.4003L5.06394 14.3958Z" fill="#472114"/>
<g opacity="0.3">
<path d="M23.7814 28.8115C22.4505 29.1302 20.569 30.2021 20.2056 30.3358C19.8401 30.4717 16.6706 31.9648 11.3703 30.5319C9.16634 29.9347 7.52356 29.0856 6.33663 28.2722C4.66806 27.1313 3.90257 26.0639 3.75421 25.8856C3.50048 25.5825 2.36516 23.695 1.35455 22.7435C0.343945 21.7897 -0.055998 21.0031 0.761089 20.7156C0.890103 20.671 1.00622 20.6287 1.11158 20.593C3.12634 23.3184 6.80538 27.3965 11.8197 28.7514C16.8341 30.1063 21.9667 28.4149 25.0092 27.0555C25.0845 27.1402 25.1662 27.236 25.2565 27.3408C25.8328 28.0071 25.1124 28.4906 23.7814 28.8093V28.8115Z" fill="#390075"/>
</g>
<path d="M12.9422 24.5509C12.9185 24.5509 12.8949 24.5487 12.8712 24.542C12.7207 24.5019 12.6304 24.3415 12.6691 24.1833L12.9035 23.2495C12.9422 23.0935 13.097 22.9977 13.2497 23.0401C13.4002 23.0802 13.4905 23.2406 13.4518 23.3988L13.2174 24.3326C13.1852 24.464 13.0691 24.5509 12.9443 24.5509H12.9422Z" fill="#390075"/>
<path d="M14.871 23.5145C14.7312 24.0649 13.7872 24.5998 12.8497 24.3457C11.9122 24.0917 11.3381 23.1468 11.4779 22.5964C11.6177 22.046 12.3874 22.2042 13.3249 22.4582C14.2624 22.7123 15.0107 22.9641 14.871 23.5145Z" fill="#390075"/>
<path d="M13.9485 23.0956C13.9184 23.216 13.5486 23.2895 13.14 23.1803C12.7336 23.0711 12.4433 22.8193 12.4756 22.699C12.5078 22.5786 12.839 22.6566 13.2454 22.7681C13.6518 22.8773 13.9786 22.9775 13.9485 23.0979V23.0956Z" fill="white"/>
<path d="M13.5355 23.2738C13.4065 23.2738 13.2668 23.256 13.1313 23.2181C12.7335 23.1112 12.3981 22.8527 12.4389 22.6878C12.4647 22.583 12.6131 22.5919 12.7249 22.6053C12.8582 22.6231 13.0324 22.6677 13.256 22.7279C13.7226 22.8549 14.0258 22.9485 13.9871 23.1067C13.9677 23.1847 13.8602 23.2426 13.6925 23.2649C13.6431 23.2716 13.5914 23.2738 13.5377 23.2738H13.5355ZM12.6131 22.6766C12.5292 22.6766 12.5142 22.6989 12.512 22.7078C12.4905 22.7925 12.7464 23.0332 13.1507 23.1424C13.3334 23.1914 13.5226 23.207 13.6818 23.1869C13.828 23.1669 13.9032 23.1223 13.9118 23.0867C13.9355 22.9931 13.4624 22.866 13.2345 22.8036C13.0152 22.7435 12.8432 22.7011 12.7142 22.6833C12.6712 22.6766 12.6389 22.6744 12.6131 22.6744V22.6766Z" fill="#390075"/>
<path d="M11.01 19.5814C11.3953 17.8383 10.7466 16.1971 9.56128 15.9158C8.37593 15.6344 7.10273 16.8194 6.71752 18.5625C6.3323 20.3057 6.98093 21.9468 8.16628 22.2282C9.35163 22.5095 10.6248 21.3245 11.01 19.5814Z" fill="#472114"/>
<path d="M10.1707 18.8561C10.3001 18.2706 10.115 17.7272 9.75728 17.6423C9.3996 17.5574 9.00475 17.9632 8.87537 18.5486C8.74599 19.134 8.93108 19.6775 9.28877 19.7624C9.64645 19.8473 10.0413 19.4415 10.1707 18.8561Z" fill="white"/>
<path d="M20.711 21.5691C20.4529 21.5758 20.1863 21.5937 19.9369 21.6315C19.6853 21.6694 19.4402 21.7251 19.2058 21.8009C19.0875 21.8366 18.9757 21.8856 18.8639 21.9279C18.7564 21.9836 18.6446 22.0282 18.5414 22.0951C18.3285 22.2087 18.1414 22.3669 17.9565 22.5252L17.6555 21.9034C17.7372 21.8923 17.7909 21.89 17.8533 21.89C17.9157 21.89 17.9737 21.89 18.0339 21.8923C18.1543 21.899 18.2726 21.9146 18.3887 21.9346C18.6209 21.977 18.8489 22.0527 19.0617 22.1575C19.2725 22.2667 19.4746 22.3914 19.6444 22.5541C19.8229 22.7079 19.9648 22.8973 20.0874 23.0889C20.1239 23.1469 20.1089 23.2249 20.053 23.2628C20.0121 23.2917 19.9605 23.2895 19.9218 23.2628L19.9089 23.2539C19.8208 23.1959 19.7412 23.1291 19.6552 23.0756C19.567 23.0221 19.4853 22.9664 19.3972 22.9218C19.223 22.8282 19.0424 22.7547 18.8596 22.7034C18.6768 22.6477 18.4898 22.6165 18.3027 22.6009C18.2081 22.5942 18.1156 22.592 18.0232 22.5942C17.978 22.5942 17.9307 22.5965 17.8856 22.6009C17.8426 22.6031 17.7909 22.6121 17.7673 22.6165H17.7608C17.5695 22.6477 17.391 22.514 17.3609 22.3157C17.3415 22.1931 17.3867 22.075 17.4684 21.9948C17.6877 21.7808 17.9243 21.5781 18.1973 21.4354C18.3285 21.353 18.4726 21.304 18.6123 21.2438C18.7564 21.1992 18.9005 21.1502 19.0488 21.1279C19.3434 21.07 19.6401 21.0566 19.9304 21.09C20.2207 21.1257 20.5002 21.1903 20.7712 21.324C20.8314 21.353 20.8572 21.4288 20.8292 21.4912C20.8099 21.5357 20.7669 21.5625 20.7217 21.5625H20.7088L20.711 21.5691Z" fill="#472114"/>
<path d="M9.86328 31.165C9.86328 31.165 9.48054 29.0702 5.51122 29.1794C2.73742 29.2552 2.0343 32.9455 4.04906 33.9884C5.8445 34.9177 8.62045 34.8352 9.17091 33.7611C9.72137 32.687 9.0849 31.4346 9.86328 31.1627V31.165Z" fill="white"/>
<g opacity="0.3">
<path d="M9.85684 31.1671C9.08705 31.4412 9.71922 32.6936 9.16876 33.7632C8.6183 34.8374 5.84451 34.9198 4.04907 33.9905C3.43195 33.6719 3.07071 33.1059 2.94385 32.4685C3.07716 32.5911 3.22983 32.7003 3.3997 32.7894C5.19514 33.7187 7.96893 33.6362 8.52154 32.5621C9.03975 31.5504 8.52584 30.3693 9.85684 31.1671Z" fill="#390075"/>
</g>
<path d="M6.84435 35C5.83804 35 4.73928 34.7638 3.88993 34.3248C2.84707 33.7855 2.33102 32.551 2.6084 31.2562C2.84277 30.1576 3.74157 28.8584 5.50261 28.8094C9.72781 28.6935 10.1987 31 10.2181 31.098C10.2525 31.2807 10.1493 31.4613 9.97938 31.5214C9.83102 31.5727 9.79877 31.7108 9.79231 32.3014C9.78801 32.7783 9.78156 33.371 9.49128 33.9415C9.11929 34.668 8.04633 35.0045 6.8465 35.0045L6.84435 35ZM5.81224 29.5492C5.71763 29.5492 5.62087 29.5492 5.52196 29.5537C4.17592 29.5916 3.48999 30.5788 3.31152 31.4145C3.14165 32.21 3.35453 33.2106 4.21247 33.654C5.93695 34.5454 8.45057 34.3738 8.85481 33.585C9.06339 33.1772 9.06769 32.7248 9.07199 32.288C9.07629 31.8445 9.08059 31.3142 9.42247 31C9.1881 30.5342 8.39036 29.547 5.81439 29.547L5.81224 29.5492Z" fill="#472114"/>
<path d="M6.79664 31.791C6.78804 31.8156 6.76654 31.8846 6.75579 31.9403C6.74289 32.0027 6.72999 32.0651 6.72139 32.1298C6.70203 32.259 6.68913 32.3883 6.68268 32.5197C6.66763 32.7805 6.67408 33.0434 6.71279 33.2908C6.74934 33.5381 6.81815 33.7744 6.92996 33.9482C7.04177 34.1264 7.18154 34.2223 7.35355 34.2602C7.54922 34.3047 7.67179 34.5031 7.63093 34.7058C7.58793 34.9086 7.39656 35.0357 7.20089 34.9933C7.18799 34.9911 7.17293 34.9866 7.16003 34.9822L7.14713 34.9777C6.97941 34.9176 6.816 34.8195 6.68483 34.6947C6.55152 34.5699 6.45046 34.4184 6.37735 34.2646C6.23113 33.9549 6.18598 33.6429 6.17308 33.342C6.16018 33.0412 6.18813 32.7493 6.23328 32.464C6.25694 32.3214 6.28704 32.181 6.32359 32.0406C6.3408 31.9715 6.36445 31.9002 6.38595 31.8289C6.4139 31.7554 6.43111 31.693 6.48701 31.5949C6.53862 31.508 6.64613 31.4791 6.73214 31.5325C6.8074 31.5793 6.8375 31.6752 6.8074 31.7576L6.79449 31.7933L6.79664 31.791Z" fill="#472114"/>
<path d="M4.81207 31.6082C4.76692 31.7041 4.72176 31.8288 4.68306 31.9447C4.64435 32.0628 4.6121 32.1854 4.58415 32.3057C4.53039 32.5486 4.49599 32.7938 4.50029 33.0278C4.50244 33.2617 4.54544 33.4824 4.63575 33.6495C4.72606 33.8166 4.86153 33.9214 5.03354 33.9927C5.21846 34.0684 5.30877 34.2868 5.23352 34.4785C5.16041 34.6701 4.94969 34.7637 4.76477 34.6857C4.75186 34.6813 4.73896 34.6746 4.72821 34.6679H4.72391C4.582 34.5854 4.44438 34.4829 4.33042 34.3537C4.21431 34.2267 4.124 34.0751 4.06379 33.9191C3.94338 33.6049 3.93263 33.2863 3.96058 32.9966C3.99068 32.7046 4.06379 32.4305 4.1541 32.1698C4.19926 32.0383 4.25086 31.9113 4.30892 31.7865C4.36697 31.6595 4.42288 31.5436 4.50674 31.4099C4.56049 31.323 4.67231 31.2985 4.75617 31.3564C4.83357 31.4077 4.85938 31.5124 4.81852 31.5949L4.81207 31.606V31.6082Z" fill="#472114"/>
<path d="M15.8857 31.165C15.8857 31.165 16.2685 29.0702 20.2378 29.1794C23.0116 29.2552 23.7147 32.9455 21.7 33.9884C19.9045 34.9177 17.1286 34.8352 16.5781 33.7611C16.0277 32.687 16.6641 31.4346 15.8857 31.1627V31.165Z" fill="white"/>
<g opacity="0.3">
<path d="M15.8901 31.1671C16.6599 31.4412 16.0278 32.6936 16.5782 33.7632C17.1287 34.8374 19.9025 34.9198 21.6979 33.9905C22.315 33.6719 22.6763 33.1059 22.8031 32.4685C22.6698 32.5911 22.5171 32.7003 22.3473 32.7894C20.5518 33.7187 17.778 33.6362 17.2254 32.5621C16.7072 31.5504 17.2211 30.3693 15.8901 31.1671Z" fill="#390075"/>
</g>
<path d="M18.905 34.9999C17.7052 34.9999 16.6322 34.6634 16.2602 33.937C15.9678 33.3687 15.9635 32.7737 15.9592 32.2968C15.9527 31.7085 15.9205 31.5681 15.7721 31.5169C15.6023 31.4567 15.499 31.2762 15.5335 31.0935C15.5507 30.9954 16.0237 28.6912 20.2489 28.8048C22.0099 28.8539 22.9087 30.1531 23.1431 31.2517C23.4205 32.5486 22.9044 33.781 21.8616 34.3203C21.0101 34.7593 19.9135 34.9955 18.9072 34.9955L18.905 34.9999ZM16.3269 31.0021C16.6688 31.3163 16.6731 31.8467 16.6774 32.2901C16.6817 32.7269 16.686 33.1793 16.8945 33.5871C17.2988 34.376 19.8124 34.5476 21.5369 33.6562C22.3948 33.2127 22.6077 32.2121 22.4378 31.4166C22.2594 30.5809 21.5734 29.5915 20.2274 29.5558C17.4128 29.4778 16.5677 30.5252 16.3269 31.0043V31.0021Z" fill="#472114"/>
<path d="M19.2575 31.595C19.3134 31.6908 19.3328 31.7555 19.3586 31.829C19.3823 31.9003 19.4038 31.9694 19.421 32.0407C19.4575 32.1811 19.4876 32.3215 19.5113 32.4641C19.5586 32.7494 19.5844 33.0413 19.5715 33.3421C19.5586 33.6407 19.5134 33.9549 19.3672 34.2647C19.2941 34.4185 19.193 34.5678 19.0597 34.6948C18.9264 34.8218 18.7651 34.9176 18.5974 34.9778L18.5867 34.9823C18.3974 35.0491 18.1932 34.9466 18.1265 34.7527C18.0599 34.5589 18.1609 34.3449 18.348 34.2758C18.3609 34.2714 18.3759 34.2669 18.391 34.2625C18.563 34.2246 18.7028 34.1265 18.8146 33.9505C18.9264 33.7767 18.9952 33.5382 19.0318 33.2931C19.0705 33.0457 19.0748 32.7828 19.0619 32.5221C19.0554 32.3906 19.0425 32.2613 19.0232 32.1321C19.0146 32.0675 19.0017 32.0051 18.9888 31.9427C18.9759 31.8847 18.9565 31.8156 18.9479 31.7934L18.935 31.7577C18.9006 31.6619 18.9458 31.5549 19.0382 31.5193C19.1199 31.4858 19.2102 31.5193 19.2554 31.5972L19.2575 31.595Z" fill="#472114"/>
<path d="M21.2422 31.4122C21.326 31.5437 21.3819 31.6618 21.44 31.7888C21.4959 31.9136 21.5475 32.0406 21.5948 32.1721C21.6851 32.4328 21.7582 32.7069 21.7883 32.9989C21.8163 33.2886 21.8077 33.6072 21.6851 33.9214C21.6249 34.0774 21.5346 34.229 21.4185 34.356C21.3024 34.483 21.1669 34.5877 21.025 34.668C20.8508 34.7682 20.6315 34.7014 20.5347 34.5209C20.4401 34.3404 20.5025 34.1131 20.6788 34.0128C20.6917 34.0061 20.7046 33.9994 20.7175 33.995C20.8895 33.9237 21.025 33.8189 21.1153 33.6518C21.2056 33.4847 21.2486 33.264 21.2508 33.0301C21.2529 32.7961 21.2207 32.5509 21.1669 32.308C21.139 32.1877 21.1067 32.0651 21.068 31.947C21.0315 31.8312 20.9841 31.7041 20.939 31.6105L20.9325 31.5994C20.8895 31.508 20.9261 31.3944 21.0143 31.3498C21.096 31.3075 21.1949 31.3364 21.2443 31.4144L21.2422 31.4122Z" fill="#472114"/>
</g>
<defs>
<clipPath id="clip0_18184_3371">
<rect width="30" height="35" fill="white"/>
</clipPath>
</defs>
</svg>
