<svg width="21" height="20" viewBox="0 0 21 20" fill="none" xmlns="http://www.w3.org/2000/svg">
<path d="M17.967 6.28847C17.967 6.68756 17.9385 7.07715 17.891 7.44774C17.454 7.25769 16.979 7.15317 16.4755 7.15317C15.3165 7.15317 14.2905 7.71379 13.654 8.56899C13.008 7.71379 11.982 7.15317 10.823 7.15317C8.87551 7.15317 7.29851 8.74003 7.29851 10.707C7.29851 13.2536 8.64751 15.2015 10.1485 16.5223C10.101 16.5508 10.0535 16.5604 10.006 16.5794C9.72102 16.6839 9.24601 16.6839 8.96101 16.5794C6.50051 15.7337 1 12.2369 1 6.28847C1 3.66586 3.10899 1.54688 5.712 1.54688C7.2605 1.54688 8.6285 2.28804 9.4835 3.43781C10.348 2.28804 11.716 1.54688 13.255 1.54688C15.858 1.54688 17.967 3.66586 17.967 6.28847Z" stroke="#FF0000" stroke-width="2" stroke-linecap="round" stroke-linejoin="round"/>
<path d="M19.9998 10.7064C19.9998 15.1534 15.8864 17.7761 14.0434 18.4032C13.8249 18.4792 13.4733 18.4792 13.2548 18.4032C12.4663 18.1371 11.2598 17.5005 10.1483 16.5218C8.64734 15.2009 7.29834 13.253 7.29834 10.7064C7.29834 8.73945 8.87533 7.15259 10.8228 7.15259C11.9818 7.15259 13.0078 7.71321 13.6538 8.56841C14.2903 7.71321 15.3164 7.15259 16.4754 7.15259C16.9789 7.15259 17.4538 7.25711 17.8908 7.44715C19.1353 7.99828 19.9998 9.24306 19.9998 10.7064Z" stroke="#FF0000" stroke-width="2" stroke-linecap="round" stroke-linejoin="round"/>
</svg>
