<svg width="31" height="31" viewBox="0 0 31 31" fill="none" xmlns="http://www.w3.org/2000/svg">
<g clip-path="url(#clip0_17870_2347)">
<path d="M26.6339 10.9145C25.2777 4.94704 20.0723 2.26038 15.4998 2.26038C15.4998 2.26038 15.4998 2.26038 15.4868 2.26038C10.9273 2.26038 5.70892 4.93413 4.35267 10.9016C2.84142 17.5666 6.92309 23.2112 10.6173 26.7633C11.9864 28.0808 13.7431 28.7395 15.4998 28.7395C17.2564 28.7395 19.0131 28.0808 20.3693 26.7633C24.0635 23.2112 28.1452 17.5795 26.6339 10.9145ZM15.4998 17.3858C13.2523 17.3858 11.431 15.5645 11.431 13.317C11.431 11.0695 13.2523 9.24829 15.4998 9.24829C17.7473 9.24829 19.5685 11.0695 19.5685 13.317C19.5685 15.5645 17.7473 17.3858 15.4998 17.3858Z" fill="#FFF600"/>
</g>
<defs>
<clipPath id="clip0_17870_2347">
<rect width="31" height="31" fill="white"/>
</clipPath>
</defs>
</svg>
