<svg width="22" height="22" viewBox="0 0 22 22" fill="none" xmlns="http://www.w3.org/2000/svg">
<rect width="22" height="22" rx="11" fill="#FF0000"/>
<path d="M15.6668 10.9998V14.4998C15.6668 15.789 14.6227 16.8332 13.3335 16.8332H8.66683C7.37766 16.8332 6.3335 15.789 6.3335 14.4998V10.9998C6.3335 10.679 6.596 10.4165 6.91683 10.4165H8.066C8.38683 10.4165 8.64933 10.679 8.64933 10.9998V12.8315C8.64933 13.2632 8.8885 13.6598 9.26766 13.864C9.43683 13.9573 9.6235 14.004 9.816 14.004C10.0377 14.004 10.2593 13.9398 10.4518 13.8115L11.006 13.4498L11.5193 13.794C11.8752 14.0332 12.3302 14.0623 12.7093 13.8582C13.0943 13.654 13.3335 13.2632 13.3335 12.8257V10.9998C13.3335 10.679 13.596 10.4165 13.9168 10.4165H15.0835C15.4043 10.4165 15.6668 10.679 15.6668 10.9998Z" fill="white"/>
<path d="M16.5418 8.08317V8.6665C16.5418 9.30817 16.2327 9.83317 15.3752 9.83317H6.62516C5.73266 9.83317 5.4585 9.30817 5.4585 8.6665V8.08317C5.4585 7.4415 5.73266 6.9165 6.62516 6.9165H15.3752C16.2327 6.9165 16.5418 7.4415 16.5418 8.08317Z" fill="white"/>
<path d="M10.7898 6.91651H7.56979C7.37146 6.70068 7.37729 6.36818 7.58729 6.15818L8.41563 5.32984C8.63146 5.11401 8.98729 5.11401 9.20313 5.32984L10.7898 6.91651Z" fill="white"/>
<path d="M14.4241 6.91651H11.2041L12.7908 5.32984C13.0066 5.11401 13.3624 5.11401 13.5783 5.32984L14.4066 6.15818C14.6166 6.36818 14.6224 6.70068 14.4241 6.91651Z" fill="white"/>
<path d="M12.149 10.4165C12.4698 10.4165 12.7323 10.679 12.7323 10.9998V12.8257C12.7323 13.2923 12.2132 13.5723 11.8282 13.3098L11.3032 12.9598C11.1107 12.8315 10.8598 12.8315 10.6615 12.9598L10.1132 13.3215C9.72818 13.5782 9.21484 13.2982 9.21484 12.8373V10.9998C9.21484 10.679 9.47734 10.4165 9.79818 10.4165H12.149Z" fill="white"/>
</svg>
