<svg width="32" height="32" viewBox="0 0 32 32" fill="none" xmlns="http://www.w3.org/2000/svg">
<path d="M22.6665 4.66663H9.33317C5.33317 4.66663 2.6665 6.66663 2.6665 11.3333V20.6666C2.6665 25.3333 5.33317 27.3333 9.33317 27.3333H22.6665C26.6665 27.3333 29.3332 25.3333 29.3332 20.6666V11.3333C29.3332 6.66663 26.6665 4.66663 22.6665 4.66663ZM23.2932 12.7866L19.1198 16.12C18.2398 16.8266 17.1198 17.1733 15.9998 17.1733C14.8798 17.1733 13.7465 16.8266 12.8798 16.12L8.7065 12.7866C8.27984 12.44 8.21317 11.8 8.5465 11.3733C8.89317 10.9466 9.51984 10.8666 9.9465 11.2133L14.1198 14.5466C15.1332 15.36 16.8532 15.36 17.8665 14.5466L22.0398 11.2133C22.4665 10.8666 23.1065 10.9333 23.4398 11.3733C23.7865 11.8 23.7198 12.44 23.2932 12.7866Z" fill="#FFF600"/>
</svg>
