<svg width="48" height="49" viewBox="0 0 48 49" fill="none" xmlns="http://www.w3.org/2000/svg">
<path d="M47.67 24.4091C47.67 37.7057 36.9968 48.4882 23.835 48.4882C10.6732 48.4882 0 37.7057 0 24.4091C0 11.1126 10.6732 0.330078 23.835 0.330078C36.9968 0.330078 47.67 11.1126 47.67 24.4091Z" fill="url(#paint0_radial_18184_2173)"/>
<path d="M46.5637 24.4094C46.5637 37.0914 36.3882 47.3711 23.8348 47.3711C11.2813 47.3711 1.11963 37.0914 1.11963 24.4094C1.11963 11.7274 11.2813 1.46167 23.8348 1.46167C36.3882 1.46167 46.5637 11.7414 46.5637 24.4234V24.4094Z" fill="url(#paint1_radial_18184_2173)"/>
<path d="M42.762 24.4096C42.762 34.9686 34.287 43.5164 23.835 43.5164C13.383 43.5164 4.92188 34.9686 4.92188 24.4096C4.92188 13.8505 13.3969 5.30273 23.835 5.30273C34.2732 5.30273 42.762 13.8645 42.762 24.4096Z" fill="url(#paint2_linear_18184_2173)"/>
<path d="M41.6006 24.4095C41.6006 34.326 33.651 42.357 23.835 42.357C14.0189 42.357 6.06934 34.326 6.06934 24.4095C6.06934 14.4929 14.0189 6.46191 23.835 6.46191C33.651 6.46191 41.6006 14.4929 41.6006 24.4095Z" fill="url(#paint3_linear_18184_2173)"/>
<path style="mix-blend-mode:multiply" opacity="0.6" d="M41.6006 24.4095C41.6006 34.326 33.651 42.357 23.835 42.357C14.0189 42.357 6.06934 34.326 6.06934 24.4095C6.06934 14.4929 14.0189 6.46191 23.835 6.46191C33.651 6.46191 41.6006 14.4929 41.6006 24.4095Z" fill="url(#paint4_radial_18184_2173)"/>
<path d="M27.2636 23.9066C27.3327 23.9346 27.4018 23.9625 27.4571 23.9904C28.3834 24.4374 29.047 25.1078 29.4065 25.9458C29.9042 27.1051 29.9457 29.0046 28.4525 30.513C27.305 31.6723 25.9225 32.189 23.9593 32.203C21.7472 32.189 20.0467 31.4348 18.8992 29.9683C17.8761 28.6554 17.3507 26.8397 17.3369 24.5631C17.3507 22.2725 17.8761 20.4568 18.8992 19.1439C20.0467 17.6774 21.7472 16.9231 23.9593 16.9092C26.1713 16.9231 27.8995 17.6774 29.0747 19.1299C29.6554 19.8562 30.0839 20.7222 30.3604 21.7278L29.0885 22.077C28.8673 21.2529 28.5217 20.5546 28.0793 19.9959C27.153 18.8506 25.7704 18.264 23.9593 18.25C22.162 18.264 20.8071 18.8506 19.9223 19.9819C19.0927 21.0434 18.6642 22.5798 18.6503 24.5491C18.6642 26.5185 19.0927 28.0548 19.9223 29.1163C20.8071 30.2476 22.162 30.8343 23.9593 30.8482C25.5769 30.8482 26.6552 30.4432 27.5401 29.5493C28.5631 28.5297 28.5355 27.2587 28.2175 26.4905C28.024 26.0436 27.6783 25.6665 27.2083 25.3732C27.0977 26.2252 26.835 26.9095 26.434 27.4403C25.8948 28.1386 25.1344 28.5157 24.139 28.5716C23.3924 28.6135 22.6735 28.4319 22.1205 28.0688C21.4707 27.6358 21.0836 26.9654 21.0421 26.1833C20.9592 24.6469 22.162 23.5435 24.0422 23.4318C24.7059 23.3899 25.328 23.4318 25.9087 23.5156C25.8395 23.0407 25.6736 22.6636 25.4524 22.3982C25.1344 22.0211 24.6506 21.8395 24.0008 21.8256H23.9731C23.4477 21.8256 22.7427 21.9652 22.2864 22.6636L21.208 21.9094C21.8163 20.9875 22.798 20.4708 23.9731 20.4708H24.0008C25.9778 20.4708 27.153 21.7278 27.2774 23.9066H27.2636ZM22.3417 26.0994C22.3832 26.8956 23.2404 27.2727 24.0699 27.2308C24.8718 27.1889 25.7981 26.8676 25.9501 24.8983C25.5354 24.8005 25.0791 24.7586 24.5814 24.7586C24.4293 24.7586 24.2773 24.7586 24.1252 24.7586C22.7703 24.8285 22.3279 25.4989 22.3555 26.0855L22.3417 26.0994Z" fill="white"/>
<defs>
<radialGradient id="paint0_radial_18184_2173" cx="0" cy="0" r="1" gradientUnits="userSpaceOnUse" gradientTransform="translate(50.6632 3.67517) scale(57.7971 58.3889)">
<stop stop-color="white"/>
<stop offset="0.23" stop-color="#FBFBFB"/>
<stop offset="0.42" stop-color="#F1F1F1"/>
<stop offset="0.6" stop-color="#E0E0E0"/>
<stop offset="0.77" stop-color="#C8C8C8"/>
<stop offset="0.92" stop-color="#A9A9AA"/>
<stop offset="1" stop-color="#989899"/>
</radialGradient>
<radialGradient id="paint1_radial_18184_2173" cx="0" cy="0" r="1" gradientUnits="userSpaceOnUse" gradientTransform="translate(40.9299 10.1352) scale(55.1012 55.6654)">
<stop stop-color="white"/>
<stop offset="0.26" stop-color="#FBFBFB"/>
<stop offset="0.47" stop-color="#F1F1F1"/>
<stop offset="0.67" stop-color="#E0E0E0"/>
<stop offset="0.85" stop-color="#C8C8C9"/>
<stop offset="1" stop-color="#AFAFB0"/>
</radialGradient>
<linearGradient id="paint2_linear_18184_2173" x1="23.8281" y1="43.5234" x2="23.8281" y2="5.29575" gradientUnits="userSpaceOnUse">
<stop/>
<stop offset="0.04" stop-color="#010003"/>
<stop offset="1" stop-color="#23004A"/>
</linearGradient>
<linearGradient id="paint3_linear_18184_2173" x1="14.9452" y1="39.9617" x2="32.9908" y2="9.01645" gradientUnits="userSpaceOnUse">
<stop/>
<stop offset="0.04" stop-color="#010003"/>
<stop offset="1" stop-color="#23004A"/>
</linearGradient>
<radialGradient id="paint4_radial_18184_2173" cx="0" cy="0" r="1" gradientUnits="userSpaceOnUse" gradientTransform="translate(22.169 26.6302) scale(24.1668 24.4143)">
<stop offset="0.61" stop-color="white"/>
<stop offset="0.65" stop-color="#FBFBFB"/>
<stop offset="0.68" stop-color="#F1F1F1"/>
<stop offset="0.71" stop-color="#DFDFDF"/>
<stop offset="0.74" stop-color="#C7C7C7"/>
<stop offset="0.77" stop-color="#A7A7A7"/>
<stop offset="0.8" stop-color="#808080"/>
<stop offset="0.83" stop-color="#525252"/>
<stop offset="0.85" stop-color="#1E1E1E"/>
<stop offset="0.87"/>
</radialGradient>
</defs>
</svg>
