<svg width="48" height="49" viewBox="0 0 48 49" fill="none" xmlns="http://www.w3.org/2000/svg">
<path d="M47.7037 24.8447C47.7037 38.1412 37.0305 48.9238 23.8687 48.9238C10.7069 48.9238 0.0336914 38.1412 0.0336914 24.8447C0.0336914 11.5481 10.7069 0.765625 23.8687 0.765625C37.0305 0.765625 47.7037 11.5481 47.7037 24.8447Z" fill="url(#paint0_radial_18184_2131)"/>
<path d="M46.5839 24.8448C46.5839 37.5268 36.4084 47.8065 23.855 47.8065C11.3015 47.8065 1.12598 37.5268 1.12598 24.8448C1.12598 12.1628 11.3153 1.88306 23.8688 1.88306C36.4223 1.88306 46.5977 12.1628 46.5977 24.8448H46.5839Z" fill="url(#paint1_radial_18184_2131)"/>
<path d="M42.782 24.8446C42.782 35.4036 34.307 43.9514 23.855 43.9514C13.403 43.9514 4.94189 35.3897 4.94189 24.8446C4.94189 14.2995 13.4169 5.73779 23.855 5.73779C34.2932 5.73779 42.782 14.2995 42.782 24.8446Z" fill="url(#paint2_linear_18184_2131)"/>
<path d="M41.6343 24.8448C41.6343 34.7613 33.6847 42.7923 23.8687 42.7923C14.0526 42.7923 6.10303 34.7613 6.10303 24.8448C6.10303 14.9282 14.0526 6.89722 23.8687 6.89722C33.6847 6.89722 41.6343 14.9282 41.6343 24.8448Z" fill="url(#paint3_linear_18184_2131)"/>
<path style="mix-blend-mode:multiply" opacity="0.6" d="M41.6343 24.8448C41.6343 34.7613 33.6847 42.7923 23.8687 42.7923C14.0526 42.7923 6.10303 34.7613 6.10303 24.8448C6.10303 14.9282 14.0526 6.89722 23.8687 6.89722C33.6847 6.89722 41.6343 14.9282 41.6343 24.8448Z" fill="url(#paint4_radial_18184_2131)"/>
<path d="M25.113 23.923L29.9933 18.1965H28.832L24.6014 23.1688L21.2142 18.1965H17.3154L22.4308 25.7108L17.3154 31.7166H18.4768L22.9424 26.465L26.5093 31.7166H30.4081L25.0991 23.923H25.113ZM23.5369 25.7806L23.0253 25.0264L18.9053 19.0765H20.675L24.0069 23.8811L24.5185 24.6353L28.8458 30.8785H27.0762L23.5507 25.7806H23.5369Z" fill="white"/>
<defs>
<radialGradient id="paint0_radial_18184_2131" cx="0" cy="0" r="1" gradientUnits="userSpaceOnUse" gradientTransform="translate(50.69 1545.85) scale(0.345635 0.349174)">
<stop stop-color="white"/>
<stop offset="0.23" stop-color="#FBFBFB"/>
<stop offset="0.42" stop-color="#F1F1F1"/>
<stop offset="0.6" stop-color="#E0E0E0"/>
<stop offset="0.77" stop-color="#C8C8C8"/>
<stop offset="0.92" stop-color="#A9A9AA"/>
<stop offset="1" stop-color="#989899"/>
</radialGradient>
<radialGradient id="paint1_radial_18184_2131" cx="0" cy="0" r="1" gradientUnits="userSpaceOnUse" gradientTransform="translate(40.957 1545.85) scale(0.345635 0.349174)">
<stop stop-color="white"/>
<stop offset="0.26" stop-color="#FBFBFB"/>
<stop offset="0.47" stop-color="#F1F1F1"/>
<stop offset="0.67" stop-color="#E0E0E0"/>
<stop offset="0.85" stop-color="#C8C8C9"/>
<stop offset="1" stop-color="#AFAFB0"/>
</radialGradient>
<linearGradient id="paint2_linear_18184_2131" x1="23.862" y1="43.9444" x2="23.862" y2="5.72383" gradientUnits="userSpaceOnUse">
<stop stop-color="#23004A"/>
<stop offset="0.96" stop-color="#010003"/>
<stop offset="1"/>
</linearGradient>
<linearGradient id="paint3_linear_18184_2131" x1="14.972" y1="40.383" x2="33.0176" y2="9.44479" gradientUnits="userSpaceOnUse">
<stop/>
<stop offset="0.04" stop-color="#010003"/>
<stop offset="1" stop-color="#23004A"/>
</linearGradient>
<radialGradient id="paint4_radial_18184_2131" cx="0" cy="0" r="1" gradientUnits="userSpaceOnUse" gradientTransform="translate(22.1958 1545.85) scale(24.1668 24.4143)">
<stop offset="0.61" stop-color="white"/>
<stop offset="0.65" stop-color="#FBFBFB"/>
<stop offset="0.68" stop-color="#F1F1F1"/>
<stop offset="0.71" stop-color="#DFDFDF"/>
<stop offset="0.74" stop-color="#C7C7C7"/>
<stop offset="0.77" stop-color="#A7A7A7"/>
<stop offset="0.8" stop-color="#808080"/>
<stop offset="0.83" stop-color="#525252"/>
<stop offset="0.85" stop-color="#1E1E1E"/>
<stop offset="0.87"/>
</radialGradient>
</defs>
</svg>
