<svg width="48" height="49" viewBox="0 0 48 49" fill="none" xmlns="http://www.w3.org/2000/svg">
<path d="M47.67 24.0735C47.67 37.367 36.9968 48.147 23.835 48.147C10.6732 48.147 0 37.367 0 24.0735C0 10.78 10.6732 0 23.835 0C36.9968 0 47.67 10.78 47.67 24.0735Z" fill="url(#paint0_radial_18654_219)"/>
<path d="M46.5502 24.0736C46.5502 36.7527 36.3747 47.03 23.8213 47.03C11.2678 47.03 1.09229 36.7527 1.09229 24.0736C1.09229 11.3945 11.2678 1.11719 23.8213 1.11719C36.3747 1.11719 46.5502 11.3945 46.5502 24.0736Z" fill="url(#paint1_radial_18654_219)"/>
<path d="M42.7483 24.0736C42.7483 34.6302 34.2734 43.176 23.8214 43.176C13.3693 43.176 4.9082 34.6162 4.9082 24.0736C4.9082 13.531 13.3832 4.97119 23.8214 4.97119C34.2595 4.97119 42.7483 13.531 42.7483 24.0736Z" fill="url(#paint2_linear_18654_219)"/>
<path d="M41.6006 24.0735C41.6006 33.9878 33.651 42.0169 23.835 42.0169C14.019 42.0169 6.06934 33.9878 6.06934 24.0735C6.06934 14.1593 14.019 6.13013 23.835 6.13013C33.651 6.13013 41.6006 14.1593 41.6006 24.0735Z" fill="url(#paint3_linear_18654_219)"/>
<path style="mix-blend-mode:multiply" opacity="0.6" d="M41.6006 24.0735C41.6006 33.9878 33.651 42.0169 23.835 42.0169C14.019 42.0169 6.06934 33.9878 6.06934 24.0735C6.06934 14.1593 14.019 6.13013 23.835 6.13013C33.651 6.13013 41.6006 14.1593 41.6006 24.0735Z" fill="url(#paint4_radial_18654_219)"/>
<path d="M16.2588 31.8651L17.351 27.7598C16.7289 26.6427 16.4108 25.386 16.4108 24.1013C16.4108 19.9261 19.7704 16.533 23.9042 16.533C28.038 16.533 31.3976 19.9261 31.3976 24.1013C31.3976 28.2765 28.038 31.6697 23.9042 31.6697C22.66 31.6697 21.4433 31.3485 20.3373 30.7481L16.2588 31.8512V31.8651ZM20.5447 29.226L20.8074 29.3796C21.7475 29.9521 22.8259 30.2454 23.9042 30.2454C27.25 30.2454 29.9874 27.4945 29.9874 24.1013C29.9874 20.7081 27.2638 17.9573 23.9042 17.9573C20.5447 17.9573 17.8211 20.7081 17.8211 24.1013C17.8211 25.2184 18.1252 26.3215 18.7059 27.285L18.858 27.5504L18.2497 29.8404L20.5308 29.226H20.5447Z" fill="white"/>
<path d="M26.697 25.1626C26.3929 24.9811 25.9919 24.7716 25.6186 24.9252C25.3421 25.0369 25.1624 25.4838 24.9827 25.7072C24.8859 25.8189 24.7753 25.8468 24.6371 25.777C23.5863 25.3581 22.7844 24.646 22.2176 23.6825C22.1208 23.5289 22.1347 23.4171 22.2591 23.2775C22.4388 23.068 22.6462 22.8307 22.7015 22.5514C22.743 22.2721 22.6185 21.9509 22.5079 21.6996C22.3558 21.3784 22.2038 20.9316 21.8858 20.7501C21.5955 20.5825 21.2083 20.6802 20.9595 20.8897C20.5171 21.2528 20.2959 21.8253 20.3097 22.3978C20.3097 22.5654 20.3374 22.719 20.365 22.8726C20.4618 23.2496 20.6277 23.5987 20.8212 23.9338C20.9733 24.1851 21.1254 24.4225 21.2913 24.6599C21.8443 25.4279 22.5494 26.0982 23.3513 26.6009C23.7522 26.8522 24.1946 27.0617 24.6371 27.2153C25.1348 27.3828 25.591 27.5644 26.1302 27.4527C26.697 27.341 27.2639 26.9919 27.4851 26.4333C27.5542 26.2657 27.5818 26.0842 27.5542 25.9167C27.4712 25.5536 27.0012 25.3441 26.7109 25.1766L26.697 25.1626Z" fill="white"/>
<defs>
<radialGradient id="paint0_radial_18654_219" cx="0" cy="0" r="1" gradientUnits="userSpaceOnUse" gradientTransform="translate(50.6563 3.33734) scale(57.7971 58.3754)">
<stop stop-color="white"/>
<stop offset="0.23" stop-color="#FBFBFB"/>
<stop offset="0.42" stop-color="#F1F1F1"/>
<stop offset="0.6" stop-color="#E0E0E0"/>
<stop offset="0.77" stop-color="#C8C8C8"/>
<stop offset="0.92" stop-color="#A9A9AA"/>
<stop offset="1" stop-color="#989899"/>
</radialGradient>
<radialGradient id="paint1_radial_18654_219" cx="0" cy="0" r="1" gradientUnits="userSpaceOnUse" gradientTransform="translate(40.9233 9.79566) scale(55.1012 55.6525)">
<stop stop-color="white"/>
<stop offset="0.26" stop-color="#FBFBFB"/>
<stop offset="0.47" stop-color="#F1F1F1"/>
<stop offset="0.67" stop-color="#E0E0E0"/>
<stop offset="0.85" stop-color="#C8C8C9"/>
<stop offset="1" stop-color="#AFAFB0"/>
</radialGradient>
<linearGradient id="paint2_linear_18654_219" x1="23.8214" y1="43.176" x2="23.8214" y2="4.95723" gradientUnits="userSpaceOnUse">
<stop stop-color="#00B25B"/>
<stop offset="1" stop-color="#00FB73"/>
</linearGradient>
<linearGradient id="paint3_linear_18654_219" x1="14.9314" y1="39.6152" x2="32.9777" y2="8.67356" gradientUnits="userSpaceOnUse">
<stop stop-color="#00B25B"/>
<stop offset="1" stop-color="#00FB73"/>
</linearGradient>
<radialGradient id="paint4_radial_18654_219" cx="0" cy="0" r="1" gradientUnits="userSpaceOnUse" gradientTransform="translate(22.1621 26.2868) scale(24.1668 24.4086)">
<stop offset="0.61" stop-color="white"/>
<stop offset="0.65" stop-color="#FBFBFB"/>
<stop offset="0.68" stop-color="#F1F1F1"/>
<stop offset="0.71" stop-color="#DFDFDF"/>
<stop offset="0.74" stop-color="#C7C7C7"/>
<stop offset="0.77" stop-color="#A7A7A7"/>
<stop offset="0.8" stop-color="#808080"/>
<stop offset="0.83" stop-color="#525252"/>
<stop offset="0.85" stop-color="#1E1E1E"/>
<stop offset="0.87"/>
</radialGradient>
</defs>
</svg>
