<svg width="23" height="24" viewBox="0 0 23 24" fill="none" xmlns="http://www.w3.org/2000/svg">
<path d="M11.5 0.465332C5.152 0.465332 0 5.71222 0 12.1771C0 18.642 5.152 23.8889 11.5 23.8889C17.848 23.8889 23 18.642 23 12.1771C23 5.71222 17.848 0.465332 11.5 0.465332ZM11.5 21.2538C6.5895 21.2538 2.5875 17.1781 2.5875 12.1771C2.5875 10.5843 3.0015 9.02666 3.772 7.65638C4.002 7.23475 4.531 7.09421 4.945 7.32845L11.9255 11.4159C12.3395 11.6618 12.4775 12.1888 12.2475 12.6105C12.006 13.0321 11.4885 13.1726 11.0745 12.9384L7.728 10.9825C7.613 11.369 7.5325 11.7672 7.5325 12.1771C7.5325 14.4024 9.315 16.2177 11.5 16.2177C13.685 16.2177 15.4675 14.4024 15.4675 12.1771C15.4675 9.95189 13.685 8.13656 11.5 8.13656C10.9135 8.13656 10.3385 8.26539 9.8095 8.52305C9.3725 8.73386 8.8665 8.54647 8.6595 8.10143C8.4525 7.66809 8.6365 7.14106 9.0735 6.93025C9.8325 6.56718 10.649 6.37979 11.5 6.37979C14.6395 6.37979 17.1925 8.97981 17.1925 12.1771C17.1925 15.3745 14.6395 17.9745 11.5 17.9745C8.3605 17.9745 5.8075 15.3745 5.8075 12.1771C5.8075 11.4627 5.9455 10.7483 6.1985 10.0807L4.876 9.31945C4.508 10.2213 4.3125 11.1933 4.3125 12.1771C4.3125 16.2177 7.5325 19.497 11.5 19.497C15.4675 19.497 18.6875 16.2177 18.6875 12.1771C18.6875 8.13656 15.4675 4.85726 11.5 4.85726C9.936 4.85726 8.441 5.36086 7.1875 6.32123C6.808 6.61403 6.2675 6.53204 5.98 6.14556C5.6925 5.75907 5.773 5.20861 6.1525 4.91582C7.705 3.73292 9.5565 3.10049 11.5 3.10049C16.4105 3.10049 20.4125 7.17619 20.4125 12.1771C20.4125 17.1781 16.4105 21.2538 11.5 21.2538Z" fill="#292D32"/>
</svg>
