<svg width="531" height="218" viewBox="0 0 531 218" fill="none" xmlns="http://www.w3.org/2000/svg">
<path d="M10.8431 216.407C5.12776 216.407 1 214.973 1 208.601V129.904C1 121.62 7.66792 118.115 17.1935 118.115L44.1827 118.275C46.5641 118.275 48.7867 121.142 48.7867 124.169C48.7867 127.196 47.3579 133.727 44.9765 133.727L23.2264 133.568C20.3687 133.568 19.0986 134.843 19.0986 137.71V161.447C19.0986 163.518 20.6862 164.473 22.7501 164.473L39.5786 163.996C42.7538 163.836 45.1353 169.253 45.1353 172.439C45.1353 176.581 43.3889 178.652 39.1024 178.811L22.2738 179.289C20.5275 179.289 19.0986 180.723 19.0986 182.475V208.761C19.0986 215.611 14.6533 216.407 10.8431 216.407ZM8.93799 212.265C8.77923 211.15 6.23908 209.238 5.7628 203.981C5.44528 201.273 4.49272 200.955 4.01644 200.955C3.69892 200.955 3.22264 202.388 3.54016 204.459C3.69892 206.53 5.12776 213.699 7.98543 213.38C8.46171 213.38 8.93799 213.062 8.93799 212.265Z" fill="url(#paint0_linear_18756_13101)"/>
<path d="M100.37 216.407C95.9248 216.407 94.3372 212.265 94.3372 207.008C94.3372 204.3 94.1784 203.025 93.7021 203.025C93.0671 203.025 92.5908 204.3 91.162 206.052C88.3043 209.876 83.0652 216.407 75.1272 216.407C61.4739 216.407 52.9008 206.53 52.9008 190.281V125.762C52.9008 120.824 56.2348 118.115 60.5213 118.115C65.1253 118.115 69.8881 121.62 69.8881 126.24V188.688C69.8881 195.857 73.0633 200.955 77.6674 200.955C85.2878 200.955 92.7496 187.891 92.7496 178.97V128.152C92.7496 121.461 95.2897 118.115 100.211 118.115C104.974 118.115 109.578 120.983 109.578 130.063V204.459C109.578 214.655 104.974 216.407 100.37 216.407ZM98.3062 122.735C100.053 120.983 99.1 120.027 97.8299 120.027C96.2423 120.027 94.3372 123.691 94.3372 126.081C94.3372 127.514 94.8134 127.674 95.4485 127.674C96.2423 127.674 96.5598 124.488 98.3062 122.735ZM59.2512 121.302C59.2512 120.346 58.7749 120.186 58.6162 120.186C57.5049 120.186 54.6472 123.532 54.6472 125.921C54.6472 126.877 55.1235 127.514 55.441 127.514C56.7111 127.514 59.2512 122.417 59.2512 121.302ZM65.9191 208.123C66.0779 205.893 61.9501 205.574 60.6801 201.751C59.8863 199.521 59.41 197.928 58.6162 197.928C57.6636 197.928 57.3461 198.724 57.3461 199.999C57.3461 203.025 62.2677 210.035 64.6491 210.035C65.2841 210.035 65.9191 209.238 65.9191 208.123ZM98.4649 208.123C98.3062 206.052 98.4649 204.3 97.6711 204.3C96.8773 204.3 96.5598 205.893 96.5598 207.645C96.5598 210.354 98.1474 214.496 99.5762 214.496C100.529 214.496 98.6237 210.991 98.4649 208.123Z" fill="url(#paint1_linear_18756_13101)"/>
<path d="M122.559 216.407C117.32 216.407 115.415 213.699 115.415 206.052V130.063C115.415 120.824 116.844 118.275 123.035 118.275C127.004 118.275 131.767 119.868 131.767 125.443V127.674C131.767 131.975 131.926 134.046 132.402 134.046C133.99 134.046 135.736 117.637 151.136 117.637C164.631 117.637 170.505 130.382 170.505 159.694V211.469C170.505 214.655 167.329 216.407 161.614 216.407C155.899 216.407 153.517 213.38 153.517 210.991V161.128C153.517 139.144 151.136 134.843 145.421 134.843C136.371 134.843 132.561 152.366 132.561 173.872V209.238C132.561 215.611 125.417 216.407 122.559 216.407ZM118.59 134.365C119.702 134.365 120.654 121.939 120.654 121.62C120.654 121.142 120.495 120.346 120.178 120.346C117.955 120.346 117.32 127.833 117.32 129.267C117.32 130.86 117.796 134.365 118.59 134.365ZM159.392 211.787C159.392 209.238 157.328 210.035 157.328 206.849C157.328 203.503 157.01 203.025 156.058 203.025C155.105 203.025 154.787 204.937 154.787 207.008C154.787 211.309 156.375 214.018 157.963 214.018C158.598 214.018 159.392 213.221 159.392 211.787ZM122.4 212.265C122.4 210.354 119.86 210.513 119.86 207.486C119.86 205.415 119.384 204.141 118.749 204.141C118.273 204.141 117.796 205.893 117.796 208.283C117.796 211.469 119.384 214.496 121.13 214.496C121.607 214.496 122.4 213.54 122.4 212.265Z" fill="url(#paint2_linear_18756_13101)"/>
<path d="M228.137 216.407C222.263 216.407 220.358 212.425 220.358 199.999V131.816C220.358 122.735 222.739 118.275 229.883 118.275C233.852 118.275 236.234 121.142 236.234 123.054C236.234 126.399 236.075 128.47 237.186 128.47C238.456 128.47 241.949 117.16 253.38 117.16C267.192 117.16 276.876 128.63 276.876 142.967C276.876 168.775 253.062 165.589 253.062 167.022C253.062 168.456 279.893 164.951 279.893 190.281C279.893 207.327 262.747 216.407 248.776 216.407H228.137ZM226.073 131.178C226.073 131.178 225.279 130.223 225.279 128.47C225.279 124.488 229.883 122.098 229.883 121.142C229.883 120.505 229.407 120.346 228.296 120.346C225.438 120.346 222.58 124.328 222.58 129.585C222.58 131.975 223.215 133.727 224.327 133.727C224.962 133.727 226.073 132.612 226.073 131.178ZM241.473 158.898H246.236C253.38 158.898 258.778 152.844 258.778 143.764C258.778 137.391 255.92 132.612 250.205 132.612C242.584 132.612 238.456 139.303 238.456 145.516V153.8C238.456 156.667 239.885 158.898 241.473 158.898ZM242.902 201.91H247.347C254.967 201.91 261.794 197.928 261.794 188.529C261.794 179.13 254.491 175.943 245.442 175.943H241.473C239.726 175.943 238.456 178.333 238.456 182.316V196.175C238.456 201.273 238.933 201.91 242.902 201.91ZM224.486 204.778C225.438 204.778 225.438 194.742 225.438 192.83C225.438 186.776 224.803 186.139 224.168 186.139C223.692 186.139 223.057 186.617 223.057 192.83C223.057 201.91 223.215 204.778 224.486 204.778ZM224.486 207.008C223.692 207.008 223.215 207.805 223.215 208.761C223.215 210.513 224.009 210.831 224.644 210.831C225.121 210.831 225.597 209.876 225.597 208.761C225.597 207.327 225.597 207.008 224.486 207.008Z" fill="url(#paint3_linear_18756_13101)"/>
<path d="M315.495 218C296.602 218 283.901 198.724 283.901 169.89C283.901 139.303 298.19 117.16 317.876 117.16C332.323 117.16 342.484 128.948 341.69 144.719C340.737 163.199 325.655 180.245 306.445 180.245C304.381 180.245 303.746 180.723 303.746 182.475C303.746 196.016 308.985 202.388 316.447 202.388C321.845 202.388 326.132 197.768 326.132 191.715C326.132 186.617 329.148 183.272 333.434 183.272C338.197 183.272 341.372 187.573 341.372 194.264C341.372 207.167 329.624 218 315.495 218ZM294.856 140.418C296.285 140.418 303.27 125.762 309.621 125.125C310.732 124.966 311.843 124.328 311.684 123.691C311.684 122.895 310.732 122.257 309.621 122.417C302.476 122.895 293.745 135.002 294.062 139.781C294.221 140.578 294.697 140.578 294.856 140.418ZM303.27 166.226C303.588 166.704 304.381 166.863 305.493 166.863C316.447 166.863 326.449 154.915 326.449 144.082C326.449 137.232 322.798 132.294 317.876 132.294C307.08 132.294 301.047 162.88 303.27 166.226ZM292.792 142.011C291.839 142.171 291.046 143.923 291.204 145.516C291.363 146.313 291.522 146.95 291.839 146.79C292.951 146.79 293.903 144.242 293.586 142.808C293.427 142.33 293.268 141.852 292.792 142.011Z" fill="url(#paint4_linear_18756_13101)"/>
<path d="M369.41 217.682C355.28 217.682 346.866 199.839 346.866 170.049C346.866 137.71 356.709 118.434 373.537 117.478C385.603 116.841 388.937 126.24 390.207 126.24C391.477 126.24 390.049 117 397.987 117C401.956 117 405.131 119.231 405.131 122.098V183.909C405.131 192.511 406.083 201.114 406.083 205.096C406.083 212.584 402.908 217.682 398.463 217.682C393.382 217.682 389.89 211.309 389.89 202.388C389.89 199.68 389.572 198.246 389.096 198.246C387.191 198.246 384.174 217.682 369.41 217.682ZM393.859 127.674C394.653 127.674 394.97 125.921 395.288 124.488C395.923 122.417 396.716 120.824 396.716 119.868C396.716 119.231 396.399 119.071 396.081 119.071C394.97 119.071 392.747 121.461 392.747 124.806C392.747 126.399 393.224 127.674 393.859 127.674ZM373.22 202.07C379.094 202.07 387.667 176.103 387.667 158.101C387.667 144.082 382.428 132.134 376.554 132.134C369.568 132.134 363.853 148.224 363.853 167.66C363.853 185.024 368.457 202.07 373.22 202.07ZM361.789 211.15C362.583 211.15 363.218 210.194 363.059 209.557C362.742 208.442 358.455 204.3 357.503 200.955C356.868 199.202 356.391 194.742 355.121 194.742C354.169 194.742 354.01 198.087 355.439 202.229C357.026 206.53 360.043 211.15 361.789 211.15ZM398.145 212.902C398.145 211.469 394.494 209.557 394.494 206.371C394.494 206.371 394.494 204.619 393.382 204.619C392.589 204.619 392.271 205.256 392.271 206.53C392.271 209.876 394.653 214.336 396.558 214.336C397.351 214.336 398.145 213.54 398.145 212.902ZM365.758 213.699C367.187 213.699 368.933 209.716 366.393 209.716C365.282 209.716 364.488 210.513 364.488 211.628C364.488 212.584 365.123 213.699 365.758 213.699Z" fill="url(#paint5_linear_18756_13101)"/>
<path d="M419.769 216.407C414.53 216.407 412.625 213.699 412.625 206.052V130.063C412.625 120.824 414.053 118.275 420.245 118.275C424.214 118.275 428.977 119.868 428.977 125.443V127.674C428.977 131.975 429.136 134.046 429.612 134.046C431.2 134.046 432.946 117.637 448.346 117.637C461.84 117.637 467.714 130.382 467.714 159.694V211.469C467.714 214.655 464.539 216.407 458.824 216.407C453.108 216.407 450.727 213.38 450.727 210.991V161.128C450.727 139.144 448.346 134.843 442.63 134.843C433.581 134.843 429.771 152.366 429.771 173.872V209.238C429.771 215.611 422.627 216.407 419.769 216.407ZM415.8 134.365C416.911 134.365 417.864 121.939 417.864 121.62C417.864 121.142 417.705 120.346 417.387 120.346C415.165 120.346 414.53 127.833 414.53 129.267C414.53 130.86 415.006 134.365 415.8 134.365ZM456.601 211.787C456.601 209.238 454.537 210.035 454.537 206.849C454.537 203.503 454.22 203.025 453.267 203.025C452.315 203.025 451.997 204.937 451.997 207.008C451.997 211.309 453.585 214.018 455.172 214.018C455.807 214.018 456.601 213.221 456.601 211.787ZM419.61 212.265C419.61 210.354 417.07 210.513 417.07 207.486C417.07 205.415 416.594 204.141 415.959 204.141C415.482 204.141 415.006 205.893 415.006 208.283C415.006 211.469 416.594 214.496 418.34 214.496C418.816 214.496 419.61 213.54 419.61 212.265Z" fill="url(#paint6_linear_18756_13101)"/>
<path d="M502.423 217.522C480.197 217.522 473.529 192.352 473.529 168.934C473.529 145.516 480.038 117.16 502.423 117.16C524.808 117.16 531 141.852 531 167.5C531 193.149 524.65 217.522 502.423 217.522ZM484.642 135.958C485.595 133.568 488.294 129.107 490.834 127.037C492.104 125.921 490.516 124.488 490.04 124.488C487.659 124.488 481.784 134.205 481.784 138.188C481.784 139.144 481.943 139.462 482.578 139.462C482.896 139.462 483.69 138.347 484.642 135.958ZM502.423 207.486C512.901 207.486 514.965 180.723 514.965 167.341C514.965 158.101 512.584 127.037 502.423 127.037C492.104 127.037 490.357 158.898 490.357 167.5C490.357 180.882 492.421 207.486 502.423 207.486ZM482.419 142.967C482.419 140.896 481.943 140.578 480.991 140.578C480.038 140.578 479.403 142.011 479.403 143.286C479.403 145.038 480.356 145.516 480.991 145.516C481.308 145.516 482.419 144.719 482.419 142.967Z" fill="url(#paint7_linear_18756_13101)"/>
<path d="M26.288 87.2968C21.7983 87.2968 19.4893 83.8334 19.4893 80.6265V62.7961C19.4893 58.3065 18.5914 56.3823 15.5128 49.5837L0.247983 15.9755C-0.906499 13.5382 2.04384 8.27892 7.5597 8.27892C9.09901 8.27892 10.6383 8.92031 11.5363 10.9727L23.4659 38.9368C24.2356 40.861 25.5183 43.4265 26.5445 43.4265C27.5707 43.4265 28.5969 41.6306 29.7514 38.9368L42.579 10.3313C43.3486 8.53548 45.5293 8.27892 46.6838 8.27892C51.0452 8.27892 53.3542 13.6665 52.0714 16.4886L36.0369 51.2513C33.5997 56.5106 33.5997 57.5368 33.5997 64.9768V80.6265C33.5997 85.8858 29.3666 87.2968 26.288 87.2968ZM4.22453 16.6169C3.8397 15.3341 4.09626 14.4362 3.96798 13.5382C3.8397 12.7686 3.45488 11.8707 3.07005 11.9989C1.14591 12.7686 1.91557 15.9755 2.42867 17.2582C2.8135 18.0279 3.45488 18.541 3.96798 18.4127C4.60936 18.1562 4.48108 17.2582 4.22453 16.6169ZM24.2356 83.0637C23.979 82.4223 23.0811 80.7547 22.8245 77.8044C22.6962 75.6237 22.4397 74.8541 22.1831 74.8541C22.0549 74.8541 21.5418 75.3672 21.4135 76.9065C21.1569 82.2941 22.6962 84.603 24.2356 84.603C24.8769 84.603 24.6204 83.8334 24.2356 83.0637Z" fill="#FF0000"/>
<path d="M149.354 87.2968C145.763 87.2968 144.48 83.9616 144.48 79.7285C144.48 77.5479 144.352 76.5216 143.967 76.5216C143.454 76.5216 143.069 77.5479 141.914 78.9589C139.605 82.0375 135.372 87.2968 128.959 87.2968C117.927 87.2968 111 79.3437 111 66.2596V14.3079C111 10.3313 113.694 8.15065 117.157 8.15065C120.877 8.15065 124.726 10.9727 124.726 14.6927V64.9768C124.726 70.7492 127.291 74.8541 131.011 74.8541C137.168 74.8541 143.197 64.3354 143.197 57.152V16.232C143.197 10.8444 145.25 8.15065 149.226 8.15065C153.074 8.15065 156.794 10.4596 156.794 17.7713V77.6761C156.794 85.8858 153.074 87.2968 149.354 87.2968ZM147.687 11.8707C149.098 10.4596 148.328 9.68996 147.302 9.68996C146.019 9.68996 144.48 12.6403 144.48 14.5644C144.48 15.7189 144.865 15.8472 145.378 15.8472C146.019 15.8472 146.276 13.2817 147.687 11.8707ZM116.131 10.7162C116.131 9.94651 115.746 9.81824 115.618 9.81824C114.72 9.81824 112.411 12.512 112.411 14.4362C112.411 15.2058 112.796 15.7189 113.052 15.7189C114.079 15.7189 116.131 11.6141 116.131 10.7162ZM121.519 80.6265C121.647 78.8306 118.312 78.5741 117.286 75.4954C116.644 73.6996 116.259 72.4168 115.618 72.4168C114.848 72.4168 114.592 73.0582 114.592 74.0844C114.592 76.5216 118.568 82.1658 120.492 82.1658C121.006 82.1658 121.519 81.5244 121.519 80.6265ZM147.815 80.6265C147.687 78.9589 147.815 77.5479 147.174 77.5479C146.532 77.5479 146.276 78.8306 146.276 80.2416C146.276 82.4223 147.559 85.7575 148.713 85.7575C149.483 85.7575 147.943 82.9354 147.815 80.6265Z" fill="#FF0000"/>
<path d="M201.025 87.2968C195.766 87.2968 195.253 83.3203 195.253 78.9589V17.7713C195.253 14.0513 195.253 8.27892 200.768 8.27892C207.695 8.27892 206.797 20.3369 207.567 20.3369C208.337 20.3369 209.491 7.76583 220.651 7.76583C230.144 7.76583 232.453 20.2086 233.607 20.2086C234.762 20.2086 236.429 7.76583 247.333 7.76583C261.315 7.76583 264.393 22.3893 264.393 41.6306V83.8334C264.393 86.1423 260.288 87.2968 256.953 87.2968C253.618 87.2968 251.566 86.5272 251.566 83.9616V42.7851C251.566 38.6803 252.207 20.4651 245.024 20.4651C238.866 20.4651 237.584 30.3424 236.814 44.581C235.788 61.3851 236.429 80.3699 236.429 83.3203C236.429 85.7575 233.222 87.2968 229.117 87.2968C225.013 87.2968 223.473 86.5272 223.473 82.4223V42.7851C223.473 38.9368 224.115 20.3369 217.316 20.3369C208.08 20.3369 207.952 46.7617 207.952 53.0472V81.5244C207.952 84.7313 204.745 87.2968 201.025 87.2968ZM198.331 20.3369C199.357 20.2086 199.229 17.8996 199.229 16.4886C199.229 14.0513 201.025 10.3313 199.614 10.3313C197.177 10.3313 196.792 15.7189 196.792 16.7451C196.792 18.0279 197.048 20.4651 198.331 20.3369ZM227.963 84.3465C227.963 82.6789 226.295 82.6789 226.295 80.7547C226.295 80.1134 226.424 76.5216 225.269 76.5216C224.499 76.5216 224.628 80.3699 224.628 80.883C224.628 82.9354 225.141 85.8858 226.808 85.8858C227.45 85.8858 227.963 85.2444 227.963 84.3465ZM255.671 84.2182C255.671 82.5506 254.259 81.5244 254.259 79.6003C254.259 78.9589 254.388 76.5216 253.362 76.5216C252.592 76.5216 252.592 79.2154 252.592 79.7285C252.592 80.883 252.977 85.6292 254.644 85.6292C255.286 85.6292 255.671 84.603 255.671 84.2182ZM200.768 84.2182C200.768 82.4223 199.871 82.8072 198.973 81.6527C198.46 81.0113 199.101 77.4196 197.946 77.4196C197.177 77.4196 197.177 79.6003 197.177 80.7547C197.177 82.0375 197.946 85.5009 199.614 85.5009C200.384 85.5009 200.768 84.9878 200.768 84.2182Z" fill="#FF0000"/>
<path d="M287.609 88.323C276.193 88.323 269.394 73.9561 269.394 49.9686C269.394 23.9286 277.347 8.4072 290.944 7.63754C300.693 7.12445 303.387 14.6927 304.413 14.6927C305.439 14.6927 304.285 7.25272 310.699 7.25272C313.906 7.25272 316.471 9.04858 316.471 11.3575V61.1286C316.471 68.0555 317.241 74.9823 317.241 78.1892C317.241 84.2182 314.675 88.323 311.084 88.323C306.979 88.323 304.157 83.192 304.157 76.0085C304.157 73.8279 303.9 72.6734 303.515 72.6734C301.976 72.6734 299.539 88.323 287.609 88.323ZM307.364 15.8472C308.005 15.8472 308.262 14.4362 308.518 13.2817C309.031 11.6141 309.673 10.3313 309.673 9.56169C309.673 9.04858 309.416 8.92031 309.159 8.92031C308.262 8.92031 306.466 10.8444 306.466 13.5382C306.466 14.821 306.851 15.8472 307.364 15.8472ZM290.688 75.752C295.434 75.752 302.361 54.843 302.361 40.3479C302.361 29.0596 298.128 19.4389 293.382 19.4389C287.737 19.4389 283.12 32.3948 283.12 48.0444C283.12 62.0265 286.84 75.752 290.688 75.752ZM281.452 83.0637C282.093 83.0637 282.606 82.2941 282.478 81.781C282.222 80.883 278.758 77.5479 277.988 74.8541C277.475 73.443 277.091 69.8513 276.064 69.8513C275.295 69.8513 275.166 72.5451 276.321 75.8803C277.604 79.3437 280.041 83.0637 281.452 83.0637ZM310.827 84.4747C310.827 83.3203 307.877 81.781 307.877 79.2154C307.877 79.2154 307.877 77.8044 306.979 77.8044C306.337 77.8044 306.081 78.3175 306.081 79.3437C306.081 82.0375 308.005 85.6292 309.544 85.6292C310.186 85.6292 310.827 84.9878 310.827 84.4747ZM284.659 85.1161C285.813 85.1161 287.224 81.9092 285.172 81.9092C284.274 81.9092 283.633 82.5506 283.633 83.4485C283.633 84.2182 284.146 85.1161 284.659 85.1161Z" fill="#FF0000"/>
<path d="M328.427 87.2968C321.372 87.2968 322.27 78.5741 322.27 73.8279C322.27 69.5947 322.27 65.3617 322.27 61.1286L322.141 35.7299C322.141 31.4968 322.141 27.2637 322.141 23.0306C322.141 13.9231 322.911 8.27892 329.71 8.27892C333.558 8.27892 337.15 11.7424 337.15 16.8734C337.15 19.3106 336.508 41.3741 337.663 41.3741C339.715 41.3741 354.98 8.27892 360.752 8.27892C363.959 8.27892 368.577 10.2031 368.577 14.5644C368.577 18.7975 349.721 44.1961 349.721 45.7355C349.721 48.0444 371.399 76.1368 371.399 81.1396C371.399 85.5009 364.601 87.4251 362.035 87.4251C359.598 87.4251 356.904 83.5768 354.852 79.9851C353.312 77.163 344.461 62.9244 341.383 58.6913C340.87 57.9217 339.972 57.6651 339.202 58.6913L337.919 60.3589C337.15 61.3851 336.893 62.5396 336.893 64.4637C336.893 65.6182 336.893 66.6444 336.893 67.4141L337.021 71.2623C337.021 72.032 337.021 72.9299 337.021 74.2127C337.021 82.8072 334.456 87.2968 328.427 87.2968ZM324.579 15.3341C326.118 15.5906 328.299 12.512 328.683 11.101C328.812 10.5879 328.17 10.0748 327.657 10.0748C326.375 10.0748 324.066 13.7948 324.194 14.821C324.194 15.0775 324.322 15.3341 324.579 15.3341ZM357.417 15.7189C358.572 15.8472 361.522 11.9989 361.266 10.7162C361.266 10.3313 360.881 10.2031 360.752 10.2031C359.598 9.81824 356.263 14.0513 356.519 14.9493C356.648 15.3341 356.904 15.5906 357.417 15.7189ZM326.503 76.9065C326.503 75.4954 326.503 67.0292 325.22 67.0292C324.066 67.0292 323.809 71.2623 323.809 72.032C323.809 73.3148 323.809 80.3699 325.733 80.3699C326.503 80.3699 326.503 77.2913 326.503 76.9065ZM362.42 84.603C362.42 83.5768 359.983 79.7285 358.828 79.7285C358.443 79.7285 358.315 80.4982 358.315 80.883C358.315 82.0375 360.111 85.3727 361.65 85.3727C362.035 85.3727 362.42 84.9878 362.42 84.603ZM327.657 83.3203C327.914 82.4223 327.144 81.3961 326.246 81.3961C325.22 81.3961 324.579 82.4223 324.835 83.3203C325.092 83.9616 325.605 84.603 326.246 84.603C326.888 84.603 327.401 83.9616 327.657 83.3203Z" fill="#FF0000"/>
<path d="M396.123 88.5796C380.859 88.5796 370.597 73.0582 370.597 49.8403C370.597 25.2113 382.141 7.381 398.048 7.381C409.721 7.381 417.93 16.8734 417.289 29.5727C416.519 44.4527 404.333 58.1782 388.812 58.1782C387.144 58.1782 386.631 58.563 386.631 59.9741C386.631 70.8775 390.864 76.0085 396.893 76.0085C401.254 76.0085 404.718 72.2885 404.718 67.4141C404.718 63.3092 407.155 60.6154 410.619 60.6154C414.467 60.6154 417.032 64.0789 417.032 69.4665C417.032 79.8568 407.54 88.5796 396.123 88.5796ZM379.448 26.1093C380.602 26.1093 386.246 14.3079 391.377 13.7948C392.275 13.6665 393.173 13.1534 393.045 12.6403C393.045 11.9989 392.275 11.4858 391.377 11.6141C385.605 11.9989 378.55 21.7479 378.806 25.5962C378.934 26.2375 379.319 26.2375 379.448 26.1093ZM386.246 46.8899C386.503 47.2748 387.144 47.403 388.042 47.403C396.893 47.403 404.974 37.7824 404.974 29.0596C404.974 23.5437 402.024 19.5672 398.048 19.5672C389.325 19.5672 384.45 44.1961 386.246 46.8899ZM377.78 27.392C377.01 27.5203 376.369 28.9313 376.497 30.2141C376.626 30.8555 376.754 31.3686 377.01 31.2403C377.908 31.2403 378.678 29.1879 378.421 28.0334C378.293 27.6486 378.165 27.2637 377.78 27.392Z" fill="#FF0000"/>
<path d="M464.493 15.5906C460.132 15.5906 457.053 12.6403 457.053 8.27892C457.053 3.661 460.132 0.454102 464.75 0.454102C469.368 0.454102 472.575 3.40444 472.575 7.63754C472.575 12.1272 468.983 15.5906 464.493 15.5906ZM460.389 8.02237C460.902 5.07203 463.339 5.32858 463.339 3.91755C463.339 3.1479 462.954 2.63479 462.056 2.63479C460.004 2.63479 458.464 5.45686 458.464 8.02237C458.464 9.17686 458.593 11.3575 459.619 11.3575C460.389 11.3575 460.26 8.53548 460.389 8.02237ZM464.365 87.8099C460.26 87.8099 457.951 85.7575 457.951 83.192V27.0072C457.951 23.8003 459.362 18.4127 464.365 18.4127C469.368 18.4127 471.549 23.0306 471.549 26.3658V83.192C471.549 85.8858 468.47 87.8099 464.365 87.8099ZM460.26 30.8555C461.287 30.8555 460.645 26.1093 461.287 23.9286C461.415 23.2872 462.056 21.6196 461.543 21.6196C459.747 21.6196 459.106 25.981 459.106 27.5203C459.106 29.0596 459.491 30.8555 460.26 30.8555Z" fill="#FF0000"/>
<path d="M493.516 87.2968C480.432 87.2968 480.432 74.2127 480.432 60.872V38.8086H479.021C476.455 38.8086 475.044 36.7562 475.044 33.8058C475.044 30.8555 475.942 29.0596 479.021 29.0596H480.432V16.4886C480.432 10.0748 482.741 8.02237 486.589 8.02237C490.437 8.02237 493.644 10.4596 493.644 16.8734V29.0596H497.621C500.699 29.0596 501.854 30.5989 501.854 33.0362C501.854 36.3713 500.828 38.8086 498.134 38.8086H493.644V62.9244C493.644 72.2885 493.901 75.8803 495.697 75.8803C496.081 75.8803 496.338 75.8803 496.723 75.8803L498.775 75.4954C502.367 75.4954 503.521 78.061 503.521 81.3961C503.521 83.9616 502.623 87.2968 493.516 87.2968ZM483.767 13.7948C484.408 11.9989 486.076 9.81824 484.665 9.81824C482.997 9.81824 481.971 13.41 481.971 14.821C481.971 16.7451 482.228 17.5148 482.612 17.5148C483.254 17.5148 483.382 14.9493 483.767 13.7948ZM477.61 32.9079C477.61 32.0099 477.994 30.5989 477.738 30.5989C476.84 30.5989 476.199 32.1382 476.199 33.9341C476.199 35.0886 476.583 36.7562 477.481 36.7562C478.251 36.7562 477.61 34.4472 477.61 32.9079ZM487.487 80.883C487.487 80.2416 485.306 76.9065 485.178 74.4692C485.05 73.0582 484.152 72.2885 483.639 72.2885C482.612 72.2885 482.741 74.2127 482.741 75.1106C482.741 76.5217 484.536 82.2941 486.332 82.2941C486.845 82.2941 487.487 81.3961 487.487 80.883Z" fill="#FF0000"/>
<g clip-path="url(#clip0_18756_13101)">
<path d="M98.7285 75.1098C98.869 74.1066 104.766 73.6788 105.596 73.2313C106.814 72.5757 109.191 70.8822 110.257 69.9637C116.32 64.7419 120.174 56.632 119.919 48.6305C119.686 41.3686 114.397 34.3606 108.689 30.1289C106.597 28.5793 104.105 27.3961 101.874 26.0682M102.32 26.3299C100.105 24.8193 91.6022 22.1236 89.4573 21.2569C89.1984 21.1522 86.5151 17.649 85.8376 17.0156C82.8509 14.2193 78.0273 11.9867 73.9518 11.5981C72.2916 11.4397 69.5569 11.9537 68.3102 11.6828L67.347 12.0594C67.1205 12.1589 66.8901 12.2457 66.6583 12.3284L63.3742 13.6088C58.0018 15.6477 52.8684 19.9018 51.0646 25.5045C49.8399 29.3081 50.0885 33.0942 50.6318 37.0036C41.3954 46.1831 36.9361 58.8223 41.8671 71.4679C47.1065 84.9054 65.234 96.7616 79.0603 88.5037C79.6026 88.1797 80.1334 87.4492 80.6561 87.2305C81.3576 86.9368 82.6388 86.9894 83.4414 86.7673C89.0468 85.2238 93.8417 82.4529 97.5809 77.993L100.189 74.5368M74.1263 74.3656C67.2656 72.6241 64.1011 68.2201 58.628 64.7806C58.4154 64.6475 56.9462 63.7763 56.8028 64.0868C60.3647 68.1896 64.3563 72.2669 68.9623 75.2161C73.0221 77.8153 75.4577 78.5599 80.2465 78.757C80.529 78.7689 80.5382 78.5217 80.6348 78.9866C80.9608 80.5749 79.5293 83.0497 78.4477 84.1576C71.8139 90.9452 60.8575 86.9778 54.4485 81.9588C49.1669 77.8225 45.6275 72.5118 44.0233 65.9379C41.9009 57.249 46.1219 47.3173 52.1802 41.1269C52.4277 41.0646 54.2868 44.5109 54.6843 45.0602C59.7691 52.1006 67.6585 54.1521 75.914 52.6999C76.8477 52.5354 77.7626 51.9412 78.7185 52.014C80.486 52.1475 86.7542 56.068 87.2939 57.7638C87.5786 58.6623 86.9245 59.8398 86.9046 60.7219C86.8333 63.782 87.9668 66.3705 89.5628 68.9138C86.2062 74.6536 80.2487 75.9147 74.1319 74.3615L74.1263 74.3656ZM96.421 73.8895C95.1192 75.6687 93.5609 77.3149 91.8263 78.6804C90.9157 79.3976 88.3051 81.2989 87.3444 81.6033L83.6815 82.7641C84.3811 81.1342 84.5337 79.3989 84.8299 77.6733C87.7736 76.4962 90.2278 74.5085 92.1416 72.0145C93.3606 72.5616 94.7354 72.9095 95.9377 73.4619C96.0991 73.5352 96.5396 73.6606 96.4231 73.8889L96.421 73.8895ZM91.5363 25.4263C92.0191 25.0889 92.2317 25.789 92.3771 25.819C92.436 25.8303 92.7843 25.4687 93.4927 25.5162C97.212 25.7618 103.977 30.1379 106.8 32.592C114.956 39.6799 118.853 47.9058 114.426 58.3937C111.53 65.2528 102.523 74.3572 94.7526 68.9954C88.8512 64.9241 90.3019 58.6358 92.6984 53.0643C94.1839 49.6113 97.0136 45.6978 100.427 44.04C100.363 43.5325 100.289 43.7148 100.011 43.6578C98.9898 43.4445 97.4715 43.8864 96.6716 44.5386C96.2924 44.3015 97.5515 42.9761 97.7805 42.7537C97.9446 42.5957 99.1522 42.1761 98.5831 41.8633C98.3517 41.7361 97.3002 42.0232 96.9809 42.1567C94.58 43.1641 91.3471 48.9892 90.0646 51.3454C89.9047 51.6403 89.3033 53.2967 89.2114 53.3557C88.7894 53.6301 84.3184 49.7116 83.1537 49.8595C86.7839 47.0036 90.1627 43.9071 91.685 39.4146C93.24 34.8218 92.9771 30.0238 91.5336 25.4249L91.5363 25.4263ZM89.1088 32.8261C89.545 47.1035 68.88 55.3392 59.2225 44.7352C49.936 34.5392 52.7561 21.7788 65.4841 16.6253C66.6235 16.1652 68.4767 15.5663 69.6703 15.2987C79.7871 13.0262 88.8196 23.3511 89.1088 32.8261Z" fill="#341209"/>
<path d="M56.8014 64.0896C60.3634 68.1924 64.3549 72.2697 68.961 75.2189C73.0208 77.8181 75.4564 78.5627 80.2452 78.7598C80.5277 78.7717 80.5369 78.5245 80.6335 78.9894C80.9595 80.5777 79.528 83.0525 78.4464 84.1604C71.8126 90.948 60.8562 86.9806 54.4472 81.9616C49.1655 77.8253 45.6261 72.5146 44.022 65.9407C41.8996 57.2517 46.1205 47.3201 52.1789 41.1297C52.4264 41.0674 54.2855 44.5137 54.683 45.063C59.7678 52.1033 67.6572 54.1549 75.9126 52.7027C76.8463 52.5382 77.7613 51.944 78.7172 52.0167C80.4847 52.1503 86.7529 56.0708 87.2926 57.7666C87.5773 58.6651 86.9232 59.8426 86.9033 60.7247C86.8319 63.7848 87.9654 66.3733 89.5614 68.9166C86.2049 74.6564 80.2474 75.9175 74.1305 74.3643C67.2699 72.6228 64.1054 68.2189 58.6323 64.7793C58.4196 64.6462 56.9505 63.775 56.807 64.0855L56.8014 64.0896Z" fill="#F78213"/>
<path d="M65.4841 16.6255C66.8657 16.0662 68.5562 15.6038 69.6703 15.2989C79.7871 13.0263 88.8196 23.3513 89.1088 32.8262C89.545 47.1037 68.88 55.3393 59.2225 44.7354C49.936 34.5394 52.7561 21.779 65.4841 16.6255Z" fill="url(#paint8_linear_18756_13101)"/>
<path d="M92.377 25.819C92.4358 25.8303 92.7842 25.4687 93.4925 25.5162C97.2119 25.7618 103.977 30.1379 106.8 32.592C114.956 39.6799 118.853 47.9058 114.426 58.3936C111.53 65.2528 102.523 74.3572 94.7525 68.9953C88.8511 64.924 90.3018 58.6358 92.6983 53.0643C94.1837 49.6113 97.0135 45.6978 100.427 44.04C100.363 43.5325 100.289 43.7148 100.011 43.6578C98.9897 43.4444 97.4713 43.8864 96.6715 44.5386C96.2923 44.3015 97.5514 42.976 97.7804 42.7537C97.9445 42.5957 99.152 42.1761 98.583 41.8632C98.3516 41.7361 97.3001 42.0232 96.9808 42.1566C94.5798 43.1641 91.347 48.9892 90.0645 51.3453C89.9046 51.6403 89.3032 53.2967 89.2113 53.3557C88.7892 53.6301 84.3183 49.7116 83.1536 49.8594C86.7838 47.0036 90.1626 43.9071 91.6849 39.4145C93.2399 34.8218 92.977 30.0238 91.5334 25.4248C92.0162 25.0875 92.2288 25.7876 92.3742 25.8175L92.377 25.819Z" fill="#F78213"/>
<path d="M77.9997 33.4997C75.5 33.0002 72 35 70.5 38.4997C70.1036 38.9997 71.8231 40.7156 72.9999 41.5C74.5 42.5 80.4999 42.9999 80.9999 39.9999C81.4999 36.9999 80.7733 34.054 77.9997 33.4997Z" fill="white" stroke="black"/>
</g>
<defs>
<linearGradient id="paint0_linear_18756_13101" x1="250.131" y1="29.4388" x2="282.543" y2="331.091" gradientUnits="userSpaceOnUse">
<stop offset="0.305832" stop-color="#FF8000"/>
<stop offset="0.861281" stop-color="#FB1900"/>
</linearGradient>
<linearGradient id="paint1_linear_18756_13101" x1="250.131" y1="29.4388" x2="282.543" y2="331.091" gradientUnits="userSpaceOnUse">
<stop offset="0.305832" stop-color="#FF8000"/>
<stop offset="0.861281" stop-color="#FB1900"/>
</linearGradient>
<linearGradient id="paint2_linear_18756_13101" x1="250.131" y1="29.4388" x2="282.543" y2="331.091" gradientUnits="userSpaceOnUse">
<stop offset="0.305832" stop-color="#FF8000"/>
<stop offset="0.861281" stop-color="#FB1900"/>
</linearGradient>
<linearGradient id="paint3_linear_18756_13101" x1="250.131" y1="29.4388" x2="282.543" y2="331.091" gradientUnits="userSpaceOnUse">
<stop offset="0.305832" stop-color="#FF8000"/>
<stop offset="0.861281" stop-color="#FB1900"/>
</linearGradient>
<linearGradient id="paint4_linear_18756_13101" x1="250.131" y1="29.4388" x2="282.543" y2="331.091" gradientUnits="userSpaceOnUse">
<stop offset="0.305832" stop-color="#FF8000"/>
<stop offset="0.861281" stop-color="#FB1900"/>
</linearGradient>
<linearGradient id="paint5_linear_18756_13101" x1="250.131" y1="29.4388" x2="282.543" y2="331.091" gradientUnits="userSpaceOnUse">
<stop offset="0.305832" stop-color="#FF8000"/>
<stop offset="0.861281" stop-color="#FB1900"/>
</linearGradient>
<linearGradient id="paint6_linear_18756_13101" x1="250.131" y1="29.4388" x2="282.543" y2="331.091" gradientUnits="userSpaceOnUse">
<stop offset="0.305832" stop-color="#FF8000"/>
<stop offset="0.861281" stop-color="#FB1900"/>
</linearGradient>
<linearGradient id="paint7_linear_18756_13101" x1="250.131" y1="29.4388" x2="282.543" y2="331.091" gradientUnits="userSpaceOnUse">
<stop offset="0.305832" stop-color="#FF8000"/>
<stop offset="0.861281" stop-color="#FB1900"/>
</linearGradient>
<linearGradient id="paint8_linear_18756_13101" x1="66.2944" y1="16.369" x2="76.5156" y2="48.6231" gradientUnits="userSpaceOnUse">
<stop stop-color="#FFC58E"/>
<stop offset="1" stop-color="#FF7C00"/>
</linearGradient>
<clipPath id="clip0_18756_13101">
<rect width="82" height="77" fill="white" transform="translate(27 24.7715) rotate(-17.5831)"/>
</clipPath>
</defs>
</svg>
