<svg width="89" height="68" viewBox="0 0 89 68" fill="none" xmlns="http://www.w3.org/2000/svg">
<path d="M35.5586 16.3962C36.7031 18.0624 42.8333 22.5788 50.1904 23.94C51.6934 21.536 50.2839 16.1115 47.6185 13.0303C47.5963 13.037 47.5718 13.0437 47.5517 13.0482C47.5161 13.0594 47.4827 13.0684 47.4471 13.0796C47.4404 13.0796 47.4337 13.0841 47.427 13.0863C47.4092 13.0908 47.3914 13.0953 47.3736 13.102C47.3135 13.1177 47.2534 13.1357 47.1932 13.1491C47.1598 13.1581 47.1242 13.1671 47.0908 13.1738C47.0574 13.1828 47.0218 13.1895 46.9862 13.1985C46.9171 13.2119 46.8481 13.2276 46.7791 13.2411C46.759 13.2455 46.739 13.25 46.7189 13.2545C46.7056 13.2568 46.6922 13.259 46.6811 13.2612C46.661 13.2657 46.6388 13.268 46.6165 13.2725C46.5965 13.2769 46.5742 13.2792 46.5542 13.2837C46.5475 13.2837 46.5386 13.2859 46.5319 13.2859C46.5096 13.2904 46.4874 13.2949 46.4629 13.2971C46.4406 13.2994 46.4206 13.3038 46.3983 13.3061C46.3827 13.3061 46.3693 13.3106 46.3538 13.3128C46.3092 13.3195 46.2647 13.3263 46.2202 13.3308C46.189 13.3352 46.16 13.3397 46.1289 13.342C46.111 13.342 46.0932 13.3465 46.0754 13.3465C46.0576 13.3487 46.0398 13.3509 46.022 13.3509C46.0064 13.3509 45.9908 13.3532 45.9752 13.3554C45.9285 13.3599 45.8839 13.3644 45.8372 13.3666C45.8149 13.3666 45.7926 13.3689 45.7704 13.3711C45.7258 13.3756 45.6813 13.3779 45.6368 13.3801C45.6056 13.3801 45.5744 13.3823 45.5455 13.3823C45.541 13.3823 45.5366 13.3823 45.5343 13.3823C45.5299 13.3823 45.5254 13.3823 45.521 13.3823C45.492 13.3823 45.4631 13.3846 45.4341 13.3846C45.3785 13.3846 45.3206 13.3868 45.2671 13.3891C45.2627 13.3891 45.2582 13.3891 45.2538 13.3891C45.1981 13.3891 45.1402 13.3891 45.0823 13.3891C45.0578 13.3891 45.0311 13.3891 45.0044 13.3891C44.9999 13.3891 44.9955 13.3891 44.9932 13.3891C44.9888 13.3891 44.9843 13.3891 44.9799 13.3891H44.9776C44.8886 13.3891 44.7995 13.3823 44.7082 13.3779C44.6793 13.3779 44.6503 13.3756 44.6191 13.3734C44.5813 13.3734 44.5412 13.3689 44.5034 13.3644C44.49 13.3644 44.4744 13.3644 44.461 13.3622C44.4455 13.3622 44.4321 13.3599 44.4165 13.3577C44.3675 13.3532 44.3208 13.3487 44.2718 13.3442C44.2005 13.3375 44.1248 13.3285 44.0513 13.3195C44.0357 13.3195 44.0201 13.3151 44.0046 13.3128C43.9578 13.3083 43.9133 13.3016 43.8687 13.2949H43.8643C43.6884 13.268 43.5102 13.2366 43.3299 13.2029C43.2853 13.194 43.2386 13.185 43.194 13.1738C43.1785 13.1715 43.1629 13.1671 43.1473 13.1626C43.1094 13.1536 43.0716 13.1469 43.0337 13.1379C43.0025 13.1312 42.9714 13.1222 42.938 13.1155C42.8979 13.1065 42.8556 13.0953 42.8155 13.0841C42.8044 13.0841 42.7954 13.0796 42.7865 13.0774C42.7442 13.0684 42.7042 13.0572 42.6618 13.046C42.6463 13.0415 42.6329 13.037 42.6173 13.0348C42.6106 13.0348 42.604 13.0325 42.5973 13.0303C42.5505 13.0191 42.5037 13.0056 42.4592 12.9921C42.4481 12.9899 42.4392 12.9854 42.428 12.9832C42.4191 12.9809 42.408 12.9787 42.3991 12.9742C42.3991 12.9742 42.3969 12.9742 42.3946 12.9742C42.3056 12.9495 42.2143 12.9204 42.123 12.8912C42.0517 12.8688 41.976 12.8441 41.9025 12.8172C41.8936 12.8127 41.8847 12.8105 41.8758 12.8083C41.8669 12.806 41.8558 12.8015 41.8469 12.797C41.8179 12.7881 41.7912 12.7769 41.7623 12.7679C41.7444 12.7612 41.7289 12.7544 41.7133 12.75C41.691 12.7432 41.671 12.7343 41.6487 12.7275C41.6442 12.7275 41.642 12.7253 41.6376 12.723C41.5975 12.7096 41.5574 12.6939 41.5151 12.6782C41.5106 12.6782 41.5062 12.6737 41.4995 12.6715C41.4127 12.6378 41.3258 12.6064 41.239 12.5683C41.1922 12.5481 41.1432 12.5279 41.0942 12.5078C41.0675 12.4966 41.0408 12.4853 41.0141 12.4741C40.9651 12.4539 40.9183 12.4338 40.8693 12.4136C40.8671 12.4136 40.8649 12.4136 40.8627 12.4113C40.8293 12.3979 40.7959 12.3822 40.7647 12.3665C40.7647 12.3665 40.7602 12.3665 40.7602 12.3642C40.7558 12.3642 40.7491 12.3598 40.7424 12.3575C40.7112 12.3441 40.6801 12.3306 40.6489 12.3149C40.6222 12.3037 40.5954 12.2902 40.571 12.279C40.5465 12.2678 40.5197 12.2544 40.4952 12.2432C40.4084 12.2028 40.3216 12.1602 40.2347 12.1176C40.1256 12.0638 40.0165 12.0077 39.9074 11.9494C39.8384 11.9113 39.7693 11.8754 39.7003 11.835C39.6959 11.8328 39.6914 11.8283 39.6847 11.8261C39.5467 11.7521 39.4108 11.6736 39.275 11.5906C39.275 11.5906 39.2728 11.5906 39.2705 11.5883C39.2238 11.5614 39.1793 11.5345 39.1325 11.5054L39.0969 11.5525L35.5675 16.403L35.5586 16.3962Z" fill="#873D2D"/>
<path d="M48.2441 20.316C49.2506 18.7619 51.4529 17.8672 53.2186 18.6139C55.2761 19.484 56.3272 22.8522 56.6033 23.9914C57.6699 28.3957 56.3027 30.7323 53.3545 31.0037C50.1257 31.3849 49.6759 28.7029 49.4867 27.3977L48.2464 20.3137L48.2441 20.316Z" fill="white"/>
<path d="M52.7556 30.1718C51.5888 30.1718 50.9965 29.6268 50.6581 28.6827C50.5133 28.2813 51.0633 28.7052 51.0633 28.7052C51.1813 28.8577 56.2115 30.3265 55.7639 24.1978C56.2894 26.3662 56.1982 28.0347 55.4967 29.0214C55.038 29.6694 54.2898 30.0439 53.2745 30.1381H53.2522C53.0785 30.1605 52.9115 30.1718 52.7556 30.1718Z" fill="#FDE3D1"/>
<path d="M52.7314 31.4748C49.6407 31.4748 49.2243 28.5909 49.0595 27.4629L49.9079 27.3374C50.1773 29.1964 50.7741 30.8738 53.3014 30.5755C54.4593 30.4679 55.3121 30.0328 55.8488 29.2771C56.6237 28.1828 56.7417 26.391 56.185 24.0947C56.0804 23.6664 55.1117 19.8833 53.0498 19.0132C51.5579 18.3808 49.5605 19.0738 48.6008 20.5538L47.8838 20.0807C49.0595 18.2687 51.5267 17.43 53.3816 18.2149C55.7775 19.2285 56.8308 23.1192 57.0178 23.8884C57.6435 26.4718 57.4854 28.4541 56.548 29.7772C55.8599 30.7459 54.7978 31.3043 53.3927 31.4344C53.1611 31.4613 52.9407 31.4748 52.7336 31.4748" fill="#630E0D"/>
<path d="M50.9763 27.8979C51.1054 29.2076 51.8514 30.793 53.3789 30.571V31.4344C51.5151 31.3065 50.8204 29.5552 50.9763 27.8979Z" fill="#630E0D"/>
<path d="M52.7402 27.4717C53.0342 28.631 53.838 30.3309 55.2676 29.9362L55.3923 30.7906C53.5485 30.9341 52.7981 29.0145 52.7402 27.4717Z" fill="#630E0D"/>
<path d="M37.0553 18.6411C37.2891 23.7046 39.9522 27.7792 40.8875 31.7597C41.4263 33.9394 41.7826 40.9516 35.815 40.7162C31.2413 40.5525 31.9338 35.0068 31.8937 33.9977C31.2413 33.1522 24.806 25.0299 23.8174 13.5103L37.0575 18.6433L37.0553 18.6411Z" fill="#C87342"/>
<path d="M35.8147 40.7137C34.2026 40.6554 33.2451 39.9311 32.6795 38.9691C31.6396 37.2042 31.9202 34.65 31.8934 33.9952C31.3501 33.2888 26.7697 27.5054 24.7011 18.9055C24.2914 17.2102 23.9819 15.405 23.8193 13.5078L37.0594 18.6409C37.2933 23.7044 39.9542 27.779 40.8916 31.7594C41.4305 33.9392 41.7868 40.9514 35.8192 40.7137" fill="#F47F38"/>
<mask id="mask0_17875_19546" style="mask-type:luminance" maskUnits="userSpaceOnUse" x="23" y="13" width="19" height="28">
<path d="M24.699 18.9032C26.516 26.456 30.2702 31.8335 31.5261 33.5131C31.702 33.7463 31.8267 33.9078 31.8935 33.993C31.9202 34.6478 31.6397 37.2042 32.6795 38.9668C33.2451 39.9288 34.2026 40.6554 35.8148 40.7137C41.7824 40.9492 41.4261 33.9392 40.8872 31.7594C40.6735 30.849 40.3684 29.9341 40.0233 29.0034C38.8609 25.8639 37.2354 22.5473 37.055 18.6409L23.8149 13.5078C23.9775 15.405 24.2892 17.2102 24.6967 18.9055" fill="white"/>
</mask>
<g mask="url(#mask0_17875_19546)">
<path d="M41.7802 13.5078H23.8149V40.9514H41.7802V13.5078Z" fill="url(#paint0_radial_17875_19546)"/>
</g>
<path d="M36.5828 33.4837C36.476 33.9994 33.1025 34.2932 33.0557 33.6608C33.0223 33.2101 33.4098 32.3759 34.0399 32.2593C34.9351 32.0956 36.7053 32.9029 36.5828 33.4837Z" fill="#E76024"/>
<path d="M35.815 40.7139C34.2028 40.6556 33.2453 39.9313 32.6798 38.9693C33.4413 39.3101 34.4968 39.6016 35.815 39.5389C39.1618 39.3752 40.3397 36.2177 39.9522 33.1253C39.4668 29.2481 37.4873 26.0884 36.8593 25.5906C35.7727 24.7294 29.5267 25.521 24.6992 18.9079C24.2895 17.2126 23.9799 15.4074 23.8174 13.5103L37.0575 18.6433C37.2913 23.7069 39.9522 27.7815 40.8897 31.7619C41.4286 33.9416 41.7848 40.9539 35.8172 40.7162" fill="#E76024"/>
<path d="M35.8125 40.7142C34.2003 40.6559 33.2428 39.9316 32.6772 38.9673C33.4388 39.3082 34.4943 39.5997 35.8125 39.5369C39.1592 39.3732 40.3372 36.2158 39.9497 33.1234C39.8696 32.4865 39.7516 31.8676 39.6024 31.2778C39.8518 30.6364 40.001 29.883 40.0232 29.0039C40.0388 29.0443 40.0522 29.0846 40.0677 29.125C40.139 29.3156 40.2058 29.5062 40.2726 29.6946C40.2726 29.6946 40.2726 29.6968 40.2726 29.6991C40.3127 29.8134 40.3505 29.9301 40.3906 30.0444C40.3951 30.0534 40.3973 30.0624 40.3995 30.0736C40.4352 30.179 40.4686 30.2844 40.502 30.3898C40.5376 30.5041 40.5732 30.6185 40.6088 30.7329C40.6445 30.8472 40.6756 30.9616 40.709 31.076C40.738 31.1769 40.7647 31.2778 40.7914 31.3787C40.8003 31.4079 40.807 31.4393 40.8159 31.4684C40.8404 31.5648 40.8649 31.6613 40.8872 31.7577C41.426 33.9374 41.7823 40.9497 35.8147 40.712" fill="#FDE3D1"/>
<path d="M35.8126 40.7142C34.2004 40.6559 33.243 39.9316 32.6774 38.9673C31.6375 37.2025 31.9181 34.6483 31.8913 33.9935C31.8245 33.9082 31.6976 33.7445 31.5239 33.5136C33.8954 35.1887 39.8741 34.9331 40.0233 29.0039C40.3685 29.9345 40.6713 30.8495 40.8873 31.7599C41.4262 33.9396 41.7825 40.9519 35.8148 40.7142" fill="white"/>
<path d="M35.8125 40.7142C34.2003 40.6559 33.2428 39.9316 32.6772 38.9673C33.4388 39.3082 34.4943 39.5997 35.8125 39.5369C39.1592 39.3732 40.3372 36.2158 39.9497 33.1234C39.8696 32.4865 39.7516 31.8676 39.6024 31.2778C39.8518 30.6364 40.001 29.883 40.0232 29.0039C40.0388 29.0443 40.0522 29.0846 40.0677 29.125C40.139 29.3156 40.2058 29.5062 40.2726 29.6946C40.2726 29.6946 40.2726 29.6968 40.2726 29.6991C40.3127 29.8134 40.3505 29.9301 40.3906 30.0444C40.3951 30.0534 40.3973 30.0624 40.3995 30.0736C40.4352 30.179 40.4686 30.2844 40.502 30.3898C40.5376 30.5041 40.5732 30.6185 40.6088 30.7329C40.6445 30.8472 40.6756 30.9616 40.709 31.076C40.738 31.1769 40.7647 31.2778 40.7914 31.3787C40.8003 31.4079 40.807 31.4393 40.8159 31.4684C40.8404 31.5648 40.8649 31.6613 40.8872 31.7577C41.426 33.9374 41.7823 40.9497 35.8147 40.712" fill="#FDE3D1"/>
<path d="M36.106 41.1508C36.0036 41.1508 35.9011 41.1508 35.7965 41.1441C31.2918 40.9827 31.4165 36.0694 31.4588 34.4525C31.461 34.3359 31.4633 34.2305 31.4655 34.1431C29.7398 31.8961 24.291 24.0496 23.3892 13.5413L24.2442 13.4673C25.1349 23.8298 30.5481 31.5507 32.187 33.6699L32.3161 33.8358L32.3228 33.9726C32.3272 34.096 32.3228 34.2619 32.3183 34.4727C32.2515 37.1144 32.59 40.1619 35.8321 40.2785C37.422 40.3391 38.6445 39.8569 39.4683 38.8388C41.1762 36.7242 40.7554 32.9971 40.4748 31.8602C40.1297 30.3959 39.5485 28.9181 38.9317 27.355C37.874 24.6708 36.7807 21.8968 36.6293 18.6587L37.4866 18.6183C37.6291 21.7129 38.6957 24.4196 39.7289 27.0366C40.3568 28.631 40.9491 30.1357 41.3076 31.6561C41.6372 32.9882 42.0714 36.9865 40.1341 39.3838C39.1878 40.5543 37.8339 41.1486 36.1104 41.1486" fill="#630E0D"/>
<path d="M48.3692 18.8496C48.3692 18.8496 46.5255 23.8033 38.2421 23.8033C29.9586 23.8033 27.8098 21.6572 27.8098 21.6572C25.6277 19.7399 24.3473 17.5535 23.7104 15.2684C24.5254 16.2304 28.509 20.2198 37.8568 19.3228C40.7694 19.0447 44.8643 15.4298 47.336 13.9049C48.6988 10.9112 47.6433 6.56975 48.8301 6.22217C48.8301 6.22217 49.3957 14.0238 49.9235 13.2838C50.0593 14.9522 49.8433 16.6655 48.3714 18.8496" fill="#E76024"/>
<path d="M48.5404 0.118164C48.9056 1.65651 49.1572 3.27784 49.3933 4.8431C49.6248 6.41957 49.6916 8.01398 49.8987 9.59269C50.3463 13.4677 51.0878 15.5532 48.723 19.0896C48.3957 19.5494 47.7076 19.0896 48.0127 18.6053C50.2394 15.311 49.44 13.3063 49.0459 9.69585C48.8767 8.10592 48.6095 6.52721 48.5337 4.92831C48.4669 3.34511 48.4313 1.69912 48.5382 0.118164" fill="#630E0D"/>
<mask id="mask1_17875_19546" style="mask-type:luminance" maskUnits="userSpaceOnUse" x="31" y="12" width="22" height="18">
<path d="M37.8563 19.3228L31.2407 23.1036C33.7502 24.0903 38.4308 24.254 41.0405 23.6777C41.9914 25.9247 43.3051 28.7009 46.3001 29.4118C48.7762 30.0015 52.2721 29.1853 52.7398 24.9739C52.7398 24.9739 52.8244 23.6217 52.31 22.6103C51.9136 21.8277 51.3347 21.3343 51.3347 21.3343C51.0207 18.4729 50.1033 15.2841 49.8294 12.481L37.8519 19.325L37.8563 19.3228Z" fill="white"/>
</mask>
<g mask="url(#mask1_17875_19546)">
<path d="M52.8244 12.4766H31.2407V29.9994H52.8244V12.4766Z" fill="url(#paint1_radial_17875_19546)"/>
</g>
<path d="M51.6623 24.8887C51.2971 28.0237 49.0615 28.4924 47.7566 28.4924C47.3491 28.4924 46.9416 28.4453 46.5475 28.3511C45.2137 28.0349 44.2695 27.2052 43.5303 26.1467C43.5303 26.1467 45.0912 27.2074 47.8256 27.0302C50.5378 26.8531 51.66 24.8887 51.66 24.8887" fill="#E76024"/>
<path d="M50.8649 18.3693C49.0902 17.1651 44.8371 21.899 41.0405 23.6773C38.4308 24.2514 33.7502 24.0899 31.2407 23.1032L37.8563 19.3224C43.6169 18.3649 46.3068 16.1515 47.3355 13.9045L49.8339 12.4761C50.0165 14.3396 50.4819 16.3735 50.8649 18.3671" fill="#E76024"/>
<path d="M44.5611 16.9727C42.1874 21.5765 36.1263 22.6305 31.6862 21.4576C28.6935 20.7243 26.9188 19.0716 25.8989 17.0982C28.0588 18.4572 31.851 19.8991 37.8564 19.3228C38.0969 19.3004 38.3441 19.2555 38.6002 19.1882C41.2232 18.6792 43.1583 17.8943 44.5633 16.9727" fill="#DFB398"/>
<path d="M38.5982 19.188C38.3444 19.2526 38.095 19.2971 37.8545 19.3216C38.1083 19.2793 38.3555 19.2348 38.5982 19.188Z" fill="#B25E36"/>
<path d="M50.2596 12.4336C50.4154 15.3937 51.148 18.3583 51.3373 21.3296C51.0991 19.8495 50.7272 18.4009 50.3642 16.9477C50.0013 15.4924 49.6294 14.0347 49.4067 12.5188L50.2596 12.4336Z" fill="#630E0D"/>
<path d="M52.74 24.9713C52.7222 26.8662 51.7781 28.6804 50.0012 29.4675C48.2621 30.2434 46.1734 30.1133 44.5123 29.1805C43.1785 28.4337 42.2121 27.1779 41.4973 25.8616C41.1477 25.209 40.8515 24.5407 40.5799 23.8747L41.1432 24.1685C38.175 24.7179 33.9264 24.5318 31.2388 23.1056C32.8509 23.4688 34.4831 23.5541 36.122 23.5832C37.7208 23.5989 39.3775 23.5361 40.9317 23.1885L41.3281 23.1011C41.9382 24.4869 42.5394 25.9176 43.5013 27.0793C43.9289 27.5928 44.4121 28.048 44.971 28.3911C46.6522 29.4092 48.9657 29.5146 50.6491 28.4382C51.8226 27.6915 52.4773 26.3258 52.7356 24.9735" fill="#630E0D"/>
<path d="M44.5611 16.9727C42.1874 21.5765 36.1263 22.6305 31.6862 21.4576C28.6935 20.7243 26.9188 19.0716 25.8989 17.0982C28.0588 18.4572 31.851 19.8991 37.8564 19.3228C38.0969 19.3004 38.3441 19.2555 38.6002 19.1882C41.2232 18.6792 43.1583 17.8943 44.5633 16.9727" fill="#FDE3D1"/>
<path d="M33.4744 37.0181C33.637 38.2178 34.1892 40.1665 35.6032 40.2697L35.4651 41.1218C33.7216 40.6621 33.3898 38.5564 33.4744 37.0181Z" fill="#630E0D"/>
<path d="M36.1018 36.9019C36.1864 37.8751 36.9302 40.3441 38.2328 39.8462L38.4666 40.676C36.4648 41.0191 35.9838 38.3886 36.0996 36.9019" fill="#630E0D"/>
<mask id="mask2_17875_19546" style="mask-type:luminance" maskUnits="userSpaceOnUse" x="0" y="3" width="89" height="55">
<path d="M33.2897 3.58013C30.8826 3.73038 28.4577 3.92772 26.0751 4.17439C22.2407 4.56907 18.5131 5.09157 15.1307 5.75759C13.0443 6.16797 11.0892 6.63216 9.3212 7.15466C6.04124 8.12342 3.40479 9.28952 1.7637 10.6754C0.91754 11.3885 0.336364 12.1599 0.0669304 12.9941C0.000128664 13.2879 -0.0110035 13.7723 0.0179439 14.3957C0.10924 16.378 0.610252 19.7597 1.13576 22.8723C1.47645 24.8883 1.82382 26.7877 2.07544 28.1264C2.29588 29.3038 2.44285 30.0438 2.44285 30.0438C2.59427 31.0664 2.84588 31.914 3.21107 32.6271C3.66309 33.5107 4.2888 34.1924 5.02139 34.6005C5.61148 34.9279 6.26391 35.0961 6.96533 35.0961H6.98537C7.15014 35.0961 7.31938 35.0849 7.49306 35.0692C7.25035 35.8989 7.18577 36.8206 7.31492 37.7624L7.49306 39.0608L8.19893 44.1804L9.37019 52.6907L9.3791 52.7535C9.51493 53.7424 9.7376 54.5609 10.0582 55.2539C10.4702 56.1441 11.0514 56.8505 11.7417 57.299C12.3295 57.6802 12.8528 57.8036 13.8659 57.9112C14.1064 57.9359 15.487 57.7296 17.6158 57.4022C20.3145 56.9851 24.2158 56.3751 28.5089 55.7876C30.7 55.4893 32.9935 55.1978 35.2826 54.9422C39.6091 54.4578 43.9223 54.1057 47.494 54.0833C47.7634 54.0833 48.0284 54.0833 48.2911 54.0833C50.7984 53.9465 53.3235 53.9756 55.8041 54.1169C62.6357 54.5026 69.1177 55.727 73.9052 56.6218C78.2896 57.4403 81.2489 57.9785 81.7455 57.3394C81.8189 57.2766 81.8902 57.2003 81.957 57.1106C82.8254 55.967 83.3353 52.6167 83.9165 49.7889C84.2772 48.042 84.6647 46.4969 85.1813 45.7928C85.2347 45.721 85.2882 45.656 85.3438 45.6022C86.2256 44.3352 86.8001 43.4875 87.2076 42.8529C87.7688 41.9806 88.125 41.3415 88.3588 40.7763C88.4791 40.4915 88.5793 40.2135 88.6617 39.9399C88.7752 39.5766 88.8532 39.2245 88.9066 38.8747C89.107 37.5315 88.9734 36.2532 88.5325 35.1499C88.3388 34.6611 88.0827 34.2081 87.771 33.7955C86.9849 32.7684 85.9829 32.1069 84.7916 31.8288C84.2438 31.701 83.6627 31.6516 83.0615 31.6763C82.8833 31.6853 82.7096 31.6987 82.5382 31.7234C82.1106 31.775 81.6987 31.8714 81.309 32.006L80.2803 32.367L79.7102 33.5264C79.5789 33.7932 79.4519 34.0489 79.3317 34.2933C78.8997 33.0375 78.3586 32.0755 77.6817 31.3668C76.8778 30.5304 75.8625 30.0034 74.6556 29.7993C73.7003 29.6379 72.8096 29.75 71.9991 30.1245L71.6606 29.315L70.2266 29.1131C70.0017 29.0818 69.779 29.0504 69.5541 29.019C67.2651 28.7028 64.9559 28.4359 62.6491 28.2161C63.2458 27.5299 63.7268 26.754 64.092 25.8974C64.5529 24.8188 64.8268 23.6101 64.9003 22.2982C64.9136 22.0829 64.9203 21.8677 64.9203 21.6569C64.9426 19.1542 64.2434 16.9701 62.874 15.3016C63.0989 15.0505 63.3104 14.7814 63.5019 14.4943C63.7379 14.1445 63.9383 13.761 64.1009 13.3507C64.3837 12.6398 64.5529 11.8482 64.5974 11.0073C64.6375 10.2403 64.564 9.49358 64.3815 8.79393C64.2211 8.175 63.9762 7.59195 63.6489 7.05824C63.1122 6.18143 62.3885 5.46383 61.4956 4.9189C60.7786 4.48161 59.9325 4.13852 58.9883 3.9053C57.9017 3.74159 56.5924 3.6048 55.1049 3.49492C52.6087 3.30879 49.6116 3.2034 46.3205 3.18994C46.0844 3.18994 45.8462 3.18994 45.6057 3.18994C41.7624 3.18994 37.5472 3.31328 33.2808 3.58013" fill="white"/>
</mask>
<g mask="url(#mask2_17875_19546)">
<path d="M87.2007 -9.826L-7.89502 4.36719L1.90928 70.9905L97.005 56.7973L87.2007 -9.826Z" fill="url(#paint2_linear_17875_19546)"/>
</g>
<g opacity="0.2">
<mask id="mask3_17875_19546" style="mask-type:luminance" maskUnits="userSpaceOnUse" x="0" y="3" width="89" height="55">
<path d="M89 3.19238H0V57.9137H89V3.19238Z" fill="white"/>
</mask>
<g mask="url(#mask3_17875_19546)">
<path d="M17.6132 57.4048C15.4845 57.7322 14.1039 57.9386 13.8634 57.9139C12.8503 57.8062 12.327 57.6807 11.7391 57.3017C11.0489 56.8532 10.4677 56.1468 10.0557 55.2565C9.73508 54.5614 9.51241 53.7451 9.37658 52.7562L9.36768 52.6934L17.6132 57.4071V57.4048Z" fill="#FDC141"/>
<path d="M35.2825 54.9443C32.9934 55.2 30.6999 55.4915 28.5088 55.7897L8.19659 44.1826L7.49072 39.063L35.2825 54.9466V54.9443Z" fill="#FDC141"/>
<path d="M55.8037 54.1194C53.3231 53.9782 50.798 53.949 48.2907 54.0858C48.0302 54.0858 47.7652 54.0858 47.4935 54.0858L2.07054 28.1267C1.81892 26.7857 1.47155 24.8863 1.13086 22.8726L55.8037 54.1217V54.1194Z" fill="#FDC141"/>
<path d="M82.1327 56.6063L81.959 57.1109C81.8922 57.2006 81.8209 57.2768 81.7475 57.3396C81.2509 57.9787 78.2916 57.4405 73.9072 56.622L0.0154925 14.3936C-0.013455 13.7702 -9.43478e-05 13.2858 0.0644807 12.9921C0.333915 12.1601 0.915089 11.3865 1.76124 10.6733L82.1327 56.6063Z" fill="#FDC141"/>
<path d="M85.1834 45.7953C84.6668 46.4994 84.2793 48.0445 83.9186 49.7914L9.31885 7.15489C11.0869 6.63463 13.0419 6.17043 15.1284 5.75781L85.1834 45.7953Z" fill="#FDC141"/>
<path d="M33.2893 3.58057L64.9288 21.664C64.9288 21.8748 64.9199 22.0901 64.9088 22.3054C64.8353 23.6195 64.5614 24.8259 64.1005 25.9046L26.0747 4.17483C28.4573 3.92815 30.8822 3.73081 33.2893 3.58057Z" fill="#FDC141"/>
<path d="M88.9108 38.8794C88.8596 39.2292 88.7794 39.5813 88.6659 39.9446L69.5605 29.0259C69.7832 29.055 70.0081 29.0887 70.2308 29.1201L71.6648 29.3219L72.0033 30.1314C72.8138 29.7569 73.7045 29.6448 74.6597 29.8063C75.8644 30.0103 76.882 30.5373 77.6859 31.3738C78.3628 32.0824 78.9039 33.0444 79.3359 34.3002C79.4561 34.0558 79.5808 33.8001 79.7122 33.5333L80.2845 32.3739L81.3132 32.0129C81.7029 31.8761 82.1148 31.7797 82.5424 31.7303L88.5367 35.1569C88.9776 36.2602 89.109 37.5361 88.9108 38.8816" fill="#FDC141"/>
<path d="M64.6083 11.0119C64.5638 11.8529 64.3945 12.6445 64.1117 13.3553L46.3291 3.19238C49.6202 3.20584 52.6174 3.31123 55.1135 3.49736L64.3901 8.79861C64.5749 9.49827 64.6484 10.245 64.6061 11.0119" fill="#FDC141"/>
</g>
</g>
<path d="M14.378 33.7083C13.8814 33.4056 13.5207 32.9772 13.3203 32.3875C12.6679 30.2033 12.0377 27.5796 11.4142 24.5141C10.5547 20.2825 10.0181 17.0062 9.79984 14.6695C9.73527 14.0349 9.90005 13.4182 10.2675 12.8554C10.6527 12.371 11.0067 12.0548 11.3519 11.9359C11.8796 11.6803 12.3739 11.4986 12.8527 11.4C13.5942 11.2475 14.2622 11.1264 14.8523 11.021C15.5515 10.8932 16.5424 10.7048 17.8406 10.438C18.4729 10.3079 19.043 10.4178 19.5818 10.7766C20.1051 11.1376 20.4302 11.622 20.5572 12.2454C20.6863 12.8823 20.5772 13.4563 20.2209 13.999C19.8646 14.5417 19.3837 14.8691 18.7669 14.9947L14.6185 15.802C14.8211 17.1206 15.1084 18.7643 15.4557 20.7175L19.1187 19.899C19.7221 19.7757 20.2899 19.8833 20.8244 20.213C21.3454 20.5606 21.6883 21.0562 21.8331 21.6908C21.9622 22.3276 21.8531 22.9017 21.4968 23.4444C21.1406 23.9871 20.6618 24.3302 20.0294 24.4603L16.3509 25.2832C16.8742 27.7836 17.3217 29.6696 17.7292 30.9635L17.8027 31.2393C17.9207 31.8156 17.8361 32.3516 17.5489 32.8472C17.2104 33.4033 16.7094 33.7823 16.008 33.9751C15.4201 34.0962 14.8723 34.0155 14.378 33.7105M11.4432 17.282C11.481 17.226 11.461 16.9703 11.3741 16.551L11.3496 16.4276C11.1604 15.4948 11.1069 14.6785 11.2094 13.9923C11.3118 13.3061 11.844 12.7589 12.8104 12.3665C12.8571 12.3575 12.8994 12.3329 12.9373 12.2768C12.9596 12.223 12.964 12.1736 12.9484 12.0974C12.9195 11.9584 12.8282 11.8956 12.6879 11.9247L12.6456 11.9494C11.4966 12.3956 10.8754 13.0594 10.7618 13.925C10.6549 14.7413 10.7195 15.7011 10.9444 16.8044C10.96 16.8829 10.9845 17.0062 11.0179 17.1632C11.049 17.3179 11.1426 17.3807 11.2873 17.383C11.3496 17.3695 11.4075 17.3426 11.4454 17.2865M11.7482 19.3406C11.7727 19.3025 11.7326 18.8742 11.6347 18.0669C11.6057 17.9279 11.5144 17.8651 11.3741 17.8942C11.2361 17.9234 11.1715 18.0019 11.1693 18.1476L11.3318 19.2644C11.3608 19.4034 11.4543 19.4662 11.6079 19.4348C11.6703 19.4214 11.7126 19.3967 11.7505 19.3406M21.3387 21.2378C21.2408 20.9171 21.0448 20.666 20.7509 20.4843C20.457 20.3027 20.1474 20.204 19.8379 20.1861C19.6687 20.2219 19.5908 20.3184 19.6219 20.4731C19.6464 20.5987 19.7244 20.6637 19.8513 20.6525C20.0606 20.657 20.2699 20.7287 20.4926 20.8768C20.7153 21.0248 20.8466 21.1929 20.8823 21.3634C20.9424 21.4979 21.0337 21.5585 21.174 21.5293C21.312 21.5002 21.3744 21.406 21.3387 21.2356" fill="#7F1416"/>
<path d="M28.0726 28.8554C26.6564 27.2766 25.8904 25.0925 25.4874 22.2153C24.492 15.1089 24.2426 11.2787 24.2426 11.2787C24.1558 10.088 24.9752 9.00931 26.1398 8.79627L26.2645 8.77833C27.5337 8.63033 28.6783 9.52508 28.8542 10.7831L28.8653 10.9737C28.8653 10.9737 29.0835 14.5841 30.0611 21.5628C30.3884 23.9062 31.0341 25.2091 31.5018 25.7204C31.8825 26.1644 32.3123 26.2787 32.8912 26.1958C33.468 26.1128 33.851 25.8818 34.0981 25.3817C34.3943 24.7628 34.657 23.3456 34.323 20.9573C33.2809 13.519 32.5995 10.5858 32.5995 10.5858L32.5483 10.3369C32.3858 9.17301 33.1362 8.05625 34.3074 7.77818L34.5234 7.73109C35.6947 7.56515 36.8236 8.35002 37.0997 9.52957C37.0997 9.52957 37.839 12.7588 38.8967 20.307C39.3064 23.2312 39.1684 25.5432 38.2398 27.4403C37.2957 29.3375 35.3941 30.5395 33.5348 30.8018C31.6465 31.0709 29.4843 30.4139 28.0704 28.8509M25.5742 14.7792C25.3983 12.8485 25.3226 11.7362 25.3872 11.0545C25.4651 10.3548 25.6521 10.1036 26.0775 9.73812C26.1487 9.67981 26.1687 9.59684 26.1576 9.51836C26.142 9.40847 26.0307 9.29635 25.8904 9.31653C25.8436 9.32326 25.7991 9.34568 25.7724 9.38156C25.3026 9.78521 25.0153 10.227 24.9307 10.9917C24.8483 11.7721 24.9262 12.9 25.1177 14.8286C25.1355 14.9542 25.2447 15.0506 25.3694 15.0326L25.4005 15.0282C25.5096 15.0125 25.5876 14.8891 25.572 14.7792M25.7791 16.9141C25.7546 16.5172 25.7234 16.2952 25.69 15.8198C25.6722 15.6942 25.5631 15.5978 25.4384 15.6157L25.4072 15.6202C25.2825 15.6381 25.2202 15.7592 25.2202 15.8713L25.3248 16.9634C25.3426 17.089 25.4517 17.1854 25.5764 17.1675L25.6076 17.163C25.7167 17.1473 25.7947 17.024 25.7791 16.9141ZM34.4878 26.4536C34.8062 26.1195 35.02 25.7047 35.1091 25.3234V25.227C35.0935 25.1014 34.9844 25.005 34.8441 25.0252C34.7505 25.0386 34.6815 25.1126 34.6637 25.2113C34.5791 25.5118 34.4054 25.8728 34.1582 26.1487C33.9222 26.3909 33.6283 26.577 33.2386 26.6331L33.0983 26.6532C32.9892 26.6689 32.9113 26.7923 32.9113 26.9044C32.9291 27.03 33.0382 27.1264 33.1807 27.1219L33.2898 27.1062C33.7886 27.0345 34.2005 26.7855 34.4878 26.4559M34.3586 14.6223L33.6461 10.4423C33.6261 10.301 33.5036 10.2225 33.3789 10.2404C33.2698 10.2561 33.174 10.366 33.1896 10.4759L33.1941 10.5073C33.2631 10.9939 33.8309 14.2657 33.9044 14.6716C33.9222 14.7972 34.0447 14.8757 34.1694 14.8577C34.2785 14.842 34.3742 14.7322 34.3586 14.6223Z" fill="#7F1416"/>
<path d="M51.3013 27.8574C49.6869 24.5856 48.0748 21.3295 46.4671 18.2304L46.4916 18.865C46.6052 21.7063 46.8122 24.5251 47.1396 26.8012L47.1663 27.0546C47.213 28.2274 46.3558 29.2814 45.1622 29.4563L44.9418 29.4653C43.7594 29.5124 42.7151 28.649 42.557 27.447C42.2007 24.8704 41.9713 21.861 41.8511 18.8628C41.7086 15.3084 41.7264 11.781 41.8711 9.05638C41.9246 8.03604 42.6483 7.18165 43.6325 6.93498C43.7883 6.89685 43.9464 6.87443 44.0867 6.86995C44.9218 6.83631 45.7278 7.26462 46.1665 8.00913C47.7564 10.6777 49.3262 13.6512 50.9161 16.7324C50.7869 13.4965 50.6066 10.5476 50.4039 9.02947L50.3772 8.77607C50.3282 7.52251 51.3102 6.4349 52.5861 6.38333H52.6173C53.8153 6.33399 54.844 7.21305 54.9865 8.43297C55.2159 10.2359 55.4096 13.1355 55.5365 16.2929C55.6813 19.91 55.7436 23.8658 55.6746 26.8707C55.6546 27.9359 54.9019 28.8576 53.8687 29.0886C53.7284 29.111 53.6015 29.1312 53.4612 29.1356C52.5639 29.1715 51.7066 28.6827 51.2969 27.8574M42.8108 15.1851C42.8264 14.7882 42.8175 14.5662 42.8309 14.0885C42.8264 13.9607 42.7262 13.8553 42.6015 13.8598H42.5859C42.459 13.8665 42.3699 13.9652 42.3744 14.0908C42.361 14.5684 42.3543 14.7747 42.3543 15.1873C42.3588 15.3152 42.459 15.4206 42.5837 15.4161C42.7106 15.4116 42.8153 15.3107 42.8108 15.1851ZM42.8353 13.039C42.8531 11.0993 42.8865 9.98477 43.0335 9.31202C43.1649 8.62357 43.3764 8.3926 43.8373 8.07192C43.9153 8.02034 43.942 7.93961 43.9398 7.86113C43.9353 7.75124 43.8529 7.64137 43.7104 7.64809H43.6948L43.5701 7.68621C43.0624 8.04053 42.7329 8.45091 42.5726 9.20438C42.4145 9.97356 42.3811 11.1038 42.3632 13.0435C42.3677 13.1713 42.4679 13.2767 42.5926 13.2723H42.6238C42.7351 13.2678 42.8242 13.1512 42.8353 13.039ZM52.1141 12.9807V12.965C52.0963 12.5524 51.8535 9.22457 51.8201 8.74916C51.8157 8.62134 51.6999 8.53163 51.5752 8.53612C51.4483 8.5406 51.3592 8.65497 51.3637 8.78279L51.6576 12.983C51.6643 13.1265 51.7778 13.2162 51.9025 13.2117C52.0295 13.2072 52.1185 13.1086 52.1141 12.9807Z" fill="#7F1416"/>
<path d="M12.7593 54.6014L12.7527 54.5095C12.3184 52.3253 11.9733 49.0288 11.7328 45.7413C11.4946 42.4673 11.3387 39.4646 11.5302 37.4822C11.4678 36.426 12.1782 35.4819 13.0911 35.1994C13.9395 34.8899 14.8525 34.6387 15.8701 34.5647C16.7808 34.4975 17.7027 34.567 18.6401 34.854C20.6375 35.446 22.4656 37.48 22.6549 40.0947C22.7863 41.8999 22.2563 43.4316 21.4413 44.629C22.6304 45.6494 23.4164 47.2214 23.5411 48.9346C23.6725 50.7398 23.1671 52.3926 22.2741 53.5811C21.3812 54.7539 20.21 55.4401 19.1411 55.8729C17.7917 56.4335 16.4891 56.5905 15.7142 56.6488L15.1842 56.7026C13.9996 56.7901 12.8484 55.8751 12.7571 54.6059M12.432 39.9983C12.3429 37.7289 12.1047 36.13 14.298 35.6299C14.4182 35.6053 14.4873 35.4931 14.4784 35.3855C14.4539 35.2644 14.3559 35.1792 14.2357 35.1882H14.2045C11.7417 35.7555 11.9043 37.5899 11.9889 40.014C11.9978 40.1373 12.0958 40.236 12.2182 40.227H12.2494C12.3563 40.2181 12.4387 40.1037 12.432 39.9961M12.4877 42.0233L12.4699 40.9334C12.461 40.8101 12.3474 40.7271 12.2272 40.7361C12.1047 40.7451 12.0223 40.8437 12.029 40.9648V42.0255C12.0379 42.1489 12.1381 42.2475 12.2606 42.2542C12.383 42.2453 12.481 42.1466 12.4877 42.0233ZM18.2059 40.4333C18.1257 39.3323 17.3664 38.9735 16.3488 39.0475L15.9391 39.0923C15.9391 40.1687 15.9725 41.6577 16.0571 43.2522C17.2506 42.8709 18.3373 42.2542 18.2037 40.4333M18.7181 50.8408C18.9697 50.5156 19.1567 50.1478 19.0921 49.2598C19.012 48.1587 18.266 47.782 17.2484 47.8582H17.2017C16.9434 47.8807 16.6873 47.93 16.4023 47.9973C16.5359 49.4325 16.6962 50.7892 16.8543 51.9171C17.6492 51.7041 18.3529 51.3296 18.7158 50.843M17.8296 43.4293C18.6913 43.1041 19.2168 41.9134 19.1545 41.0545C19.1456 40.9312 19.032 40.8325 18.9096 40.8415C18.7871 40.8504 18.7047 40.9648 18.7136 41.0859C18.7648 41.7901 18.3017 42.7767 17.6782 43.0077C17.5735 43.0458 17.5201 43.1423 17.5268 43.2499C17.5513 43.3867 17.6336 43.4562 17.7695 43.4473L17.8296 43.4271V43.4293ZM19.9049 49.5065C19.896 49.3831 19.7847 49.3159 19.6778 49.3226C19.5575 49.3316 19.4573 49.4302 19.4662 49.5536C19.5197 50.2868 19.0387 51.2466 18.4308 51.4754C18.3262 51.5135 18.2727 51.6099 18.2816 51.7176C18.3217 51.8521 18.3885 51.9239 18.5243 51.9149C19.5598 51.6548 19.9094 50.3833 19.9071 49.5065" fill="#7F1416"/>
<path d="M28.5957 55.6896C28.2884 55.6447 27.9656 55.6178 27.4824 55.398C27.0281 55.1917 26.1975 54.4853 26.0372 53.5121L26.055 53.5413C25.7411 51.7159 25.4917 48.7939 25.3314 45.8226C25.1332 42.1763 25.0686 38.447 25.1911 36.4916V36.5364C25.2222 35.9354 25.5184 35.2291 25.9081 34.8232C26.3423 34.3836 26.7453 34.2244 27.0593 34.1145C27.7028 33.8948 28.1905 33.8679 28.7672 33.8365C28.9186 33.8118 29.0544 33.8051 29.2237 33.7961C30.3192 33.7356 31.6753 33.7221 33.4389 33.6257H33.47C34.7014 33.5562 35.7435 34.498 35.8125 35.7381C35.8794 36.9782 34.9464 38.0434 33.715 38.1129H33.6838C31.8289 38.2161 30.5642 38.2407 29.6356 38.2923C29.6423 39.5369 29.6757 41.2546 29.7447 43.1092L33.3453 42.8491C34.5611 42.7818 35.6032 43.7079 35.7012 44.9323V44.9637C35.7702 46.1881 34.8217 47.2713 33.5903 47.3385L29.9741 47.5986C30.0476 48.9307 30.1455 50.1865 30.2457 51.2091C31.3569 51.1485 32.9178 50.9848 34.4387 50.9018H34.4698C35.7012 50.8323 36.7611 51.7876 36.8279 53.0277C36.8947 54.2521 35.9462 55.3195 34.7148 55.3868H34.6836C33.2852 55.4653 31.7376 55.6268 30.4306 55.7008C29.7759 55.7367 29.2125 55.7523 28.6002 55.694M26.5494 39.0884C26.5026 36.8167 26.3089 35.2156 28.4955 34.7559C28.6158 34.7335 28.687 34.6213 28.6803 34.5003C28.6603 34.3949 28.5623 34.3074 28.4421 34.3141H28.3953C25.937 34.8209 26.0528 36.6732 26.1085 39.0974C26.1152 39.2207 26.2131 39.3216 26.3334 39.3149C26.4558 39.3082 26.5561 39.2095 26.5494 39.0884ZM26.5516 41.1021L26.5694 40.0258C26.5627 39.9181 26.4514 39.8172 26.3445 39.8239H26.3133C26.2065 39.8307 26.1218 39.9293 26.1285 40.0504C26.1063 40.4967 26.1174 40.712 26.1085 41.0954C26.1152 41.2345 26.2131 41.3354 26.3356 41.3286H26.3668C26.4737 41.3219 26.5605 41.2232 26.5538 41.1021M33.3832 43.5667C33.4901 43.5599 33.5903 43.4635 33.5858 43.3559V43.3245C33.5791 43.2168 33.4812 43.1159 33.3743 43.1204L31.6887 43.2437C31.5662 43.2505 31.466 43.3469 31.4727 43.4859C31.4793 43.6093 31.5907 43.6945 31.7131 43.6877L33.3854 43.5644L33.3832 43.5667ZM36.2356 52.8573C36.3403 52.8214 36.396 52.725 36.3915 52.633V52.5725C36.2423 52.1509 35.9038 51.8145 35.5253 51.5746C35.1312 51.3503 34.6992 51.236 34.2872 51.2584C34.1648 51.2651 34.0646 51.3773 34.0713 51.5006C34.0935 51.6374 34.1893 51.7248 34.3273 51.7159H34.3741C34.648 51.6979 35.0042 51.8011 35.3026 51.9693C35.6188 52.1509 35.8615 52.429 35.9528 52.716C35.9885 52.8214 36.0842 52.8775 36.1755 52.873L36.2356 52.855V52.8573Z" fill="#7F1416"/>
<path d="M48.2379 52.9666L47.4273 48.9705L43.82 49.1476C43.5707 50.4438 43.3101 51.8341 43.0652 53.2379C42.916 54.3323 41.9808 55.0992 40.9298 55.1328C40.7783 55.1373 40.6247 55.1284 40.4711 55.1014C39.4289 54.9198 38.6696 54.0228 38.6362 52.9957L38.6808 52.4867C39.8632 45.5125 41.364 39.4175 43.1364 34.7396C43.2322 34.3674 43.4326 34.0086 43.6686 33.7238L43.8022 33.6273C44.1852 33.2327 44.713 32.9994 45.2763 32.9815C45.5814 32.9725 45.902 33.0219 46.2115 33.1362C46.5968 33.2775 46.9085 33.4973 47.1423 33.6744C47.5498 34.0287 47.7881 34.3741 47.9818 34.706C48.3848 35.3989 48.652 36.1434 48.9526 36.9776C49.5717 38.7223 50.1439 40.9289 50.6873 43.1848C51.7873 47.6317 52.6156 52.1324 52.6156 52.1324L52.6735 52.5293C52.7069 53.6035 51.961 54.5789 50.8543 54.7987L50.5203 54.8391C49.4381 54.8727 48.4539 54.108 48.2356 52.9621M42.2591 40.2786L42.5018 39.2582L42.5152 39.1977C42.5107 39.0586 42.415 38.9555 42.2792 38.96C42.1901 38.9936 42.0988 39.0587 42.0721 39.1506L41.8138 40.1552V40.2315C41.8182 40.3234 41.8828 40.4131 41.9741 40.4423H42.0498C42.1411 40.4378 42.2302 40.3727 42.2591 40.2786ZM42.7601 38.2828C42.9761 37.4172 43.1899 36.4125 43.5128 35.5873C43.8668 34.7172 44.2721 34.0736 44.8288 33.8426C44.9334 33.7933 44.9913 33.6991 44.9891 33.6072C44.9869 33.4995 44.9067 33.3941 44.7842 33.3986L44.6617 33.4031C43.9269 33.7484 43.4482 34.5154 43.0941 35.4034C42.7557 36.3049 42.5285 37.3095 42.3126 38.1594V38.22C42.317 38.2962 42.3816 38.4016 42.4729 38.4442H42.533C42.6399 38.4397 42.729 38.359 42.7557 38.2805M46.4164 44.5057C46.1692 43.4382 45.9265 42.4807 45.6504 41.4761L44.8332 44.5864L46.4164 44.5057ZM47.2136 43.6961L46.7059 41.6398C46.6725 41.5187 46.5634 41.4604 46.4721 41.4626C46.3362 41.4671 46.2628 41.5613 46.265 41.6846L46.7727 43.741C46.7905 43.8486 46.9018 43.9361 47.0065 43.9338L47.051 43.9159C47.1579 43.898 47.2158 43.8038 47.2114 43.6961" fill="#7F1416"/>
<path d="M63.219 53.4488C61.8006 50.2218 60.3822 47.0083 58.9638 43.9518V44.5662C58.9504 47.311 59.0283 50.0424 59.2488 52.2535L59.2621 52.5002C59.2577 53.6349 58.3848 54.6126 57.2269 54.7315H57.0131C55.8708 54.7247 54.9 53.8479 54.7975 52.6818C54.5637 50.1814 54.4702 47.2662 54.4814 44.3667C54.4969 40.9312 54.6617 37.5248 54.9178 34.9033C55.0135 33.9211 55.7484 33.1273 56.7081 32.9322C56.8595 32.903 57.0131 32.8873 57.149 32.8873C57.955 32.8918 58.7166 33.3381 59.1085 34.0781C60.5291 36.722 61.9186 39.6574 63.3214 42.7027C63.3348 39.5745 63.2858 36.7198 63.1544 35.2464L63.1411 34.9998C63.1455 33.7888 64.1409 32.7797 65.3745 32.7842H65.4057C66.5636 32.7887 67.5188 33.6834 67.6057 34.8652C67.7504 36.6144 67.815 39.422 67.8016 42.474C67.786 45.9723 67.6792 49.7913 67.4854 52.6886C67.4209 53.7156 66.6549 54.5722 65.6484 54.7516C65.5103 54.7673 65.3901 54.7808 65.252 54.7808C64.3836 54.7763 63.5797 54.2673 63.2168 53.4532M55.5635 40.8527C55.5947 40.4692 55.5969 40.2539 55.6281 39.7942C55.6281 39.6709 55.5368 39.5632 55.4166 39.5632H55.401C55.2785 39.5632 55.1872 39.6552 55.1872 39.7763C55.1538 40.236 55.1382 40.4356 55.1226 40.8347C55.1226 40.9581 55.2139 41.0657 55.3342 41.0657C55.4567 41.0657 55.5635 40.9738 55.5635 40.8527ZM55.6793 38.7829C55.7795 36.9126 55.8597 35.8385 56.0289 35.1949C56.1848 34.5356 56.3986 34.3225 56.8573 34.0333C56.933 33.9884 56.9641 33.9099 56.9641 33.8337C56.9641 33.726 56.8884 33.6184 56.7526 33.6184H56.737L56.6146 33.6476C56.1113 33.9682 55.7729 34.3495 55.588 35.0693C55.401 35.8048 55.3208 36.8947 55.2228 38.7649C55.2228 38.8883 55.3141 38.9959 55.4344 38.9959H55.4656C55.5724 38.9959 55.6637 38.8883 55.6793 38.7829ZM64.6352 39.1282V39.1125C64.6352 38.7133 64.5439 35.4909 64.5306 35.0312C64.5306 34.9078 64.4259 34.8159 64.3034 34.8159C64.181 34.8159 64.0897 34.9235 64.0897 35.0446L64.1943 39.1103C64.1943 39.2493 64.299 39.3412 64.4215 39.3412C64.5439 39.3412 64.6352 39.2493 64.6352 39.1282Z" fill="#7F1416"/>
<path d="M75.4435 55.2091C72.9452 54.9131 71.146 52.8523 70.4824 50.6995C69.9213 48.8607 69.83 46.811 69.9769 44.6515L70.0638 43.5975C70.2953 41.0927 70.6539 38.7493 71.6737 36.7422C72.1992 35.7488 72.9207 34.798 73.9717 34.1634C74.9114 33.5826 76.0893 33.3247 77.245 33.3897C77.3674 33.3987 77.4877 33.4054 77.6079 33.4301C80.1687 33.7306 82.0569 35.8116 82.6893 37.9778C83.2081 39.7808 83.2282 41.7363 83.0879 43.7859L82.9877 45.0395C82.7383 47.5914 82.2885 49.9415 81.2375 51.9149C80.2087 53.8121 78.0711 55.3863 75.684 55.2226L75.4413 55.2047L75.4435 55.2091ZM71.6737 40.1262C71.7405 39.8077 71.8273 39.4444 71.9275 39.0969L71.932 39.0363C71.9387 38.9287 71.8563 38.8165 71.7182 38.8053C71.6113 38.7986 71.529 38.8838 71.4933 38.9735C71.3931 39.3211 71.3063 39.6978 71.2373 40.032V40.0634C71.2284 40.171 71.2974 40.2831 71.4176 40.3055H71.4488C71.5557 40.3145 71.6537 40.2293 71.6759 40.1239M72.2059 38.164C72.7915 36.0672 74.3324 34.4975 76.0603 34.4616C76.1828 34.4549 76.2808 34.3697 76.2897 34.2463C76.2986 34.123 76.1984 34.0243 76.0759 34.0154H76.0603C74.0741 34.0468 72.3952 35.8071 71.7873 38.0406L71.7828 38.0877C71.7761 38.1954 71.8296 38.2918 71.9342 38.3299H71.9654C72.0723 38.3389 72.1836 38.2694 72.2059 38.164ZM77.3095 49.7734C77.8662 48.7665 78.3338 46.8447 78.5454 44.6156L78.6189 43.759C78.748 41.8461 78.6768 40.2114 78.3917 39.2381C78.0844 38.1258 77.6925 37.8523 77.0846 37.8097C76.4456 37.7648 76.0425 38.0922 75.6417 38.8165C75.1318 39.7965 74.7265 41.7363 74.5105 44.0124L74.4482 44.7165C74.3168 46.6608 74.4304 48.3449 74.7421 49.3652C75.1073 50.5134 75.4614 50.7062 75.978 50.7421C76.4634 50.7757 76.9087 50.5134 77.3118 49.7734M77.6925 50.8744C78.4964 50.038 78.9172 48.5916 79.1043 47.19V47.1586C79.1154 47.0353 79.0286 46.9388 78.9239 46.9299H78.8927C78.7703 46.9187 78.6745 47.0061 78.6656 47.1272C78.483 48.4839 78.0377 49.8675 77.3786 50.5605C77.3318 50.5874 77.3118 50.6479 77.3073 50.7085C77.3029 50.769 77.3296 50.8318 77.3719 50.8811C77.4164 50.9148 77.4743 50.935 77.5211 50.9372C77.5812 50.9417 77.6458 50.9148 77.6925 50.8722" fill="#7F1416"/>
<path d="M3.25537 35.7172C3.25537 35.7172 41.7911 24.9218 64.1363 29.0659Z" fill="#FDC141"/>
<path d="M13.2823 32.6048C12.7857 32.302 12.425 31.8737 12.2246 31.2839C11.5722 29.0998 10.942 26.476 10.3185 23.4106C9.459 19.179 8.92236 15.9027 8.70414 13.566C8.63957 12.9314 8.80434 12.3147 9.17175 11.7518C9.55698 11.2675 9.91103 10.9513 10.2562 10.8324C10.7839 10.5768 11.2782 10.3951 11.757 10.2965C12.4985 10.144 13.1665 10.0229 13.7566 9.91749C14.4558 9.78966 15.4467 9.60129 16.7448 9.33444C17.3772 9.20437 17.9473 9.31426 18.4861 9.67306C19.0094 10.0341 19.3345 10.5185 19.4615 11.1419C19.5906 11.7788 19.4815 12.3528 19.1252 12.8955C18.7689 13.4382 18.288 13.7656 17.6712 13.8912L13.5228 14.6985C13.7254 16.0171 14.0127 17.6608 14.36 19.614L18.023 18.7955C18.6264 18.6722 19.1942 18.7798 19.7287 19.1095C20.2497 19.457 20.5926 19.9526 20.7374 20.5873C20.8665 21.2241 20.7574 21.7982 20.4011 22.3409C20.0449 22.8836 19.5661 23.2267 18.9337 23.3567L15.2552 24.1797C15.7784 26.6801 16.226 28.566 16.6335 29.86L16.707 30.1358C16.825 30.7121 16.7404 31.2481 16.4531 31.7437C16.1147 32.2998 15.6137 32.6788 14.9123 32.8716C14.3244 32.9927 13.7766 32.912 13.2823 32.607M10.3475 16.1763C10.3853 16.1202 10.3653 15.8646 10.2784 15.4452L10.2539 15.3219C10.0647 14.389 10.0112 13.5727 10.1137 12.8865C10.2161 12.2003 10.7483 11.6532 11.7147 11.2607C11.7614 11.2518 11.8037 11.2271 11.8416 11.171C11.8639 11.1172 11.8683 11.0679 11.8527 10.9916C11.8238 10.8526 11.7325 10.7898 11.5922 10.819L11.5499 10.8436C10.4009 11.2899 9.77965 11.9537 9.66609 12.8193C9.5592 13.6355 9.62378 14.5953 9.84868 15.6986C9.86427 15.7771 9.88876 15.9005 9.92216 16.0574C9.95333 16.2122 10.0469 16.2749 10.1916 16.2772C10.2539 16.2637 10.3118 16.2368 10.3497 16.1808M10.6525 18.2371C10.677 18.199 10.6369 17.7707 10.539 16.9634C10.51 16.8244 10.4187 16.7616 10.2784 16.7907C10.1404 16.8199 10.0758 16.8984 10.0736 17.0441L10.2361 18.1609C10.2651 18.2999 10.3586 18.3627 10.5122 18.3313C10.5746 18.3179 10.6169 18.2932 10.6548 18.2371M20.243 20.1343C20.1451 19.8136 19.9491 19.5624 19.6552 19.3808C19.3613 19.1992 19.0517 19.1005 18.7422 19.0825C18.573 19.1184 18.4951 19.2149 18.5262 19.3696C18.5507 19.4952 18.6287 19.5602 18.7556 19.549C18.9649 19.5535 19.1742 19.6252 19.3969 19.7732C19.6195 19.9212 19.7509 20.0894 19.7866 20.2599C19.8467 20.3944 19.938 20.455 20.0783 20.4258C20.2163 20.3966 20.2787 20.3025 20.243 20.132" fill="#F8ED49"/>
<path d="M26.9766 27.7544C25.5626 26.1757 24.7944 23.9915 24.3914 21.1144C23.3983 14.0079 23.1489 10.1777 23.1489 10.1777C23.062 8.98699 23.8837 7.90835 25.046 7.69531L25.1707 7.67737C26.44 7.52937 27.5845 8.42636 27.7604 9.6844L27.7715 9.87501C27.7715 9.87501 27.9898 13.4832 28.9651 20.4641C29.2924 22.8075 29.9359 24.1103 30.4058 24.6216C30.7865 25.0656 31.2163 25.18 31.793 25.0993C32.372 25.0163 32.7527 24.7876 33.0021 24.2875C33.2983 23.6686 33.561 22.2513 33.227 19.8631C32.1871 12.427 31.5058 9.49155 31.5058 9.49155L31.4546 9.24263C31.292 8.07877 32.0424 6.96201 33.2137 6.68394L33.4297 6.63685C34.6009 6.47091 35.7299 7.25578 36.006 8.43533C36.006 8.43533 36.7453 11.6668 37.7985 19.2127C38.2082 22.1369 38.0702 24.449 37.1394 26.3461C36.1953 28.2433 34.2936 29.443 32.4343 29.7076C30.546 29.9745 28.3839 29.3197 26.9699 27.7566M24.4827 13.676C24.309 11.7453 24.2333 10.633 24.2956 9.95125C24.3736 9.2516 24.5606 9.00044 24.9881 8.63491C25.0594 8.57661 25.0794 8.49363 25.0683 8.41515C25.0527 8.30526 24.9414 8.19314 24.8011 8.21332C24.7543 8.22005 24.7098 8.24248 24.6831 8.27836C24.2132 8.68201 23.926 9.12378 23.8414 9.88846C23.759 10.6689 23.8369 11.7968 24.0284 13.7254C24.0462 13.851 24.1553 13.9474 24.28 13.9294L24.3112 13.9249C24.4203 13.9093 24.4983 13.7859 24.4827 13.676ZM24.6853 15.8109C24.6608 15.414 24.6319 15.1942 24.5962 14.7165C24.5784 14.591 24.4693 14.4945 24.3446 14.5125L24.3134 14.517C24.1887 14.5349 24.1264 14.656 24.1264 14.7681L24.2311 15.8602C24.2489 15.9858 24.358 16.0822 24.4827 16.0643L24.5139 16.0598C24.623 16.0441 24.7009 15.9208 24.6853 15.8109ZM33.3918 25.3527C33.7102 25.0186 33.924 24.6037 34.0131 24.2225V24.126C33.9975 24.0005 33.8884 23.904 33.7481 23.9242C33.6546 23.9377 33.5855 24.0117 33.5677 24.1103C33.4831 24.4108 33.3094 24.7719 33.0623 25.0477C32.8262 25.2899 32.5323 25.476 32.1426 25.5298L32.0023 25.55C31.8932 25.5657 31.8153 25.6891 31.8153 25.8012C31.8331 25.9268 31.9422 26.0232 32.0847 26.0187L32.1938 26.003C32.6926 25.9313 33.1046 25.6823 33.3918 25.3527ZM33.2649 13.5213L32.5523 9.3413C32.5323 9.20002 32.4098 9.12153 32.2851 9.13947C32.176 9.15517 32.0803 9.26505 32.0958 9.37493L32.1003 9.40633C32.1693 9.89295 32.7371 13.1647 32.8106 13.5706C32.8284 13.6962 32.9509 13.7747 33.0756 13.7568C33.1847 13.7411 33.2805 13.6312 33.2649 13.5213Z" fill="#F8ED49"/>
<path d="M50.2061 26.7544C48.5917 23.4826 46.9796 20.2265 45.3719 17.1274L45.3964 17.762C45.5099 20.6032 45.717 23.4221 46.0444 25.6982L46.0711 25.9516C46.1178 27.1244 45.2605 28.1784 44.067 28.3533L43.8466 28.3623C42.6642 28.4094 41.6199 27.546 41.4618 26.344C41.1055 23.7674 40.8761 20.758 40.7559 17.7598C40.6134 14.2054 40.6312 10.678 40.7759 7.95334C40.8294 6.93301 41.553 6.07862 42.5373 5.83195C42.6931 5.79383 42.8512 5.7714 42.9915 5.76691C43.8265 5.73328 44.6326 6.1616 45.0735 6.9061C46.6634 9.57467 48.2332 12.5482 49.8231 15.6294C49.694 12.3935 49.5136 9.4446 49.311 7.92643L49.2842 7.67303C49.2353 6.41948 50.2172 5.33188 51.4932 5.2803H51.5243C52.7223 5.23096 53.7511 6.11002 53.8936 7.32993C54.1229 9.13289 54.3166 12.0324 54.4436 15.1899C54.5883 18.807 54.6506 22.7628 54.5816 25.7677C54.5616 26.8329 53.8089 27.7545 52.7757 27.9855C52.6355 28.0079 52.5085 28.0281 52.3683 28.0326C51.4709 28.0685 50.6136 27.5796 50.2039 26.7544M41.7156 14.0821C41.7312 13.6852 41.7223 13.4631 41.7356 12.9855C41.7312 12.8577 41.631 12.7523 41.5063 12.7568H41.4907C41.3638 12.7635 41.2747 12.8622 41.2792 12.9877C41.2658 13.4654 41.2591 13.6717 41.2591 14.0843C41.2636 14.2121 41.3638 14.3175 41.4885 14.3131C41.6154 14.3086 41.7201 14.2077 41.7156 14.0821ZM41.7401 11.936C41.7579 9.99626 41.7913 8.88174 41.9383 8.20899C42.0696 7.52055 42.2812 7.28957 42.7421 6.96889C42.8201 6.91732 42.8468 6.83659 42.8445 6.7581C42.8401 6.64597 42.7577 6.53833 42.6152 6.54506H42.5996L42.4749 6.58318C41.9672 6.9375 41.6377 7.34787 41.4773 8.10135C41.3192 8.87052 41.2858 10.0007 41.268 11.9405C41.2725 12.0683 41.3727 12.1737 41.4974 12.1692H41.5286C41.6377 12.1625 41.729 12.0481 41.7401 11.936ZM51.0166 11.8777V11.862C50.9988 11.4494 50.7561 8.12153 50.7227 7.64612C50.7183 7.5183 50.6047 7.4286 50.4778 7.43308C50.3508 7.43757 50.2618 7.55194 50.2662 7.67976L50.5602 11.8799C50.5668 12.0235 50.6804 12.1132 50.8051 12.1087C50.932 12.1042 51.0211 12.0055 51.0166 11.8777Z" fill="#F8ED49"/>
<path d="M11.6636 53.4984L11.657 53.4064C11.2227 51.2223 10.8776 47.9258 10.6371 44.6383C10.3989 41.3643 10.243 38.3616 10.4345 36.3792C10.3721 35.323 11.0825 34.3789 11.9954 34.0963C12.8438 33.7869 13.7568 33.5357 14.7744 33.4617C15.6851 33.3944 16.607 33.464 17.5444 33.751C19.5418 34.343 21.3699 36.377 21.5592 38.9917C21.6906 40.7969 21.1606 42.3285 20.3456 43.526C21.5347 44.5464 22.3207 46.1183 22.4454 47.8316C22.5768 49.6368 22.0713 51.2895 21.1784 52.4781C20.2855 53.6509 19.1143 54.3371 18.0454 54.7699C16.696 55.3305 15.3934 55.4875 14.6185 55.5458L14.0885 55.5996C12.9039 55.6871 11.7527 54.7721 11.6614 53.5029M11.3363 38.8953C11.2472 36.6259 11.009 35.0292 13.2023 34.5269C13.3225 34.5022 13.3916 34.3901 13.3827 34.2825C13.3582 34.1614 13.2602 34.0762 13.14 34.0851H13.1088C10.646 34.6525 10.8086 36.4868 10.8932 38.911C10.9021 39.0343 11.0001 39.133 11.1225 39.124H11.1537C11.2606 39.115 11.343 39.0007 11.3363 38.893M11.392 40.9202L11.3742 39.8304C11.3653 39.7071 11.2517 39.6241 11.1314 39.6331C11.009 39.642 10.9266 39.7407 10.9333 39.8618V40.9225C10.9422 41.0458 11.0424 41.1445 11.1648 41.1512C11.2873 41.1423 11.3853 41.0436 11.392 40.9202ZM17.1102 39.3303C17.03 38.2293 16.2707 37.8705 15.2531 37.9445L14.8434 37.9893C14.8434 39.0657 14.8768 40.5547 14.9614 42.1491C16.1549 41.7679 17.2416 41.1512 17.108 39.3303M17.6223 49.7355C17.874 49.4103 18.061 49.0425 17.9964 48.1545C17.9163 47.0535 17.1703 46.6767 16.1527 46.753H16.1059C15.8476 46.7754 15.5916 46.8247 15.3066 46.892C15.4402 48.3272 15.6005 49.6839 15.7586 50.8119C16.5535 50.5988 17.2572 50.2243 17.6201 49.7377M16.7339 42.3263C17.5956 42.0011 18.1211 40.8104 18.0588 39.9515C18.0499 39.8282 17.9363 39.7295 17.8138 39.7385C17.6914 39.7474 17.609 39.8618 17.6179 39.9829C17.6691 40.687 17.206 41.6737 16.5825 41.9047C16.4778 41.9428 16.4244 42.0393 16.4311 42.1469C16.4555 42.2837 16.5379 42.3532 16.6738 42.3442L16.7339 42.324V42.3263ZM18.8092 48.4034C18.8003 48.2801 18.689 48.2128 18.5821 48.2196C18.4618 48.2285 18.3616 48.3272 18.3705 48.4505C18.424 49.1838 17.943 50.1436 17.3351 50.3723C17.2304 50.4105 17.177 50.5069 17.1859 50.6145C17.226 50.7491 17.2928 50.8209 17.4286 50.8119C18.4641 50.5518 18.8137 49.2803 18.8114 48.4034" fill="#F8ED49"/>
<path d="M27.5 54.5856C27.1927 54.5407 26.8699 54.5138 26.3867 54.294C25.9324 54.0877 25.1018 53.3813 24.9415 52.4081L24.9593 52.4373C24.6454 50.6119 24.396 47.6899 24.2356 44.7186C24.0375 41.0723 23.9729 37.343 24.0954 35.3876V35.4324C24.1265 34.8314 24.4227 34.1251 24.8124 33.7192C25.2466 33.2796 25.6496 33.1204 25.9636 33.0105C26.6071 32.7908 27.0948 32.7639 27.6715 32.7325C27.8229 32.7078 27.9587 32.7011 28.128 32.6921C29.2235 32.6316 30.5796 32.6181 32.3432 32.5217H32.3743C33.6057 32.4522 34.6478 33.394 34.7168 34.6341C34.7836 35.8742 33.8507 36.9394 32.6193 37.0089H32.5881C30.7332 37.1121 29.4685 37.1367 28.5399 37.1883C28.5466 38.4329 28.58 40.1506 28.649 42.0052L32.2496 41.7451C33.4654 41.6778 34.5075 42.6039 34.6055 43.8283V43.8597C34.6745 45.0841 33.726 46.1672 32.4946 46.2345L28.8784 46.4947C28.9519 47.8267 29.0498 49.0825 29.15 50.1051C30.2612 50.0445 31.8221 49.8808 33.343 49.7978H33.3741C34.6055 49.7283 35.6654 50.6836 35.7322 51.9237C35.799 53.1481 34.8505 54.2155 33.6191 54.2828H33.5879C32.1895 54.3613 30.6419 54.5228 29.3348 54.5968C28.6802 54.6327 28.1168 54.6483 27.5045 54.59M25.4537 37.9844C25.4069 35.7127 25.2132 34.1116 27.3998 33.6519C27.5201 33.6295 27.5913 33.5173 27.5846 33.3963C27.5646 33.2909 27.4666 33.2034 27.3464 33.2101H27.2996C24.8413 33.7169 24.9571 35.5692 25.0128 37.9934C25.0195 38.1167 25.1174 38.2176 25.2377 38.2109C25.3601 38.2042 25.4603 38.1055 25.4537 37.9844ZM25.4559 39.9959L25.4737 38.9195C25.467 38.8119 25.3557 38.711 25.2488 38.7177H25.2176C25.1108 38.7244 25.0261 38.8231 25.0328 38.9442C25.0106 39.3904 25.0217 39.6057 25.0128 39.9892C25.0195 40.1282 25.1174 40.2291 25.2399 40.2224H25.2711C25.378 40.2157 25.4648 40.117 25.4581 39.9959M32.2853 42.4626C32.3921 42.4559 32.4923 42.3595 32.4879 42.2518V42.2205C32.4812 42.1128 32.3832 42.0119 32.2764 42.0164L30.5907 42.1397C30.4683 42.1465 30.3681 42.2429 30.3747 42.3819C30.3814 42.5053 30.4927 42.5905 30.6152 42.5837L32.2875 42.4604L32.2853 42.4626ZM35.1399 51.7533C35.2446 51.7174 35.3002 51.621 35.2958 51.529V51.4685C35.1466 51.0469 34.8081 50.7105 34.4296 50.4706C34.0355 50.2463 33.6035 50.132 33.1915 50.1544C33.0691 50.1611 32.9689 50.2732 32.9755 50.3966C32.9978 50.5334 33.0936 50.6208 33.2316 50.6141H33.2784C33.5523 50.5962 33.9085 50.6993 34.2069 50.8675C34.5231 51.0492 34.7658 51.3272 34.8571 51.6143C34.8928 51.7196 34.9885 51.7757 35.0798 51.7712L35.1399 51.7533Z" fill="#F8ED49"/>
<path d="M47.1417 51.8611L46.3312 47.865L42.7239 48.0422C42.4745 49.3383 42.2139 50.7287 41.969 52.1325C41.8198 53.2268 40.8846 53.9937 39.8336 54.0274C39.6821 54.0319 39.5285 54.0229 39.3749 53.996C38.3328 53.8143 37.5734 52.9173 37.54 51.8903L37.5846 51.3812C38.767 44.4071 40.2678 38.312 42.0403 33.6342C42.136 33.2619 42.3364 32.9031 42.5724 32.6183L42.706 32.5219C43.089 32.1272 43.6168 31.894 44.1801 31.876C44.4852 31.8671 44.8058 31.9164 45.1154 32.0308C45.5006 32.172 45.8123 32.3918 46.0461 32.569C46.4536 32.9233 46.6919 33.2686 46.8856 33.6005C47.2886 34.2934 47.5559 35.0379 47.8565 35.8722C48.4755 37.6168 49.0478 39.8234 49.5911 42.0794C50.6911 46.5262 51.5194 51.0269 51.5194 51.0269L51.5773 51.4238C51.6107 52.498 50.8648 53.4735 49.7581 53.6932L49.4241 53.7336C48.3419 53.7672 47.3577 53.0025 47.1395 51.8566M41.1629 39.1753L41.4056 38.155L41.419 38.0945C41.4145 37.9554 41.321 37.8523 41.183 37.8568C41.0917 37.8904 41.0026 37.9554 40.9759 38.0474L40.7176 39.052V39.1282C40.722 39.2202 40.7866 39.3099 40.8779 39.3368H40.9536C41.0449 39.3323 41.134 39.2673 41.1629 39.1731M41.6639 37.1795C41.8799 36.3139 42.0937 35.3093 42.4166 34.4841C42.7706 33.614 43.1759 32.9704 43.7326 32.7394C43.8372 32.6901 43.8951 32.5959 43.8929 32.5039C43.8907 32.3963 43.8105 32.2909 43.688 32.2954L43.5656 32.2999C42.8307 32.6452 42.352 33.4121 41.9979 34.3002C41.6595 35.2017 41.4324 36.2063 41.2164 37.0562V37.1167C41.2208 37.193 41.2854 37.2984 41.3767 37.341H41.4368C41.5437 37.3365 41.6328 37.2558 41.6595 37.1773M45.3202 43.4024C45.073 42.335 44.8303 41.3775 44.5542 40.3728L43.737 43.4832L45.3202 43.4024ZM46.1174 42.5929L45.6097 40.5365C45.5763 40.4154 45.4672 40.3571 45.3759 40.3594C45.2401 40.3639 45.1666 40.4581 45.1688 40.5814L45.6765 42.6378C45.6943 42.7454 45.8056 42.8328 45.9103 42.8306L45.9548 42.8127C46.0617 42.7947 46.1196 42.7005 46.1152 42.5929" fill="#F8ED49"/>
<path d="M62.1238 52.3456C60.7054 49.1187 59.287 45.9052 57.8685 42.8464V43.4586C57.8552 46.2057 57.9331 48.9348 58.1536 51.1459L58.1669 51.3926C58.1625 52.5273 57.2896 53.505 56.1317 53.6238H55.9179C54.7756 53.6171 53.8048 52.7403 53.7023 51.5742C53.4685 49.0738 53.375 46.1586 53.3861 43.2591C53.4017 39.8236 53.5665 36.4172 53.8226 33.7957C53.9183 32.8135 54.6531 32.0197 55.6129 31.8246C55.7643 31.7954 55.9179 31.7797 56.0538 31.7797C56.8598 31.782 57.6214 32.2305 58.0133 32.9683C59.4339 35.6122 60.8234 38.5476 62.2262 41.5929C62.2396 38.4646 62.1906 35.6099 62.0592 34.1366L62.0459 33.8899C62.0503 32.679 63.0457 31.6698 64.2793 31.6743H64.3105C65.4684 31.6788 66.4236 32.5736 66.5105 33.7554C66.6552 35.5045 66.7198 38.3121 66.7064 41.3641C66.6908 44.8624 66.5839 48.6814 66.3902 51.5787C66.3256 52.6058 65.5596 53.4624 64.5532 53.6418C64.4151 53.6575 64.2949 53.6709 64.1568 53.6709C63.2884 53.6665 62.4845 53.1574 62.1216 52.3434M54.4683 39.7495C54.4995 39.3661 54.5017 39.1508 54.5329 38.6911C54.5329 38.5677 54.4416 38.4601 54.3214 38.4601H54.3058C54.1833 38.4601 54.092 38.5521 54.092 38.6732C54.0586 39.1329 54.043 39.3324 54.0274 39.7316C54.0274 39.8549 54.1187 39.9626 54.239 39.9626C54.3614 39.9626 54.4683 39.8706 54.4683 39.7495ZM54.5841 37.6797C54.6843 35.8095 54.7645 34.7353 54.9337 34.0917C55.0896 33.4324 55.3034 33.2194 55.7621 32.9301C55.8378 32.8853 55.8689 32.8068 55.8689 32.7305C55.8689 32.6229 55.7932 32.5153 55.6574 32.5153H55.6418L55.5193 32.5444C55.0161 32.8651 54.6776 33.2463 54.4928 33.9662C54.3058 34.7017 54.2256 35.7915 54.1276 37.6618C54.1276 37.7851 54.2189 37.8928 54.3392 37.8928H54.3704C54.4772 37.8928 54.5685 37.7851 54.5841 37.6797ZM63.54 38.0251V38.0094C63.54 37.6102 63.4487 34.3878 63.4354 33.928C63.4354 33.8047 63.3307 33.7128 63.2082 33.7128C63.0858 33.7128 62.9945 33.8204 62.9945 33.9415L63.0991 38.0071C63.0991 38.1462 63.2038 38.2381 63.3262 38.2381C63.4487 38.2381 63.54 38.1462 63.54 38.0251Z" fill="#F8ED49"/>
<path d="M74.3483 54.1061C71.8499 53.8101 70.0508 51.7493 69.3872 49.5965C68.8261 47.7576 68.7348 45.708 68.8817 43.5485L68.9686 42.4945C69.2001 39.9896 69.5586 37.6462 70.5785 35.6392C71.104 34.6458 71.8254 33.695 72.8765 33.0603C73.8161 32.4795 74.9941 32.2216 76.1498 32.2867C76.2722 32.2956 76.3925 32.3024 76.5127 32.327C79.0734 32.6275 80.9617 34.7086 81.5941 36.8748C82.1129 38.6778 82.133 40.6332 81.9927 42.6829L81.8925 43.9364C81.6431 46.4884 81.1933 48.8385 80.1423 50.8119C79.1135 52.709 76.9759 54.2833 74.5888 54.1196L74.3461 54.1016L74.3483 54.1061ZM70.5785 39.0231C70.6453 38.7047 70.7321 38.3414 70.8323 37.9938L70.8368 37.9333C70.8435 37.8256 70.7611 37.7135 70.623 37.7023C70.5161 37.6956 70.4337 37.7808 70.3981 37.8705C70.2979 38.2181 70.2111 38.5948 70.142 38.9289V38.9603C70.1331 39.068 70.2022 39.1801 70.3224 39.2025H70.3536C70.4605 39.2115 70.5584 39.1263 70.5807 39.0209M71.1107 37.0609C71.6963 34.9642 73.2372 33.3945 74.9651 33.3586C75.0876 33.3519 75.1856 33.2666 75.1945 33.1433C75.2034 33.02 75.1032 32.9213 74.9807 32.9123H74.9651C72.9789 32.9437 71.2999 34.7041 70.692 36.9376L70.6876 36.9847C70.6809 37.0923 70.7344 37.1888 70.839 37.2269H70.8702C70.9771 37.2359 71.0884 37.1663 71.1107 37.0609ZM76.2143 48.6681C76.771 47.6612 77.2386 45.7394 77.4502 43.5104L77.5236 42.6537C77.6528 40.7409 77.5815 39.1061 77.2965 38.1328C76.9892 37.0206 76.5973 36.747 75.9894 36.7044C75.3504 36.6595 74.9473 36.9869 74.5465 37.7113C74.0366 38.6912 73.6313 40.631 73.4153 42.9071L73.353 43.6113C73.2216 45.5555 73.3352 47.2396 73.6469 48.2599C74.0121 49.4081 74.3661 49.601 74.8827 49.6368C75.3682 49.6705 75.8135 49.4081 76.2165 48.6681M76.5973 49.7714C77.4012 48.9349 77.822 47.4885 78.0091 46.087V46.0556C78.0202 45.9322 77.9334 45.8358 77.8287 45.8268H77.7975C77.6751 45.8156 77.5793 45.9031 77.5704 46.0242C77.3878 47.3809 76.9425 48.7645 76.2834 49.4574C76.2366 49.4843 76.2166 49.5449 76.2121 49.6054C76.2076 49.666 76.2344 49.7288 76.2767 49.7781C76.3212 49.8117 76.3791 49.8319 76.4259 49.8342C76.486 49.8386 76.5506 49.8117 76.5973 49.7691" fill="#F8ED49"/>
<path d="M13.0491 67.6216C12.8954 67.6216 12.7529 67.5768 12.6238 67.4893C12.4501 67.3704 12.3388 67.2 12.2987 66.9847L11.2966 61.7665C11.2543 61.5512 11.2944 61.3516 11.4124 61.1744C11.5304 60.9973 11.6997 60.8874 11.9134 60.8448L14.1713 60.4053C14.3807 60.3649 14.5766 60.3447 14.7592 60.3447C15.1244 60.3447 15.4406 60.4277 15.6944 60.5936C16.0774 60.8426 16.3313 61.2686 16.4448 61.8584C16.5072 62.1836 16.4827 62.4908 16.3691 62.7711C16.3157 62.9056 16.24 63.0312 16.1465 63.1456C16.4159 63.2443 16.6564 63.4057 16.8635 63.6255C17.0839 63.8587 17.2331 64.1816 17.311 64.583C17.3934 65.0136 17.3912 65.3881 17.2999 65.6998C17.2086 66.0137 17.0572 66.2783 16.8479 66.4847C16.6475 66.682 16.4159 66.8367 16.162 66.9466C15.9193 67.0498 15.6766 67.126 15.4428 67.1709L13.2116 67.6059C13.156 67.6171 13.1025 67.6216 13.0491 67.6216ZM13.7639 65.9644L15.1578 65.6931C15.3782 65.6505 15.5341 65.563 15.6343 65.4307C15.7278 65.3029 15.7523 65.128 15.7078 64.897C15.6566 64.6324 15.5764 64.5225 15.5185 64.4776C15.4272 64.4081 15.3292 64.3745 15.2224 64.3722C15.0732 64.3722 14.9529 64.3834 14.846 64.4036L13.5145 64.6638L13.7639 65.9644ZM13.225 63.1568L14.512 62.9056C14.6345 62.881 14.7325 62.8204 14.8149 62.7218C14.8616 62.6657 14.9173 62.5693 14.8794 62.3697C14.8416 62.1768 14.7748 62.049 14.6813 61.993C14.6122 61.9503 14.5321 61.9302 14.4408 61.9302C14.3962 61.9302 14.3495 61.9346 14.2983 61.9436L13.0379 62.188L13.225 63.1568Z" fill="url(#paint3_linear_17875_19546)"/>
<path d="M20.1209 66.3951C19.7847 66.3951 19.4663 66.3391 19.1746 66.2292C18.727 66.061 18.3574 65.7874 18.0723 65.4196C17.7918 65.0541 17.607 64.6146 17.529 64.1123C17.4377 63.5315 17.4778 63.0045 17.6493 62.5515C17.8207 62.0963 18.0879 61.7195 18.4375 61.4347C18.7894 61.1477 19.1879 60.9683 19.6199 60.8988C19.7446 60.8786 19.8693 60.8696 19.994 60.8696C20.2033 60.8696 20.4126 60.8988 20.6175 60.9571C20.9359 61.049 21.2343 61.197 21.4993 61.4011C21.7643 61.6029 21.9914 61.8541 22.174 62.1479C22.3588 62.4439 22.479 62.7735 22.5369 63.1278C22.5614 63.3453 22.5035 63.5382 22.3699 63.6929C22.2408 63.8409 22.076 63.9329 21.8801 63.9643L19.2013 64.3926C19.2258 64.4307 19.2503 64.4643 19.277 64.498C19.424 64.6729 19.591 64.794 19.7869 64.8658C19.9205 64.9151 20.0586 64.9398 20.1944 64.9398C20.2568 64.9398 20.3213 64.9353 20.3859 64.9241C20.5885 64.8927 20.7444 64.8501 20.8535 64.8007C20.9604 64.7514 21.0428 64.702 21.0985 64.6527C21.1764 64.5854 21.2454 64.5249 21.31 64.4756C21.4436 64.3791 21.5728 64.3231 21.7041 64.3006C21.7442 64.2939 21.7843 64.2917 21.8222 64.2917C21.9691 64.2917 22.1049 64.3365 22.223 64.4262C22.3699 64.5383 22.4612 64.6908 22.4902 64.868C22.528 65.1012 22.4479 65.3277 22.2519 65.5407C22.1049 65.7134 21.8801 65.8838 21.5906 66.0408C21.3033 66.1978 20.9938 66.3032 20.6687 66.3548C20.4817 66.3839 20.2968 66.3996 20.1209 66.3996V66.3951ZM20.0096 62.325C19.9562 62.325 19.9027 62.3295 19.8493 62.3385C19.6912 62.3631 19.5464 62.408 19.4195 62.4708C19.3037 62.5291 19.2102 62.6076 19.1345 62.7107C19.0721 62.7959 19.0254 62.9058 18.9942 63.0336L20.8068 62.7443C20.7734 62.6883 20.7311 62.6345 20.6776 62.5851C20.5685 62.4865 20.4416 62.4125 20.2946 62.3676C20.2011 62.3385 20.1053 62.3228 20.0074 62.3228L20.0096 62.325Z" fill="url(#paint4_linear_17875_19546)"/>
<path d="M25.3784 65.6481C25.0377 65.6481 24.7082 65.5741 24.3987 65.4284C24.0001 65.24 23.6616 64.9485 23.3966 64.5605C23.1339 64.1771 22.9669 63.7151 22.9001 63.1904C22.8333 62.6589 22.88 62.1655 23.0404 61.7283C23.2029 61.2887 23.4523 60.921 23.7863 60.6384C24.1248 60.3536 24.5211 60.1809 24.9665 60.1249C25.0756 60.1114 25.1869 60.1047 25.2916 60.1047C25.4586 60.1047 25.6189 60.1226 25.7748 60.1563C25.9819 60.2034 26.1734 60.2706 26.3448 60.3581C26.3693 60.2908 26.4049 60.228 26.4495 60.1675C26.5742 59.9993 26.7545 59.8984 26.9683 59.8715C27.0062 59.867 27.044 59.8647 27.0796 59.8647C27.2533 59.8647 27.407 59.9186 27.5428 60.024C27.7053 60.1518 27.8033 60.3312 27.8323 60.5554L28.3155 64.4148C28.3422 64.6323 28.2932 64.8274 28.1685 64.9933C28.0416 65.1615 27.8679 65.2624 27.6497 65.2893C27.6118 65.2938 27.5762 65.2961 27.5406 65.2961C27.3647 65.2961 27.2088 65.24 27.073 65.1301C27.0262 65.092 26.9839 65.0516 26.9483 65.0045C26.9394 65.0135 26.9327 65.0202 26.9238 65.0292C26.779 65.1705 26.6009 65.2983 26.396 65.4082C26.1867 65.5203 25.9507 65.5966 25.6946 65.628C25.5877 65.6414 25.4808 65.6481 25.3784 65.6481ZM25.4786 61.5421C25.4274 61.5421 25.3762 61.5466 25.3205 61.5533C25.1045 61.5802 24.9264 61.6565 24.775 61.7888C24.6213 61.9233 24.5122 62.0893 24.4432 62.2978C24.3719 62.5086 24.3519 62.7463 24.3831 63.0042C24.4142 63.2554 24.4922 63.4774 24.6124 63.6635C24.7327 63.8474 24.8774 63.982 25.06 64.0739C25.1958 64.1412 25.3383 64.1748 25.4964 64.1748C25.5454 64.1748 25.5944 64.1726 25.6456 64.1658C25.8683 64.1367 26.0509 64.0604 26.2001 63.9304C26.3537 63.7958 26.4628 63.6299 26.5319 63.4213C26.6031 63.2105 26.6232 62.9751 26.592 62.7239C26.5608 62.4683 26.4829 62.2418 26.3604 62.0557C26.2402 61.8718 26.0932 61.7372 25.9128 61.6453C25.777 61.578 25.6345 61.5444 25.4742 61.5444L25.4786 61.5421Z" fill="url(#paint5_linear_17875_19546)"/>
<path d="M29.7826 65.047C29.5978 65.047 29.433 64.9864 29.2949 64.8676C29.1369 64.733 29.0456 64.5536 29.0255 64.3339L28.6715 60.553C28.6514 60.3355 28.7071 60.1404 28.8362 59.979C28.9654 59.8153 29.148 59.7188 29.364 59.6986C29.3929 59.6964 29.4196 59.6942 29.4464 59.6942C29.6312 59.6942 29.796 59.7547 29.934 59.8736C30.003 59.9341 30.0587 60.0014 30.1032 60.0776C30.1545 60.0216 30.2101 59.9677 30.268 59.9162C30.415 59.7839 30.582 59.674 30.7713 59.5843C30.965 59.4923 31.1788 59.434 31.4081 59.4138C31.5061 59.4049 31.5996 59.4004 31.6887 59.4004C32.0561 59.4004 32.3634 59.4811 32.5994 59.6381C32.8889 59.8309 33.1026 60.1045 33.2363 60.4544C33.3609 60.7773 33.4433 61.1473 33.4812 61.5487L33.7016 63.8921C33.7217 64.1096 33.666 64.3025 33.5369 64.4662C33.4055 64.6299 33.2273 64.7241 33.0091 64.7465C32.9802 64.7487 32.9535 64.751 32.9267 64.751C32.7419 64.751 32.5771 64.6904 32.4391 64.5716C32.281 64.437 32.1897 64.2576 32.1696 64.0379L31.9492 61.6945C31.9336 61.5173 31.8958 61.3603 31.8379 61.2235C31.7889 61.1114 31.7176 61.0262 31.6152 60.9656C31.5395 60.9208 31.4326 60.8984 31.2968 60.8984C31.2545 60.8984 31.2099 60.8984 31.1632 60.9051C30.9605 60.9253 30.7958 60.9791 30.6733 61.0688C30.5486 61.1585 30.4595 61.2684 30.4039 61.4007C30.346 61.5375 30.3237 61.6832 30.3393 61.8492L30.5597 64.1926C30.5798 64.4101 30.5241 64.603 30.3949 64.7667C30.2636 64.9326 30.0854 65.0268 29.8672 65.047C29.8383 65.0492 29.8115 65.0515 29.7848 65.0515L29.7826 65.047Z" fill="url(#paint6_linear_17875_19546)"/>
<path d="M39.1061 64.419C38.4559 64.419 37.9326 64.2307 37.5496 63.8607C37.1354 63.4593 36.9061 62.8986 36.8704 62.1945L36.7546 59.8623C36.7435 59.6425 36.8081 59.4519 36.9439 59.2949C37.082 59.1357 37.2646 59.0505 37.4828 59.0393H37.5273C37.7277 59.0393 37.9014 59.1066 38.0461 59.2389C38.1976 59.3824 38.28 59.564 38.2911 59.7838L38.4069 62.116C38.4225 62.4299 38.4982 62.6564 38.6296 62.7865C38.7453 62.9009 38.9123 62.9569 39.1395 62.9569C39.164 62.9569 39.1885 62.9569 39.213 62.9569C39.4846 62.9435 39.6717 62.8695 39.7874 62.7282C39.9055 62.5847 39.9567 62.3537 39.9411 62.0398L39.8231 59.7076C39.8119 59.4878 39.8765 59.2972 40.0123 59.1402C40.1504 58.981 40.333 58.8958 40.5534 58.8823C40.569 58.8823 40.5846 58.8823 40.6002 58.8823C40.8006 58.8823 40.9743 58.9496 41.1168 59.0841C41.2682 59.2277 41.3506 59.4093 41.3617 59.6291L41.4798 61.9613C41.5154 62.6654 41.3417 63.2485 40.9654 63.688C40.5868 64.132 40.0212 64.3764 39.2864 64.4145C39.2241 64.4168 39.164 64.419 39.1038 64.419H39.1061Z" fill="url(#paint7_linear_17875_19546)"/>
<path d="M43.0541 65.9868C42.8403 65.9868 42.6577 65.915 42.513 65.7715C42.366 65.6257 42.2881 65.4374 42.2859 65.2109L42.2168 59.5755C42.2146 59.3557 42.2859 59.1696 42.4284 59.0171C42.5731 58.8624 42.7579 58.7839 42.9784 58.7817C43.2055 58.7817 43.3881 58.8557 43.5328 59.0037C43.5818 59.053 43.6219 59.1068 43.6553 59.1651C43.6731 59.1494 43.6932 59.1337 43.7132 59.118C43.8735 58.9902 44.0606 58.8826 44.2721 58.7996C44.4859 58.7144 44.7175 58.6695 44.9557 58.665H44.9891C45.4434 58.665 45.8598 58.7817 46.2272 59.0104C46.599 59.2436 46.8997 59.571 47.1201 59.9814C47.3383 60.3895 47.4541 60.8672 47.4608 61.4054C47.4675 61.9436 47.365 62.4257 47.158 62.8406C46.9486 63.2599 46.6592 63.594 46.3007 63.8362C45.9355 64.0807 45.5213 64.2085 45.0648 64.2152H45.0359C44.7776 64.2152 44.5304 64.1726 44.3011 64.0919C44.1229 64.0291 43.9604 63.9484 43.8134 63.8564L43.829 65.1929C43.8312 65.4127 43.76 65.6011 43.6175 65.7513C43.4727 65.9061 43.2879 65.9845 43.0675 65.9868H43.0563H43.0541ZM44.8377 60.1249C44.6128 60.1271 44.4235 60.1832 44.261 60.2976C44.094 60.4142 43.9648 60.5644 43.8735 60.7618C43.78 60.9614 43.7332 61.1923 43.7355 61.4502C43.7377 61.7036 43.7911 61.9346 43.8913 62.1364C43.9893 62.336 44.1207 62.4885 44.2899 62.5984C44.4525 62.7038 44.6373 62.7554 44.8555 62.7554C45.096 62.7531 45.2831 62.697 45.4434 62.5849C45.6082 62.4706 45.7328 62.3158 45.8286 62.1117C45.9243 61.9054 45.9689 61.6745 45.9667 61.4211C45.9622 61.1632 45.911 60.9322 45.813 60.7349C45.715 60.5398 45.5837 60.3918 45.4167 60.2796C45.2586 60.1742 45.0737 60.1227 44.8577 60.1227V59.8984L44.8422 60.1227L44.8377 60.1249Z" fill="url(#paint8_linear_17875_19546)"/>
<path d="M52.5465 64.1301C52.4084 64.1278 52.257 64.1121 52.0922 64.0875C51.9074 64.0583 51.7337 63.9911 51.5734 63.8901C51.4041 63.7847 51.2639 63.6233 51.1592 63.4147C51.0523 63.2062 51.0056 62.9393 51.0122 62.5985L51.0568 60.2842L50.8586 60.2797C50.656 60.2752 50.4756 60.199 50.3398 60.0555C50.2039 59.9142 50.1349 59.7303 50.1394 59.5263C50.1438 59.3267 50.2195 59.1495 50.362 59.015C50.5023 58.8849 50.6715 58.8199 50.8697 58.8199L51.0835 58.8244L51.0902 58.4611C51.0946 58.2413 51.1748 58.0552 51.3262 57.9072C51.4732 57.7636 51.6558 57.6919 51.8673 57.6919C52.1033 57.6964 52.2926 57.7794 52.4307 57.9341C52.5687 58.0866 52.6355 58.2749 52.6311 58.4925L52.6244 58.858L53.0497 58.867C53.2568 58.8714 53.4305 58.9454 53.5685 59.089C53.7066 59.2347 53.7734 59.4119 53.7712 59.6204C53.7667 59.8223 53.691 59.9972 53.5485 60.1317C53.4104 60.2618 53.239 60.3268 53.0408 60.3268L52.5977 60.3178L52.5554 62.585C52.5554 62.6411 52.5643 62.668 52.5709 62.6792C52.5821 62.6971 52.591 62.7039 52.6043 62.7106C52.6355 62.724 52.6667 62.7308 52.7045 62.7308C52.7491 62.7308 52.7825 62.724 52.8137 62.7106C52.8983 62.6747 52.994 62.6545 53.0987 62.6545C53.2189 62.6568 53.3726 62.6926 53.5106 62.8563C53.6153 62.9819 53.6665 63.1434 53.662 63.3385C53.6576 63.5134 53.5863 63.7623 53.2612 63.9462C53.0475 64.0673 52.8159 64.1301 52.5754 64.1301H52.5465Z" fill="url(#paint9_linear_17875_19546)"/>
<path d="M58.0291 64.3316C57.8131 64.3226 57.6261 64.2352 57.488 64.0782C57.3499 63.9212 57.2854 63.7306 57.2943 63.5131L57.3967 61.1607C57.4034 60.9813 57.39 60.8176 57.3544 60.6764C57.3254 60.5575 57.2676 60.4656 57.1807 60.3916C57.0961 60.3198 56.958 60.2794 56.7732 60.2727C56.7532 60.2727 56.7331 60.2727 56.7131 60.2727C56.5483 60.2727 56.4058 60.3041 56.2878 60.3691C56.1564 60.4409 56.0584 60.5328 55.9894 60.6562C55.9182 60.784 55.8781 60.9275 55.8714 61.0957L55.769 63.4481C55.7601 63.6678 55.6777 63.8495 55.5263 63.9952C55.3837 64.132 55.2078 64.1993 55.0052 64.1993H54.9651C54.7447 64.1881 54.5621 64.1029 54.424 63.9459C54.286 63.7889 54.2214 63.6006 54.2303 63.3808L54.4797 57.7051C54.4886 57.4853 54.571 57.3014 54.7224 57.1601C54.8671 57.0233 55.0408 56.9561 55.2435 56.9561H55.2835C55.4995 56.965 55.6866 57.0547 55.8246 57.2095C55.9627 57.3664 56.0273 57.557 56.0184 57.7746L55.9538 59.2456C55.985 59.2232 56.0161 59.2008 56.0495 59.1784C56.2099 59.0685 56.3902 58.981 56.5817 58.9182C56.7532 58.8622 56.938 58.833 57.1317 58.833C57.1607 58.833 57.1918 58.833 57.2208 58.833C57.7084 58.8554 58.0892 58.9855 58.3475 59.2187C58.6014 59.4497 58.7706 59.7502 58.853 60.1157C58.9287 60.4521 58.9576 60.8288 58.9398 61.2325L58.8374 63.5849C58.8285 63.8024 58.7461 63.9863 58.5947 64.132C58.4522 64.2688 58.2763 64.3361 58.0736 64.3361H58.0335L58.0291 64.3316Z" fill="url(#paint10_linear_17875_19546)"/>
<path d="M62.2106 64.6928C62.1394 64.6928 62.0659 64.6906 61.9947 64.6839C61.4424 64.6435 60.9615 64.4865 60.5673 64.2197C60.171 63.9528 59.8726 63.6007 59.6789 63.1769C59.4874 62.7553 59.4094 62.2866 59.4473 61.7798C59.4896 61.1923 59.6499 60.69 59.9216 60.2886C60.1932 59.8849 60.5361 59.5822 60.9436 59.3826C61.2932 59.2122 61.6606 59.127 62.0325 59.127C62.0949 59.127 62.1572 59.1292 62.2173 59.1337C62.558 59.1584 62.8787 59.2548 63.1726 59.4185C63.4621 59.5799 63.7159 59.793 63.9297 60.0531C64.1412 60.3132 64.306 60.6092 64.4173 60.9366C64.5287 61.2663 64.5732 61.6161 64.5465 61.9749C64.522 62.1924 64.4196 62.3674 64.2548 62.4862C64.1145 62.5871 63.9542 62.6387 63.7827 62.6387C63.7604 62.6387 63.7382 62.6387 63.7159 62.6365L61.0104 62.4346C61.026 62.475 61.0416 62.5154 61.0617 62.5535C61.1641 62.7598 61.2999 62.9145 61.4736 63.0289C61.6495 63.1455 61.8366 63.2083 62.0436 63.224C62.1238 63.2307 62.1973 63.233 62.2663 63.233C62.3687 63.233 62.4556 63.2262 62.5246 63.2128C62.6382 63.1904 62.7295 63.1612 62.7963 63.1253C62.8876 63.076 62.97 63.0356 63.0434 63.002C63.1748 62.9482 63.2973 62.9213 63.4109 62.9213C63.4287 62.9213 63.4465 62.9213 63.4643 62.9213C63.658 62.9347 63.8228 63.0199 63.9408 63.1634C64.0588 63.3047 64.1123 63.4751 64.0989 63.6545C64.0811 63.89 63.9519 64.0918 63.7137 64.2533C63.5289 64.3878 63.2795 64.5 62.9566 64.5874C62.7117 64.6547 62.4578 64.6883 62.204 64.6883L62.2106 64.6928ZM62.9521 61.2102C62.9343 61.1474 62.9032 61.0847 62.8631 61.0241C62.7785 60.9008 62.6738 60.8043 62.5402 60.7236C62.4088 60.6451 62.2685 60.6025 62.1127 60.5913C62.0704 60.5891 62.0258 60.5868 61.9835 60.5868C61.8722 60.5868 61.7631 60.598 61.6629 60.6227C61.536 60.6519 61.4268 60.7079 61.3311 60.7909C61.2509 60.8604 61.1819 60.9546 61.1218 61.0734L62.9521 61.2102Z" fill="url(#paint11_linear_17875_19546)"/>
<path d="M68.8708 65.2464C68.8374 65.2464 68.804 65.2464 68.7706 65.2397C68.5523 65.215 68.3764 65.1164 68.2473 64.9482C68.1204 64.7822 68.0692 64.5894 68.0936 64.3696L68.441 61.358L68.1716 61.3266C67.9667 61.3019 67.7997 61.2144 67.6772 61.0619C67.5548 60.9117 67.5013 60.7211 67.5258 60.517C67.5503 60.313 67.6438 60.1403 67.7975 60.0214C67.9266 59.9228 68.0758 59.8712 68.2406 59.8712C68.2718 59.8712 68.3052 59.8712 68.3386 59.8779L68.6058 59.9093L68.6281 59.712C68.686 59.2186 68.9086 58.8172 69.2938 58.519C69.5967 58.2813 69.9953 58.1602 70.4762 58.1602C70.6009 58.1602 70.7323 58.1691 70.8681 58.1848C71.0218 58.2028 71.171 58.2409 71.3113 58.3014C71.4671 58.3665 71.5963 58.4606 71.6943 58.5795C71.8078 58.7185 71.8568 58.8957 71.8345 59.0886C71.8101 59.3016 71.7232 59.4675 71.5785 59.5841C71.456 59.6828 71.3179 59.7321 71.171 59.7321C71.1465 59.7321 71.122 59.7322 71.0975 59.7277C71.0218 59.7187 70.926 59.6918 70.8036 59.6447C70.7167 59.611 70.6277 59.5886 70.543 59.5797C70.5163 59.5774 70.4918 59.5752 70.4673 59.5752C70.4072 59.5752 70.3605 59.5864 70.3271 59.6066C70.2736 59.6424 70.2358 59.6806 70.2135 59.7277C70.1779 59.8039 70.1645 59.8555 70.1623 59.8824L70.1378 60.0887L70.7412 60.1582C70.9461 60.1829 71.1109 60.2703 71.2333 60.4228C71.3558 60.5753 71.4092 60.7637 71.3847 60.9678C71.3603 61.1741 71.2667 61.3445 71.1131 61.4634C70.9839 61.562 70.8347 61.6136 70.6722 61.6136C70.641 61.6136 70.6076 61.6136 70.5742 61.6069L69.9708 61.5373L69.6234 64.5468C69.5989 64.7643 69.5032 64.9415 69.3428 65.0738C69.207 65.1859 69.0467 65.2442 68.8685 65.2442L68.8708 65.2464Z" fill="url(#paint12_linear_17875_19546)"/>
<path d="M73.9768 65.9867C73.8276 65.9867 73.6673 65.9755 73.5047 65.9508C72.7766 65.8454 72.2377 65.5494 71.9037 65.0717C71.5719 64.5986 71.4561 64.0043 71.5563 63.3047L71.8881 60.9927C71.9193 60.7751 72.0173 60.6002 72.1821 60.4724C72.3157 60.3692 72.4693 60.3154 72.6385 60.3154C72.6786 60.3154 72.7187 60.3177 72.761 60.3244C72.9748 60.3558 73.1529 60.4612 73.2754 60.6294C73.3979 60.7998 73.4424 60.9949 73.4134 61.2124L73.0817 63.5244C73.0371 63.8361 73.0683 64.0716 73.1707 64.2241C73.2732 64.3743 73.4491 64.4663 73.7118 64.5022C73.7786 64.5111 73.8432 64.5179 73.9033 64.5179C74.0792 64.5179 74.2151 64.4752 74.3175 64.39C74.46 64.2712 74.5558 64.0537 74.6003 63.7442L74.9298 61.4322C74.961 61.2147 75.059 61.0398 75.2238 60.9142C75.3574 60.811 75.511 60.7572 75.6802 60.7572C75.7203 60.7572 75.7604 60.7594 75.8027 60.7662C76.0209 60.7976 76.1946 60.9007 76.3171 61.0734C76.4396 61.2416 76.4863 61.4389 76.4551 61.6542L76.1256 63.9662C76.0254 64.6659 75.7448 65.2018 75.2906 65.5629C74.9365 65.8432 74.4956 65.9867 73.9768 65.9867Z" fill="url(#paint13_linear_17875_19546)"/>
<path d="M80.5051 67.007C80.4561 67.007 80.4071 67.0025 80.3559 66.9935C80.1399 66.9554 79.9684 66.8455 79.8504 66.6706C79.7346 66.4979 79.6946 66.3006 79.7324 66.0853L80.1421 63.7688C80.1733 63.5939 80.1778 63.4302 80.1599 63.2867C80.1444 63.1656 80.0954 63.0647 80.013 62.9772C79.9328 62.892 79.7903 62.8315 79.5944 62.7956C79.5142 62.7821 79.4385 62.7732 79.3672 62.7732C79.2626 62.7732 79.1646 62.7889 79.0778 62.8202C78.933 62.8741 78.8195 62.9548 78.7304 63.0669C78.6391 63.1813 78.579 63.3181 78.55 63.4818L78.1425 65.8005C78.1047 66.0158 78 66.1885 77.8308 66.3096C77.7016 66.4037 77.5547 66.4508 77.3966 66.4508C77.3476 66.4508 77.2986 66.4464 77.2474 66.4374C77.0336 66.3993 76.8599 66.2871 76.7441 66.1145C76.6284 65.9418 76.5883 65.7445 76.6261 65.5292L77.2852 61.7909C77.3231 61.5757 77.4278 61.4052 77.597 61.2819C77.7261 61.1877 77.8731 61.1406 78.0312 61.1406C78.0802 61.1406 78.1292 61.1451 78.1804 61.1541C78.3941 61.1922 78.5678 61.3043 78.6836 61.477C78.7348 61.5532 78.7705 61.634 78.7927 61.7192C78.8573 61.6788 78.9241 61.6429 78.9954 61.6071C79.1691 61.5196 79.3606 61.4568 79.5676 61.4209C79.6656 61.403 79.7703 61.394 79.8727 61.394C79.9885 61.394 80.1065 61.4052 80.2267 61.4277C80.7189 61.5151 81.0863 61.6968 81.3178 61.9614C81.545 62.2237 81.6786 62.5467 81.7164 62.9189C81.7498 63.2643 81.732 63.641 81.663 64.0402L81.2533 66.3589C81.2154 66.5742 81.1108 66.7468 80.9415 66.8679C80.8124 66.9621 80.6654 67.0092 80.5073 67.0092L80.5051 67.007Z" fill="url(#paint14_linear_17875_19546)"/>
<defs>
<radialGradient id="paint0_radial_17875_19546" cx="0" cy="0" r="1" gradientUnits="userSpaceOnUse" gradientTransform="translate(32.5844 27.762) scale(11.3518 11.4322)">
<stop stop-color="#F9A968"/>
<stop offset="0.34" stop-color="#F79B52"/>
<stop offset="1" stop-color="#F37C20"/>
</radialGradient>
<radialGradient id="paint1_radial_17875_19546" cx="0" cy="0" r="1" gradientUnits="userSpaceOnUse" gradientTransform="translate(41.9389 20.5359) scale(9.68848 9.75708)">
<stop stop-color="#F9A968"/>
<stop offset="0.34" stop-color="#F79B52"/>
<stop offset="1" stop-color="#F37C20"/>
</radialGradient>
<linearGradient id="paint2_linear_17875_19546" x1="49.3318" y1="61.7388" x2="44.7527" y2="31.0585" gradientUnits="userSpaceOnUse">
<stop stop-color="#FAAF41"/>
<stop offset="1" stop-color="#F05A2B"/>
</linearGradient>
<linearGradient id="paint3_linear_17875_19546" x1="11.2788" y1="63.982" x2="17.3689" y2="63.982" gradientUnits="userSpaceOnUse">
<stop stop-color="#7C1D14"/>
<stop offset="0.1" stop-color="#AC1E1B"/>
<stop offset="0.18" stop-color="#CF1F20"/>
<stop offset="0.25" stop-color="#E41F22"/>
<stop offset="0.3" stop-color="#EC2024"/>
<stop offset="0.32" stop-color="#ED312E"/>
<stop offset="0.36" stop-color="#EF4F40"/>
<stop offset="0.41" stop-color="#F0654D"/>
<stop offset="0.45" stop-color="#F17255"/>
<stop offset="0.49" stop-color="#F27758"/>
<stop offset="0.54" stop-color="#F17255"/>
<stop offset="0.58" stop-color="#F0644D"/>
<stop offset="0.63" stop-color="#EF4E3F"/>
<stop offset="0.68" stop-color="#ED2F2D"/>
<stop offset="0.7" stop-color="#EC2024"/>
<stop offset="0.74" stop-color="#E21F22"/>
<stop offset="0.82" stop-color="#C91F1E"/>
<stop offset="0.91" stop-color="#A01E18"/>
<stop offset="1" stop-color="#711D12"/>
</linearGradient>
<linearGradient id="paint4_linear_17875_19546" x1="17.4823" y1="63.6301" x2="22.5436" y2="63.6301" gradientUnits="userSpaceOnUse">
<stop stop-color="#7C1D14"/>
<stop offset="0.1" stop-color="#AC1E1B"/>
<stop offset="0.18" stop-color="#CF1F20"/>
<stop offset="0.25" stop-color="#E41F22"/>
<stop offset="0.3" stop-color="#EC2024"/>
<stop offset="0.32" stop-color="#ED312E"/>
<stop offset="0.36" stop-color="#EF4F40"/>
<stop offset="0.41" stop-color="#F0654D"/>
<stop offset="0.45" stop-color="#F17255"/>
<stop offset="0.49" stop-color="#F27758"/>
<stop offset="0.54" stop-color="#F17255"/>
<stop offset="0.58" stop-color="#F0644D"/>
<stop offset="0.63" stop-color="#EF4E3F"/>
<stop offset="0.68" stop-color="#ED2F2D"/>
<stop offset="0.7" stop-color="#EC2024"/>
<stop offset="0.74" stop-color="#E21F22"/>
<stop offset="0.82" stop-color="#C91F1E"/>
<stop offset="0.91" stop-color="#A01E18"/>
<stop offset="1" stop-color="#711D12"/>
</linearGradient>
<linearGradient id="paint5_linear_17875_19546" x1="22.8711" y1="62.7553" x2="28.3222" y2="62.7553" gradientUnits="userSpaceOnUse">
<stop stop-color="#7C1D14"/>
<stop offset="0.1" stop-color="#AC1E1B"/>
<stop offset="0.18" stop-color="#CF1F20"/>
<stop offset="0.25" stop-color="#E41F22"/>
<stop offset="0.3" stop-color="#EC2024"/>
<stop offset="0.32" stop-color="#ED312E"/>
<stop offset="0.36" stop-color="#EF4F40"/>
<stop offset="0.41" stop-color="#F0654D"/>
<stop offset="0.45" stop-color="#F17255"/>
<stop offset="0.49" stop-color="#F27758"/>
<stop offset="0.54" stop-color="#F17255"/>
<stop offset="0.58" stop-color="#F0644D"/>
<stop offset="0.63" stop-color="#EF4E3F"/>
<stop offset="0.68" stop-color="#ED2F2D"/>
<stop offset="0.7" stop-color="#EC2024"/>
<stop offset="0.74" stop-color="#E21F22"/>
<stop offset="0.82" stop-color="#C91F1E"/>
<stop offset="0.91" stop-color="#A01E18"/>
<stop offset="1" stop-color="#711D12"/>
</linearGradient>
<linearGradient id="paint6_linear_17875_19546" x1="28.667" y1="62.2214" x2="33.7083" y2="62.2214" gradientUnits="userSpaceOnUse">
<stop stop-color="#7C1D14"/>
<stop offset="0.1" stop-color="#AC1E1B"/>
<stop offset="0.18" stop-color="#CF1F20"/>
<stop offset="0.25" stop-color="#E41F22"/>
<stop offset="0.3" stop-color="#EC2024"/>
<stop offset="0.32" stop-color="#ED312E"/>
<stop offset="0.36" stop-color="#EF4F40"/>
<stop offset="0.41" stop-color="#F0654D"/>
<stop offset="0.45" stop-color="#F17255"/>
<stop offset="0.49" stop-color="#F27758"/>
<stop offset="0.54" stop-color="#F17255"/>
<stop offset="0.58" stop-color="#F0644D"/>
<stop offset="0.63" stop-color="#EF4E3F"/>
<stop offset="0.68" stop-color="#ED2F2D"/>
<stop offset="0.7" stop-color="#EC2024"/>
<stop offset="0.74" stop-color="#E21F22"/>
<stop offset="0.82" stop-color="#C91F1E"/>
<stop offset="0.91" stop-color="#A01E18"/>
<stop offset="1" stop-color="#711D12"/>
</linearGradient>
<linearGradient id="paint7_linear_17875_19546" x1="36.7524" y1="61.6496" x2="41.4864" y2="61.6496" gradientUnits="userSpaceOnUse">
<stop stop-color="#7C1D14"/>
<stop offset="0.1" stop-color="#AC1E1B"/>
<stop offset="0.18" stop-color="#CF1F20"/>
<stop offset="0.25" stop-color="#E41F22"/>
<stop offset="0.3" stop-color="#EC2024"/>
<stop offset="0.32" stop-color="#ED312E"/>
<stop offset="0.36" stop-color="#EF4F40"/>
<stop offset="0.41" stop-color="#F0654D"/>
<stop offset="0.45" stop-color="#F17255"/>
<stop offset="0.49" stop-color="#F27758"/>
<stop offset="0.54" stop-color="#F17255"/>
<stop offset="0.58" stop-color="#F0644D"/>
<stop offset="0.63" stop-color="#EF4E3F"/>
<stop offset="0.68" stop-color="#ED2F2D"/>
<stop offset="0.7" stop-color="#EC2024"/>
<stop offset="0.74" stop-color="#E21F22"/>
<stop offset="0.82" stop-color="#C91F1E"/>
<stop offset="0.91" stop-color="#A01E18"/>
<stop offset="1" stop-color="#711D12"/>
</linearGradient>
<linearGradient id="paint8_linear_17875_19546" x1="42.2168" y1="62.3248" x2="47.4608" y2="62.3248" gradientUnits="userSpaceOnUse">
<stop stop-color="#7C1D14"/>
<stop offset="0.1" stop-color="#AC1E1B"/>
<stop offset="0.18" stop-color="#CF1F20"/>
<stop offset="0.25" stop-color="#E41F22"/>
<stop offset="0.3" stop-color="#EC2024"/>
<stop offset="0.32" stop-color="#ED312E"/>
<stop offset="0.36" stop-color="#EF4F40"/>
<stop offset="0.41" stop-color="#F0654D"/>
<stop offset="0.45" stop-color="#F17255"/>
<stop offset="0.49" stop-color="#F27758"/>
<stop offset="0.54" stop-color="#F17255"/>
<stop offset="0.58" stop-color="#F0644D"/>
<stop offset="0.63" stop-color="#EF4E3F"/>
<stop offset="0.68" stop-color="#ED2F2D"/>
<stop offset="0.7" stop-color="#EC2024"/>
<stop offset="0.74" stop-color="#E21F22"/>
<stop offset="0.82" stop-color="#C91F1E"/>
<stop offset="0.91" stop-color="#A01E18"/>
<stop offset="1" stop-color="#711D12"/>
</linearGradient>
<linearGradient id="paint9_linear_17875_19546" x1="50.1371" y1="60.9121" x2="53.7667" y2="60.9121" gradientUnits="userSpaceOnUse">
<stop stop-color="#7C1D14"/>
<stop offset="0.1" stop-color="#AC1E1B"/>
<stop offset="0.18" stop-color="#CF1F20"/>
<stop offset="0.25" stop-color="#E41F22"/>
<stop offset="0.3" stop-color="#EC2024"/>
<stop offset="0.32" stop-color="#ED312E"/>
<stop offset="0.36" stop-color="#EF4F40"/>
<stop offset="0.41" stop-color="#F0654D"/>
<stop offset="0.45" stop-color="#F17255"/>
<stop offset="0.49" stop-color="#F27758"/>
<stop offset="0.54" stop-color="#F17255"/>
<stop offset="0.58" stop-color="#F0644D"/>
<stop offset="0.63" stop-color="#EF4E3F"/>
<stop offset="0.68" stop-color="#ED2F2D"/>
<stop offset="0.7" stop-color="#EC2024"/>
<stop offset="0.74" stop-color="#E21F22"/>
<stop offset="0.82" stop-color="#C91F1E"/>
<stop offset="0.91" stop-color="#A01E18"/>
<stop offset="1" stop-color="#711D12"/>
</linearGradient>
<linearGradient id="paint10_linear_17875_19546" x1="54.2281" y1="60.6405" x2="58.9398" y2="60.6405" gradientUnits="userSpaceOnUse">
<stop stop-color="#7C1D14"/>
<stop offset="0.1" stop-color="#AC1E1B"/>
<stop offset="0.18" stop-color="#CF1F20"/>
<stop offset="0.25" stop-color="#E41F22"/>
<stop offset="0.3" stop-color="#EC2024"/>
<stop offset="0.32" stop-color="#ED312E"/>
<stop offset="0.36" stop-color="#EF4F40"/>
<stop offset="0.41" stop-color="#F0654D"/>
<stop offset="0.45" stop-color="#F17255"/>
<stop offset="0.49" stop-color="#F27758"/>
<stop offset="0.54" stop-color="#F17255"/>
<stop offset="0.58" stop-color="#F0644D"/>
<stop offset="0.63" stop-color="#EF4E3F"/>
<stop offset="0.68" stop-color="#ED2F2D"/>
<stop offset="0.7" stop-color="#EC2024"/>
<stop offset="0.74" stop-color="#E21F22"/>
<stop offset="0.82" stop-color="#C91F1E"/>
<stop offset="0.91" stop-color="#A01E18"/>
<stop offset="1" stop-color="#711D12"/>
</linearGradient>
<linearGradient id="paint11_linear_17875_19546" x1="59.4406" y1="61.9099" x2="64.5576" y2="61.9099" gradientUnits="userSpaceOnUse">
<stop stop-color="#7C1D14"/>
<stop offset="0.1" stop-color="#AC1E1B"/>
<stop offset="0.18" stop-color="#CF1F20"/>
<stop offset="0.25" stop-color="#E41F22"/>
<stop offset="0.3" stop-color="#EC2024"/>
<stop offset="0.32" stop-color="#ED312E"/>
<stop offset="0.36" stop-color="#EF4F40"/>
<stop offset="0.41" stop-color="#F0654D"/>
<stop offset="0.45" stop-color="#F17255"/>
<stop offset="0.49" stop-color="#F27758"/>
<stop offset="0.54" stop-color="#F17255"/>
<stop offset="0.58" stop-color="#F0644D"/>
<stop offset="0.63" stop-color="#EF4E3F"/>
<stop offset="0.68" stop-color="#ED2F2D"/>
<stop offset="0.7" stop-color="#EC2024"/>
<stop offset="0.74" stop-color="#E21F22"/>
<stop offset="0.82" stop-color="#C91F1E"/>
<stop offset="0.91" stop-color="#A01E18"/>
<stop offset="1" stop-color="#711D12"/>
</linearGradient>
<linearGradient id="paint12_linear_17875_19546" x1="67.5214" y1="61.7055" x2="71.8412" y2="61.7055" gradientUnits="userSpaceOnUse">
<stop stop-color="#7C1D14"/>
<stop offset="0.1" stop-color="#AC1E1B"/>
<stop offset="0.18" stop-color="#CF1F20"/>
<stop offset="0.25" stop-color="#E41F22"/>
<stop offset="0.3" stop-color="#EC2024"/>
<stop offset="0.32" stop-color="#ED312E"/>
<stop offset="0.36" stop-color="#EF4F40"/>
<stop offset="0.41" stop-color="#F0654D"/>
<stop offset="0.45" stop-color="#F17255"/>
<stop offset="0.49" stop-color="#F27758"/>
<stop offset="0.54" stop-color="#F17255"/>
<stop offset="0.58" stop-color="#F0644D"/>
<stop offset="0.63" stop-color="#EF4E3F"/>
<stop offset="0.68" stop-color="#ED2F2D"/>
<stop offset="0.7" stop-color="#EC2024"/>
<stop offset="0.74" stop-color="#E21F22"/>
<stop offset="0.82" stop-color="#C91F1E"/>
<stop offset="0.91" stop-color="#A01E18"/>
<stop offset="1" stop-color="#711D12"/>
</linearGradient>
<linearGradient id="paint13_linear_17875_19546" x1="71.5207" y1="63.1522" x2="76.4663" y2="63.1522" gradientUnits="userSpaceOnUse">
<stop stop-color="#7C1D14"/>
<stop offset="0.1" stop-color="#AC1E1B"/>
<stop offset="0.18" stop-color="#CF1F20"/>
<stop offset="0.25" stop-color="#E41F22"/>
<stop offset="0.3" stop-color="#EC2024"/>
<stop offset="0.32" stop-color="#ED312E"/>
<stop offset="0.36" stop-color="#EF4F40"/>
<stop offset="0.41" stop-color="#F0654D"/>
<stop offset="0.45" stop-color="#F17255"/>
<stop offset="0.49" stop-color="#F27758"/>
<stop offset="0.54" stop-color="#F17255"/>
<stop offset="0.58" stop-color="#F0644D"/>
<stop offset="0.63" stop-color="#EF4E3F"/>
<stop offset="0.68" stop-color="#ED2F2D"/>
<stop offset="0.7" stop-color="#EC2024"/>
<stop offset="0.74" stop-color="#E21F22"/>
<stop offset="0.82" stop-color="#C91F1E"/>
<stop offset="0.91" stop-color="#A01E18"/>
<stop offset="1" stop-color="#711D12"/>
</linearGradient>
<linearGradient id="paint14_linear_17875_19546" x1="76.6105" y1="64.0738" x2="81.732" y2="64.0738" gradientUnits="userSpaceOnUse">
<stop stop-color="#7C1D14"/>
<stop offset="0.1" stop-color="#AC1E1B"/>
<stop offset="0.18" stop-color="#CF1F20"/>
<stop offset="0.25" stop-color="#E41F22"/>
<stop offset="0.3" stop-color="#EC2024"/>
<stop offset="0.32" stop-color="#ED312E"/>
<stop offset="0.36" stop-color="#EF4F40"/>
<stop offset="0.41" stop-color="#F0654D"/>
<stop offset="0.45" stop-color="#F17255"/>
<stop offset="0.49" stop-color="#F27758"/>
<stop offset="0.54" stop-color="#F17255"/>
<stop offset="0.58" stop-color="#F0644D"/>
<stop offset="0.63" stop-color="#EF4E3F"/>
<stop offset="0.68" stop-color="#ED2F2D"/>
<stop offset="0.7" stop-color="#EC2024"/>
<stop offset="0.74" stop-color="#E21F22"/>
<stop offset="0.82" stop-color="#C91F1E"/>
<stop offset="0.91" stop-color="#A01E18"/>
<stop offset="1" stop-color="#711D12"/>
</linearGradient>
</defs>
</svg>
