<svg width="74" height="72" viewBox="0 0 74 72" fill="none" xmlns="http://www.w3.org/2000/svg">
<g clip-path="url(#clip0_18184_3525)">
<path d="M51.2154 37.3995C51.3761 38.5875 51.3868 39.7998 51.2744 41.0039C51.2181 41.6235 51.1565 42.227 51.0467 42.8062C50.9369 43.3827 50.7789 43.9376 50.5271 44.4117C50.4039 44.6488 50.2539 44.8643 50.0825 45.0529C49.9968 45.1445 49.903 45.2334 49.8039 45.3142C49.7022 45.395 49.5977 45.4704 49.4852 45.5405C49.0353 45.8206 48.5023 46.0038 47.9398 46.1197C47.3774 46.2382 46.7854 46.2921 46.1882 46.3163C46.0382 46.3217 45.8882 46.3271 45.7355 46.3298L45.2775 46.3352H44.8195L44.3615 46.3271C43.1429 46.3002 41.9243 46.1978 40.7056 46.0442C39.5003 45.8934 38.2951 45.6913 37.0711 45.5081C37.0363 45.4974 37.0015 45.4893 36.9666 45.4866C36.8943 45.4785 36.8247 45.4704 36.7524 45.4623C36.2274 45.3842 35.6971 45.3142 35.1668 45.2522C34.765 45.2064 34.3606 45.1687 33.9562 45.1391C33.9776 45.0502 34.0017 44.9586 34.0258 44.8697C34.1062 44.5734 34.1999 44.2824 34.3017 43.9942C34.5106 43.4204 34.765 42.8627 35.073 42.3428C35.6864 41.3003 36.506 40.3897 37.5157 39.727C37.5773 39.6839 37.6416 39.6435 37.7059 39.6058C37.7701 39.5681 37.8344 39.525 37.9014 39.49L38.0996 39.3768L38.3031 39.2718C38.3701 39.234 38.4397 39.2044 38.5094 39.1721C38.579 39.1398 38.6486 39.1074 38.7183 39.0778L38.9299 38.9862L39.1441 38.9027C39.4334 38.7976 39.7253 38.698 40.028 38.6198C40.178 38.5767 40.3306 38.5444 40.4833 38.5067C40.5583 38.4905 40.636 38.4744 40.7136 38.4609C40.7913 38.4447 40.8663 38.4286 40.944 38.4178C41.5627 38.3073 42.1974 38.2454 42.8349 38.2184C43.475 38.1915 44.1205 38.205 44.7687 38.2346C44.8169 38.2346 44.8597 38.205 44.8731 38.1565C44.8865 38.0999 44.8544 38.046 44.7981 38.0326C43.5259 37.7093 42.1948 37.5477 40.8476 37.6285C40.7618 37.6312 40.6788 37.6392 40.5958 37.6473C40.5128 37.6554 40.4271 37.6608 40.344 37.6716C40.1753 37.6931 40.0066 37.7093 39.8405 37.7416C39.503 37.7928 39.1709 37.8682 38.8388 37.9598C38.5067 38.0487 38.1799 38.1646 37.8585 38.2939C37.5371 38.4232 37.2238 38.5767 36.9211 38.7518C36.5327 38.97 36.1631 39.2233 35.8149 39.5088C34.7329 38.8111 33.5625 38.1861 32.309 37.6366C33.0054 37.2917 33.6749 36.8796 34.2936 36.3866C34.3901 36.3085 34.4838 36.2249 34.5776 36.1441C34.6713 36.0633 34.7677 35.9852 34.8561 35.8936L35.1239 35.6323C35.1695 35.5892 35.2096 35.5434 35.2525 35.4949L35.3784 35.3548C35.5498 35.1743 35.6998 34.9696 35.8551 34.7756C35.9274 34.6733 35.9971 34.5682 36.0694 34.4658C36.1042 34.4146 36.1417 34.3635 36.1738 34.3096L36.2703 34.1479C36.4042 33.9351 36.5113 33.7062 36.6238 33.4826C36.6747 33.3667 36.7229 33.2509 36.7711 33.135C36.7979 33.0785 36.8166 33.0192 36.8381 32.9599L36.9024 32.7821C36.9452 32.6636 36.9773 32.5424 37.0122 32.4239L37.0631 32.2434L37.1059 32.0602L37.1461 31.877C37.1595 31.815 37.1675 31.7558 37.1782 31.6938L37.2104 31.5106C37.2211 31.4487 37.2264 31.3867 37.2345 31.3274C37.2961 30.8344 37.3014 30.3388 37.2639 29.8539C37.2425 29.6087 37.2104 29.3663 37.1622 29.1265C37.1514 29.0672 37.1381 29.008 37.1247 28.9487C37.1113 28.8894 37.0979 28.8302 37.0791 28.7709C37.047 28.6524 37.0148 28.5392 36.9666 28.4153C36.9399 28.3426 36.8675 28.2914 36.7872 28.2914C36.6827 28.2914 36.5997 28.3803 36.6024 28.4854V28.4988C36.6024 28.6039 36.6077 28.7224 36.6051 28.8329C36.6051 28.946 36.5997 29.0592 36.5943 29.1723C36.5917 29.2855 36.581 29.3986 36.5729 29.509C36.5702 29.5656 36.5622 29.6222 36.5569 29.6761C36.5515 29.7326 36.5488 29.7865 36.5408 29.8431C36.4899 30.2876 36.4095 30.7267 36.3024 31.1523C36.2783 31.2601 36.2462 31.3651 36.214 31.4702C36.198 31.5214 36.1846 31.5753 36.1685 31.6265L36.1149 31.7827L36.064 31.9389L36.0051 32.0898C35.9649 32.1922 35.9301 32.2918 35.8819 32.3915L35.8176 32.5397C35.7962 32.5882 35.7748 32.6394 35.7507 32.6879C35.7025 32.7848 35.6542 32.8791 35.606 32.9761C35.5016 33.1647 35.3998 33.3532 35.2793 33.531L35.1936 33.6684C35.1668 33.7142 35.132 33.7546 35.1025 33.8004L34.915 34.0617C34.7784 34.2288 34.6499 34.4012 34.4999 34.5547L34.3901 34.6733C34.3526 34.7137 34.3178 34.7541 34.2776 34.7891L34.0446 35.0127C33.9696 35.0908 33.8839 35.1555 33.8008 35.2282C33.7178 35.2982 33.6375 35.3683 33.5517 35.4356C32.8661 35.969 32.0947 36.4027 31.2832 36.7503L30.9779 36.8796C30.927 36.9038 30.8761 36.92 30.8252 36.9388L30.6698 36.9954L30.3618 37.1086L30.2842 37.1355C30.2842 37.1355 30.2574 37.1463 30.252 37.1463L30.2065 37.1597L30.0324 37.2136C29.5717 37.3618 29.1271 37.5261 28.6825 37.7012C27.7987 38.0541 26.9336 38.4555 26.0899 38.9135C25.2489 39.3714 24.432 39.8833 23.6606 40.4705C23.2749 40.7615 22.9026 41.0767 22.5437 41.4107C22.4554 41.4969 22.3643 41.5777 22.2786 41.6639L22.0188 41.9279C21.9331 42.0168 21.8527 42.1111 21.7697 42.2027C21.7295 42.2485 21.6867 42.2943 21.6465 42.3428L21.5287 42.4856C21.368 42.6742 21.2206 42.8762 21.0707 43.0755C20.9367 43.2614 20.8055 43.4446 20.6662 43.6251C20.393 43.9888 20.1145 44.3471 19.8225 44.6892C19.5306 45.034 19.2306 45.3708 18.9199 45.694C18.6066 46.0146 18.2852 46.3217 17.9504 46.61C17.2808 47.1838 16.563 47.6902 15.797 48.0162C15.7247 48.0458 15.6524 48.0754 15.58 48.1024C15.5586 48.0404 15.5399 47.9758 15.5238 47.9084C15.4408 47.6175 15.4006 47.3023 15.406 46.9763C15.4113 46.6504 15.4568 46.3163 15.5372 45.9823C15.5747 45.8153 15.6229 45.6482 15.6765 45.4812C15.7033 45.3977 15.7327 45.3169 15.7622 45.2334C15.7916 45.1526 15.8265 45.0663 15.8586 44.9936L15.864 44.9828C15.8934 44.9128 15.8773 44.8293 15.8184 44.7781C15.7434 44.7134 15.6336 44.7215 15.5693 44.797C15.5345 44.8374 15.5051 44.8724 15.4756 44.9101C15.4461 44.9478 15.4167 44.9855 15.3872 45.0232C15.331 45.0987 15.2747 45.1795 15.2238 45.2603C15.1194 45.4219 15.0256 45.589 14.9399 45.7614C14.8542 45.9338 14.7792 46.117 14.7149 46.3028C14.6507 46.4887 14.5998 46.6827 14.5596 46.882C14.5194 47.0814 14.498 47.2834 14.4926 47.4909C14.4873 47.5959 14.4926 47.6983 14.4926 47.8034C14.5007 47.9084 14.5087 48.0135 14.5275 48.1185C14.5409 48.1994 14.5569 48.2775 14.5783 48.3556C14.2061 48.4014 13.8338 48.3933 13.4749 48.3206L13.3356 48.2856C13.2901 48.2748 13.2419 48.264 13.1963 48.2478L13.057 48.202C13.0329 48.194 13.0115 48.1886 12.9874 48.1778L12.9205 48.1509L12.7865 48.0943L12.7517 48.0808L12.7196 48.0647L12.6526 48.0323L12.583 47.9973C12.583 47.9812 12.583 47.965 12.583 47.9488V47.9219C12.5669 47.6148 12.5562 47.3211 12.5964 47.0194C12.6285 46.7204 12.7089 46.4106 12.8374 46.1143C12.9633 45.8153 13.132 45.5216 13.3302 45.2415C13.4293 45.1014 13.5365 44.964 13.6463 44.832C13.7025 44.7646 13.7615 44.7 13.8204 44.6353C13.8793 44.5734 13.9409 44.506 13.9998 44.4494L14.0079 44.4414C14.0614 44.3875 14.0775 44.304 14.0427 44.2339C13.9971 44.145 13.8927 44.11 13.8043 44.1558C13.7561 44.1801 13.7159 44.2016 13.6731 44.2258C13.6302 44.2501 13.59 44.2743 13.5499 44.2986C13.4668 44.3471 13.3892 44.401 13.3115 44.4548C13.1561 44.5653 13.0062 44.6838 12.8615 44.8131C12.7169 44.9424 12.5803 45.0825 12.4517 45.228C12.3232 45.3761 12.2027 45.5351 12.0928 45.7048C11.9804 45.8718 11.8866 46.055 11.8009 46.2436C11.7581 46.3379 11.7206 46.4375 11.6857 46.5345C11.6536 46.6342 11.6215 46.7366 11.6 46.8389C11.5813 46.9198 11.5679 47.0006 11.5572 47.0814C11.525 47.0302 11.4956 46.9817 11.4715 46.9251C11.4527 46.8847 11.4313 46.847 11.4152 46.8039L11.3697 46.6773L11.3456 46.6153L11.3268 46.548L11.2893 46.416C11.2786 46.3702 11.2733 46.3244 11.2652 46.2786C11.2572 46.2328 11.2465 46.187 11.2438 46.1385C11.1983 45.7614 11.2224 45.36 11.2974 44.9559C11.4554 44.1423 11.8063 43.3369 12.2482 42.5853C12.6928 41.8337 13.2365 41.1306 13.8552 40.5271C13.8632 40.519 13.8766 40.5056 13.8847 40.4975L13.898 40.484L13.9543 40.4221C13.9757 40.4005 13.9971 40.3763 14.0213 40.352C14.0668 40.3035 14.1123 40.255 14.1605 40.2092C14.2087 40.1607 14.2543 40.1149 14.3052 40.0665L14.4551 39.9264C14.656 39.7405 14.8623 39.5546 15.0738 39.3768C15.1783 39.2852 15.2881 39.199 15.3952 39.1128C15.5024 39.0239 15.6095 38.9377 15.722 38.8515L16.0541 38.5956L16.3916 38.3477C17.2969 37.6877 18.245 37.0843 19.2253 36.5294C19.4663 36.3866 19.7181 36.2546 19.9645 36.1199L20.3368 35.9178C20.4627 35.8532 20.5886 35.7912 20.7118 35.7266L21.0867 35.538C21.2126 35.4734 21.3358 35.4114 21.4671 35.3494C21.7295 35.2228 21.992 35.0908 22.2518 34.9561C22.7714 34.684 23.2803 34.3985 23.7785 34.1022C24.0275 33.954 24.2766 33.8031 24.523 33.6523C24.7668 33.5014 25.0132 33.3479 25.2596 33.1916C25.7497 32.8791 26.2372 32.5532 26.7139 32.2003C27.188 31.8474 27.6514 31.4675 28.0852 31.0446C28.5191 30.6189 28.9236 30.1556 29.261 29.6222C29.6065 29.0753 29.8315 28.48 29.9788 27.8765C30.0511 27.5748 30.0994 27.2704 30.1342 26.966C30.169 26.6616 30.1797 26.3572 30.1824 26.0528C30.1824 25.4439 30.1127 24.8432 29.9895 24.2532C29.861 23.666 29.6762 23.0922 29.4217 22.548C29.17 22.0038 28.8459 21.4947 28.4441 21.0583C28.4013 21.0125 28.329 20.999 28.2727 21.0313C28.2058 21.069 28.1843 21.1552 28.2218 21.2226C28.3611 21.4677 28.4843 21.721 28.5941 21.9769C28.7039 22.2328 28.7977 22.4941 28.8754 22.7608C29.0334 23.2915 29.1405 23.8357 29.1994 24.3825C29.261 24.9294 29.2717 25.479 29.2369 26.0231C29.2182 26.2952 29.1887 26.5646 29.1459 26.8286C29.1003 27.0926 29.0414 27.3539 28.9718 27.6098C28.8995 27.8658 28.8111 28.1109 28.7093 28.3507C28.6075 28.5904 28.487 28.8167 28.3477 29.0268C28.329 29.0538 28.3156 29.0807 28.2968 29.1077L28.2379 29.1885L28.1227 29.3474C28.0852 29.4013 28.0397 29.4498 27.9995 29.5037C27.9567 29.5548 27.9192 29.6087 27.8737 29.6572L27.7397 29.8054C27.6969 29.8566 27.6514 29.9051 27.6031 29.9535C27.5094 30.0478 27.4183 30.1475 27.3166 30.2391C26.9255 30.6135 26.497 30.9584 26.047 31.2816C25.5971 31.6076 25.1283 31.912 24.6489 32.211C24.4079 32.3592 24.1668 32.5074 23.9231 32.6528C23.6794 32.801 23.4356 32.9438 23.1919 33.0839C22.7018 33.3667 22.209 33.6361 21.7081 33.8893C21.459 34.0159 21.2073 34.1372 20.9528 34.2557C20.8242 34.3123 20.693 34.3796 20.5618 34.4443L20.1681 34.6382C20.0368 34.7029 19.9056 34.7649 19.777 34.8322L19.3913 35.0342C19.1342 35.1716 18.8744 35.3036 18.6226 35.4491C17.9906 35.7993 17.3692 36.1684 16.7585 36.559C16.7532 36.559 16.7478 36.559 16.7425 36.559C16.6085 36.5832 14.4551 36.9739 12.2027 37.8278C12.5053 37.4749 12.7919 37.1059 13.057 36.7099C13.2044 36.4916 13.341 36.26 13.4668 36.0175C13.59 35.7751 13.7025 35.5218 13.7856 35.2417L13.8016 35.0423C13.8123 34.8969 13.7186 34.7622 13.574 34.7271L12.4437 34.4524C12.3955 34.4416 12.3446 34.4524 12.3098 34.4928C12.2562 34.5493 12.2562 34.6382 12.3125 34.6948L12.8562 35.2228C12.8053 35.3521 12.7464 35.4814 12.6821 35.608C12.5776 35.8128 12.4571 36.0148 12.3232 36.2115C12.0607 36.6075 11.7581 36.9873 11.4366 37.3564C11.1152 37.7228 10.7778 38.0784 10.4269 38.4232C10.2903 38.5579 10.151 38.6899 10.0091 38.8219C9.67162 39.0078 9.34754 39.2071 9.04489 39.4199C7.60394 40.4301 5.85498 40.9608 4.35778 40.88C3.95335 40.546 3.58642 39.9533 3.73373 38.9189C3.80337 38.4286 3.52482 38.3693 2.21243 38.5229C2.06512 38.539 1.94995 38.5309 1.85889 38.5067C2.17493 38.0379 2.53115 37.421 2.8472 36.6667C3.56231 34.9669 4.2078 32.211 3.22216 28.7278C3.21145 28.6901 3.19806 28.6551 3.18199 28.6227C3.17395 28.6039 2.2526 26.7478 2.07048 24.1078C1.82942 20.5761 2.97843 17.4377 5.48804 14.7761C5.4934 14.768 5.50144 14.7599 5.50947 14.7545C5.51751 14.7437 6.40939 13.7147 8.06997 12.8149C10.2823 11.6188 12.7437 11.2093 15.3872 11.5946C15.4488 11.6027 15.5104 11.6027 15.572 11.5946C15.6309 11.8613 15.6952 12.128 15.7729 12.3947C15.7809 12.4297 15.8104 12.4566 15.8452 12.4647C15.8961 12.4755 15.9497 12.4432 15.9604 12.3893C16.0702 11.8882 16.1291 11.3871 16.1746 10.8861C16.2175 10.385 16.2362 9.88394 16.2389 9.38288C16.2389 8.88181 16.2255 8.38344 16.1961 7.88237C16.172 7.38131 16.1345 6.88293 16.0916 6.38456C16.0032 5.38512 15.8747 4.38838 15.6872 3.39163C15.5934 2.89326 15.481 2.39758 15.347 1.9046C15.2854 1.67562 15.2158 1.44394 15.1408 1.21765L15.2667 1.22573L15.4515 1.24459C15.5747 1.25267 15.6979 1.27153 15.8211 1.29039C16.3139 1.36043 16.8041 1.48165 17.2835 1.62712C18.2423 1.93423 19.1637 2.37334 20.0154 2.93098C20.8671 3.48861 21.6626 4.14323 22.3938 4.87328L22.9294 5.43361L23.4383 6.02088L23.5669 6.16636C23.607 6.21754 23.6472 6.26872 23.6874 6.31991L23.9284 6.62701L24.1695 6.93412C24.2097 6.9853 24.2472 7.03918 24.2847 7.09036L24.3972 7.24931L24.8498 7.89045L25.2703 8.55585L25.4819 8.8872L25.6801 9.22933L26.0738 9.91358C26.1086 9.97015 26.1381 10.0294 26.1675 10.0887L26.2586 10.2638L26.4407 10.6167L26.6229 10.9669L26.7139 11.142C26.7434 11.2013 26.7702 11.2605 26.7996 11.3225L27.1371 12.0418L27.3058 12.4001C27.3621 12.5186 27.4103 12.6452 27.4639 12.7637C27.887 13.7362 28.2915 14.7195 28.6879 15.7136C28.7843 15.9614 28.8807 16.2119 28.9825 16.4598C29.0334 16.5837 29.0816 16.7076 29.1325 16.8315C29.1566 16.8935 29.1834 16.9554 29.2075 17.0174L29.2771 17.206C29.3735 17.4565 29.4699 17.707 29.569 17.9576L29.7217 18.332C29.7753 18.456 29.8262 18.5826 29.8824 18.7065V18.7119C29.9146 18.7819 29.9895 18.825 30.0672 18.8142C30.1636 18.8008 30.2306 18.7119 30.2199 18.6149C30.2038 18.4802 30.1797 18.3455 30.161 18.2108L30.094 17.8067C30.0485 17.5373 30.0003 17.2706 29.9494 17.0012C29.9012 16.7319 29.8342 16.4705 29.7699 16.2038C29.7056 15.9398 29.6387 15.6758 29.5717 15.4118C29.5396 15.296 29.5101 15.1802 29.4753 15.067C30.2895 15.498 31.093 15.956 31.8938 16.4247C32.9598 17.0497 34.0151 17.6936 35.0543 18.3617C37.1273 19.7005 39.1361 21.1391 41.027 22.715C41.2654 22.909 41.4957 23.111 41.7314 23.3104C41.9671 23.5097 42.1948 23.7171 42.4251 23.9192C42.6554 24.1212 42.8777 24.3341 43.1054 24.5415C43.2179 24.6465 43.3304 24.7489 43.4429 24.8567L43.7777 25.1772C44.6669 26.0339 45.5266 26.9148 46.3328 27.8334C47.139 28.7521 47.897 29.7165 48.5665 30.7294C49.2361 31.7423 49.82 32.8064 50.2753 33.9217C50.503 34.4793 50.6985 35.0477 50.8565 35.6269C51.0172 36.2061 51.1351 36.788 51.2154 37.3833V37.3995ZM9.28058 38.2589C9.28058 38.1349 9.18148 38.0353 9.05828 38.0353C8.93507 38.0353 8.83598 38.1349 8.83598 38.2589C8.83598 38.3828 8.93507 38.4824 9.05828 38.4824C9.18148 38.4824 9.28058 38.3828 9.28058 38.2589ZM8.10211 37.0708C8.10211 36.893 7.96016 36.7503 7.78339 36.7503C7.60662 36.7503 7.46466 36.893 7.46466 37.0708C7.46466 37.2486 7.60662 37.3914 7.78339 37.3914C7.96016 37.3914 8.10211 37.2486 8.10211 37.0708ZM7.02274 38.5794C7.02274 38.3343 6.82454 38.1349 6.58081 38.1349C6.33708 38.1349 6.13888 38.3343 6.13888 38.5794C6.13888 38.8246 6.33708 39.0239 6.58081 39.0239C6.82454 39.0239 7.02274 38.8246 7.02274 38.5794Z" fill="#FF642E"/>
<path d="M19.7928 44.5734C19.0295 45.228 18.3251 45.756 17.5296 46.2786C15.8637 47.3696 15.4378 46.5399 14.87 46.7635C14.3397 46.9736 12.8157 46.7285 12.4863 45.5513C11.1953 44.5545 12.039 43.5039 12.1917 42.6849C11.7765 43.4096 11.4498 44.1827 11.2971 44.9586C11.1632 45.6752 11.1819 46.4349 11.5542 47.0787C12.9148 48.6519 13.8978 48.4418 14.5781 48.3583C14.5567 48.2802 15.103 48.3125 15.7967 48.0162C16.5627 47.6875 17.2832 47.1838 17.9501 46.61C18.2849 46.3217 18.609 46.0146 18.9197 45.694C19.2304 45.3708 19.5303 45.0367 19.8223 44.6892C19.9776 44.506 20.1276 44.3201 20.2776 44.1289C20.1169 44.2797 19.9562 44.4252 19.7901 44.568L19.7928 44.5734Z" fill="#E53000"/>
<path d="M11.0322 6.88826C12.0821 8.20019 12.749 9.50943 13.0945 10.288C10.6519 10.3661 8.74221 11.1042 7.45929 11.8046C6.78434 12.1737 6.22457 12.5616 5.78532 12.9064C5.87639 10.8133 5.59248 8.45881 4.93629 5.88074C4.5881 4.51493 4.20778 3.38618 3.93994 2.65344C6.69864 3.0252 9.07969 4.44489 11.0322 6.88826Z" fill="#FF642E"/>
<path d="M4.25343 36.3031C4.36592 35.9636 4.44895 35.6215 4.51323 35.3036C4.86945 33.5176 4.95248 31.5133 4.58019 29.7326C4.34718 28.6174 3.89454 27.6691 3.40172 26.6616C2.89284 25.6244 2.52055 24.5226 2.27146 23.3939C2.23396 23.2242 2.19914 23.0571 2.16968 22.8847C2.11612 22.5992 2.07326 22.3136 2.03844 22.0308C1.97952 22.6935 1.97148 23.3696 2.01969 24.062C2.19914 26.702 3.12049 28.5581 3.13121 28.577C3.14728 28.6093 3.16067 28.647 3.17138 28.682C4.15701 32.1652 3.51153 34.9211 2.79641 36.621C2.47769 37.3752 2.12147 37.9922 1.80811 38.4609C1.89917 38.4851 2.01434 38.4932 2.16165 38.4771C3.29459 38.3451 3.91061 37.3348 4.25343 36.3004V36.3031Z" fill="#FF642E"/>
<path d="M23.4542 17.0255C23.4542 17.0255 23.4542 17.0444 23.4569 17.0525C22.8007 16.2605 20.7705 14.0299 18.2529 13.3403C18.5046 12.4917 18.601 11.6 18.6225 10.7191C18.6439 9.81126 18.5716 8.90611 18.4564 8.01173C18.3412 7.11736 18.1779 6.23106 17.9743 5.35554C17.9234 5.13734 17.8672 4.91913 17.8136 4.70092L17.7734 4.54468L17.9127 4.69015L18.0868 4.87333L18.1752 4.96493L18.2582 5.05921L18.593 5.43636L18.676 5.53065C18.7028 5.56297 18.7296 5.5953 18.7564 5.62763L18.9144 5.82428L19.0724 6.02094L19.1528 6.11792L19.2278 6.22029C19.6429 6.75099 20.0125 7.31401 20.3714 7.88512C20.5402 8.17606 20.7196 8.46431 20.8723 8.76603C21.0357 9.06236 21.183 9.36677 21.3356 9.66849C21.6276 10.28 21.8847 10.9077 22.1177 11.5461C22.3507 12.1846 22.5596 12.8338 22.7391 13.4938L22.8703 13.9895L22.9935 14.4879C23.0685 14.8219 23.1408 15.156 23.2078 15.4927L23.256 15.7459C23.2694 15.8294 23.2855 15.9157 23.3015 15.9992C23.3176 16.0854 23.331 16.1689 23.3444 16.2524C23.3578 16.3386 23.3712 16.4221 23.3846 16.5083C23.4114 16.678 23.4355 16.8477 23.4569 17.0202L23.4542 17.0255Z" fill="#FFB2B0"/>
<path d="M6.5752 5.3689C8.69644 7.16573 9.60976 10.0751 9.84813 10.9534C9.13569 11.4975 8.40718 12.0255 7.62779 12.4646C8.00275 10.0536 7.17247 7.08761 6.5752 5.3689Z" fill="#FFB2B0"/>
<path d="M56.0362 41.7663C58.5833 44.6434 59.3172 48.2209 58.2137 52.4045C57.1103 56.5935 54.0141 59.5434 49.0136 61.1759C45.213 62.4151 41.6883 62.3854 41.6535 62.3854C41.6428 62.3854 41.6294 62.3854 41.616 62.3854C41.5866 62.3854 38.5386 62.5174 34.7782 61.0573C29.7242 59.0962 25.9102 55.3597 23.4488 49.9477C23.3122 49.6514 23.3926 49.2984 23.6443 49.091C24.3621 48.5011 25.6558 47.6767 27.7449 47.1029C30.2411 46.416 33.2221 46.2597 36.6048 46.6369C36.6905 46.6503 36.7789 46.6611 36.8646 46.6746C38.086 46.8578 39.318 47.0652 40.5661 47.2214C41.8142 47.3777 43.0757 47.4828 44.3399 47.5124L44.814 47.5205H45.288L45.7621 47.5151C45.9201 47.5151 46.0808 47.507 46.2415 47.5016C46.8817 47.4747 47.5325 47.4181 48.1887 47.2807C48.8395 47.1433 49.5038 46.9251 50.1144 46.548C50.2644 46.4537 50.4144 46.3486 50.5537 46.2328C50.6956 46.1169 50.8295 45.9903 50.9554 45.8556C51.2045 45.5836 51.4134 45.2791 51.5768 44.9667C51.9089 44.3363 52.0884 43.6709 52.2116 43.0243C52.3348 42.3751 52.3964 41.734 52.4526 41.1117C52.5169 40.4086 52.5437 39.7028 52.5249 38.9943C53.3632 39.4495 54.7801 40.3466 56.0362 41.7663Z" fill="#FF642E"/>
<path d="M56.0845 41.8175C55.8381 41.54 55.5863 41.2814 55.3318 41.0416C57.287 43.8891 57.7584 47.2996 56.7299 51.203C55.5541 55.6668 52.2517 58.8133 46.9218 60.5536C42.8722 61.8763 39.1145 61.844 39.077 61.844C39.0636 61.844 39.0502 61.844 39.0395 61.844C39.0207 61.844 38.0271 61.8871 36.4683 61.6635C39.4385 62.5309 41.6428 62.4366 41.6669 62.4366C41.6803 62.4366 41.691 62.4366 41.7044 62.4366C41.7392 62.4366 45.2639 62.4663 49.0645 61.2271C54.065 59.5945 57.1612 56.642 58.2646 52.4557C59.3681 48.2748 58.6342 44.6946 56.0871 41.8175H56.0845Z" fill="#E53000"/>
<path d="M29.1993 24.3852C29.2609 24.932 29.2716 25.4816 29.2368 26.0258C29.2181 26.2978 29.1886 26.5672 29.1457 26.8312C29.1002 27.0952 29.0413 27.3565 28.9716 27.6125C28.8993 27.8684 28.8109 28.1135 28.7092 28.3533C28.6074 28.593 28.4869 28.8193 28.3476 29.0295C28.3288 29.0564 28.3155 29.0833 28.2967 29.1103L28.2378 29.1911L28.1226 29.35C28.0851 29.4039 28.0396 29.4524 27.9994 29.5063C27.9566 29.5575 27.9191 29.6113 27.8735 29.6598L27.7396 29.808C27.6968 29.8592 27.6512 29.9077 27.603 29.9562C27.5093 30.0505 27.4182 30.1501 27.3164 30.2417C26.9254 30.6162 26.4969 30.961 26.0469 31.2843C25.5969 31.6102 25.1282 31.9146 24.6488 32.2137C24.4077 32.3618 24.1667 32.51 23.923 32.6555C23.6792 32.8036 23.4355 32.9464 23.1918 33.0865C22.7016 33.3693 22.2088 33.6387 21.708 33.892C21.4589 34.0186 21.2071 34.1398 20.9527 34.2583C20.8241 34.3149 20.6929 34.3823 20.5616 34.4469L20.1679 34.6409C20.0367 34.7055 19.9054 34.7675 19.7769 34.8348L19.3912 35.0369C19.1341 35.1743 18.8743 35.3063 18.6225 35.4517C17.9904 35.8019 17.3691 36.171 16.7584 36.5616C16.753 36.5616 16.7477 36.5616 16.7423 36.5616C16.6084 36.5859 14.455 36.9765 12.2025 37.8304C12.5052 37.4775 12.7918 37.1085 13.0569 36.7125C13.2042 36.4943 13.3408 36.2626 13.4667 36.0201C13.5899 35.7777 13.7024 35.5245 13.7854 35.2443L13.8015 35.045C13.8122 34.8995 13.7185 34.7648 13.5738 34.7298L12.4436 34.455C12.3954 34.4442 12.3445 34.455 12.3097 34.4954C12.2561 34.552 12.2561 34.6409 12.3123 34.6974L12.856 35.2254C12.8052 35.3547 12.7462 35.4841 12.682 35.6107C12.5775 35.8154 12.457 36.0174 12.3231 36.2141C12.0606 36.6101 11.7579 36.9899 11.4365 37.359C11.1151 37.7254 10.7776 38.081 10.4268 38.4258C10.2902 38.5605 10.1509 38.6925 10.009 38.8245C9.67149 39.0104 9.34741 39.2097 9.04476 39.4225C7.60381 40.4328 5.85485 40.9635 4.35765 40.8826C3.97465 40.5675 3.62914 40.0206 3.71485 39.0885C4.65495 38.7302 5.49327 38.178 6.14411 37.4856C6.75745 36.8337 7.16188 36.0336 7.55292 35.2632C7.91985 34.5385 8.30018 33.7923 8.84388 33.1835C10.2339 31.6372 12.2186 31.0714 13.7961 30.7536C14.2247 30.6674 14.6586 30.5838 15.0791 30.5057C16.5307 30.2336 18.0306 29.9508 19.4769 29.412C21.4401 28.6793 23.2668 27.599 24.764 26.2844C26.4165 24.8351 27.603 23.1729 28.2994 21.3438C28.4119 21.5485 28.5136 21.7586 28.602 21.9741C28.7118 22.23 28.8056 22.4914 28.8833 22.7581C29.0413 23.2887 29.1484 23.8329 29.2073 24.3798L29.1993 24.3852Z" fill="white"/>
<path d="M7.11617 13.1085C7.0867 13.1085 7.05456 13.1058 7.0251 13.1004C6.77334 13.0493 6.60728 12.8041 6.65817 12.5482C7.30365 9.26971 5.20383 4.20247 5.27882 3.80916C5.31632 3.61251 5.63772 3.64214 5.81181 3.73643C7.40811 4.57154 8.77942 6.09629 9.77844 8.15174C10.5257 9.68457 10.8042 10.9642 10.815 11.0181C10.8685 11.2713 10.7078 11.5218 10.4561 11.5757C10.2043 11.6296 9.95521 11.4706 9.90165 11.2174C9.89093 11.1662 9.06868 7.49443 6.56443 5.37163C7.1858 7.1523 8.05627 10.2772 7.57148 12.7314C7.52863 12.955 7.33311 13.1085 7.11349 13.1085H7.11617Z" fill="#180D44"/>
<path d="M23.5053 17.5319C23.4892 17.3649 23.4705 17.1925 23.4464 17.0227C23.4249 16.853 23.4008 16.6806 23.374 16.5109C23.3633 16.4247 23.3473 16.3412 23.3339 16.255C23.3205 16.1715 23.3071 16.0853 23.291 16.0018C23.2749 15.9182 23.2615 15.832 23.2455 15.7485L23.1973 15.4953C23.133 15.1586 23.058 14.8245 22.983 14.4905L22.8598 13.9921L22.7286 13.4964C22.5491 12.8364 22.3402 12.1872 22.1072 11.5514C21.8742 10.913 21.6144 10.2853 21.3251 9.67377C21.1724 9.37206 21.0251 9.06765 20.8617 8.77132C20.7064 8.4696 20.5296 8.18404 20.3609 7.89041C20.002 7.3193 19.6297 6.75627 19.2172 6.22558L19.1423 6.1259L19.0619 6.02892L18.9039 5.83226L18.7459 5.63561C18.7191 5.60328 18.6923 5.57096 18.6655 5.53863L18.5825 5.44434L18.2477 5.0672L18.1647 4.97291L18.0763 4.88132L17.9022 4.69813L17.7281 4.51495L17.6397 4.42335C17.6102 4.39372 17.5781 4.36409 17.5486 4.33445L17.1844 3.98425L17.0933 3.89535L17.0478 3.85224L16.9996 3.81184L16.8094 3.64481L17.2058 2.76929C17.8968 4.59846 18.2905 6.58117 18.4994 8.52078C18.6709 10.121 18.6896 11.7615 18.253 13.3105C18.2209 13.421 18.1486 13.5557 18.0361 13.5314C17.937 13.5099 17.9129 13.3779 17.9129 13.2728C17.8941 11.74 17.7575 10.2072 17.5058 8.69589C17.179 6.74819 16.6621 4.83283 16.4719 2.86897C16.4371 2.5026 16.6916 2.25745 17.0264 2.52146L17.0451 2.53492C17.6049 2.97403 18.1566 3.43469 18.6575 3.94653C19.1717 4.4449 19.6351 4.99446 20.077 5.55479L20.3984 5.98582C20.452 6.05586 20.5028 6.13129 20.5537 6.20402L20.7064 6.42492C20.9153 6.71587 21.0948 7.02566 21.2849 7.33008C21.459 7.64257 21.6411 7.94967 21.8018 8.27025C21.8822 8.42919 21.9679 8.58544 22.0429 8.74976L22.2679 9.23736C22.5518 9.89198 22.8089 10.5601 23.0259 11.2389C23.2428 11.9178 23.4169 12.6101 23.5535 13.3052C23.5856 13.4803 23.6178 13.6554 23.6472 13.8305L23.7249 14.3558C23.7463 14.5309 23.7704 14.7087 23.7892 14.8838C23.8052 15.0616 23.824 15.2367 23.8347 15.4145C23.8642 15.7674 23.8749 16.123 23.8776 16.4759C23.8776 16.8315 23.8695 17.1817 23.832 17.5427C23.824 17.6343 23.741 17.7016 23.6499 17.6908C23.5696 17.6828 23.5106 17.6181 23.5026 17.5427V17.5373L23.5053 17.5319Z" fill="#180D44"/>
<path d="M6.16001 29.8377C6.42249 28.41 7.26884 26.2414 9.92844 27.6072C10.1507 27.7203 10.0838 28.0786 9.83738 28.1029C8.98031 28.181 7.68934 28.5339 6.57783 30.0425C6.42249 30.2526 6.10912 30.1017 6.15733 29.8377H6.16001Z" fill="#472114"/>
<path d="M3.89167 29.5575C3.66669 28.6092 3.13102 27.3081 1.92041 27.2407C2.02219 27.4077 2.12664 27.5748 2.20967 27.7526C2.37573 28.1028 2.44537 28.4395 2.45876 28.7897C2.8123 29.0214 3.1712 29.3366 3.51938 29.7622C3.67205 29.9481 3.94792 29.7945 3.89167 29.5575Z" fill="#472114"/>
<path d="M10.9625 27.3001C10.9786 27.2866 10.9866 27.2785 10.9973 27.2704L11.0268 27.2462C11.0455 27.23 11.0643 27.2166 11.0857 27.2031C11.1232 27.1762 11.1634 27.1546 11.2036 27.133C11.2839 27.0926 11.3696 27.0576 11.4553 27.0361C11.6294 26.9876 11.8089 26.9741 11.983 26.9903C12.0258 26.9957 12.0687 27.001 12.1115 27.0091C12.1329 27.0118 12.1544 27.0145 12.1758 27.0199L12.2374 27.0361C12.2803 27.0468 12.3204 27.0576 12.3606 27.0711C12.4008 27.0873 12.441 27.1034 12.4785 27.1196L12.5374 27.1438C12.5561 27.1546 12.5749 27.1654 12.5936 27.1761C12.6311 27.1977 12.6659 27.2166 12.7008 27.2408C12.7704 27.2893 12.8347 27.3405 12.8936 27.397C12.9204 27.4213 12.9204 27.4617 12.899 27.4859C12.8856 27.4994 12.8695 27.5075 12.8507 27.5075H12.8427C12.7624 27.5075 12.6874 27.4967 12.6124 27.4913C12.5749 27.4913 12.5374 27.4886 12.5026 27.4859C12.4838 27.4859 12.4651 27.4859 12.449 27.4833H12.3954C12.3606 27.4833 12.3258 27.4833 12.291 27.4833C12.2562 27.4833 12.2213 27.4886 12.1865 27.4886H12.1356C12.1196 27.4913 12.1008 27.494 12.0847 27.4967C12.0526 27.5021 12.0178 27.5021 11.9856 27.5075C11.8544 27.5264 11.7312 27.5587 11.6107 27.5937C11.5491 27.6126 11.4928 27.6341 11.4339 27.6557C11.4044 27.6664 11.375 27.6772 11.3482 27.6907C11.3348 27.6961 11.3214 27.7015 11.308 27.7068L11.2893 27.7149C11.2893 27.7149 11.2759 27.7203 11.2759 27.7149C11.1634 27.8038 11 27.785 10.9116 27.6718C10.8232 27.5587 10.842 27.3944 10.9545 27.3055L10.9625 27.3001Z" fill="#180D44"/>
<path d="M10.6248 26.3922C10.6382 26.376 10.6436 26.3652 10.6543 26.3571L10.6784 26.3275C10.6945 26.3086 10.7105 26.2925 10.7293 26.2763C10.7614 26.244 10.7989 26.2144 10.8337 26.1847C10.9061 26.1308 10.9837 26.0824 11.0668 26.0446C11.2301 25.9665 11.4042 25.9207 11.5783 25.9046C11.6212 25.9019 11.6667 25.8992 11.7096 25.8992C11.731 25.8992 11.7524 25.8992 11.7738 25.8992L11.8381 25.9046C11.881 25.9073 11.9238 25.9126 11.9667 25.918C12.0095 25.9261 12.0497 25.9369 12.0926 25.945L12.1542 25.9611C12.1729 25.9665 12.1943 25.9746 12.2131 25.9827C12.2533 25.9961 12.2908 26.0096 12.3309 26.0258C12.4059 26.0608 12.4809 26.1012 12.5479 26.1443C12.5773 26.1632 12.5854 26.2009 12.5666 26.2305C12.5559 26.2467 12.5398 26.2575 12.5238 26.2602H12.5157C12.4354 26.2736 12.3604 26.2763 12.2854 26.2871C12.2479 26.2925 12.2104 26.2979 12.1756 26.3006C12.1568 26.3006 12.1408 26.306 12.122 26.306L12.0685 26.3167C12.0336 26.3221 11.9988 26.3302 11.964 26.3356C11.9292 26.3437 11.897 26.3517 11.8622 26.3598L11.814 26.3706C11.7979 26.376 11.7819 26.3814 11.7658 26.3841C11.7337 26.3948 11.7015 26.4029 11.6694 26.4137C11.5435 26.4568 11.4283 26.508 11.3158 26.5646C11.2596 26.5915 11.206 26.6238 11.1525 26.6562C11.1257 26.6723 11.0989 26.6885 11.0748 26.7046C11.0614 26.7127 11.048 26.7208 11.0373 26.7289L11.0212 26.7397C11.0212 26.7397 11.0105 26.7477 11.0105 26.7451C10.9141 26.8528 10.7507 26.8609 10.6436 26.7666C10.5364 26.6723 10.5284 26.5053 10.6221 26.3975L10.6248 26.3922Z" fill="#180D44"/>
<path d="M52.4632 61.0142C53.4623 62.5632 54.1774 63.7458 54.547 64.3681C53.4649 65.0362 50.5482 66.7145 46.3164 68.18C41.3401 69.9041 33.4711 71.6767 24.2442 70.3432C14.5486 68.9424 4.10035 62.8003 2.61922 52.2321C2.09427 48.4768 2.69957 44.9855 4.37086 42.068C4.45657 42.0707 4.54495 42.0734 4.63334 42.0734C6.30731 42.0734 8.17679 41.4753 9.71684 40.3978C11.0024 39.4953 12.7675 38.838 14.2325 38.3989C14.0102 38.5848 13.7906 38.776 13.5763 38.9727L13.413 39.1262C13.3594 39.1774 13.3031 39.2313 13.2496 39.2852C13.196 39.3364 13.1424 39.3929 13.0862 39.4495C13.0594 39.4765 13.0326 39.5061 13.0032 39.5357C12.9817 39.56 12.9603 39.5815 12.9335 39.6111C12.2264 40.2981 11.6211 41.0686 11.1149 41.9091C10.8605 42.3347 10.6328 42.7792 10.44 43.2425C10.2472 43.7086 10.0891 44.1935 9.99003 44.7053C9.89361 45.2172 9.85076 45.7559 9.91504 46.3082C9.97396 46.8578 10.1668 47.4208 10.4802 47.9057C10.4989 47.938 10.5203 47.9676 10.5418 47.9946L10.606 48.0808L10.6703 48.167C10.6918 48.1966 10.7132 48.2263 10.7373 48.2505L10.8819 48.4094C10.906 48.4364 10.9301 48.4633 10.9569 48.4876L11.0346 48.5576L11.1926 48.7004C11.2194 48.7246 11.2462 48.7462 11.2756 48.765L11.3587 48.827C11.4149 48.8674 11.4712 48.9105 11.5274 48.9509L11.7015 49.0587C11.7604 49.0937 11.8193 49.1314 11.8783 49.1637L12.0577 49.2553L12.1461 49.3011L12.1916 49.3227L12.2372 49.3415L12.4246 49.4197L12.5184 49.4574C12.5505 49.4708 12.5827 49.4789 12.6148 49.4897L12.8076 49.5517C12.8719 49.5732 12.9389 49.5894 13.0032 49.6055L13.2014 49.6513C13.7344 49.7645 14.2861 49.7699 14.8137 49.6944C15.3414 49.619 15.8476 49.4655 16.319 49.2634C16.7903 49.0614 17.2323 48.8108 17.6474 48.5361C18.0626 48.2613 18.4509 47.9569 18.8205 47.6363C19.1901 47.3157 19.541 46.979 19.8758 46.6315C20.2106 46.2813 20.5293 45.923 20.8373 45.5539C21.1453 45.1875 21.44 44.8077 21.7239 44.4252C21.8685 44.2339 22.0051 44.0399 22.1444 43.846C22.2729 43.6736 22.3988 43.4958 22.5408 43.3314L22.6452 43.2048C22.68 43.1617 22.7175 43.124 22.7523 43.0836C22.8273 43.0028 22.897 42.9193 22.972 42.8411L23.1996 42.6041C23.2746 42.5233 23.3577 42.4505 23.438 42.3751C23.7594 42.0734 24.0942 41.7824 24.4477 41.5104C25.1521 40.9635 25.9128 40.4813 26.7002 40.0422C27.4903 39.6058 28.3099 39.2178 29.1456 38.8757C29.5634 38.706 29.9892 38.5444 30.4097 38.4016L30.5651 38.3504L30.6026 38.3396C30.624 38.3342 30.6374 38.3289 30.6535 38.3235L30.7392 38.2911H30.7499C32.2605 38.873 33.6532 39.5627 34.9227 40.352C34.5558 40.7588 34.2291 41.2033 33.9452 41.672C33.763 41.971 33.6023 42.2835 33.455 42.5987C33.3104 42.9166 33.1845 43.2398 33.0747 43.5712C32.9649 43.9025 32.8738 44.2366 32.8015 44.576C32.7667 44.7457 32.7345 44.9181 32.7078 45.0906C32.6997 45.1444 32.6944 45.1983 32.6863 45.2522C30.7686 45.2845 29.0063 45.5189 27.4234 45.9553C25.1361 46.5857 23.6951 47.507 22.8889 48.1697C22.222 48.7166 22.0078 49.6486 22.3667 50.438C23.7915 53.5683 25.6905 56.2083 28.0099 58.2853C29.8687 59.9501 32.0007 61.254 34.3442 62.1618C37.6788 63.4549 40.4562 63.5734 41.3588 63.5734C41.5061 63.5734 41.6025 63.5707 41.6454 63.5681C41.9588 63.5707 45.454 63.5707 49.3349 62.31C50.4572 61.9463 51.499 61.5099 52.4552 61.0088L52.4632 61.0142Z" fill="#FF0000"/>
<path d="M73.9842 65.3647C74.0217 65.4374 73.9949 65.529 73.9226 65.5695C73.8583 65.6018 73.7833 65.5883 73.7378 65.5344C73.4914 65.2435 73.2289 64.9741 72.9423 64.7451C72.6584 64.5107 72.3477 64.3222 72.0317 64.174C71.7103 64.0312 71.3755 63.945 71.0434 63.9181C70.7113 63.8965 70.3818 63.9316 70.0658 64.0285C69.9078 64.077 69.7551 64.139 69.6051 64.2117C69.4578 64.2872 69.3051 64.3734 69.1766 64.465C69.0453 64.5619 68.9195 64.6643 68.7963 64.7828C68.6757 64.9014 68.5552 65.028 68.44 65.1654C68.2043 65.4374 67.9794 65.7419 67.7249 66.0544C67.599 66.2106 67.4678 66.3668 67.3205 66.5231L67.2669 66.5824L67.2134 66.6389L67.1062 66.7494C67.0339 66.8221 66.9616 66.8949 66.8893 66.9649C66.5947 67.2478 66.2813 67.5198 65.9438 67.7677C65.6064 68.0128 65.2501 68.2418 64.8671 68.4304C64.6743 68.5247 64.4841 68.6136 64.2752 68.689C64.1734 68.7294 64.069 68.7617 63.9645 68.7968C63.8601 68.8264 63.7556 68.8587 63.6485 68.8829C63.2253 68.9853 62.7914 69.0365 62.3548 69.0446C61.9183 69.0473 61.479 68.9988 61.0478 68.891C60.8335 68.8345 60.6193 68.7698 60.4077 68.6809C60.1988 68.5947 59.9952 68.4923 59.7997 68.3684C59.7006 68.3092 59.6069 68.2391 59.5131 68.1718C59.4221 68.099 59.331 68.0263 59.2453 67.9455C59.1569 67.8673 59.0792 67.7811 58.9989 67.6949C58.9774 67.668 58.956 67.6411 58.9346 67.6168L58.7605 68.2768C58.7043 68.4896 58.5355 68.654 58.3239 68.7025C58.2811 68.7132 58.2355 68.7186 58.19 68.7186C58.0213 68.7186 57.8579 68.6459 57.7454 68.5139L55.0938 65.4321C53.9154 66.1594 51.004 67.8162 46.7374 69.2978C43.4886 70.4266 40.1273 71.2132 36.7472 71.6388C34.7732 71.8867 32.7886 72.0106 30.8066 72.0106C28.5514 72.0106 26.3016 71.8489 24.0732 71.5284C18.6737 70.7471 13.5233 68.6621 9.56734 65.6557C4.98201 62.1697 2.1751 57.5901 1.44927 52.4097C0.910923 48.5628 1.48677 44.9638 3.1152 41.9035C1.75728 41.5506 0.699334 40.7047 0.0592097 39.4547C-0.0586375 39.2231 -0.0131056 38.9429 0.169022 38.7624C0.177057 38.7543 1.08769 37.8276 1.77335 36.1763C2.67863 33.9888 2.78844 31.6155 2.09207 29.1236C1.92334 28.7734 1.06359 26.8607 0.88414 24.2099C0.768971 22.5155 0.956455 20.8695 1.44124 19.3151C2.02779 17.4321 3.05628 15.6864 4.49455 14.1239C5.21235 8.67148 2.52597 2.28962 2.49918 2.22497C2.41883 2.0364 2.44026 1.82088 2.55811 1.65386C2.67327 1.48684 2.86879 1.38986 3.06967 1.40063C5.00611 1.49492 6.814 2.04448 8.44511 3.03314C9.74411 3.81976 10.9306 4.88116 11.9725 6.1904C13.3599 7.93335 14.1098 9.63051 14.383 10.3228C14.691 10.3417 15.0071 10.374 15.3311 10.4144C15.2776 10.1019 15.2267 9.79215 15.1811 9.48235C15.1088 8.99475 15.0446 8.50446 14.9856 8.01687C14.9213 7.52927 14.8571 7.04167 14.7901 6.55677C14.6535 5.58696 14.5089 4.61985 14.3428 3.66352C14.2598 3.18669 14.1687 2.70987 14.0696 2.24113C14.0455 2.1253 14.0214 2.00676 13.992 1.89093C13.9652 1.77509 13.9411 1.65656 13.9116 1.54341L13.8259 1.19859C13.7964 1.08545 13.7643 0.972304 13.7348 0.856466C13.625 0.552055 13.7804 0.212623 14.083 0.102173C14.1178 0.0887032 14.1527 0.0806215 14.1902 0.0752337H14.1982L14.2384 0.067152L14.2705 0.0617642L14.3321 0.0536825C14.3723 0.0482947 14.4098 0.0456008 14.4473 0.0402129C14.525 0.0321312 14.5973 0.0267434 14.6723 0.0240495C14.7473 0.0186617 14.8196 0.0186617 14.8919 0.0159678C14.9642 0.0159678 15.0392 0.0132739 15.1115 0.0159678H15.3285L15.5427 0.0294373C15.6874 0.0348251 15.8293 0.0509886 15.9713 0.067152C16.5417 0.131806 17.1015 0.24495 17.6506 0.401196L18.0577 0.52781C18.1273 0.546667 18.1916 0.573606 18.2586 0.597851L18.4594 0.670587L18.6603 0.746016C18.7273 0.770261 18.7916 0.799894 18.8558 0.826833L19.2469 0.996549C19.3138 1.02349 19.3754 1.05851 19.4397 1.08814L19.6299 1.18243L19.82 1.27941C19.8843 1.31174 19.9459 1.34406 20.0075 1.37908L20.3745 1.5919L20.5593 1.69696C20.6209 1.73468 20.6771 1.77239 20.736 1.8128C21.6895 2.41624 22.5573 3.14359 23.3474 3.93291L23.9259 4.53903C24.1081 4.74916 24.2875 4.96198 24.4696 5.1748L24.6036 5.33374C24.6464 5.38761 24.6893 5.44419 24.7294 5.49806L24.9812 5.82941L25.233 6.16077C25.2758 6.21464 25.3133 6.27391 25.3535 6.33048L25.4713 6.50289L25.9401 7.18714L26.374 7.89295L26.5909 8.24585L26.7891 8.60952L27.1855 9.33418C27.2203 9.39345 27.2498 9.45541 27.2792 9.51737L27.3703 9.70325L27.5524 10.0723L27.7319 10.4441L27.8229 10.63C27.8524 10.6919 27.8792 10.7566 27.906 10.8185L28.2327 11.5728L28.3961 11.95C28.4229 12.0119 28.447 12.0766 28.4738 12.1412L28.5488 12.3325C28.7095 12.7366 28.8595 13.1461 29.0014 13.5582C29.0657 13.5663 29.1273 13.5852 29.1889 13.6148C30.3218 14.1805 31.4146 14.7974 32.4913 15.4305C33.5733 16.0636 34.642 16.7155 35.6946 17.3943C37.8025 18.7548 39.846 20.2203 41.7825 21.8312C42.0262 22.0306 42.2646 22.238 42.5029 22.4427C42.744 22.6448 42.977 22.8576 43.2127 23.0677C43.4511 23.2751 43.6787 23.4933 43.9118 23.7062C44.0269 23.8139 44.1421 23.919 44.2573 24.0294L44.5974 24.3554C45.5027 25.2282 46.3865 26.1307 47.2222 27.0843C48.0578 28.038 48.8479 29.0401 49.5523 30.1069C50.2568 31.1737 50.8781 32.3078 51.3683 33.5066C51.612 34.1046 51.8236 34.7189 51.995 35.3465C52.1691 35.9715 52.3003 36.6154 52.386 37.2592C52.4021 37.3858 52.4182 37.5151 52.4316 37.6417C53.0771 37.9354 55.0992 38.9591 56.883 40.9606C58.1311 42.3588 59.0042 43.9455 59.4729 45.6777C60.0595 47.8301 60.0166 50.2034 59.3524 52.7276C58.6828 55.2706 57.3195 57.4258 55.3028 59.1364C54.7483 59.6078 54.143 60.0443 53.4895 60.4456C54.7162 62.3529 55.517 63.7026 55.7688 64.1336L59.1569 63.452C59.3551 63.4116 59.5613 63.479 59.7006 63.6271C59.8399 63.7753 59.8934 63.9881 59.8399 64.1848L59.3765 65.9385C59.4729 66.2106 59.6042 66.4584 59.7756 66.674C59.8211 66.7359 59.8747 66.7898 59.9256 66.8464C59.9818 66.8975 60.0327 66.9541 60.0916 67.0026C60.1479 67.0538 60.2095 67.0996 60.2711 67.1454C60.3354 67.1885 60.397 67.2343 60.4666 67.2693C60.5336 67.3097 60.6032 67.3447 60.6728 67.3798C60.7077 67.3959 60.7452 67.4121 60.7827 67.4282L60.8362 67.4525L60.8925 67.474C61.0398 67.5333 61.1951 67.5791 61.3558 67.6168C61.5138 67.6572 61.6772 67.6788 61.8433 67.6976C62.0093 67.7138 62.1754 67.7219 62.3414 67.7219C62.6762 67.7192 63.0137 67.6788 63.3405 67.6007C63.4235 67.5845 63.5012 67.5575 63.5842 67.536C63.6646 67.5091 63.7449 67.4875 63.8226 67.4579C63.9779 67.404 64.1386 67.334 64.294 67.2585C64.918 66.9622 65.5019 66.542 66.0456 66.057C66.1126 65.9978 66.1795 65.9331 66.2465 65.8712L66.3456 65.7769L66.3965 65.7284L66.442 65.6826C66.5652 65.5614 66.6884 65.4267 66.8116 65.2866C67.058 65.0064 67.3125 64.7047 67.599 64.4057C67.741 64.2548 67.899 64.1094 68.0624 63.9693C68.2284 63.8292 68.4106 63.6972 68.6034 63.5813C68.8016 63.4655 68.9945 63.3739 69.198 63.2931C69.4042 63.215 69.6158 63.1503 69.8328 63.1072C70.0497 63.0614 70.272 63.0399 70.4943 63.0399C70.7166 63.0399 70.9389 63.0587 71.1532 63.0991C71.5871 63.1826 71.9888 63.3551 72.3504 63.5787C73.0682 64.0312 73.6066 64.6778 73.9789 65.3809L73.9842 65.3647ZM57.9088 66.8787L58.4605 64.7828L56.4518 65.1869L57.9088 66.8787ZM58.2141 52.4043C59.3176 48.2234 58.5837 44.6432 56.0366 41.7661C54.7805 40.3464 53.3636 39.4493 52.5253 38.9941C52.5441 39.7026 52.5173 40.4111 52.453 41.1115C52.3941 41.7365 52.3325 42.3749 52.2119 43.0242C52.0887 43.6707 51.9066 44.3361 51.5772 44.9665C51.4111 45.2817 51.2049 45.5834 50.9558 45.8555C50.8299 45.9902 50.696 46.1168 50.5541 46.2326C50.4121 46.3457 50.2648 46.4508 50.1148 46.5478C49.5041 46.9249 48.8426 47.1431 48.1891 47.2805C47.5356 47.4179 46.8847 47.4745 46.2419 47.5014C46.0812 47.5068 45.9232 47.5122 45.7625 47.5149L45.2884 47.5203H44.8144L44.3403 47.5122C43.0761 47.4826 41.8146 47.3775 40.5665 47.2213C39.3184 47.065 38.0864 46.8576 36.865 46.6744C36.7793 46.6609 36.6909 46.6502 36.6052 46.6367C33.2225 46.2568 30.2415 46.4131 27.7453 47.1027C25.6562 47.6792 24.3625 48.5009 23.6447 49.0908C23.393 49.2983 23.3126 49.6485 23.4492 49.9475C25.9133 55.3596 29.7246 59.096 34.7786 61.0572C38.539 62.5173 41.587 62.3853 41.6164 62.3853C41.6298 62.3853 41.6405 62.3853 41.6539 62.3853C41.6887 62.3853 45.2134 62.4149 49.014 61.1757C54.0145 59.5432 57.1106 56.5907 58.2141 52.4043ZM54.5475 64.368C54.1779 63.7457 53.4627 62.5631 52.4637 61.0141C51.5075 61.5151 50.4657 61.9515 49.3434 62.3152C45.4625 63.576 41.9646 63.576 41.6539 63.5733C41.6111 63.5733 41.5146 63.5787 41.3673 63.5787C40.4647 63.5787 37.6873 63.4601 34.3527 62.167C32.0092 61.2592 29.8799 59.9554 28.0185 58.2905C25.699 56.2162 23.8001 53.5762 22.3752 50.4432C22.0163 49.6566 22.2305 48.7218 22.8975 48.1749C23.7036 47.5122 25.1446 46.5909 27.4319 45.9605C29.0175 45.5241 30.7771 45.2897 32.6948 45.2574C32.7029 45.2035 32.7082 45.1497 32.7163 45.0958C32.7431 44.9234 32.7752 44.751 32.81 44.5812C32.8823 44.2418 32.9734 43.9051 33.0832 43.5764C33.193 43.2451 33.3216 42.9218 33.4635 42.6039C33.6082 42.286 33.7715 41.9762 33.9537 41.6772C34.2349 41.2085 34.5617 40.764 34.9313 40.3572C33.6617 39.5679 32.269 38.8782 30.7584 38.2937H30.7477L30.662 38.3287C30.6486 38.3341 30.6352 38.3395 30.6111 38.3448L30.5736 38.3556L30.4183 38.4068C29.9951 38.5496 29.5719 38.7085 29.1541 38.8809C28.3158 39.2231 27.4962 39.611 26.7087 40.0474C25.9213 40.4865 25.1607 40.9714 24.4563 41.5156C24.1027 41.785 23.7652 42.0759 23.4465 42.3803C23.3662 42.4584 23.2858 42.5312 23.2081 42.6093L22.9805 42.8464C22.9055 42.9272 22.8359 43.008 22.7609 43.0888C22.726 43.1292 22.6859 43.1696 22.6537 43.21L22.5493 43.3367C22.4073 43.501 22.2814 43.6788 22.1529 43.8512C22.0136 44.0452 21.877 44.2391 21.7324 44.4304C21.4485 44.8129 21.1539 45.1901 20.8458 45.5591C20.5378 45.9282 20.2191 46.2865 19.8843 46.6367C19.5495 46.9842 19.1987 47.3209 18.8291 47.6415C18.4594 47.9621 18.0711 48.2638 17.6559 48.5413C17.2408 48.8161 16.7989 49.0666 16.3275 49.2686C15.8561 49.4707 15.3499 49.6242 14.8222 49.6997C14.2946 49.7724 13.7429 49.767 13.2099 49.6566L13.0117 49.6108C12.9447 49.5946 12.8804 49.5784 12.8162 49.5569L12.6233 49.4949C12.5912 49.4841 12.559 49.4734 12.5269 49.4626L12.4332 49.4249L12.2457 49.3468L12.2001 49.3279L12.1546 49.3063L12.0662 49.2606L11.8868 49.169C11.8279 49.1393 11.7689 49.0989 11.71 49.0639L11.5359 48.9561C11.4797 48.9157 11.4234 48.8753 11.3672 48.8322L11.2842 48.7703C11.2574 48.7487 11.2279 48.7299 11.2011 48.7056L11.0431 48.5628L10.9654 48.4928C10.9413 48.4685 10.9172 48.4416 10.8904 48.4147L10.7458 48.2557C10.7217 48.2288 10.7003 48.2018 10.6788 48.1722L10.6146 48.086L10.5503 47.9998C10.5289 47.9702 10.5074 47.9432 10.4887 47.9109C10.1753 47.426 9.98248 46.863 9.92355 46.3134C9.85927 45.7612 9.89945 45.2224 9.99855 44.7105C10.1003 44.1987 10.2583 43.7138 10.4485 43.2478C10.6414 42.7817 10.869 42.3372 11.1235 41.9143C11.6297 41.0738 12.235 40.3033 12.942 39.6164C12.9688 39.5894 12.9876 39.5652 13.0117 39.5409C13.0385 39.5113 13.0679 39.4817 13.0947 39.4547C13.1483 39.3982 13.2018 39.3443 13.2581 39.2904C13.3117 39.2392 13.3679 39.1827 13.4215 39.1315L13.5849 38.9779C13.7991 38.7786 14.0187 38.59 14.241 38.4041C12.776 38.8405 11.011 39.5005 9.72536 40.403C8.18531 41.4806 6.3185 42.0786 4.64186 42.0786C4.55347 42.0786 4.46777 42.0786 4.37938 42.0732C2.70809 44.9907 2.10279 48.482 2.62774 52.2373C4.10887 62.8028 14.5544 68.9476 24.2527 70.3484C33.4796 71.6819 41.3486 69.9066 46.3249 68.1852C50.5594 66.7197 53.4761 65.0414 54.5555 64.3734L54.5475 64.368ZM51.2772 41.0037C51.3897 39.7996 51.379 38.5873 51.2183 37.3993C51.1379 36.8039 51.0201 36.222 50.8594 35.6429C50.7014 35.0637 50.5058 34.4953 50.2782 33.9376C49.8229 32.8223 49.239 31.7582 48.5694 30.7453C47.8998 29.7324 47.1445 28.7707 46.3357 27.8494C45.5268 26.9281 44.667 26.0472 43.7805 25.1932L43.4457 24.8726C43.3332 24.7649 43.2207 24.6625 43.1082 24.5574C42.8806 24.35 42.6583 24.1372 42.428 23.9351C42.1976 23.7304 41.97 23.523 41.7343 23.3263C41.5012 23.127 41.2682 22.9249 41.0299 22.731C39.1363 21.155 37.1302 19.7165 35.0571 18.3776C34.0206 17.7095 32.9654 17.063 31.8967 16.4407C31.0959 15.972 30.2924 15.514 29.4782 15.083C29.5103 15.1988 29.5424 15.312 29.5746 15.4278C29.6415 15.6918 29.7085 15.9558 29.7728 16.2198C29.8344 16.4838 29.904 16.7478 29.9522 17.0172C30.0031 17.2839 30.054 17.5533 30.0968 17.8227L30.1638 18.2268C30.1852 18.3615 30.2067 18.4962 30.2227 18.6309C30.2361 18.7278 30.1665 18.8167 30.0701 18.8302C29.9897 18.841 29.9174 18.7979 29.8853 18.7278V18.7224C29.8263 18.5985 29.7754 18.4719 29.7219 18.348L29.5692 17.9735C29.4674 17.723 29.371 17.4725 29.2773 17.2219L29.2076 17.0334C29.1835 16.9714 29.1567 16.9094 29.1326 16.8475C29.0818 16.7236 29.0309 16.5996 28.9827 16.4757C28.8809 16.2279 28.7845 15.9774 28.688 15.7295C28.2916 14.7355 27.8899 13.7522 27.464 12.7797C27.4105 12.6585 27.3623 12.5345 27.306 12.416L27.1373 12.0577L26.7998 11.3384C26.7703 11.2792 26.7436 11.2172 26.7141 11.158L26.623 10.9829L26.4409 10.6326L26.2588 10.2797L26.1677 10.1046C26.1383 10.0454 26.1088 9.98611 26.074 9.92954L25.6803 9.24529L25.4821 8.90316L25.2705 8.57181L24.85 7.90642L24.3973 7.26527L24.2848 7.10633C24.2473 7.05245 24.2098 6.99857 24.1697 6.95008L23.9286 6.64297L23.6876 6.33587C23.6474 6.28468 23.6072 6.2335 23.567 6.18232L23.4385 6.03685L22.9296 5.44957L22.3939 4.88924C21.6627 4.16189 20.87 3.50457 20.0156 2.94694C19.1638 2.3893 18.2425 1.9475 17.2836 1.64309C16.8015 1.49762 16.3141 1.37639 15.8213 1.30635C15.6981 1.29018 15.5749 1.27133 15.4517 1.26055L15.2669 1.24169L15.141 1.23361C15.216 1.46259 15.2856 1.69158 15.3472 1.92056C15.4811 2.41354 15.5936 2.90922 15.6874 3.40759C15.8748 4.40165 16.0034 5.40108 16.0918 6.40052C16.1346 6.8989 16.1721 7.39996 16.1962 7.89833C16.223 8.39671 16.2418 8.89777 16.2391 9.39884C16.2391 9.8999 16.2177 10.401 16.1748 10.902C16.1293 11.4031 16.073 11.9042 15.9605 12.4052C15.9498 12.4591 15.8963 12.4914 15.8454 12.4807C15.8106 12.4726 15.7838 12.4456 15.7731 12.4133C15.6981 12.1439 15.6311 11.8772 15.5722 11.6105C15.5133 11.6213 15.4517 11.6213 15.3874 11.6105C12.7439 11.2226 10.2825 11.6321 8.07014 12.8309C6.40957 13.7279 5.51768 14.7597 5.50964 14.7705C5.50429 14.7786 5.49625 14.7866 5.48822 14.792C2.97861 17.4536 1.8296 20.592 2.07065 24.1237C2.2501 26.7638 3.17145 28.6199 3.18216 28.6387C3.19823 28.671 3.21162 28.7087 3.22234 28.7438C4.20797 32.227 3.56249 34.9829 2.84737 36.6827C2.52864 37.437 2.17242 38.0539 1.85906 38.5226C1.95012 38.5469 2.06529 38.555 2.2126 38.5388C3.52499 38.3826 3.80354 38.4445 3.7339 38.9348C3.58659 39.9693 3.95352 40.5619 4.35795 40.896C5.85515 40.9768 7.60411 40.4461 9.04506 39.4359C9.34771 39.2231 9.67179 39.0237 10.0093 38.8378C10.1512 38.7058 10.2905 38.5738 10.4271 38.4391C10.7779 38.0943 11.1154 37.7387 11.4368 37.3723C11.7555 37.0033 12.0582 36.6234 12.3234 36.2274C12.4573 36.0308 12.5751 35.826 12.6823 35.624C12.7492 35.4974 12.8055 35.3681 12.8563 35.2388L12.3126 34.7108C12.2564 34.6569 12.2537 34.5653 12.31 34.5087C12.3475 34.471 12.3983 34.4575 12.4439 34.4683L13.5741 34.7431C13.7188 34.7781 13.8125 34.9128 13.8018 35.0583L13.7857 35.2576C13.7027 35.5351 13.5929 35.791 13.467 36.0335C13.3411 36.2759 13.2045 36.5049 13.0572 36.7258C12.7921 37.1218 12.5055 37.4909 12.2028 37.8438C14.458 36.9898 16.6114 36.5992 16.7426 36.575C16.748 36.575 16.7533 36.575 16.7587 36.575C17.3694 36.1843 17.9907 35.8153 18.6228 35.4651C18.8746 35.3196 19.1344 35.1876 19.3915 35.0502L19.7772 34.8482C19.9084 34.7835 20.0397 34.7188 20.1682 34.6542L20.5619 34.4602C20.6932 34.3956 20.8244 34.3309 20.953 34.2717C21.2074 34.1531 21.4565 34.0319 21.7083 33.9053C22.2091 33.6521 22.7019 33.38 23.1921 33.0998C23.4358 32.9597 23.6795 32.8143 23.9233 32.6688C24.167 32.5233 24.4107 32.3752 24.6491 32.227C25.1285 31.9307 25.5972 31.6236 26.0472 31.2976C26.4945 30.9716 26.923 30.6268 27.3167 30.255C27.4185 30.1635 27.5096 30.0638 27.6033 29.9695C27.6515 29.921 27.6944 29.8725 27.7399 29.8213L27.8738 29.6732C27.9194 29.622 27.9569 29.5708 27.9997 29.5196C28.0399 29.4684 28.0854 29.4172 28.1229 29.3634L28.2381 29.2044L28.297 29.1236C28.3158 29.0967 28.3318 29.0697 28.3479 29.0428C28.4872 28.8327 28.6077 28.6064 28.7095 28.3666C28.8112 28.1269 28.9023 27.8817 28.9719 27.6258C29.0416 27.3699 29.1005 27.1086 29.146 26.8446C29.1889 26.5779 29.2184 26.3085 29.2371 26.0391C29.2719 25.4976 29.2612 24.9454 29.1996 24.3985C29.1407 23.8516 29.0362 23.3075 28.8755 22.7768C28.7979 22.5101 28.7041 22.2488 28.5943 21.9928C28.4872 21.7369 28.364 21.4864 28.222 21.2412C28.1845 21.1712 28.2059 21.0877 28.2729 21.0473C28.3291 21.015 28.4015 21.0257 28.4443 21.0742C28.8461 21.5106 29.1701 22.0225 29.4219 22.564C29.6763 23.1054 29.8612 23.6819 29.9897 24.2692C30.1156 24.8592 30.1826 25.4599 30.1826 26.0687C30.1826 26.3731 30.1718 26.6775 30.1343 26.982C30.0995 27.2864 30.0513 27.5908 29.979 27.8925C29.8317 28.4959 29.6094 29.0913 29.2612 29.6381C28.9237 30.1715 28.5193 30.6376 28.0854 31.0605C27.6515 31.4835 27.1882 31.8633 26.7141 32.2162C26.24 32.5691 25.7499 32.8951 25.2598 33.2076C25.0133 33.3638 24.7669 33.5174 24.5232 33.6682C24.2795 33.8191 24.0304 33.9699 23.7786 34.1181C23.2778 34.4144 22.7689 34.7 22.252 34.9721C21.9922 35.1068 21.7297 35.2388 21.4672 35.3654C21.3333 35.4273 21.2101 35.492 21.0869 35.554L20.7119 35.7425C20.586 35.8072 20.4602 35.8691 20.337 35.9338L19.9647 36.1358C19.7183 36.2705 19.4665 36.3998 19.2254 36.5453C18.2479 37.1003 17.297 37.7064 16.3918 38.3637L16.0543 38.6115L15.7222 38.8675C15.6097 38.951 15.5025 39.0399 15.3954 39.1288C15.2883 39.2177 15.1785 39.3039 15.074 39.3928C14.8624 39.5706 14.6535 39.7538 14.4553 39.9423L14.3053 40.0824C14.2544 40.1282 14.2089 40.1767 14.1607 40.2252C14.1125 40.2737 14.067 40.3195 14.0214 40.368C13.9973 40.3922 13.9759 40.4165 13.9545 40.438L13.8982 40.5L13.8848 40.5134C13.8848 40.5134 13.8661 40.535 13.8554 40.5431C13.2367 41.1492 12.693 41.8523 12.2484 42.6012C11.8064 43.3528 11.4582 44.1583 11.2975 44.9719C11.2226 45.3759 11.1984 45.78 11.244 46.1545C11.244 46.203 11.2574 46.2488 11.2654 46.2946C11.2734 46.3404 11.2815 46.3862 11.2895 46.4319L11.327 46.564L11.3458 46.6313L11.3699 46.6933L11.4154 46.8199C11.4341 46.8603 11.4529 46.9007 11.4716 46.9411C11.4931 46.9977 11.5252 47.0462 11.5573 47.0973C11.5681 47.0165 11.5815 46.9357 11.6002 46.8549C11.6216 46.7498 11.6538 46.6502 11.6859 46.5505C11.7234 46.4535 11.7582 46.3538 11.8011 46.2595C11.8868 46.071 11.9805 45.8878 12.093 45.7208C12.2028 45.551 12.3234 45.3921 12.4519 45.2439C12.5832 45.0958 12.7197 44.9557 12.8617 44.8291C13.0063 44.6998 13.1563 44.5812 13.3117 44.4708C13.3893 44.4169 13.4697 44.363 13.55 44.3145C13.5902 44.2903 13.6304 44.266 13.6732 44.2418C13.7161 44.2176 13.7563 44.196 13.8045 44.1718C13.8902 44.126 13.9973 44.161 14.0428 44.2499C14.0777 44.3199 14.0643 44.4061 14.008 44.4573L14 44.4654C13.9438 44.522 13.8795 44.5893 13.8205 44.6513C13.7616 44.7159 13.7054 44.7833 13.6465 44.8479C13.534 44.9826 13.4268 45.1173 13.3304 45.2574C13.1322 45.5376 12.9635 45.8312 12.8376 46.1302C12.709 46.4293 12.6314 46.7364 12.5965 47.0354C12.5564 47.3371 12.5644 47.6307 12.5805 47.9378V47.9648C12.5805 47.9809 12.5805 47.9971 12.5805 48.0133L12.6501 48.0483L12.7171 48.0806L12.7492 48.0968L12.784 48.1103L12.9179 48.1668L12.9849 48.1938C13.0063 48.2045 13.0304 48.2099 13.0545 48.218L13.1938 48.2638C13.2393 48.28 13.2876 48.2907 13.3331 48.3015L13.4724 48.3365C13.8313 48.412 14.2009 48.4201 14.5758 48.3716C14.5544 48.2934 14.5383 48.2153 14.525 48.1345C14.5062 48.0294 14.4982 47.9244 14.4901 47.8193C14.4875 47.7142 14.4821 47.6092 14.4901 47.5068C14.4982 47.2994 14.5169 47.0947 14.5571 46.898C14.5973 46.6986 14.6482 46.5074 14.7124 46.3188C14.7794 46.1329 14.8517 45.9524 14.9374 45.7773C15.0231 45.6022 15.1169 45.4352 15.2213 45.2763C15.2722 45.1954 15.3258 45.1173 15.3847 45.0392C15.4115 45.0015 15.4409 44.9638 15.4731 44.9261C15.5025 44.8883 15.532 44.8533 15.5668 44.8129C15.6311 44.7375 15.7436 44.7321 15.8159 44.7941C15.8748 44.8452 15.8909 44.9314 15.8614 44.9988L15.8561 45.0096C15.8239 45.0823 15.7918 45.1685 15.7597 45.2493C15.7275 45.3301 15.7007 45.4137 15.674 45.4972C15.6204 45.6642 15.5722 45.8312 15.5347 45.9982C15.4543 46.3323 15.4088 46.669 15.4034 46.9923C15.3954 47.3182 15.4383 47.6334 15.5213 47.9244C15.5374 47.989 15.5561 48.0537 15.5775 48.1183C15.6499 48.0914 15.7222 48.0618 15.7945 48.0321C16.5605 47.7035 17.281 47.1997 17.9479 46.6259C18.2827 46.3377 18.6067 46.0306 18.9174 45.71C19.2281 45.3867 19.5281 45.0527 19.82 44.7052C20.112 44.3603 20.3905 44.002 20.6637 43.6411C20.8003 43.4606 20.9316 43.2747 21.0681 43.0915C21.2181 42.8922 21.3654 42.6901 21.5261 42.5015L21.644 42.3588C21.6842 42.3103 21.727 42.2672 21.7672 42.2187C21.8502 42.1271 21.9306 42.0328 22.0163 41.9439L22.2761 41.6799C22.3618 41.591 22.4529 41.5102 22.5412 41.4267C22.9001 41.0926 23.2724 40.7774 23.6581 40.4865C24.4295 39.8992 25.2464 39.3874 26.0874 38.9294C26.9284 38.4742 27.7935 38.0701 28.68 37.7172C29.1246 37.5421 29.5692 37.3777 30.0299 37.2296L30.204 37.1757L30.2495 37.1622C30.2495 37.1622 30.2709 37.1541 30.2817 37.1514L30.3593 37.1245L30.6673 37.0114L30.8227 36.9548C30.8736 36.9359 30.9271 36.9198 30.9753 36.8955L31.2807 36.7662C32.0949 36.4187 32.8636 35.985 33.5492 35.4516C33.6349 35.3842 33.7153 35.3115 33.7983 35.2442C33.8814 35.1741 33.9671 35.1068 34.0421 35.0286L34.2751 34.8051C34.3152 34.7673 34.3501 34.7296 34.3876 34.6892L34.4974 34.5707C34.6474 34.4171 34.7759 34.242 34.9125 34.0777L35.1 33.8164C35.1295 33.7706 35.1643 33.7302 35.1911 33.6844L35.2768 33.547C35.3973 33.3692 35.4991 33.1779 35.6035 32.9921C35.6491 32.8951 35.7 32.7981 35.7482 32.7038C35.7749 32.6553 35.7937 32.6068 35.8151 32.5556L35.8794 32.4075C35.9249 32.3105 35.9624 32.2081 36.0026 32.1058L36.0615 31.9549L36.1124 31.7987L36.166 31.6424C36.1821 31.5912 36.1954 31.5373 36.2115 31.4862C36.241 31.3811 36.2731 31.276 36.2999 31.1683C36.407 30.7426 36.4874 30.3035 36.5383 29.859C36.5463 29.8025 36.549 29.7486 36.5543 29.692C36.5597 29.6355 36.5651 29.5816 36.5704 29.525C36.5784 29.4119 36.5865 29.3014 36.5918 29.1883C36.5972 29.0751 36.5999 28.962 36.6026 28.8488C36.6052 28.7357 36.6026 28.6199 36.6026 28.5148V28.5013C36.6026 28.3963 36.6829 28.3101 36.7874 28.3074C36.8704 28.3074 36.94 28.3585 36.9668 28.4313C37.0123 28.5552 37.0472 28.6683 37.0793 28.7869C37.0954 28.8461 37.1114 28.9054 37.1248 28.9647C37.1382 29.0239 37.1516 29.0832 37.1623 29.1425C37.2105 29.3822 37.2427 29.6247 37.2641 29.8698C37.3043 30.3574 37.2962 30.8531 37.2346 31.3434C37.2266 31.4053 37.2212 31.4673 37.2105 31.5266L37.1784 31.7098C37.1677 31.7717 37.1596 31.8337 37.1463 31.8929L37.1061 32.0761L37.0632 32.2593L37.0123 32.4398C36.9775 32.561 36.9454 32.6823 36.9025 32.7981L36.8382 32.9759C36.8168 33.0352 36.7981 33.0944 36.7713 33.151C36.7231 33.2668 36.6749 33.3827 36.624 33.4985C36.5115 33.7221 36.4044 33.9511 36.2704 34.1639L36.174 34.3255C36.1419 34.3794 36.1044 34.4306 36.0696 34.4818C35.9972 34.5842 35.9303 34.6892 35.8553 34.7916C35.6999 34.9882 35.55 35.1903 35.3785 35.3708L35.2527 35.5109C35.2098 35.5567 35.1696 35.6051 35.1241 35.6482L34.8563 35.9096C34.7706 35.9985 34.6715 36.0766 34.5777 36.1601C34.484 36.2409 34.3902 36.3244 34.2938 36.4025C33.6751 36.8928 33.0055 37.305 32.3092 37.6525C33.5626 38.2021 34.7331 38.8271 35.8151 39.5248C36.1633 39.2419 36.5329 38.986 36.9213 38.7678C37.2239 38.5954 37.5373 38.4391 37.8587 38.3098C38.1801 38.1805 38.5069 38.0647 38.839 37.9758C39.1711 37.8842 39.5032 37.8115 39.8407 37.7576C40.0067 37.7253 40.1781 37.7118 40.3442 37.6875C40.4299 37.6795 40.5129 37.6714 40.596 37.6633C40.6817 37.6552 40.7647 37.6471 40.8477 37.6444C42.1949 37.5663 43.5234 37.7253 44.7983 38.0485C44.8545 38.062 44.8867 38.1186 44.8733 38.1724C44.8599 38.2209 44.817 38.2533 44.7688 38.2506C44.1207 38.2209 43.4725 38.2075 42.8351 38.2344C42.1949 38.2613 41.5628 38.326 40.9441 38.4337C40.8665 38.4445 40.7888 38.4634 40.7138 38.4768C40.6361 38.493 40.5611 38.5065 40.4835 38.5226C40.3308 38.5604 40.1781 38.5927 40.0282 38.6358C39.7255 38.7139 39.4336 38.8136 39.1443 38.9186L38.93 39.0022L38.7184 39.0938C38.6488 39.1234 38.5792 39.1557 38.5095 39.188C38.4399 39.2204 38.3703 39.25 38.3033 39.2877L38.0997 39.3928L37.9015 39.5059C37.8346 39.5436 37.7703 39.584 37.706 39.6218C37.6418 39.6595 37.5775 39.7026 37.5159 39.743C36.5035 40.4057 35.6839 41.3162 35.0732 42.3588C34.7679 42.8814 34.5108 43.4363 34.3019 44.0101C34.1974 44.2984 34.1063 44.5893 34.026 44.8856C34.0019 44.9745 33.9778 45.0634 33.9563 45.155C34.3608 45.1847 34.7652 45.2224 35.167 45.2682C35.7 45.3274 36.2276 45.4002 36.7525 45.4783C36.8249 45.4864 36.8945 45.4945 36.9668 45.5026C37.0043 45.5079 37.0391 45.516 37.0713 45.5241C38.2953 45.7073 39.5005 45.9093 40.7058 46.0602C41.9244 46.2137 43.1404 46.3134 44.3617 46.3431L44.8197 46.3511H45.2777L45.7357 46.3484C45.8884 46.3457 46.0384 46.3404 46.1883 46.335C46.7883 46.3107 47.3775 46.2542 47.94 46.1383C48.5024 46.0198 49.0354 45.8366 49.4854 45.5591C49.5979 45.4891 49.7023 45.4137 49.8041 45.3328C49.9032 45.252 49.997 45.1631 50.0827 45.0715C50.2541 44.883 50.4041 44.6701 50.5273 44.4304C50.779 43.9536 50.9371 43.4013 51.0469 42.8248C51.1567 42.2456 51.2156 41.6422 51.2745 41.0226L51.2772 41.0037ZM13.0947 10.2878C12.7465 9.50659 12.0796 8.20005 11.0324 6.88812C9.07988 4.44744 6.69883 3.02506 3.94013 2.6533C4.20797 3.38604 4.58561 4.51479 4.93648 5.8806C5.59535 8.45867 5.87925 10.8158 5.78551 12.9063C6.22476 12.5615 6.78186 12.1736 7.45948 11.8045C8.7424 11.1041 10.6547 10.3659 13.0947 10.2878Z" fill="#472114"/>
<path d="M37.2476 57.2644C38.3511 56.8657 39.543 56.4858 40.3786 55.7181C40.6652 55.4541 40.6974 55.0123 40.4483 54.7105C39.851 53.9913 39.3528 53.1939 38.8734 52.4019C38.6806 52.0813 38.7582 51.6664 39.0582 51.4428C39.6823 50.9768 40.3786 50.5835 40.8286 49.9585C41.0509 49.6514 41 49.2231 40.7134 48.9752C40.0438 48.4068 39.4037 47.8088 38.8252 47.1461C38.7154 47.0194 38.56 46.9359 38.394 46.909C37.8824 46.8309 37.3709 46.7501 36.8646 46.6719C36.7789 46.6585 36.6906 46.6477 36.6048 46.6342C33.2221 46.2544 30.2411 46.4106 27.7449 47.1003C25.6558 47.6768 24.3621 48.4984 23.6443 49.0884C23.3926 49.2958 23.3122 49.646 23.4488 49.945C25.9129 55.3571 29.7242 59.0935 34.7782 61.0547C35.5389 61.351 36.2701 61.58 36.9557 61.7605C37.5637 61.9194 38.0753 61.2702 37.7726 60.7153C37.7726 60.7099 37.7672 60.7072 37.7646 60.7018C37.3709 59.8721 37.0414 59.01 36.8004 58.1426C36.6986 57.7762 36.8914 57.391 37.2476 57.2617V57.2644Z" fill="white"/>
<path d="M51.1669 37.3994C51.0865 36.8041 50.9687 36.2222 50.808 35.643C50.65 35.0638 50.4544 34.4954 50.2268 33.9378C49.7715 32.8225 49.1876 31.7584 48.518 30.7455C47.8484 29.7326 47.0931 28.7709 46.2843 27.8495C45.4754 26.9282 44.6157 26.0473 43.7291 25.1934L43.3943 24.8728C43.2818 24.765 43.1693 24.6627 43.0569 24.5576C42.8292 24.3502 42.6069 24.1373 42.3766 23.9353C42.1462 23.7306 41.9186 23.5231 41.6829 23.3265C41.4499 23.1271 41.2168 22.9251 40.9785 22.7311C39.0849 21.1552 37.0788 19.7166 35.0057 18.3778C33.9692 17.7097 32.914 17.0631 31.8453 16.4409C31.0445 15.9721 30.241 15.5142 29.4268 15.0831C29.4268 15.0831 29.4268 15.0831 29.4268 15.0858C29.7187 15.269 30.008 15.4549 30.2972 15.6408C32.5899 17.1197 34.8076 18.7118 36.8993 20.4521C37.1618 20.6676 37.4189 20.8912 37.6761 21.1121C37.9359 21.3303 38.1876 21.5593 38.4421 21.7856C38.6965 22.0092 38.9429 22.2435 39.1947 22.4725C39.3206 22.5883 39.4438 22.7015 39.567 22.82L39.9366 23.1729C40.9169 24.1185 41.8677 25.091 42.7622 26.1093C43.6568 27.1276 44.4898 28.189 45.229 29.3096C45.9682 30.4276 46.6137 31.6049 47.1146 32.836C47.3663 33.4529 47.5833 34.0806 47.7574 34.719C47.9341 35.3575 48.0654 36.004 48.1537 36.6586C48.3332 37.9706 48.3439 39.3121 48.2207 40.6402C48.1564 41.3245 48.0921 41.9925 47.9716 42.631C47.8511 43.2695 47.6743 43.881 47.3985 44.4063C47.2619 44.6676 47.0958 44.9074 46.9056 45.1148C46.8119 45.2172 46.7074 45.3141 46.5976 45.403C46.4851 45.4919 46.37 45.5754 46.2468 45.6536C45.7513 45.9607 45.1594 46.1654 44.538 46.2947C44.4817 46.3055 44.4255 46.3163 44.3692 46.327L44.771 46.3324H45.229L45.687 46.3297C45.8397 46.327 45.9896 46.3217 46.1396 46.3163C46.7396 46.292 47.3288 46.2354 47.8913 46.1196C48.4537 46.0011 48.9867 45.8179 49.4367 45.5404C49.5492 45.4704 49.6536 45.395 49.7554 45.3141C49.8545 45.2333 49.9482 45.1444 50.0339 45.0528C50.2054 44.8643 50.3553 44.6514 50.4786 44.4117C50.7303 43.9349 50.8883 43.3826 50.9982 42.8061C51.108 42.2269 51.1669 41.6235 51.2258 41.0039C51.3383 39.7997 51.3276 38.5875 51.1669 37.3994Z" fill="#E53000"/>
<path d="M29.0092 66.7065C18.0682 65.1251 6.28077 58.1937 4.60948 46.2705C4.58805 46.1089 4.56662 45.9499 4.54788 45.7883C4.48895 45.298 3.78723 45.2791 3.70152 45.7667C3.40958 47.4693 3.39083 49.2742 3.65331 51.1465C5.13443 61.712 15.58 67.8568 25.2783 69.2576C34.5052 70.5911 42.3741 68.8158 47.3505 67.0944C47.688 66.9785 48.0174 66.86 48.3388 66.7388C48.8397 66.5529 48.62 65.7986 48.0978 65.9171C42.8937 67.0863 36.3318 67.7625 29.0119 66.7065H29.0092Z" fill="#FF4848"/>
<path opacity="0.4" d="M3.69869 42.9381C5.43693 43.1348 7.44301 42.7307 9.16519 41.7932C10.0062 41.3353 11.0052 40.9823 12.0042 40.7103C12.331 40.29 12.6872 39.8913 13.0729 39.5169C13.0997 39.4872 13.1211 39.463 13.1452 39.4387C13.1747 39.4064 13.2015 39.3768 13.2309 39.3498C13.2872 39.2933 13.3434 39.234 13.3997 39.1774C13.4559 39.1236 13.5121 39.067 13.5711 39.0131L13.7425 38.8515C13.9675 38.644 14.1951 38.4447 14.4281 38.2507C12.8988 38.7087 11.0561 39.3956 9.71425 40.3358C8.10724 41.4619 6.15741 42.0869 4.40845 42.0869C4.31738 42.0869 4.22632 42.0869 4.13526 42.0815C3.97456 42.3616 3.82457 42.6445 3.68262 42.9354C3.68797 42.9354 3.69333 42.9354 3.69869 42.9354V42.9381Z" fill="#180D44"/>
<path opacity="0.4" d="M30.9561 38.0891H30.9454L30.8597 38.1242C30.8463 38.1295 30.8329 38.1349 30.8088 38.1403L30.7713 38.1511L30.616 38.2023C30.1928 38.345 29.7696 38.504 29.3491 38.6764C28.5108 39.0185 27.6912 39.4064 26.9038 39.8429C26.1164 40.282 25.3557 40.7669 24.6513 41.311C24.2978 41.5804 23.9603 41.8714 23.6416 42.1758C23.5612 42.2539 23.4809 42.3266 23.4032 42.4048L23.1755 42.6418C23.1006 42.7226 23.0309 42.8035 22.9559 42.8843C22.9211 42.9247 22.8809 42.9651 22.8488 43.0055L22.7443 43.1321C22.6024 43.2964 22.4765 43.4742 22.3479 43.6467C22.2087 43.8406 22.0721 44.0346 21.9274 44.2258C21.6435 44.6084 21.3489 44.9855 21.0409 45.3546C20.7329 45.7237 20.4142 46.0819 20.0794 46.4322C19.7446 46.7797 19.3937 47.1164 19.0241 47.437C18.6545 47.7576 18.2661 48.0593 17.851 48.3367C17.4359 48.6115 16.9939 48.8621 16.5225 49.0641C16.0511 49.2661 15.5449 49.4197 15.0173 49.4951C14.5084 49.5652 13.9781 49.5625 13.4639 49.4628C13.4665 49.4628 13.4719 49.4682 13.4746 49.4709C13.6139 49.5544 13.7585 49.6271 13.9058 49.6972C13.9058 49.6972 13.9112 49.6972 13.9138 49.6972C13.9861 49.7241 14.0558 49.751 14.1281 49.7753C14.4388 49.8804 14.7575 49.9612 15.0816 50.015C15.0977 50.015 15.1271 50.0231 15.1619 50.0285C18.1081 50.4757 19.8089 47.7576 21.7212 46.0442C22.8916 44.9963 24.2094 44.1127 25.6209 43.4231C27.0109 42.7442 28.8617 41.769 30.4526 42.0061C30.7526 42.0519 33.3693 43.0809 33.2461 43.4769C33.2568 43.4419 33.2676 43.4042 33.2809 43.3665C33.3908 43.0351 33.5193 42.7119 33.6613 42.394C33.8059 42.0761 33.9693 41.7663 34.1514 41.4673C34.4326 40.9985 34.7594 40.5541 35.129 40.1473C33.8595 39.358 32.4667 38.6683 30.9561 38.0837V38.0891Z" fill="#180D44"/>
<path opacity="0.4" d="M37.7405 63.2017C41.0751 64.4948 43.8525 64.6134 44.7551 64.6134C44.9024 64.6134 44.9988 64.6107 45.0417 64.608C45.3551 64.6107 48.8503 64.6107 52.7312 63.3499C53.1731 63.2071 53.599 63.0536 54.0168 62.8866C53.6606 62.3101 53.224 61.6097 52.7098 60.8123C51.7536 61.3133 50.7117 61.7497 49.5895 62.1134C45.7086 63.3742 42.2107 63.3742 41.9 63.3715C41.8571 63.3715 41.7607 63.3769 41.6134 63.3769C40.8528 63.3769 38.7583 63.2933 36.1201 62.4906C36.6478 62.7492 37.1888 62.9862 37.7405 63.1991V63.2017Z" fill="#180D44"/>
<path d="M35.8204 39.5034C36.1686 39.2205 36.5382 38.9646 36.9266 38.7464C37.2292 38.574 37.5426 38.4177 37.864 38.2884C38.0354 38.2184 38.2095 38.1537 38.3836 38.0945C38.1452 37.984 37.9095 37.8655 37.6792 37.7389C37.1248 37.4398 36.573 37.13 36.0052 36.8526C35.8606 36.7825 35.716 36.7179 35.5713 36.6505C35.5713 36.6505 35.5713 36.6505 35.5687 36.6505C35.4883 36.6209 35.4106 36.5886 35.333 36.5589C35.0517 36.4539 34.7652 36.3677 34.4705 36.303C34.4518 36.2976 34.433 36.2949 34.4143 36.2896C34.3768 36.3219 34.342 36.3515 34.3045 36.3811C33.6858 36.8714 33.0162 37.2836 32.3198 37.6311C33.5733 38.1807 34.7437 38.8057 35.8258 39.5034H35.8204Z" fill="#E53000"/>
<path opacity="0.4" d="M29.1965 24.3853C29.084 23.3212 28.8162 22.2571 28.2591 21.3466C28.3341 21.4705 29.4643 26.5754 26.711 29.6384C25.6423 30.8291 23.9764 31.8232 22.6131 32.5882C20.1544 33.9675 17.4921 34.878 14.937 36.0445C14.2111 36.3759 13.496 36.7288 12.7916 37.1086C12.7863 37.1086 12.7809 37.1086 12.7756 37.1086C12.5907 37.3591 12.3979 37.5989 12.1997 37.8333C14.4549 36.9793 16.6083 36.5887 16.7395 36.5644C16.7449 36.5644 16.7502 36.5644 16.7556 36.5644C17.3662 36.1738 17.9876 35.8047 18.6197 35.4545C18.8715 35.3091 19.1313 35.1771 19.3884 35.0397L19.7741 34.8376C19.9053 34.773 20.0365 34.7083 20.1651 34.6437L20.5588 34.4497C20.6901 34.3851 20.8213 34.3204 20.9499 34.2611C21.2043 34.1426 21.4534 34.0214 21.7052 33.8948C22.206 33.6415 22.6988 33.3695 23.189 33.0893C23.4327 32.9492 23.6764 32.8037 23.9201 32.6583C24.1639 32.5128 24.4076 32.3646 24.646 32.2165C25.1254 31.9201 25.5941 31.613 26.0441 31.2871C27.3083 30.3711 28.393 29.3232 28.9019 27.7985C29.2581 26.7317 29.3117 25.5814 29.1992 24.4607C29.1992 24.4365 29.1938 24.4122 29.1911 24.388L29.1965 24.3853Z" fill="#180D44"/>
</g>
<defs>
<clipPath id="clip0_18184_3525">
<rect width="74" height="72" fill="white"/>
</clipPath>
</defs>
</svg>
