<svg width="61" height="68" viewBox="0 0 61 68" fill="none" xmlns="http://www.w3.org/2000/svg">
<g clip-path="url(#clip0_18182_1866)">
<g opacity="0.3">
<path d="M59.1875 13.1345C58.7173 12.8414 58.1701 12.7055 57.5417 12.7607C49.7489 13.4319 43.1445 18.9923 40.1309 21.9658C39.2118 22.8706 37.7114 22.8027 36.8735 21.8214C36.8735 21.8214 45.3332 11.6775 56.0328 10.7599C57.5118 10.6325 58.5591 11.5585 59.1875 13.1388V13.1345Z" fill="white"/>
<path d="M38.5706 22.6837C38.5365 22.6837 38.5023 22.6837 38.4723 22.6837C37.8311 22.6539 37.2284 22.3608 36.8137 21.8723L36.771 21.8214L36.8137 21.7704C36.8992 21.6684 45.4187 11.5925 56.0285 10.6792C57.4648 10.556 58.5891 11.3971 59.2688 13.109L59.3628 13.3426L59.1491 13.2109C58.6831 12.9178 58.1445 12.7989 57.5546 12.8499C49.8772 13.5083 43.384 18.8861 40.195 22.0295C39.7633 22.4543 39.1777 22.6922 38.5749 22.6922L38.5706 22.6837ZM36.9847 21.8171C37.3652 22.2377 37.9081 22.4925 38.4766 22.518C39.0751 22.5435 39.6436 22.3269 40.0711 21.9063C43.2771 18.7459 49.8046 13.3426 57.5332 12.6799C58.0718 12.6332 58.572 12.7224 59.0165 12.9476C58.3582 11.4565 57.3323 10.7344 56.0371 10.8406C45.8975 11.7114 37.6644 21.0228 36.9805 21.8171H36.9847Z" fill="#390075"/>
</g>
<path d="M49.0184 31.2644C48.638 29.4463 46.7357 27.025 45.09 25.2026C43.6024 23.5545 43.846 21.0015 45.6029 19.6422C48.6893 17.2421 52.1176 15.8446 54.396 15.1054C55.7468 14.6679 57.1104 15.7256 57.0207 17.1317C56.8796 19.3151 56.3025 22.569 54.4046 26.0267C52.3527 29.7649 49.2621 31.2601 49.2621 31.2601" fill="#FF6C6C"/>
<path d="M49.2961 31.3324L49.2234 31.1837C49.2533 31.1709 52.314 29.6545 54.3274 25.9843C56.2297 22.518 56.7939 19.2514 56.935 17.1232C56.9777 16.486 56.6999 15.8743 56.1912 15.4835C55.6782 15.0885 55.0327 14.978 54.4172 15.1777C52.1088 15.9296 48.7105 17.3229 45.6498 19.7017C44.8247 20.3431 44.299 21.3031 44.2092 22.3354C44.1151 23.3718 44.4529 24.3701 45.1496 25.1432C46.7355 26.8976 48.7062 29.3826 49.0995 31.2432L48.937 31.2771C48.5566 29.4506 46.5988 26.9953 45.0257 25.2537C44.2947 24.4466 43.9484 23.4058 44.0425 22.3184C44.1365 21.2394 44.688 20.2369 45.5472 19.57C48.6292 17.1784 52.0447 15.7766 54.3659 15.0205C55.0242 14.8081 55.7423 14.9313 56.2895 15.3519C56.8409 15.7766 57.1402 16.4393 57.0974 17.1317C56.9564 19.2769 56.3921 22.569 54.4728 26.0608C52.4294 29.7776 49.326 31.3154 49.2961 31.3281V31.3324Z" fill="#390075"/>
<path d="M48.4108 26.1287C48.056 26.7744 47.6713 27.3521 47.2737 27.8703C46.5983 26.9358 45.8204 26.0098 45.0894 25.2027C43.6018 23.5545 43.8454 21.0015 45.5981 19.638C47.355 18.2744 49.2187 17.2337 50.9201 16.4563C51.0056 16.6984 51.044 16.9618 51.0227 17.2379C50.8816 19.4213 50.3045 22.6752 48.4065 26.1287H48.4108Z" fill="#FF6C6C"/>
<path d="M47.2695 28.0062L47.2054 27.917C46.6155 27.0972 45.8802 26.2009 45.0296 25.2578C44.2986 24.4507 43.9523 23.41 44.0464 22.3268C44.1404 21.2478 44.6876 20.2454 45.5511 19.5742C47.1071 18.3678 48.9024 17.2931 50.8902 16.3798L50.9714 16.3416L51.0013 16.4265C51.0911 16.6856 51.1296 16.9617 51.1125 17.2421C50.9714 19.3873 50.4029 22.6794 48.4835 26.1669C48.1544 26.7701 47.7696 27.3605 47.3422 27.917L47.2738 28.0062H47.2695ZM50.8688 16.5709C48.9281 17.4672 47.1712 18.5207 45.6494 19.7059C44.8244 20.3473 44.2986 21.3073 44.2088 22.3438C44.1191 23.3803 44.4525 24.3785 45.1493 25.1516C45.9743 26.0692 46.6881 26.9358 47.2738 27.7344C47.6713 27.2076 48.0261 26.6554 48.3382 26.0947C50.2404 22.6284 50.8047 19.366 50.9458 17.2379C50.9629 17.0127 50.9372 16.7876 50.8731 16.5752L50.8688 16.5709Z" fill="#390075"/>
<g opacity="0.3">
<path d="M15.2695 1.74585C15.8252 1.71612 16.3681 1.86479 16.8896 2.21737C23.3573 6.58418 26.388 14.6467 27.555 18.7034C27.9098 19.9395 29.2564 20.6107 30.4661 20.1561C30.4661 20.1561 28.0723 7.20013 19.1894 1.20212C17.9626 0.373789 16.5904 0.67114 15.2695 1.74585Z" fill="white"/>
<path d="M29.688 20.3813C29.3289 20.3813 28.9741 20.3006 28.6492 20.1392C28.0764 19.8546 27.649 19.3406 27.4737 18.7289C26.2383 14.4343 23.2161 6.59272 16.8425 2.28963C16.3509 1.95829 15.8251 1.80537 15.2737 1.83086L15.0215 1.8436L15.2181 1.68643C16.6544 0.52251 18.0437 0.335603 19.2406 1.13845C28.0508 7.08548 30.5301 20.016 30.5515 20.1477L30.5643 20.2157L30.5002 20.2412C30.2394 20.3389 29.9658 20.3856 29.6923 20.3856L29.688 20.3813ZM15.5131 1.66519C16.0132 1.68643 16.492 1.84785 16.9366 2.14945C23.3529 6.48228 26.3965 14.3663 27.6361 18.6822C27.8028 19.2556 28.1876 19.7229 28.7262 19.9905C29.2349 20.2454 29.8333 20.2879 30.3719 20.1052C30.1668 19.0772 27.5592 6.95804 19.1423 1.27438C18.0651 0.547997 16.8126 0.683929 15.5088 1.66519H15.5131Z" fill="#390075"/>
</g>
<path d="M15.2308 22.5011C16.4577 21.0993 19.3046 19.9099 21.6386 19.1197C23.746 18.4061 24.7891 16.0613 23.9256 14.018C22.4123 10.4243 20.1083 7.54429 18.4839 5.78991C17.5221 4.75343 15.8079 5.01255 15.1966 6.28691C14.2476 8.25793 13.149 11.3801 13.1063 15.3179C13.0593 19.5785 15.0214 22.3821 15.0214 22.3821" fill="#FF6C6C"/>
<path d="M15.2905 22.5563L15.1665 22.4501C16.4233 21.0143 19.3643 19.8079 21.6128 19.0433C22.6045 18.7077 23.3868 17.9983 23.8142 17.051C24.2417 16.1037 24.2545 15.012 23.8527 14.052C22.3523 10.488 20.0739 7.62497 18.4281 5.84936C17.9921 5.37785 17.3723 5.1612 16.731 5.25466C16.0984 5.34811 15.5555 5.74741 15.2776 6.32512C14.35 8.24941 13.2386 11.3716 13.1959 15.3221C13.1488 19.502 15.0767 22.3099 15.0938 22.3354L14.957 22.4288C14.9357 22.3991 12.9821 19.553 13.0292 15.3179C13.0719 11.3376 14.1961 8.19419 15.128 6.25291C15.4273 5.62847 16.0172 5.19519 16.7054 5.09324C17.3936 4.99129 18.0819 5.23342 18.5478 5.73891C20.2021 7.52302 22.4933 10.4031 24.0023 13.9883C24.4255 14.9908 24.4084 16.1292 23.9638 17.119C23.515 18.113 22.6985 18.8521 21.6641 19.2004C19.4369 19.9566 16.5216 21.1502 15.2905 22.5605V22.5563Z" fill="#390075"/>
<path d="M18.2871 18.3168C18.2785 19.0517 18.3298 19.7441 18.4238 20.3898C19.4754 19.9013 20.6082 19.4722 21.6384 19.1239C23.7458 18.4103 24.7889 16.0654 23.9297 14.0222C23.0704 11.979 21.9547 10.1651 20.8519 8.66138C20.6595 8.83129 20.4971 9.03944 20.3774 9.29006C19.4284 11.2611 18.3298 14.3833 18.2871 18.321V18.3168Z" fill="#FF6C6C"/>
<path d="M18.3556 20.5087L18.3385 20.3982C18.2401 19.7016 18.1931 19.0007 18.2017 18.3125C18.2444 14.3365 19.3644 11.1888 20.3006 9.24755C20.4202 8.99268 20.587 8.77179 20.7964 8.58913L20.8648 8.52966L20.9204 8.60188C22.2071 10.3605 23.2458 12.1701 24.0067 13.9797C24.4299 14.9822 24.4128 16.1249 23.964 17.1104C23.5151 18.1001 22.6987 18.8393 21.6642 19.1918C20.4544 19.6039 19.3729 20.0287 18.4582 20.4535L18.3556 20.5002V20.5087ZM20.8392 8.78029C20.681 8.93321 20.5485 9.11587 20.4502 9.32402C19.5226 11.2483 18.4111 14.3705 18.3684 18.3168C18.3598 18.9582 18.4026 19.6166 18.4881 20.2665C19.39 19.8503 20.4373 19.4425 21.6086 19.0432C22.6003 18.7076 23.3783 17.9982 23.8101 17.0509C24.2376 16.1036 24.2547 15.0119 23.8486 14.0519C23.1005 12.2805 22.0874 10.5092 20.8349 8.78029H20.8392Z" fill="#390075"/>
<path d="M52.9507 47.8055C51.3306 46.3825 50.591 42.844 50.5782 41.1661C50.5739 40.1976 50.45 38.2563 50.3474 36.7865C61.0512 31.7273 63.2271 10.3563 56.4773 10.934C48.8598 11.5881 42.3751 16.9192 39.2716 19.9352C36.5786 18.5419 34.4754 18.1596 34.4754 18.1596C34.4754 18.1596 32.3979 17.4545 29.2988 17.378C28.0805 13.2491 25.0454 5.42022 18.706 1.14261C13.0891 -2.65074 4.43281 17.2081 11.4262 26.7828C10.6226 28.0062 9.59238 29.5906 9.12216 30.419C8.2886 31.876 5.89904 34.6031 3.78733 35.0577C2.53912 35.3253 2.24844 36.2258 2.82553 37.1051C3.19743 37.6701 3.9284 38.2308 4.9928 38.6089C5.07829 38.6386 5.16379 38.6683 5.25356 38.6981C5.25356 38.6981 5.25356 38.6981 5.24928 38.6981C5.17234 38.7236 4.52686 38.9317 2.87255 39.4924C1.24816 40.0447 2.04753 41.5399 4.05664 43.358C6.06575 45.1718 8.32279 48.7698 8.82721 49.3475C9.12216 49.6873 10.644 51.7178 13.9611 53.897C16.3208 55.4475 19.5866 57.0702 23.9682 58.2043C34.5011 60.9357 40.8063 58.0896 41.533 57.8305C42.2597 57.5714 45.9957 55.5282 48.6418 54.9207C51.2878 54.3133 52.7198 53.3915 51.5742 52.1214C50.326 50.7366 49.8857 50.2693 49.8857 50.2693C49.9755 50.2863 50.061 50.3033 50.1465 50.3203C51.2664 50.5072 52.1855 50.3755 52.7882 50.0611C53.7244 49.5726 53.9125 48.6466 52.955 47.8098L52.9507 47.8055Z" fill="#FF642E"/>
<g opacity="0.4">
<path d="M55.9771 12.8456C49.548 13.3978 44.2345 17.9982 40.8703 21.2309C39.9 22.1654 38.4594 22.4415 37.2112 21.9233C35.3218 21.1417 33.8043 20.7381 33.8043 20.7381C33.8043 20.7381 32.244 20.3388 30.1579 20.1052C28.8071 19.9523 27.6743 19.0262 27.2853 17.7349C25.9431 13.2788 23.5706 6.6649 18.2144 3.04996C15.2307 1.03647 11.392 5.68364 9.48975 11.9238C11.0885 4.68964 15.453 -1.27438 18.7616 0.964255C25.101 5.24187 28.136 13.0707 29.3543 17.1996C32.4534 17.2761 34.531 17.9855 34.531 17.9855C34.531 17.9855 36.6341 18.3678 39.3229 19.7611C42.4263 16.7451 48.9111 11.414 56.5286 10.7599C60.5126 10.4158 61.3889 17.7391 59.2259 24.8288C60.6366 18.4613 59.5722 12.5397 55.9771 12.8498V12.8456Z" fill="white"/>
</g>
<path d="M48.6375 54.9166C45.9914 55.524 42.2553 57.5672 41.5286 57.8264C40.8019 58.0855 34.4967 60.9316 23.9639 58.2002C19.5823 57.066 16.3164 55.4433 13.9568 53.8928C10.6396 51.7179 9.11784 49.6832 8.82288 49.3433C8.31847 48.7656 6.06142 45.1677 4.05231 43.3538C2.0432 41.5357 1.24811 40.0405 2.86822 39.4883C4.52253 38.9276 5.16801 38.7194 5.24496 38.6939H5.24923C5.15946 38.6642 5.06969 38.6387 4.98847 38.6047C5.36465 38.5792 5.77929 38.5707 6.23241 38.5792C9.89583 38.6642 13.0719 44.5475 19.8003 43.7616C24.9642 43.1584 25.8789 31.7274 27.8667 29.2084C27.8881 29.1829 27.9052 29.1574 27.9265 29.132C30.0169 26.5365 34.2274 27.6282 34.7789 30.9076C34.7831 30.9415 34.7917 30.9713 34.796 31.0053C35.2918 34.1699 30.47 44.5857 34.6763 47.6187C40.1607 51.5735 45.8247 47.9798 49.0649 49.6832C49.4668 49.8956 49.8216 50.1037 50.1422 50.3119C50.0567 50.2991 49.9669 50.2821 49.8814 50.2609C49.8814 50.2609 50.3217 50.7282 51.5699 52.113C52.7155 53.3831 51.2835 54.3049 48.6375 54.9123V54.9166Z" fill="white"/>
<path d="M39.2761 20.5979C39.1735 20.5979 39.0667 20.5724 38.9683 20.5215C36.395 19.1876 34.3816 18.8138 34.3602 18.8096C34.326 18.8053 34.2961 18.7968 34.2662 18.7841C34.2448 18.7756 32.2357 18.1087 29.2904 18.0364C28.9228 18.0279 28.6321 17.7264 28.6449 17.361C28.6535 17.0042 28.9484 16.7196 29.3075 16.7196C29.3118 16.7196 29.3203 16.7196 29.3246 16.7196C32.2699 16.7918 34.3089 17.412 34.6509 17.5225C34.9929 17.5904 37.0276 18.028 39.5839 19.3533C39.9088 19.5232 40.037 19.9183 39.866 20.2453C39.7463 20.4705 39.5155 20.6022 39.2761 20.6022V20.5979Z" fill="#472114"/>
<path d="M11.9649 27.1311C11.375 28.0317 10.7851 28.9322 10.2208 29.8413C10.0798 30.0664 9.9387 30.2958 9.80619 30.5209C9.68222 30.7333 9.52406 31.0094 9.36589 31.2431C9.04529 31.7188 8.69904 32.1606 8.32714 32.5854C7.58334 33.4307 6.7626 34.2166 5.78369 34.858C5.2921 35.1723 4.75776 35.4569 4.13793 35.6311L3.91137 35.6863C3.86008 35.6991 3.80878 35.7118 3.76176 35.7246C3.66771 35.7543 3.57367 35.7883 3.501 35.8308C3.34711 35.9115 3.25734 36.0049 3.21887 36.0941C3.17612 36.1791 3.17185 36.2895 3.21032 36.4425C3.25734 36.5911 3.34711 36.7611 3.4839 36.9182C3.74893 37.2368 4.13793 37.5129 4.56113 37.7296C4.66799 37.7848 4.77486 37.8358 4.89028 37.8825C4.94585 37.908 5.00142 37.9292 5.06127 37.9505L5.14676 37.9844L5.19806 38.0057C5.22371 38.0184 5.24935 38.0312 5.27073 38.0439C5.32202 38.0736 5.36905 38.1076 5.41179 38.1501C5.49729 38.2308 5.56141 38.3328 5.5956 38.4347C5.66827 38.6386 5.65545 38.8425 5.56141 39.0337C5.51439 39.1271 5.44172 39.2163 5.35622 39.2885C5.31347 39.3225 5.26645 39.3523 5.21516 39.3777C5.18951 39.3905 5.16386 39.399 5.13821 39.4075L5.11256 39.416L4.9202 39.4797L4.53548 39.6071L3.01796 40.1169C2.82987 40.1848 2.70591 40.2825 2.67171 40.3335C2.65461 40.359 2.64606 40.3802 2.64179 40.4227C2.63751 40.4652 2.64179 40.5289 2.66316 40.6054C2.69736 40.7625 2.79995 40.9579 2.91537 41.1534C3.03933 41.3488 3.18467 41.5399 3.34711 41.7311C3.66771 42.1134 4.03534 42.4787 4.42006 42.827C4.83043 43.2051 5.23653 43.6171 5.60415 44.0292C6.34368 44.866 7.01053 45.7368 7.65174 46.6161L8.60072 47.9415L9.06666 48.5914C9.13933 48.6891 9.22483 48.8038 9.28467 48.876C9.35307 48.9609 9.45139 49.0671 9.53688 49.1606C10.2465 49.9337 11.0159 50.6686 11.811 51.361C12.6104 52.0534 13.4354 52.7118 14.3032 53.3065C15.1667 53.9097 16.0601 54.4577 16.992 54.925C17.2228 55.0439 17.4622 55.1501 17.693 55.2605L18.4283 55.5791L19.9159 56.1993C21.9079 57.0064 23.917 57.788 25.9688 58.4422C26.08 58.4804 26.1441 58.5994 26.1099 58.7098C26.0757 58.8118 25.9774 58.8712 25.8748 58.8543C23.7032 58.5314 21.5915 57.941 19.5183 57.2528C19.0011 57.0829 18.4838 56.9002 17.9709 56.7091L17.2014 56.4202C16.9364 56.314 16.6756 56.2078 16.4234 56.0846C15.4018 55.6174 14.4314 55.0524 13.5166 54.4195C11.6871 53.1494 10.0456 51.6626 8.55797 50.0229C8.46393 49.9167 8.37844 49.8233 8.27584 49.7001C8.1647 49.5641 8.09203 49.458 8.00226 49.339L7.53205 48.6678C7.22427 48.2261 6.91649 47.7843 6.60016 47.3553C5.97178 46.4929 5.32202 45.6476 4.62952 44.8617C4.28327 44.4667 3.92847 44.1099 3.54375 43.7531C3.1291 43.375 2.72728 42.9799 2.35111 42.5339C2.16302 42.3088 1.98348 42.0751 1.81677 41.8118C1.65433 41.5442 1.49617 41.2596 1.40212 40.89C1.35938 40.7073 1.32945 40.4992 1.35083 40.274C1.3722 40.0489 1.45342 39.8068 1.59021 39.6071C1.86379 39.2078 2.23569 39.0209 2.54774 38.902L4.11228 38.3752L4.49701 38.2478L4.68937 38.1841C4.67227 38.1883 4.65517 38.1968 4.63807 38.2053C4.60387 38.2223 4.56968 38.2436 4.53975 38.269C4.47563 38.32 4.42861 38.3795 4.39441 38.4475C4.33029 38.5791 4.32174 38.7108 4.37304 38.851C4.39869 38.919 4.44144 38.9912 4.50556 39.0507C4.53548 39.0804 4.56968 39.1059 4.60387 39.1271C4.62097 39.1356 4.63807 39.1441 4.65517 39.1526C4.67227 39.1611 4.69792 39.1696 4.68509 39.1653L4.5825 39.1229C4.51411 39.0931 4.44144 39.0719 4.37304 39.0379C4.23625 38.9784 4.09946 38.9147 3.96267 38.8468C3.42406 38.5706 2.90682 38.2181 2.47507 37.7083C2.26134 37.4535 2.07753 37.1476 1.96211 36.7823C1.91081 36.5954 1.87661 36.3957 1.88516 36.1833C1.89371 35.9709 1.94073 35.7501 2.03478 35.5504C2.21859 35.1426 2.55629 34.858 2.87689 34.6881C3.03933 34.5989 3.20605 34.5394 3.36849 34.4884C3.4497 34.4629 3.53092 34.446 3.61214 34.4247L3.77886 34.3822C4.2106 34.2633 4.64662 34.0424 5.06127 33.7748C5.89483 33.2311 6.65573 32.5132 7.33541 31.7358C7.67311 31.3493 7.99371 30.9372 8.27584 30.5209C8.42118 30.3085 8.52805 30.1174 8.67767 29.8625C8.81873 29.6246 8.96407 29.391 9.10514 29.1574C9.68222 28.2313 10.2721 27.3265 10.8663 26.4217C11.0587 26.1244 11.4605 26.0437 11.7555 26.2348C12.0547 26.426 12.1359 26.8253 11.9435 27.1184L11.9649 27.1311Z" fill="#472114"/>
<path d="M50.9932 36.7483C51.0616 37.5979 51.1257 38.4517 51.177 39.3056C51.2026 39.7346 51.224 40.1594 51.2411 40.5969L51.2582 41.2426C51.2582 41.4337 51.2796 41.6291 51.2967 41.8288C51.3822 42.6231 51.5446 43.4302 51.7754 44.2034C52.002 44.9765 52.3012 45.7283 52.6945 46.3825C52.8954 46.6969 53.1134 47.0112 53.3656 47.2321L53.4127 47.2788L53.4853 47.3468C53.5323 47.3935 53.5836 47.436 53.6307 47.487C53.7247 47.5847 53.8145 47.6951 53.9 47.8141C54.0667 48.0519 54.212 48.3493 54.2676 48.6934C54.3274 49.0374 54.259 49.424 54.1009 49.7341C53.9427 50.0484 53.7119 50.2778 53.4725 50.4562C52.9895 50.8088 52.4722 50.9575 51.9764 51.0424C51.4762 51.1189 50.9889 51.1231 50.5101 51.0722C50.3904 51.0637 50.275 51.0424 50.1553 51.0297H50.134L50.1211 51.0254C50.1853 51.0339 50.2622 51.0339 50.3349 51.017C50.4845 50.983 50.6042 50.8938 50.6768 50.7961C50.7495 50.6984 50.7923 50.5837 50.7965 50.452C50.7965 50.3203 50.7452 50.1674 50.6597 50.0697L51.0701 50.5199L51.9293 51.4757C52.1773 51.7603 52.7244 52.2998 52.6518 53.1239C52.6389 53.2216 52.6176 53.3193 52.5962 53.4128C52.562 53.4977 52.5278 53.5827 52.485 53.6676C52.4466 53.7568 52.3953 53.8206 52.3483 53.8885C52.297 53.9522 52.2499 54.0287 52.1944 54.0797C52.0875 54.1816 51.9806 54.2963 51.8695 54.3728C51.7583 54.4577 51.6515 54.5384 51.5403 54.5979C51.1 54.8613 50.664 55.0354 50.2323 55.1841C49.7963 55.3243 49.3645 55.4475 48.9328 55.5452L48.3343 55.6939C48.1377 55.7491 47.941 55.8086 47.7487 55.868C46.1799 56.3778 44.6367 57.0872 43.0978 57.8178C42.7045 58.0005 42.3412 58.1831 41.9009 58.37L41.7213 58.438L41.5675 58.489L41.2511 58.5952C41.0417 58.6631 40.8279 58.7268 40.6185 58.7863C39.7721 59.0284 38.9171 59.2111 38.0536 59.364C37.1902 59.5085 36.3267 59.6104 35.4589 59.6699C35.0229 59.6996 34.5911 59.7166 34.1551 59.7208C33.7234 59.7378 33.2874 59.7209 32.8513 59.7124C32.6675 59.7124 32.5222 59.5552 32.5265 59.3725C32.5265 59.2026 32.659 59.0667 32.8257 59.0497H32.83C34.5185 58.8628 36.1899 58.6079 37.8314 58.2383C38.6521 58.0599 39.46 57.839 40.2551 57.5927C40.4518 57.5289 40.6484 57.4652 40.845 57.3973L41.1357 57.2911L41.2853 57.2358L41.405 57.1849C41.7513 57.0362 42.1488 56.8323 42.5293 56.6496C44.0767 55.8978 45.6412 55.1544 47.3255 54.5894C47.5392 54.5214 47.7529 54.4577 47.9667 54.3898L48.6122 54.2241C49.014 54.1306 49.403 54.0117 49.7834 53.8885C50.1553 53.7568 50.5187 53.6039 50.8094 53.4213C50.959 53.332 51.0744 53.2343 51.1599 53.1451C51.224 53.0559 51.271 52.9965 51.2582 52.971C51.3822 52.8903 50.5315 52.0492 50.0185 51.463L49.5697 50.966C49.45 50.83 49.3731 50.6219 49.3816 50.4392C49.3816 50.2523 49.4457 50.0867 49.5483 49.9465C49.6552 49.8063 49.8219 49.6874 50.0228 49.6406C50.1211 49.6194 50.2237 49.6152 50.3178 49.6279L50.3691 49.6364C50.4631 49.6491 50.5572 49.6661 50.6512 49.6704C51.0274 49.7086 51.3993 49.7044 51.7498 49.6534C52.0918 49.5982 52.4166 49.4835 52.6261 49.3263C52.7287 49.2498 52.8056 49.1691 52.8356 49.0969C52.8655 49.0247 52.8826 48.9737 52.8698 48.8973C52.8569 48.8208 52.8185 48.7189 52.7415 48.6127C52.7031 48.5574 52.656 48.5022 52.6047 48.447C52.5834 48.4173 52.5492 48.3918 52.5192 48.3663L52.4038 48.2558C52.0148 47.9075 51.7455 47.504 51.489 47.1047C51.006 46.2933 50.6726 45.448 50.4332 44.5857C50.1895 43.7233 50.0185 42.8525 49.933 41.952C49.9159 41.7268 49.8988 41.4975 49.8946 41.2638L49.886 40.6351C49.8775 40.2189 49.8561 39.7941 49.839 39.3735L49.7065 36.8333C49.6894 36.4765 49.9587 36.1749 50.3135 36.1579C50.664 36.1409 50.959 36.4043 50.9889 36.7483H50.9932Z" fill="#472114"/>
<path d="M13.1107 15.3178C13.0637 19.5742 15.0215 22.3778 15.0215 22.3778L15.2267 22.501C15.9106 21.7194 17.099 21.0057 18.4199 20.3855C19.4715 19.897 20.6043 19.468 21.6345 19.1196C23.7419 18.406 24.7849 16.0612 23.9257 14.018C23.0665 11.9747 21.9508 10.1609 20.8479 8.65713C20.0101 7.51445 19.1808 6.54594 18.484 5.79406C17.5222 4.75758 15.8123 5.0167 15.1968 6.29106C14.2478 8.26633 13.1492 11.3843 13.1064 15.322L13.1107 15.3178Z" fill="#FF8261"/>
<path d="M15.0682 22.0337C15.0896 21.97 15.1067 21.919 15.1366 21.8766L15.1494 21.8596L15.1836 21.8256L15.252 21.7619L15.3888 21.6344C15.4786 21.5452 15.5769 21.473 15.6709 21.3923C15.765 21.3116 15.8633 21.2351 15.9616 21.1672C16.3549 20.8741 16.7653 20.6234 17.1799 20.3856C18.0092 19.9098 18.8727 19.5232 19.7447 19.1664C20.1807 18.988 20.621 18.8223 21.0613 18.6609L21.7239 18.4273C21.8094 18.3891 21.8992 18.3593 21.9804 18.3211C22.0616 18.2744 22.1471 18.2404 22.2241 18.1894C22.8524 17.8029 23.3013 17.1317 23.391 16.4053C23.4381 16.0442 23.4081 15.6747 23.297 15.3263C23.2799 15.2456 23.2286 15.1267 23.1901 15.0247L23.0704 14.7104C22.9935 14.5023 22.9166 14.2899 22.8268 14.086C22.5019 13.2534 22.1044 12.4505 21.6854 11.6562C20.8348 10.0802 19.8302 8.58072 18.6718 7.20865C18.3811 6.86882 18.0861 6.52899 17.7784 6.2104L17.5475 5.97252L17.492 5.9173L17.4578 5.88331C17.4321 5.86632 17.4107 5.84508 17.3851 5.82809C17.2825 5.76013 17.1628 5.71765 17.0388 5.70915C16.9106 5.7049 16.8037 5.7134 16.6669 5.77712C16.5173 5.84508 16.3763 5.93854 16.2395 6.05323C15.9702 6.28686 15.7393 6.6097 15.5555 6.97077C15.4615 7.15768 15.3803 7.33184 15.299 7.54848C15.2135 7.75663 15.1323 7.96477 15.0597 8.17717C14.9015 8.59771 14.7604 9.02674 14.6279 9.45578C14.3629 10.3138 14.1406 11.1847 13.9696 12.064C13.6362 13.8183 13.4866 15.6237 13.7644 17.3568C13.9012 18.2064 14.1577 19.0857 14.4355 19.9395C14.5766 20.3643 14.7305 20.7849 14.91 21.1757C14.9998 21.3711 15.0939 21.5622 15.2007 21.7279C15.252 21.8129 15.3076 21.8893 15.3589 21.953L15.3974 21.9998L15.4273 22.0295C15.4273 22.0295 15.4401 22.038 15.4444 22.0465C15.4444 22.0465 15.4401 22.0422 15.4358 22.0422C15.4358 22.0422 15.423 22.0337 15.4145 22.0337H15.3974C15.3974 22.0337 15.1665 21.97 15.0725 22.0295L15.0682 22.0337ZM15.3931 22.9725C15.2948 23.0277 15.0468 22.9768 15.0511 22.964L15.0169 22.9513C14.9955 22.9428 14.9656 22.93 14.9571 22.9215C14.9271 22.9046 14.9015 22.8876 14.8716 22.8706C14.8331 22.8408 14.7861 22.8069 14.7561 22.7771L14.6621 22.6879L14.5852 22.603C14.4911 22.4883 14.4099 22.3778 14.3415 22.2674C14.2004 22.0465 14.0893 21.8256 13.9824 21.6047C13.773 21.1629 13.6063 20.7211 13.4524 20.2751C13.2985 19.8291 13.1574 19.3831 13.0334 18.9328L12.9351 18.5972L12.8496 18.2446C12.7941 18.011 12.7342 17.7731 12.7043 17.5352C12.3794 15.6322 12.5205 13.7164 12.8454 11.8643C13.0121 10.9383 13.2301 10.025 13.4994 9.12444C13.6319 8.67417 13.7772 8.22814 13.9354 7.78211C14.0124 7.56122 14.0936 7.34034 14.1791 7.11945C14.256 6.90705 14.3629 6.65643 14.474 6.43129C14.7049 5.97252 15.0041 5.52224 15.423 5.14418C15.6367 4.95728 15.8761 4.78736 16.1497 4.66417C16.4318 4.52399 16.7909 4.45178 17.1243 4.47302C17.462 4.49426 17.7912 4.6047 18.0776 4.78311C18.1503 4.82984 18.2144 4.88082 18.2828 4.93179L18.3768 5.01675L18.4452 5.08471L18.6974 5.33959C19.0309 5.67942 19.3472 6.02774 19.6592 6.38456C20.2748 7.09821 20.8519 7.84583 21.3905 8.62319C21.9291 9.40056 22.4292 10.1992 22.8695 11.036C23.3098 11.8686 23.7245 12.7181 24.0665 13.5975C24.1605 13.8141 24.2417 14.035 24.3187 14.2601L24.4383 14.5957C24.4768 14.7104 24.5196 14.8039 24.5538 14.9483C24.7119 15.4793 24.7547 16.0485 24.6692 16.5922C24.511 17.6924 23.8228 18.6864 22.8653 19.2471C22.7498 19.3193 22.6216 19.3746 22.4976 19.4383C22.3737 19.4935 22.2412 19.5402 22.1129 19.587L21.4632 19.7994C21.0314 19.9395 20.6039 20.0925 20.1807 20.2539C19.3344 20.5725 18.5008 20.9293 17.7142 21.3413C17.321 21.5495 16.9362 21.7661 16.5814 22.0125C16.4874 22.072 16.4019 22.1357 16.3207 22.1994C16.2352 22.2631 16.1454 22.3268 16.0685 22.3948L15.9488 22.4968L15.8889 22.5477L15.859 22.5732L15.812 22.6199C15.6838 22.7431 15.5427 22.8621 15.4016 22.964L15.3931 22.9725Z" fill="#472114"/>
<path d="M53.5364 27.4328C51.2067 31.0053 48.0135 32.2669 48.0135 32.2669L47.7741 32.2541C47.6373 31.2304 47.0474 29.9815 46.2908 28.7369C45.6881 27.7514 44.9785 26.7744 44.3159 25.9163C42.9565 24.1619 43.3925 21.6344 45.2435 20.4068C47.0987 19.1792 49.0352 18.2786 50.7921 17.6287C52.1258 17.1359 53.3526 16.7876 54.3572 16.5412C55.7379 16.2057 57.016 17.3611 56.8194 18.7586C56.5116 20.925 55.6951 24.1279 53.5364 27.4328Z" fill="#FF8261"/>
<path d="M47.3807 32.5557C47.3208 32.3943 47.2652 32.2201 47.2268 32.0459L47.2139 31.9822L47.2054 31.944L47.184 31.8675L47.1413 31.7146C47.1156 31.6127 47.0772 31.5149 47.043 31.413C47.0088 31.3111 46.9746 31.2133 46.9275 31.1114C46.7694 30.7079 46.5685 30.317 46.3547 29.9262C45.923 29.1489 45.4314 28.397 44.9013 27.6664C44.6363 27.3011 44.3627 26.94 44.0849 26.5832L43.6617 26.0522C43.5804 25.9417 43.4992 25.8313 43.4223 25.7166C43.3539 25.5977 43.2769 25.483 43.2214 25.3555C42.7383 24.3615 42.717 23.1551 43.1957 22.1526C43.4308 21.6514 43.7771 21.2011 44.2088 20.8443C44.32 20.7466 44.4055 20.6914 44.5038 20.6149L44.7902 20.4025C44.9783 20.2581 45.1706 20.1179 45.3673 19.9905C46.141 19.4467 46.9617 18.9667 47.791 18.5122C48.6203 18.0577 49.4838 17.6669 50.3644 17.3143C51.245 16.9617 52.1384 16.6559 53.0532 16.401C53.5106 16.2736 53.968 16.1546 54.4382 16.0569L54.7887 15.9847L54.8828 15.9677L55.0067 15.9507C55.0922 15.9422 55.1734 15.938 55.2589 15.938C55.5966 15.9422 55.9343 16.0314 56.225 16.2014C56.5157 16.3628 56.7765 16.6261 56.9303 16.8938C57.0885 17.1486 57.1954 17.4205 57.268 17.6924C57.4091 18.2403 57.4091 18.7798 57.345 19.2896C57.3108 19.5402 57.2638 19.8036 57.2082 20.0244C57.1569 20.2538 57.1013 20.4832 57.0415 20.7126C56.9261 21.1671 56.7978 21.6216 56.6568 22.0677C56.3789 22.964 56.054 23.8475 55.6736 24.7099C54.917 26.4302 53.968 28.1039 52.6343 29.51C52.4761 29.6926 52.2966 29.854 52.117 30.0197L51.852 30.2661L51.5827 30.4955C51.2279 30.8013 50.8603 31.0944 50.4841 31.3833C50.1079 31.6679 49.7189 31.9482 49.3 32.1989C49.0905 32.3263 48.8725 32.4452 48.6331 32.5514C48.5135 32.6067 48.3852 32.6534 48.2441 32.6959L48.133 32.7256L48.009 32.7468C47.9663 32.7553 47.9107 32.7553 47.8594 32.7596C47.8295 32.7596 47.7953 32.7596 47.7611 32.7596C47.7483 32.7596 47.7184 32.7553 47.6927 32.7511L47.6542 32.7426C47.6542 32.7426 47.4149 32.6576 47.3636 32.5599L47.3807 32.5557ZM48.1715 31.9525C48.1287 31.8548 47.8979 31.7613 47.9022 31.7741H47.8851L47.8594 31.7656C47.8594 31.7656 47.8509 31.7656 47.8466 31.7656C47.8552 31.7656 47.8551 31.7656 47.8722 31.7656L47.915 31.7571L47.9706 31.7401C48.0475 31.7146 48.1373 31.6806 48.227 31.6381C48.4066 31.5574 48.5947 31.4512 48.7785 31.3365C49.1461 31.1072 49.5052 30.8438 49.86 30.5677C50.561 30.0112 51.2706 29.4165 51.8563 28.7836C53.0489 27.4922 53.9295 25.9078 54.6263 24.2596C54.9725 23.4355 55.276 22.5859 55.5282 21.7236C55.6565 21.2946 55.7762 20.857 55.8788 20.4237C55.9343 20.2071 55.9814 19.9862 56.0284 19.7696C56.0797 19.5444 56.1096 19.3533 56.1353 19.1494C56.1823 18.7458 56.1652 18.3508 56.0754 18.011C56.0284 17.841 55.96 17.6839 55.8745 17.5437C55.7975 17.4162 55.7163 17.3483 55.6052 17.2803C55.4983 17.2208 55.3701 17.1911 55.2504 17.1911C55.2205 17.1911 55.1905 17.1911 55.1563 17.1954L55.1093 17.2039L55.0324 17.2208L54.7075 17.2931C54.2715 17.3908 53.8355 17.5097 53.4037 17.6329C51.6767 18.1426 50.0053 18.8393 48.4194 19.6846C47.6286 20.1137 46.8506 20.5682 46.1153 21.0822C45.9273 21.2054 45.7477 21.337 45.5639 21.4687L45.2903 21.6641C45.2048 21.7278 45.0937 21.8001 45.0338 21.8553C44.7474 22.0847 44.5166 22.3735 44.3542 22.7006C44.0207 23.3548 44.025 24.1619 44.3328 24.8288C44.367 24.9138 44.4226 24.9902 44.461 25.0709C44.5081 25.1474 44.5679 25.2238 44.6192 25.3003L45.0424 25.8568C45.3245 26.2306 45.5938 26.6129 45.8589 26.9995C46.3847 27.7726 46.8891 28.5712 47.3208 29.425C47.5345 29.8498 47.7355 30.2873 47.8979 30.7461C47.9406 30.8608 47.9791 30.9755 48.0133 31.0944C48.0475 31.2133 48.0903 31.328 48.1159 31.4512L48.1587 31.6339L48.18 31.7231L48.1929 31.7698V31.7911C48.1929 31.842 48.1843 31.893 48.1629 31.9567L48.1715 31.9525Z" fill="#472114"/>
<path d="M29.8675 48.2729C29.0126 51.5225 26.9393 53.8036 25.238 53.3618C23.5367 52.92 22.8484 49.9253 23.6991 46.6757" fill="#FF6C6C"/>
<path d="M25.6653 53.4977C25.5157 53.4977 25.3661 53.4808 25.2165 53.4425C23.4724 52.9922 22.7542 49.9465 23.6177 46.6544L23.7802 46.6969C22.938 49.8998 23.6006 52.8521 25.2592 53.2811C26.9178 53.7101 28.9483 51.4545 29.7861 48.2516L29.9486 48.2941C29.1577 51.3058 27.3111 53.4977 25.6653 53.4977Z" fill="#390075"/>
<path d="M29.6496 49.0035C29.2991 50.0528 28.8246 50.9745 28.286 51.6967C27.3541 52.9498 26.2341 53.621 25.2381 53.3618C24.2421 53.1027 23.5923 51.9728 23.4 50.4266C23.2846 49.5345 23.323 48.498 23.5325 47.4191L29.6496 49.0035Z" fill="#ED2E7A"/>
<path d="M25.8106 51.1868C25.7508 50.8725 25.7465 50.5709 25.7593 50.2735C25.7679 49.9762 25.8106 49.6873 25.8534 49.3985C25.9431 48.8208 26.0543 48.2473 26.2424 47.6951C26.3279 47.4487 26.5929 47.3213 26.8408 47.402C27.0631 47.4784 27.1956 47.7036 27.1529 47.9287C27.046 48.5022 26.8622 49.0544 26.657 49.6024C26.5501 49.8742 26.4476 50.1504 26.3065 50.4137C26.1697 50.6771 26.0201 50.9405 25.8106 51.1868Z" fill="#390075"/>
<path d="M25.8063 53.9905C25.5669 53.9905 25.3318 53.9608 25.0967 53.9013C24.0921 53.6422 23.2971 52.8648 22.8653 51.7179C22.4592 50.6389 22.4165 49.3433 22.7542 48.069C22.8311 47.7716 23.1389 47.5932 23.4424 47.6697C23.7416 47.7461 23.9212 48.052 23.8442 48.3536C23.5664 49.4028 23.5963 50.4605 23.9212 51.3271C24.2204 52.1257 24.7419 52.6567 25.3831 52.8223C26.7596 53.1792 28.3797 51.7349 28.9226 49.6704C28.9995 49.3731 29.3073 49.1904 29.6108 49.2711C29.91 49.3476 30.0896 49.6534 30.0126 49.955C29.3885 52.3338 27.5974 53.9948 25.8106 53.9948L25.8063 53.9905Z" fill="#472114"/>
<g opacity="0.3">
<path d="M23.5323 47.4148C23.3442 48.3706 23.2929 49.2881 23.3656 50.1037C23.4084 50.1122 23.4426 50.1249 23.4853 50.1292C25.3576 50.3926 26.281 49.2329 26.281 49.2329L26.3152 49.2414C26.3152 49.2414 26.5417 50.7239 28.3157 51.3781C28.367 51.3993 28.4183 51.412 28.4696 51.429C28.9313 50.7494 29.3417 49.921 29.6494 48.9993L23.5323 47.4148Z" fill="#390075"/>
</g>
<path d="M32.2186 48.2218C31.5859 49.9167 30.2522 50.4859 28.7091 49.8912C26.9436 49.2116 26.8538 47.6653 26.8795 47.1046L26.8453 47.0961C26.5931 47.5974 25.751 48.9057 23.8786 48.6424C22.2372 48.4087 21.3523 47.266 21.6344 45.4819" fill="white"/>
<path d="M29.846 50.2014C29.4741 50.2014 29.0808 50.1249 28.679 49.9677C27.0973 49.3603 26.8152 48.0817 26.7938 47.3553C26.4177 47.9797 25.5499 48.9567 23.8657 48.7231C23.0407 48.6084 22.3866 48.2558 21.9848 47.7121C21.5616 47.1429 21.412 46.3655 21.5531 45.4692L21.7155 45.4947C21.5787 46.3485 21.7155 47.0834 22.1173 47.6144C22.4935 48.1242 23.109 48.4512 23.8913 48.5617C25.6867 48.8166 26.5032 47.5974 26.7725 47.0622L26.8024 47.0027L26.9691 47.0452V47.1132C26.9349 47.7121 27.0503 49.1691 28.7431 49.8191C29.4784 50.1037 30.1751 50.1164 30.7565 49.853C31.3635 49.5812 31.8465 49.0077 32.15 48.1964L32.3039 48.2516C31.9876 49.1054 31.4746 49.7086 30.8249 50.0017C30.5257 50.1377 30.2008 50.2014 29.8545 50.2014H29.846Z" fill="#390075"/>
<g opacity="0.3">
<path d="M32.2186 48.2218C31.5859 49.9125 30.2522 50.4859 28.7091 49.8912C26.9436 49.2116 26.8538 47.6653 26.8795 47.1046L26.8453 47.0961C26.5931 47.5974 25.751 48.9057 23.8786 48.6424C22.2372 48.413 21.3523 47.266 21.6344 45.4819L21.69 45.4947C21.9422 45.5584 22.1388 45.7368 22.2628 45.9619C22.6304 46.6374 23.3187 47.0706 24.2548 47.2023C25.2038 47.3383 25.8835 47.0706 26.3622 46.7053L27.495 46.9984C27.7344 47.5464 28.1961 48.1114 29.0895 48.4512C29.9744 48.791 30.7866 48.7528 31.4406 48.3365C31.6586 48.2006 31.9194 48.1411 32.1673 48.2048L32.2229 48.2176L32.2186 48.2218Z" fill="#390075"/>
</g>
<path d="M32.308 48.2559C32.2824 48.6084 32.1926 48.961 32.0259 49.2966C31.8634 49.6322 31.6198 49.9508 31.2906 50.1929C30.97 50.4435 30.5639 50.6049 30.1536 50.6644C29.7432 50.7239 29.3285 50.6942 28.9481 50.5964C28.8498 50.5752 28.7557 50.5497 28.666 50.5157C28.5762 50.486 28.4821 50.4563 28.3924 50.4138L28.1231 50.2949L27.8623 50.1462C27.5203 49.9338 27.2126 49.6534 26.9689 49.3263C26.7252 48.995 26.55 48.6212 26.4474 48.2389C26.3448 47.8566 26.302 47.4658 26.3149 47.0707L26.7381 47.6442L26.7039 47.6357L27.3536 47.3426C27.1741 47.6951 26.9561 48.018 26.6739 48.3068C26.3961 48.5915 26.0584 48.8378 25.6779 49.0077C25.3018 49.1777 24.8871 49.2669 24.4853 49.2839C24.387 49.2839 24.2844 49.2839 24.1861 49.2839L23.8911 49.2541C23.7928 49.2456 23.6988 49.2286 23.6004 49.2116C23.5064 49.1946 23.4081 49.1734 23.314 49.1437C22.9336 49.0417 22.5531 48.8761 22.224 48.6212C21.8906 48.3748 21.6084 48.0392 21.4374 47.6654C21.2664 47.2916 21.2066 46.8881 21.2322 46.51C21.2622 46.1319 21.3648 45.7794 21.5358 45.4608C21.5614 45.414 21.6212 45.3928 21.6725 45.4225C21.6982 45.4353 21.7153 45.4608 21.7238 45.4905C21.8649 46.1702 22.0273 46.7606 22.3437 47.1684C22.4976 47.3723 22.6771 47.5465 22.8908 47.6782C23.1088 47.8056 23.3525 47.9033 23.6218 47.9628C24.169 48.0902 24.7247 48.0902 25.1949 47.9033C25.6651 47.7249 26.0798 47.3256 26.332 46.8371V46.8286C26.4602 46.5907 26.7338 46.476 26.9817 46.544L27.0159 46.5525H27.0245C27.2852 46.6247 27.4519 46.8668 27.4391 47.1259C27.4049 47.6697 27.5674 48.2304 27.8922 48.6169C28.2128 49.012 28.7087 49.2669 29.2473 49.4283C29.7774 49.5855 30.2903 49.5897 30.7777 49.3816C31.2735 49.1777 31.7053 48.7231 32.1242 48.1879C32.1584 48.1454 32.2182 48.1369 32.261 48.1667C32.2866 48.1879 32.2995 48.2176 32.2995 48.2516L32.308 48.2559Z" fill="#472114"/>
<path d="M50.3518 37.4493C50.1038 37.4493 49.8645 37.3091 49.7533 37.0712C49.5952 36.7441 49.7362 36.3491 50.0696 36.1919C57.4905 32.6874 60.9488 20.445 59.2731 14.3153C58.914 12.9985 58.1446 11.4523 56.5416 11.5924C49.1677 12.2254 42.8497 17.3865 39.742 20.4068C39.4812 20.6617 39.058 20.6574 38.8015 20.3983C38.5451 20.1392 38.5493 19.7186 38.8101 19.4638C42.046 16.3203 48.6334 10.9468 56.4219 10.2756C58.3839 10.1099 59.8544 11.4183 60.5469 13.967C61.4361 17.2294 60.983 22.0507 59.3629 26.545C57.4777 31.7656 54.3786 35.6142 50.6296 37.3813C50.5399 37.4238 50.4415 37.445 50.3432 37.445L50.3518 37.4493Z" fill="#472114"/>
<path d="M11.4265 27.4413C11.2213 27.4413 11.0204 27.3478 10.8879 27.1694C8.44274 23.8263 7.59635 18.9625 8.50259 13.4742C9.26776 8.82706 11.2811 4.26484 13.6322 1.8563C15.5045 -0.0637425 17.441 -0.514017 19.0868 0.598926C25.5629 4.97424 28.6706 12.8753 29.9445 17.1954C30.0471 17.5437 29.8462 17.9133 29.4956 18.0152C29.1409 18.1172 28.7732 17.9175 28.6706 17.5692C27.4481 13.419 24.4771 5.83656 18.343 1.69488C17.0007 0.785833 15.5601 1.78408 14.5855 2.78233C10.5929 6.87729 6.8269 19.3703 11.9651 26.4005C12.1788 26.6936 12.1147 27.1099 11.8198 27.3223C11.7001 27.4073 11.5633 27.4498 11.4308 27.4498L11.4265 27.4413Z" fill="#472114"/>
<g opacity="0.3">
<path d="M48.6374 54.9208C45.9913 55.5282 42.251 57.5715 41.5285 57.8264C40.8018 58.0855 34.5009 60.9315 23.9638 58.2002C19.5822 57.0617 16.3163 55.4433 13.9567 53.8928C10.6395 51.7179 9.11774 49.6832 8.82279 49.3433C8.31837 48.7656 6.06133 45.1677 4.05222 43.3538C2.04311 41.5357 1.24802 40.0362 2.8724 39.4883C3.12888 39.4033 3.35972 39.3226 3.56918 39.2546C7.57457 44.4498 14.8886 52.2234 24.8572 54.8061C34.8258 57.3888 45.0295 54.1647 51.0782 51.5735C51.2278 51.7349 51.3903 51.9176 51.5698 52.1172C52.7154 53.3873 51.2834 54.3091 48.6374 54.9166V54.9208Z" fill="#390075"/>
</g>
<path d="M27.089 46.7988C27.042 46.7988 26.995 46.7946 26.9479 46.7818C26.6487 46.7054 26.4692 46.3995 26.5461 46.0979L27.0121 44.3181C27.089 44.0207 27.3968 43.8381 27.7003 43.9188C27.9995 43.9952 28.1791 44.3011 28.1021 44.6027L27.6362 46.3826C27.5721 46.6332 27.3412 46.7988 27.0933 46.7988H27.089Z" fill="#390075"/>
<path d="M30.9276 44.8235C30.6497 45.8728 28.7731 46.8922 26.9094 46.408C25.0456 45.9237 23.9042 44.1226 24.1821 43.0734C24.46 42.0242 25.9903 42.3258 27.8541 42.81C29.7178 43.2943 31.2054 43.7743 30.9276 44.8235Z" fill="#390075"/>
<path d="M29.0898 44.0249C29.0299 44.2543 28.2947 44.3944 27.4825 44.1863C26.6746 43.9781 26.0975 43.4981 26.1616 43.2687C26.2257 43.0394 26.884 43.188 27.6919 43.4004C28.4999 43.6086 29.1496 43.7997 29.0898 44.0291V44.0249Z" fill="white"/>
<path d="M28.2688 44.3647C28.0124 44.3647 27.7345 44.3308 27.4652 44.2585C26.6744 44.0546 26.0075 43.5619 26.0887 43.2475C26.14 43.0479 26.435 43.0649 26.6573 43.0904C26.9223 43.1244 27.2686 43.2093 27.7131 43.324C28.6407 43.5661 29.2435 43.7445 29.1665 44.0461C29.1281 44.1948 28.9143 44.3053 28.5809 44.3477C28.4826 44.3605 28.38 44.3647 28.2731 44.3647H28.2688ZM26.435 43.2263C26.2683 43.2263 26.2384 43.2688 26.2341 43.2858C26.1913 43.4472 26.7 43.906 27.5037 44.1141C27.867 44.2076 28.2432 44.2373 28.5595 44.1991C28.8502 44.1608 28.9998 44.0759 29.0169 44.0079C29.0639 43.8295 28.1235 43.5874 27.6704 43.4684C27.2344 43.3537 26.8924 43.273 26.6359 43.239C26.5504 43.2263 26.4863 43.2221 26.435 43.2221V43.2263Z" fill="#390075"/>
<path d="M23.2484 37.3219C24.0142 33.9992 22.7247 30.8708 20.3682 30.3344C18.0117 29.7981 15.4806 32.057 14.7148 35.3797C13.9489 38.7025 15.2384 41.8309 17.5949 42.3672C19.9514 42.9035 22.4826 40.6447 23.2484 37.3219Z" fill="#472114"/>
<path d="M21.5789 35.9478C21.8361 34.8318 21.4681 33.7959 20.7571 33.6341C20.046 33.4722 19.261 34.2457 19.0038 35.3617C18.7466 36.4777 19.1145 37.5135 19.8256 37.6754C20.5367 37.8372 21.3217 37.0637 21.5789 35.9478Z" fill="white"/>
<path d="M42.5331 41.1151C42.0201 41.1278 41.4901 41.1618 40.9942 41.234C40.4941 41.3063 40.0067 41.4125 39.5408 41.5569C39.3057 41.6249 39.0834 41.7183 38.8611 41.799C38.6474 41.9052 38.4251 41.9902 38.2199 42.1176C37.7967 42.3342 37.4248 42.6358 37.0572 42.9374L36.4587 41.7523C36.6212 41.731 36.7281 41.7268 36.852 41.7268C36.976 41.7268 37.0914 41.7268 37.2111 41.731C37.4505 41.7438 37.6856 41.7735 37.9164 41.8118C38.3781 41.8925 38.8312 42.0369 39.2544 42.2365C39.6733 42.4447 40.0751 42.6826 40.4128 42.9927C40.7676 43.2858 41.0498 43.6468 41.2934 44.0122C41.3661 44.1226 41.3362 44.2713 41.225 44.3435C41.1438 44.3987 41.0412 44.3945 40.9643 44.3435L40.9386 44.3265C40.7634 44.2161 40.6052 44.0886 40.4342 43.9867C40.259 43.8847 40.0965 43.7785 39.9213 43.6936C39.575 43.5152 39.2159 43.375 38.8526 43.2773C38.4892 43.1711 38.1173 43.1116 37.7454 43.0819C37.5573 43.0691 37.3735 43.0649 37.1897 43.0691C37.1 43.0691 37.0059 43.0734 36.9161 43.0819C36.8306 43.0861 36.7281 43.1031 36.681 43.1116H36.6682C36.2878 43.1711 35.933 42.9162 35.8731 42.5381C35.8346 42.3045 35.9244 42.0794 36.0868 41.9264C36.5229 41.5187 36.9931 41.1321 37.536 40.8602C37.7967 40.7031 38.0831 40.6096 38.361 40.4949C38.6474 40.41 38.9338 40.3165 39.2288 40.274C39.8144 40.1636 40.4043 40.1381 40.9814 40.2018C41.5585 40.2698 42.1142 40.393 42.6528 40.6478C42.7725 40.7031 42.8238 40.8475 42.7682 40.9664C42.7297 41.0514 42.6442 41.1024 42.5545 41.1024H42.5288L42.5331 41.1151Z" fill="#472114"/>
<path d="M51.6385 65.1709C35.0997 67.9872 18.2018 67.9872 1.66297 65.1709L0.718262 57.4227C17.8983 60.1371 35.4032 60.1371 52.5832 57.4227L51.6385 65.1709Z" fill="#BC9D86"/>
<path d="M52.5831 57.4186L51.6341 65.1667C35.0953 67.983 18.1974 67.983 1.65858 65.1667L1.53461 64.1515L1.35507 62.6902L0.713867 57.4186C3.68906 57.8901 6.6728 58.2767 9.66082 58.5825C14.0894 59.037 18.5308 59.3131 22.9765 59.4108C24.1991 59.4406 25.4216 59.4533 26.6442 59.4533C28.0164 59.4533 29.3886 59.4363 30.7607 59.4023C35.2022 59.2919 39.6436 59.003 44.0679 58.54C45.7863 58.3574 47.5005 58.1492 49.2104 57.9156C49.454 57.8816 49.702 57.8476 49.9456 57.8136C50.8219 57.6904 51.6982 57.5588 52.5746 57.4186H52.5831Z" fill="#D87C36"/>
<path d="M52.5831 57.4186L51.6341 65.1667C35.0953 67.983 18.1974 67.983 1.65858 65.1667L1.53461 64.1515L1.35507 62.6902L0.713867 57.4186C3.68906 57.8901 6.6728 58.2767 9.66082 58.5825C14.0894 59.037 18.5308 59.3131 22.9765 59.4108C24.1991 59.4406 25.4216 59.4533 26.6442 59.4533C28.0164 59.4533 29.3886 59.4363 30.7607 59.4023C35.2022 59.2919 39.6436 59.003 44.0679 58.54C45.7863 58.3574 47.5005 58.1492 49.2104 57.9156C49.454 57.8816 49.702 57.8476 49.9456 57.8136C50.8219 57.6904 51.6982 57.5588 52.5746 57.4186H52.5831Z" fill="#D87C36"/>
<g opacity="0.6">
<path d="M2.26558 61.573C2.15444 62.4481 1.94071 63.4038 1.53461 64.1515L1.35507 62.6902L0.713867 57.4186C3.68906 57.8901 6.6728 58.2767 9.66082 58.5825C14.0894 59.037 18.5308 59.3131 22.9765 59.4108C24.1991 59.4406 25.4216 59.4533 26.6442 59.4533C28.0164 59.4533 29.3886 59.4363 30.7607 59.4023C35.2022 59.2919 39.6436 59.003 44.0679 58.54C45.7863 58.3574 47.5005 58.1492 49.2104 57.9156C35.4116 62.7582 12.6018 60.4601 4.95437 59.4915C3.62921 59.3259 2.42802 60.2604 2.26131 61.5773L2.26558 61.573Z" fill="white"/>
</g>
<path d="M26.6486 68C18.2573 68 9.87037 67.2906 1.53897 65.8718C1.22692 65.8208 0.987536 65.5702 0.949064 65.2559L0.00435469 57.5035C-0.0212935 57.2826 0.0556511 57.0617 0.21809 56.9045C0.380528 56.7516 0.607088 56.6794 0.825098 56.7134C17.9581 59.4193 35.3348 59.4193 52.4678 56.7134C52.6901 56.6794 52.9166 56.7474 53.0748 56.9045C53.2372 57.0575 53.3142 57.2826 53.2885 57.5035L52.3438 65.2516C52.3053 65.5617 52.0659 65.8123 51.7539 65.8676C43.4225 67.2864 35.0355 67.9958 26.6443 67.9958L26.6486 68ZM2.30842 64.555C18.4625 67.2481 34.8346 67.2481 50.993 64.555L51.7582 58.2639C35.0911 60.7998 18.206 60.7998 1.53897 58.2639L2.30414 64.555H2.30842Z" fill="#472114"/>
<path d="M52.583 57.4185L51.634 65.1667C35.0952 67.983 18.1973 67.983 1.65848 65.1667L1.35498 62.6859C3.94972 63.2126 7.09591 63.7734 10.5712 64.2151C9.0067 62.8601 8.75449 60.4897 9.665 58.5825C14.0936 59.037 18.535 59.3131 22.9807 59.4108C21.4589 59.9375 22.7114 62.3206 21.6171 64.3553C21.4803 64.6102 21.2794 64.8311 21.0186 65.0265C24.7162 65.1157 28.5164 64.984 32.2269 64.4955C32.1927 64.4488 32.167 64.402 32.1414 64.3553C31.0471 62.3121 32.3124 59.9205 30.7649 59.4023C35.2063 59.2876 39.6478 58.9987 44.0721 58.5315C44.5209 59.4575 44.7005 60.4982 44.5808 61.4753C47.6586 60.2094 49.1333 58.901 49.9498 57.8051C50.8261 57.6819 51.7024 57.5502 52.5787 57.41L52.583 57.4185Z" fill="#472114"/>
<path d="M20.9673 59.4065C20.9673 59.4065 20.2064 55.4135 12.3153 55.6216C6.80093 55.7661 5.40311 62.8005 9.4085 64.7886C12.9779 66.5599 18.4965 66.4027 19.5908 64.3553C20.6852 62.3078 19.4199 59.9205 20.9673 59.4022V59.4065Z" fill="white"/>
<g opacity="0.3">
<path d="M20.959 59.4108C19.4286 59.9333 20.6854 62.3206 19.5911 64.3596C18.4968 66.407 12.9824 66.5642 9.41302 64.7928C8.18618 64.1854 7.46803 63.1064 7.21582 61.8915C7.48085 62.1252 7.78436 62.3333 8.12206 62.5032C11.6914 64.2746 17.2058 64.1174 18.3044 62.0699C19.3346 60.1414 18.3129 57.89 20.959 59.4108Z" fill="#390075"/>
</g>
<path d="M14.9657 66.7171C12.9651 66.7171 10.7808 66.2668 9.09224 65.43C7.01901 64.402 5.99308 62.0487 6.54452 59.5807C7.01046 57.4865 8.79729 55.01 12.2983 54.9165C20.6981 54.6956 21.6342 59.0922 21.6727 59.2791C21.7411 59.6274 21.5359 59.9715 21.1982 60.0862C20.9032 60.1839 20.8391 60.4472 20.8263 61.5729C20.8178 62.482 20.8049 63.6119 20.2278 64.6994C19.4883 66.0842 17.3552 66.7256 14.97 66.7256L14.9657 66.7171ZM12.9138 56.3268C12.7257 56.3268 12.5334 56.3268 12.3367 56.3353C9.66078 56.4075 8.29715 58.2893 7.94235 59.8823C7.60465 61.3988 8.02784 63.3061 9.73345 64.1514C13.1618 65.8505 18.1589 65.5234 18.9625 64.0197C19.3772 63.2423 19.3857 62.38 19.3943 61.5474C19.4028 60.7021 19.4114 59.6911 20.0911 59.0922C19.6251 58.2044 18.0392 56.3225 12.9181 56.3225L12.9138 56.3268Z" fill="#472114"/>
<path d="M14.8719 60.6002C14.8548 60.647 14.8121 60.7786 14.7907 60.8848C14.765 61.0038 14.7394 61.1227 14.7223 61.2459C14.6838 61.4923 14.6582 61.7387 14.6454 61.9893C14.6154 62.4863 14.6283 62.9875 14.7052 63.459C14.7779 63.9306 14.9147 64.3808 15.1369 64.7122C15.3592 65.052 15.6371 65.2347 15.9791 65.3069C16.3681 65.3918 16.6117 65.7699 16.5305 66.1564C16.445 66.543 16.0646 66.7851 15.6756 66.7044C15.6499 66.7002 15.62 66.6917 15.5943 66.6832L15.5687 66.6747C15.2353 66.56 14.9104 66.3731 14.6496 66.1352C14.3846 65.8973 14.1837 65.6085 14.0383 65.3154C13.7477 64.7249 13.6579 64.1302 13.6323 63.5567C13.6066 62.9833 13.6622 62.4268 13.7519 61.8831C13.799 61.6112 13.8588 61.3436 13.9315 61.076C13.9657 60.9443 14.0127 60.8084 14.0554 60.6724C14.111 60.5323 14.1452 60.4133 14.2564 60.2264C14.3589 60.0607 14.5727 60.0055 14.7437 60.1075C14.8933 60.1967 14.9531 60.3793 14.8933 60.5365L14.8676 60.6045L14.8719 60.6002Z" fill="#472114"/>
<path d="M10.9263 60.2519C10.8365 60.4346 10.7468 60.6724 10.6698 60.8933C10.5929 61.1185 10.5287 61.3521 10.4732 61.5815C10.3663 62.0445 10.2979 62.5118 10.3065 62.9578C10.3107 63.4038 10.3962 63.8244 10.5758 64.143C10.7553 64.4615 11.0246 64.6612 11.3666 64.7971C11.7342 64.9416 11.9137 65.3579 11.7641 65.7232C11.6188 66.0885 11.1999 66.2669 10.8322 66.1182C10.8066 66.1097 10.7809 66.097 10.7596 66.0842H10.751C10.4689 65.9271 10.1953 65.7317 9.96876 65.4853C9.73792 65.2432 9.55838 64.9543 9.43869 64.657C9.19931 64.058 9.17794 63.4506 9.23351 62.8983C9.29335 62.3419 9.43869 61.8194 9.61823 61.3224C9.708 61.0717 9.81059 60.8296 9.92601 60.5917C10.0414 60.3496 10.1526 60.1287 10.3193 59.8738C10.4261 59.7082 10.6484 59.6615 10.8151 59.7719C10.969 59.8696 11.0203 60.0692 10.9391 60.2264L10.9263 60.2477V60.2519Z" fill="#472114"/>
<path d="M32.9409 59.4065C32.9409 59.4065 33.7018 55.4135 41.5929 55.6216C47.1073 55.7661 48.5051 62.8005 44.4997 64.7886C40.9303 66.5599 35.4117 66.4027 34.3174 64.3553C33.223 62.3078 34.4884 59.9205 32.9409 59.4022V59.4065Z" fill="white"/>
<g opacity="0.3">
<path d="M32.9492 59.4108C34.4796 59.9333 33.2228 62.3206 34.3171 64.3596C35.4114 66.407 40.9258 66.5642 44.4952 64.7928C45.722 64.1854 46.4402 63.1064 46.6924 61.8915C46.4274 62.1252 46.1239 62.3333 45.7861 62.5032C42.2168 64.2746 36.7024 64.1174 35.6038 62.0699C34.5736 60.1414 35.5953 57.89 32.9492 59.4108Z" fill="#390075"/>
</g>
<path d="M38.9424 66.7171C36.5571 66.7171 34.4241 66.0757 33.6845 64.6909C33.1032 63.6077 33.0946 62.4735 33.0861 61.5644C33.0732 60.443 33.0091 60.1754 32.7142 60.0777C32.3765 59.963 32.1713 59.6189 32.2397 59.2706C32.2739 59.0837 33.2143 54.6914 41.6141 54.908C45.1151 55.0015 46.9019 57.478 47.3678 59.5722C47.9193 62.0445 46.8934 64.3935 44.8201 65.4215C43.1273 66.2583 40.9472 66.7086 38.9467 66.7086L38.9424 66.7171ZM33.8213 59.0964C34.501 59.6954 34.5095 60.7064 34.5181 61.5517C34.5266 62.3843 34.5352 63.2466 34.9498 64.024C35.7535 65.5277 40.7506 65.8548 44.1789 64.1557C45.8845 63.3103 46.3077 61.403 45.97 59.8865C45.6152 58.2936 44.2516 56.4075 41.5756 56.3396C35.98 56.1909 34.3001 58.1874 33.8213 59.1007V59.0964Z" fill="#472114"/>
<path d="M39.6434 60.2264C39.7545 60.4091 39.793 60.5323 39.8443 60.6724C39.8913 60.8084 39.9341 60.94 39.9683 61.076C40.0409 61.3436 40.1008 61.6112 40.1478 61.8831C40.2418 62.4268 40.2931 62.9833 40.2675 63.5567C40.2418 64.126 40.1521 64.7249 39.8614 65.3154C39.716 65.6085 39.5151 65.8931 39.2501 66.1352C38.9851 66.3773 38.6645 66.56 38.331 66.6747L38.3097 66.6832C37.9335 66.8106 37.5274 66.6152 37.3949 66.2456C37.2624 65.8761 37.4633 65.4683 37.8352 65.3366C37.8608 65.3281 37.8907 65.3196 37.9207 65.3111C38.2626 65.2389 38.5405 65.052 38.7628 64.7164C38.9851 64.3851 39.1219 63.9305 39.1945 63.4633C39.2715 62.9918 39.28 62.4905 39.2544 61.9935C39.2416 61.7429 39.2159 61.4965 39.1774 61.2501C39.1603 61.127 39.1347 61.008 39.109 60.8891C39.0834 60.7786 39.0449 60.6469 39.0278 60.6045L39.0022 60.5365C38.9338 60.3538 39.0235 60.1499 39.2074 60.082C39.3698 60.0183 39.5493 60.082 39.6391 60.2306L39.6434 60.2264Z" fill="#472114"/>
<path d="M43.5891 59.878C43.7558 60.1286 43.867 60.3538 43.9824 60.5959C44.0935 60.8338 44.1961 61.0759 44.2902 61.3265C44.4697 61.8235 44.615 62.346 44.6749 62.9025C44.7305 63.4547 44.7134 64.0622 44.4697 64.6611C44.35 64.9585 44.1705 65.2473 43.9396 65.4894C43.7088 65.7316 43.4395 65.9312 43.1574 66.0842C42.8111 66.2753 42.3751 66.1479 42.1827 65.8038C41.9947 65.4597 42.1186 65.0264 42.4691 64.8353C42.4948 64.8225 42.5204 64.8098 42.5461 64.8013C42.8881 64.6654 43.1574 64.4657 43.3369 64.1471C43.5164 63.8285 43.6019 63.408 43.6062 62.962C43.6105 62.5159 43.5464 62.0487 43.4395 61.5856C43.3839 61.3563 43.3198 61.1226 43.2429 60.8975C43.1702 60.6766 43.0762 60.4345 42.9864 60.2561L42.9736 60.2348C42.8881 60.0607 42.9607 59.844 43.136 59.7591C43.2984 59.6784 43.4951 59.7336 43.5934 59.8823L43.5891 59.878Z" fill="#472114"/>
</g>
<defs>
<clipPath id="clip0_18182_1866">
<rect width="61" height="68" fill="white"/>
</clipPath>
</defs>
</svg>
